<?xml version="1.0" encoding="UTF-8" standalone="no"?>
<!-- Created with Inkscape (http://www.inkscape.org/) -->

<svg
   width="500"
   height="350"
   viewBox="0 0 132.29166 92.604169"
   version="1.1"
   id="svg17197"
   inkscape:version="1.1 (c68e22c387, 2021-05-23)"
   sodipodi:docname="plombier.svg"
   xmlns:inkscape="http://www.inkscape.org/namespaces/inkscape"
   xmlns:sodipodi="http://sodipodi.sourceforge.net/DTD/sodipodi-0.dtd"
   xmlns="http://www.w3.org/2000/svg"
   xmlns:svg="http://www.w3.org/2000/svg">
  <sodipodi:namedview
     id="namedview17199"
     pagecolor="#505050"
     bordercolor="#eeeeee"
     borderopacity="1"
     inkscape:pageshadow="0"
     inkscape:pageopacity="0"
     inkscape:pagecheckerboard="0"
     inkscape:document-units="mm"
     showgrid="false"
     inkscape:zoom="1.28"
     inkscape:cx="608.98437"
     inkscape:cy="162.89062"
     inkscape:window-width="1920"
     inkscape:window-height="1001"
     inkscape:window-x="-9"
     inkscape:window-y="-9"
     inkscape:window-maximized="1"
     inkscape:current-layer="layer1"
     width="500px"
     borderlayer="true"
     units="px" />
  <defs
     id="defs17194" />
  <g
     inkscape:label="Calque 1"
     inkscape:groupmode="layer"
     id="layer1">
    <path
       style="fill:#93aca7;fill-opacity:1;stroke:none;stroke-width:0.455146px;stroke-linecap:butt;stroke-linejoin:miter;stroke-opacity:1"
       d="M -0.34248616,74.784097 -0.04488526,93.478054 132.83392,93.053191 V 75.421388 Z"
       id="path39049" />
    <path
       style="fill:#536c67;fill-opacity:1;stroke:none;stroke-width:0.455146px;stroke-linecap:butt;stroke-linejoin:miter;stroke-opacity:1"
       d="M -0.04488526,93.478054 17.067167,74.571664 132.83392,75.421388 119.59069,93.902915 Z"
       id="path38806" />
    <path
       style="fill:#93aca7;fill-opacity:1;stroke:none;stroke-width:0.463792px;stroke-linecap:butt;stroke-linejoin:miter;stroke-opacity:1"
       d="M 32.786393,76.787834 17.82039,93.751718 49.068089,94.15087 63.218435,76.726357 Z"
       id="path39281" />
    <path
       style="fill:#93aca7;fill-opacity:1;stroke:none;stroke-width:0.496775px;stroke-linecap:butt;stroke-linejoin:miter;stroke-opacity:1"
       d="m 89.311864,74.14951 -15.888748,18.332061 33.174324,0.431343 15.0228,-18.829839 z"
       id="path39281-1" />
    <path
       style="fill:#e9d6af;fill-opacity:1;stroke:none;stroke-width:0.496296px;stroke-linecap:butt;stroke-linejoin:miter;stroke-opacity:1"
       d="M -0.49128653,-0.4845802 -0.34248616,74.784097 132.83392,75.541832 132.68513,0.27315816 Z"
       id="path38804" />
    <path
       class="st3"
       d="m 75.428161,78.864576 c 0,0.59773 -1.235504,1.1207 -2.834396,1.1207 -1.598891,0 -2.834414,-0.52297 -2.834414,-1.1207 0,-0.597709 1.235523,-1.120698 2.834414,-1.120698 1.598892,0 2.834396,0.448272 2.834396,1.120698 z"
       id="path575"
       style="fill:#233865;stroke-width:0.736878" />
    <path
       class="st11"
       d="m 73.756589,78.565735 c -0.726756,0.373558 -1.526212,0.373558 -2.325672,0 V 64.893202 h 2.325672 z"
       id="path581"
       style="fill:#3e3748;fill-opacity:1;stroke-width:0.736878" />
    <path
       class="st3"
       d="m 65.47144,33.438918 h -1.526234 v -4.258634 c 0,-0.22422 0.218096,-0.448281 0.436069,-0.448281 H 64.9627 c 0.218095,0 0.436043,0.224198 0.436043,0.448281 v 4.258634 z"
       id="path587"
       style="fill:#233865;stroke-width:0.736878" />
    <path
       class="st3"
       d="m 68.087802,31.122813 h -6.686277 c -0.436069,0 -0.726779,-0.373565 -0.726779,-0.747125 v 0 c 0,-0.448279 0.363389,-0.747125 0.726779,-0.747125 h 6.686277 c 0.436047,0 0.726755,0.373561 0.726755,0.747125 v 0 c 0,0.37356 -0.363387,0.747125 -0.726755,0.747125 z"
       id="path593"
       style="fill:#233865;stroke-width:0.736878" />
    <rect
       x="56.895557"
       y="34.634323"
       class="st11"
       width="16.06159"
       height="4.7816482"
       id="rect601"
       style="fill:#3e3748;fill-opacity:1;stroke-width:0.736878" />
    <rect
       x="28.042833"
       y="35.904461"
       class="st11"
       width="69.188377"
       height="2.2413974"
       id="rect607"
       style="fill:#3e3748;stroke-width:0.736878" />
    <rect
       x="72.739113"
       y="33.812496"
       class="st3"
       width="1.5988915"
       height="6.5000525"
       id="rect613"
       style="fill:#233865;stroke-width:0.736878" />
    <rect
       x="63.218433"
       y="39.191849"
       class="st11"
       width="2.2529831"
       height="21.069134"
       id="rect619"
       style="fill:#3e3748;fill-opacity:1;stroke-width:0.736878" />
    <rect
       x="62.346313"
       y="38.220573"
       class="st11"
       width="3.9972284"
       height="6.2011986"
       id="rect625"
       style="fill:#3e3748;fill-opacity:1;stroke-width:0.736878" />
    <rect
       x="60.965485"
       y="44.122921"
       class="st3"
       width="6.8316255"
       height="1.2701253"
       id="rect631"
       style="fill:#233865;stroke-width:0.736878" />
    <rect
       x="61.692257"
       y="46.364323"
       class="st3"
       width="5.3054118"
       height="2.3161106"
       id="rect637"
       style="fill:#233865;stroke-width:0.736878" />
    <path
       class="st3"
       d="m 73.974624,68.927713 h -3.924563 v -2.913798 c 0,-0.07473 -0.07275,-0.149385 -0.145265,-0.149385 h -3.343133 c -2.252969,0 -4.069896,-1.867833 -4.069896,-4.183955 v -2.91379 h 3.924541 v 2.913801 c 0,0.07473 0.07274,0.149401 0.145266,0.149401 h 3.343157 c 2.252996,0 4.0699,1.867847 4.0699,4.183955 z"
       id="path645"
       style="fill:#233865;stroke-width:0.736878" />
    <ellipse
       class="st11"
       cx="64.744614"
       cy="37.025146"
       id="circle653"
       style="fill:#3e3748;fill-opacity:1;stroke-width:0.736878"
       rx="4.2152596"
       ry="4.3333683" />
    <path
       class="st3"
       d="m 66.8523,37.025164 c 0,1.195417 -0.944811,2.166673 -2.107638,2.166673 -1.162843,0 -2.107636,-0.971256 -2.107636,-2.166673 0,-1.195405 0.944793,-2.166678 2.107636,-2.166678 1.162827,-0.07494 2.107638,0.896549 2.107638,2.166678 z"
       id="path659"
       style="fill:#233865;stroke-width:0.736878" />
    <path
       class="st3"
       d="m 66.343557,47.260864 c 0,1.195436 -0.944814,2.16671 -2.107618,2.16671 -1.162867,0 -2.107636,-0.971274 -2.107636,-2.16671 0,-1.195407 0.944769,-2.166677 2.107636,-2.166677 1.162804,0 2.107618,0.97127 2.107618,2.166677 z"
       id="path665"
       style="fill:#233865;stroke-width:0.736878" />
    <rect
       x="55.732716"
       y="33.812496"
       class="st3"
       width="1.5988915"
       height="6.5000525"
       id="rect671"
       style="fill:#233865;stroke-width:0.736878" />
    <rect
       x="48.101669"
       y="34.858452"
       class="st3"
       width="1.5988915"
       height="4.5575075"
       id="rect677"
       style="fill:#233865;stroke-width:0.736878" />
    <rect
       x="79.788757"
       y="34.858452"
       class="st3"
       width="1.5988915"
       height="4.5575075"
       id="rect683"
       style="fill:#233865;stroke-width:0.736878" />
    <path
       class="st12"
       d="m 39.162394,37.324022 c -0.65408,-0.448279 -1.380837,-0.821863 -2.180305,-0.896551 -0.799444,-0.07473 -1.671564,0.149367 -2.107627,0.821841 -0.43606,0.67241 -0.43606,1.568959 -0.0728,2.316117 0.29073,0.747125 0.872123,1.270117 1.526232,1.793117 1.308181,1.120682 3.270444,2.166678 4.723991,3.137951 0.508745,0.298846 1.017487,0.59769 1.526229,0.896569 0.944775,-1.344849 1.744242,-2.7644 2.398322,-4.333397 -2.107625,-1.34484 -3.706507,-2.46552 -5.81416,-3.735647 z"
       id="path691"
       style="fill:#ff6600;fill-opacity:1;stroke-width:0.736878" />
    <path
       class="st9"
       d="m 64.784526,42.628666 c 0.07275,-0.149385 0.218098,-0.224221 0.218098,-0.373566 0,-0.149367 0,-0.298864 -0.07275,-0.44828 -0.07275,-0.07473 -0.145283,-0.07473 -0.218095,-0.149349 0.07274,-0.07473 0.07274,-0.149385 0.145266,-0.224221 0.07274,-0.149367 0.07274,-0.224196 0.07274,-0.373557 0,-0.149385 -0.145282,-0.224195 -0.218094,-0.224195 -0.07275,-0.07473 -0.145283,-0.07473 -0.218101,-0.07473 0,-0.07473 0,-0.07473 0,-0.149368 0,0 -0.07275,-0.07473 -0.07275,-0.07473 -0.436067,-0.224221 -0.799457,-0.373567 -1.235504,-0.597695 -0.508746,0.373562 -1.308178,0.149368 -1.816924,0.522996 -0.218098,0.149385 -0.363389,0.373558 -0.508746,0.522972 -0.29071,0.224199 -0.5814,0.448284 -0.872135,0.672431 -0.07275,0.07473 -0.290689,0.373559 -0.363366,0.597715 0,0 0,0 0,0 -3.706516,0.821837 -4.86936,1.045968 -8.64855,1.344838 -0.72676,0.07473 -1.453547,0.07473 -2.107625,-0.149384 -0.726785,-0.224217 -1.598909,-0.97127 -2.252987,-1.344839 -0.581423,-0.373559 -1.162819,-0.672433 -1.671563,-1.045999 -0.654104,1.568992 -1.526228,2.988555 -2.398353,4.333386 1.235504,0.597687 2.543689,1.195401 3.706537,1.942527 0.581397,0.373565 1.453519,0.522992 2.10762,0.597724 0.508746,0.07473 1.598889,-0.07473 2.107629,-0.149385 4.287932,-0.373556 10.320094,-3.28736 11.337586,-3.28736 0.363389,0 0.726777,0.07473 1.162824,0.149368 0.363388,0 0.799454,-0.07473 1.162865,-0.149368 0.07275,0 0.218077,-0.07473 0.290692,-0.149385 0.07275,0 0.07275,0 0.145281,0 0.07254,0 0.145267,-0.07473 0.218119,-0.149367 0.07275,-0.07473 0.07275,-0.149385 0.07275,-0.224217 0,-0.07473 -0.07275,-0.149368 -0.218093,-0.224219 0,0 0,0 0,0 0.145266,0 0.290731,0 0.363408,-0.149366 0.07253,-0.07473 0.145282,-0.224219 0.145282,-0.373593 0,-0.149402 -0.07275,-0.298842 -0.218117,-0.298842 0,0 -0.07275,0 -0.07275,0 0,0 0,-0.07473 0,-0.07473 -0.218097,-0.149384 -0.145283,-0.149384 -0.07275,-0.224221 z"
       id="path697"
       style="fill:#a05a2c;fill-opacity:1;stroke-width:0.736878" />
    <path
       class="st3"
       d="m 30.005109,70.571395 c 0.654102,0.07476 1.380863,0.896562 1.816924,1.344839 0.581423,0.523011 1.308184,0.597726 1.88961,0.89657 -0.581426,0.971263 -0.508744,2.614979 -1.090168,3.660942 -0.363379,-0.522992 -1.962264,-0.149488 -2.543686,0.224101 -0.581398,0.373558 -1.308184,0.821834 -1.816927,1.344825 -0.508716,0.523016 -1.45352,1.195418 -2.107621,1.270133 -0.218105,0.07486 -0.436065,0 -0.654079,-0.07484 -0.07278,-0.07486 -0.363384,-0.298845 -0.436064,-0.373583 z"
       id="path705"
       style="fill:#333333;stroke-width:0.736878" />
    <path
       class="st10"
       d="m 42.360187,59.364415 c 1.090164,3.810382 3.270473,5.752941 5.305413,8.816175 2.325672,3.436807 4.069917,6.126469 1.962263,9.413877 -3.415808,0.971268 -3.270445,1.344826 -6.831616,1.04596 -3.561173,-0.298842 -7.049662,-0.971241 -10.610834,-1.643668 -0.07255,-1.64369 0,-3.287404 0.145299,-4.931081 3.706534,0.373567 7.413039,0.448282 11.04689,0.224198 -5.160051,-2.091996 -9.157285,-7.023067 -10.102087,-12.626551 2.907065,-0.07473 6.322873,0 9.084603,-0.298869 z"
       id="path711"
       style="fill:#177866;fill-opacity:1;stroke-width:0.736878" />
    <path
       class="st3"
       d="m 26.734662,73.186386 c 0.654078,0.07484 1.380864,0.896547 1.816926,1.344848 0.581398,0.522969 1.308184,0.597684 1.88958,0.896549 -0.581396,0.971244 -0.508714,2.61496 -1.09014,3.660942 -0.363377,-0.52299 -1.962288,-0.149487 -2.543686,0.224104 -0.581424,0.373558 -1.30818,0.821858 -1.816927,1.34485 -0.508741,0.52299 -1.453547,1.19539 -2.107625,1.270107 -0.218098,0.07486 -0.436057,0 -0.654106,-0.07484 -0.07277,-0.07486 -0.36338,-0.298842 -0.436059,-0.373559 z"
       id="path719"
       style="fill:#333333;stroke-width:0.736878" />
    <path
       class="st11"
       d="m 41.415383,59.513856 c -2.834386,0.448274 -7.776422,0.597706 -10.683488,0.67243 0.218098,3.959791 2.107624,7.844874 5.087371,10.385109 2.689048,2.316124 4.796676,3.436824 7.340359,5.902351 -5.160054,0.224101 -9.011923,-0.298844 -13.953958,-1.942512 -0.290698,2.091942 -0.290698,4.258625 0,6.350592 7.195024,-0.07462 10.102088,2.839108 18.677952,0.971267 0.944806,-0.896551 2.834412,-2.764368 2.47103,-3.885068 -1.090166,-3.36212 -2.252984,-5.454065 -4.505975,-9.040312 -1.962258,-3.063229 -3.92455,-5.82763 -4.433291,-9.413857 z"
       id="path725"
       style="fill:#178066;fill-opacity:1;stroke-width:0.736878" />
    <path
       class="st12"
       d="m 38.871694,37.996433 c -0.0728,-0.522992 -0.290697,-1.045993 -0.726758,-1.270117 -0.290727,-0.149384 -0.654106,-0.149384 -1.017486,-0.149384 -1.235502,0.07473 -2.543686,0.149384 -3.633851,0.821839 -0.218101,0.149384 -0.436063,0.298876 -0.436063,0.522996 -0.07254,0.298879 0.218101,0.523007 0.436063,0.672437 1.235529,0.821838 2.76173,1.195404 4.215278,1.568964 0.290694,0.07473 0.726759,0.149384 0.944799,-0.07473 0.145297,-0.149367 0.218103,-0.373559 0.218103,-0.597691 0.145297,-0.448279 0.145297,-0.971274 0,-1.494267 z"
       id="path733"
       style="fill:#c9433d;stroke-width:0.736878" />
    <path
       class="st7"
       d="m 38.580997,36.875743 c 1.744244,2.166684 2.616365,5.005761 2.907066,7.844883 0.363379,2.839112 0.218103,5.678203 0.363379,8.517314 0.145299,2.839106 0.581425,5.752908 1.889611,8.218462 -4.142596,0.821835 -8.430528,0.971273 -12.645779,0.522991 -0.290695,0 -0.581425,-0.07473 -0.79944,-0.298861 -0.290725,-0.298853 -0.290725,-0.821846 -0.290725,-1.195402 0.145298,-3.063238 -0.581401,-6.12648 -1.017458,-9.18975 -0.436063,-3.063236 -0.436063,-6.798883 0.799439,-9.637988 1.380864,-3.063243 5.014692,-6.051799 7.34036,-5.155233 z"
       id="path739"
       style="fill:#ff7f2a;fill-opacity:1;stroke-width:0.736878" />
    <path
       class="st12"
       d="m 31.240636,43.525224 c -0.581425,0.373559 -0.654104,1.195402 -0.726787,1.942522 -0.218097,3.885107 0.0728,7.84491 1.162847,11.580581 0.07278,0.298839 0.218101,0.672403 0.436065,0.821845 0.290695,0.224194 0.726758,0.149368 1.017456,-0.07473 0.290726,-0.224196 0.508744,-0.597713 0.654105,-0.896559 1.01746,-1.942544 1.45352,-4.109219 1.671567,-6.350626 0.07277,-1.270115 0.07277,-2.614956 -0.290701,-3.885076 C 34.801782,45.393054 34.002342,44.272339 32.9122,43.674634 32.476136,43.301067 31.822033,43.151653 31.240636,43.52525 Z"
       id="path745"
       style="fill:#ff6600;fill-opacity:1;stroke-width:0.736878" />
    <path
       class="st11"
       d="m 43.741053,61.456402 c -1.308186,-2.465554 -1.598886,-5.379356 -1.744247,-8.218462 -0.07279,-1.568967 -0.145299,-4.258646 -0.218098,-5.827631 -1.962261,1.270115 -4.869329,2.465543 -6.032177,4.781631 -0.872124,1.27015 -0.654081,3.885106 -1.09014,5.155226 -0.726788,2.017249 -1.96229,2.764396 -2.979747,4.632227 3.997203,0.448282 8.139803,0.298844 12.06435,-0.522991 z"
       id="path753"
       style="fill:#178066;fill-opacity:1;stroke-width:0.736878" />
    <path
       class="st11"
       d="m 35.092508,41.507958 c -0.872126,-0.821858 -2.034972,-1.494251 -3.197794,-1.643693 -0.581423,-0.07473 -1.308182,-0.07473 -1.671562,0.821835 1.017484,-0.448277 2.180304,-0.224195 3.125108,0.373569 0.944803,0.597723 1.598885,1.494278 2.180306,2.465555 1.235507,2.166677 1.889581,4.781642 1.816929,7.321877 0.436062,-0.07473 0.581396,0.22422 0.799441,-0.1494 0.218098,-0.373568 0.07277,-0.97127 0,-1.419552 0,-1.344838 -0.508745,-3.511524 -1.090168,-4.706952 -0.581393,-1.344841 -0.944803,-2.166684 -1.96226,-3.063245 z"
       id="path759"
       style="fill:#178066;fill-opacity:1;stroke-width:0.736878" />
    <path
       class="st9"
       d="m 38.217617,39.191837 c 0.145299,-0.07473 0.145299,-0.224221 0.145299,-0.373566 0.218097,-1.643678 0.363377,-3.212678 0.581424,-4.856353 -1.162823,0 -2.252989,-0.672403 -3.34313,-1.120684 -0.726786,2.540243 -1.526229,3.063236 -2.252987,4.856357 1.526201,0.52299 2.907066,1.568961 4.505948,1.568961 0.145298,0 0.290727,0 0.363406,-0.07473 z"
       id="path769"
       style="fill:#a05a2c;fill-opacity:1;stroke-width:0.736878" />
    <path
       class="st3"
       d="m 36.473375,33.214803 c -0.436062,2.091962 0.436059,3.735637 2.034939,4.408063 0.145298,-1.195395 0.290703,-2.390832 0.436063,-3.660948 -0.799441,-0.07473 -1.671562,-0.44828 -2.471002,-0.747115 z"
       id="path775"
       style="fill:#784421;fill-opacity:1;stroke-width:0.736878" />
    <path
       class="st9"
       d="m 38.580997,26.191736 c -0.726788,0 -1.453547,0.224197 -2.034971,0.672428 -0.654078,0.448276 -1.090137,1.195405 -1.308184,1.942556 -0.581396,1.793118 -0.218099,3.885073 0.872123,5.379353 1.090165,1.494249 2.907091,2.390808 4.796673,2.316086 0.872121,-1.494241 1.744245,-3.063241 2.034968,-4.706917 0.290701,-1.718405 -0.145297,-3.660963 -1.453543,-4.706955 -0.799443,-0.672402 -1.889606,-0.896551 -2.907066,-0.896551 z"
       id="path783"
       style="fill:#a05a2c;fill-opacity:1;stroke-width:0.736878" />
    <path
       class="st3"
       d="m 42.142167,27.013608 c -0.872121,-0.74716 -1.96229,-1.120723 -3.052428,-1.19544 -0.799466,-0.07473 -1.598909,0.07473 -2.252987,0.522996 -0.654107,0.373567 -1.162845,1.046002 -1.453548,1.793115 -0.726758,1.643687 -0.654076,3.58624 0.2181,5.155236 0.07254,-0.29887 0.2181,-0.523003 0.36338,-0.747151 -0.07277,-0.07473 -0.145298,-0.224219 -0.145298,-0.373566 -0.0728,-0.373556 -0.0728,-0.821838 0.07279,-1.195402 0.07277,-0.224199 0.145298,-0.522992 0.363377,-0.597708 0.290702,-0.149384 0.65411,0 0.799441,0.224198 0.14533,0.149367 0.218102,0.373563 0.218102,0.597679 0.654082,-0.448284 1.308184,-0.971274 1.744245,-1.643686 1.45352,0.448281 2.325642,0.672412 3.851872,0.448281 0,-1.045985 0.145298,-2.241389 -0.726761,-2.988516 z"
       id="path789"
       style="fill:#454837;fill-opacity:1;stroke-width:0.736878" />
    <path
       class="st12"
       d="m 43.377671,27.237721 c -0.2181,-0.52299 -0.726788,-0.971273 -1.235504,-1.195404 -1.308183,-0.747141 -2.834412,-0.896558 -4.36061,-1.045986 -1.235531,0.597706 -2.180308,1.7184 -2.616369,3.063238 1.017457,1.045992 2.398325,1.793121 3.851868,2.166684 1.453522,0.373585 2.907068,0.373585 4.360615,0.298864 -0.07277,-1.12071 0.43606,-2.241394 0,-3.287396 z"
       id="path793"
       style="fill:#ff6600;fill-opacity:1;stroke-width:0.736878" />
    <path
       class="st7"
       d="m 44.903873,31.944667 c 0.145331,0 0.218096,0.07473 0.363378,0.07473 0.145297,0 0.290726,0 0.290726,-0.149401 0.07277,-0.149385 -0.0728,-0.298875 -0.218101,-0.448278 -1.017456,-0.747158 -2.107625,-1.494282 -3.343127,-1.718398 -1.380862,-0.22422 -2.761727,0.224201 -4.142594,-0.07491 0.145298,0.298851 0.43606,0.523008 0.726788,0.672411 0.726759,0.448279 1.453519,0.896558 2.180304,1.270113 0.508745,0.298881 0.944804,0.597727 1.453522,0.747161 0.50874,0.149401 1.090166,0.224215 1.598906,0 0.436063,-0.149384 0.726763,-0.44828 1.090141,-0.373565 z"
       id="path799"
       style="fill:#ff7f2a;fill-opacity:1;stroke-width:0.736878" />
    <path
       class="st7"
       d="m 61.256191,44.720626 2.180295,-2.09196 c 0.218096,-0.224221 0.581401,-0.224221 0.872131,-0.07473 l 1.090126,0.89656 c 0.218116,0.149385 0.218116,0.448274 0.07275,0.672401 l -0.508743,0.672431 -0.726739,-0.44828 0.290692,-0.522993 -0.654081,-0.522995 -1.9623,2.241391 z"
       id="path809"
       style="fill:#ff6600;fill-opacity:1;stroke-width:0.736878" />
    <path
       class="st3"
       d="m 63.654517,45.467746 -1.526214,-1.494239 c -0.145267,-0.149384 -0.436067,-0.149384 -0.654102,0 l -2.180313,2.01724 v 0 c 0.436064,0.448281 0.436064,1.195426 -0.07275,1.568991 -2.180316,1.867836 -4.433274,3.735642 -6.613578,5.603476 -0.654107,0.523005 -1.380869,1.195436 -1.598913,2.017272 -0.07277,0.298847 -0.07277,0.597689 0,0.89656 0.0728,0.298843 0.363381,0.523003 0.654108,0.597692 0.436061,0.07473 0.87212,-0.298849 1.16282,-0.597692 2.39835,-2.614956 4.869347,-5.155226 7.267675,-7.77018 0.436067,-0.44828 1.090168,-0.44828 1.526232,-0.07473 v 0 l 1.96226,-2.017243 c 0.290736,-0.224219 0.290736,-0.523011 0.07274,-0.747155 z"
       id="path815"
       style="fill:#233865;stroke-width:0.736878" />
    <rect
       x="15.236382"
       y="74.470512"
       transform="matrix(0.73424751,-0.67888188,0.6584539,0.75262106,0,0)"
       class="st7"
       width="1.9134097"
       height="0.73807788"
       id="rect821"
       style="fill:#ff6600;fill-opacity:1;stroke-width:0.737003" />
    <path
       class="st7"
       d="m 35.601249,45.168902 c -0.290724,-1.045987 -0.581424,-2.091959 -1.235532,-2.988516 -0.654074,-0.896561 -1.671561,-1.494286 -2.689021,-1.270119 -0.944801,0.224219 -1.598907,1.120683 -1.816924,2.091958 -0.2181,0.971282 -0.07277,1.942559 0.218101,2.913796 0.581423,2.241403 1.453547,4.333392 2.616368,6.275919 1.380863,-0.821839 2.90709,-1.793111 4.505976,-2.61496 -0.581426,-1.419556 -1.162825,-2.913799 -1.598886,-4.408078 z"
       id="path829"
       style="fill:#ff7f2a;fill-opacity:1;stroke-width:0.736878" />
    <path
       class="st9"
       d="m 56.459516,51.444818 c -0.290735,-0.224222 -0.654113,-0.373562 -0.94481,-0.597717 -0.290701,-0.224196 -0.726759,-0.37356 -1.017487,-0.224196 -0.07277,0.07473 -0.145314,0.07473 -0.290698,0.149368 -0.363382,0.149384 -0.654105,-0.224195 -1.017486,-0.224195 -0.290699,0 -0.508742,0.149385 -0.72676,0.373557 -0.218098,0.224223 -0.508744,0.373569 -0.79944,0.448283 -0.799443,0.22422 -1.59891,0.298867 -2.398352,0.448278 -0.726758,0.149384 -1.45352,0.298879 -2.252988,0.373568 -1.671563,0.298861 -3.270442,0.597707 -4.942005,0.74715 -0.581427,0.07473 -1.162852,0.149368 -1.744249,0.149368 -0.145297,0 -1.598908,0.149384 -1.598908,0 -0.508716,-1.120683 -1.017456,-2.241399 -1.453518,-3.436803 -1.598908,0.821846 -3.125113,1.793118 -4.505977,2.614959 1.017484,1.793125 2.180307,3.511525 3.343127,5.229951 0.290726,0.373569 0.581424,0.821838 1.017485,1.045964 0.726759,0.373558 1.671567,0.149384 2.471007,-0.07473 3.70653,-1.120691 7.340384,-2.465523 10.90153,-3.885073 0.363405,-0.07473 0.654104,-0.22422 0.654104,-0.149385 0.145299,0 0.218098,0.07473 0.363379,0.149385 0.218102,0.149368 0.436061,0.298845 0.654107,0.448271 0.290698,0.149384 0.581397,0.149384 0.872125,0.149384 0.581397,0 1.162819,0 1.67156,0 0.0728,0 0.145299,0 0.290701,-0.07473 0.218097,-0.149384 0.145298,-0.448281 0.290699,-0.597723 0.145315,-0.149368 0.508741,0 0.654103,-0.149368 0.145299,-0.149384 0.07277,-0.523002 0.218101,-0.672437 0.145297,-0.224194 0.508746,-0.224194 0.508746,-0.448271 0.07276,-0.22422 -0.145282,-0.448279 -0.07275,-0.59771 0,-0.07458 0.07275,-0.07458 0.07275,-0.149384 0.07276,-0.07473 0.218097,-0.149384 0.218097,-0.298876 0,-0.448274 -0.218097,-0.597675 -0.436069,-0.747128 z"
       id="path835"
       style="fill:#a05a2c;fill-opacity:1;stroke-width:0.736878" />
    <rect
       x="8.2325325"
       y="76.027733"
       transform="matrix(0.65771202,-0.75326947,0.73492,0.67815381,0,0)"
       class="st7"
       width="0.36906838"
       height="1.1039188"
       id="rect845"
       style="fill:#ff6600;fill-opacity:1;stroke-width:0.737043" />
    <polygon
       class="st7"
       points="295.4,148.6 297,148.6 297.9,150.1 297,151.5 295.4,151.5 294.6,150.1 "
       id="polygon851"
       transform="matrix(0.72676877,0,0,0.74713243,-151.03296,-64.88372)"
       style="fill:#ff6600;fill-opacity:1" />
    <path
       class="st7"
       d="m 100.64704,23.352649 c -0.50875,-1.867844 -1.017452,-3.735677 -1.962266,-5.379357 -0.94481,-1.643711 -1.380878,-2.540271 -3.343158,-3.212682 -1.96226,-0.672428 -5.9595,-0.672428 -7.340359,0.747126 -1.017467,1.046002 -1.380857,2.465556 -1.308182,3.810395 0.07296,1.344827 0.436048,2.689675 0.799437,4.034518 1.744228,6.126478 2.907095,12.402386 3.415838,18.678301 3.779186,1.494274 8.430508,0.672426 11.41024,-2.017243 0.65412,-0.597722 1.23555,-1.270148 1.38088,-2.091985 0.14528,-0.747129 -0.073,-1.494251 -0.21811,-2.2414 -1.16283,-3.88508 -1.74423,-8.293156 -2.83442,-12.327673 z"
       id="path857"
       style="fill:#f96a57;stroke-width:0.736878" />
    <path
       class="st3"
       d="m 106.1516,89.266535 c 0.21808,-0.672404 -0.2181,-1.867798 -0.36339,-2.540223 -0.14527,-0.747141 -0.87213,-1.270132 -0.79948,-1.942556 -1.01747,0 -1.88956,0.224101 -2.90707,0.224101 0.21809,0.597733 -0.29069,1.270135 -0.87211,1.568973 -0.58142,0.298867 -1.308185,0.448278 -1.962257,0.597711 -0.654106,0.149469 -1.380862,0.373581 -1.744253,0.896569 -0.145265,0.14949 -0.218092,0.373539 -0.218092,0.597712 0,0.07461 0,0.522988 0.07294,0.597688 z"
       id="path863"
       style="fill:#333333;stroke-width:0.736878" />
    <path
       class="st10"
       d="m 102.60934,38.594149 c 1.59888,4.034517 1.23549,8.517311 0.43605,12.775952 -0.7268,4.258666 -1.88964,8.517315 -1.81694,12.775976 0.14529,7.172478 3.77921,13.97138 3.70651,21.143855 -1.30819,0.373558 -2.32562,1.195392 -4.21526,0.6724 -1.526173,-4.034498 -2.834362,-7.770182 -4.360597,-11.804681 -1.308179,-3.362093 -2.543701,-6.7989 -2.979747,-10.459845 -0.872135,-7.994327 2.761714,-16.138068 0.726756,-23.908262 2.616362,-1.045985 5.305416,-2.017241 7.921788,-3.063228 z"
       id="path869"
       style="fill:#177866;fill-opacity:1;stroke-width:0.736878" />
    <path
       class="st3"
       d="m 94.450614,92.329787 c 0.290692,-0.672428 -0.07294,-1.718437 -0.145266,-2.390808 -0.145283,-0.747144 -0.218078,-1.270132 -0.145283,-1.942561 -1.162845,0 -2.97975,0 -4.142573,0 0.218096,0.597713 -0.290734,1.270117 -0.944813,1.568997 -0.654103,0.298849 -1.38086,0.448281 -2.180316,0.597671 -0.726757,0.149482 -1.526209,0.373597 -1.96226,0.896568 -0.145282,0.149482 -0.290711,0.373582 -0.290711,0.597705 0,0.07461 0,0.522996 0.07294,0.597712 h 9.738726 z"
       id="path877"
       style="fill:#333333;stroke-width:0.736878" />
    <path
       class="st11"
       d="m 89.581263,88.967686 c 2.034937,-0.224098 4.142554,-0.373555 6.177533,-0.597704 -1.453557,-10.385115 -0.290734,-21.069136 3.197766,-30.856571 1.090168,-2.988517 2.398368,-6.051762 2.689038,-9.26443 0.21811,-2.913828 -0.36337,-5.752914 -1.01747,-8.592027 -2.689022,0.522992 -5.450758,0.821837 -8.212474,0.821837 -0.581404,4.408082 -1.162845,8.816184 -1.816946,13.224265 -0.654079,4.931077 -1.308179,9.787422 -1.380837,14.793214 -0.07294,6.798918 1.090146,13.672504 0.36339,20.471416 z"
       id="path883"
       style="fill:#178066;fill-opacity:1;stroke-width:0.736878" />
    <path
       class="st9"
       d="m 95.705027,15.507736 c -2.034981,0.224219 -3.997243,0.821845 -5.741488,1.718398 -0.07295,-1.643678 -0.654101,-3.287361 -1.598892,-4.706914 1.235523,0.149365 2.180293,-0.597715 3.343137,-1.195405 0.872136,1.568964 2.616383,3.137961 3.997243,4.183921 z"
       id="path891"
       style="fill:#a05a2c;fill-opacity:1;stroke-width:0.736878" />
    <path
       class="st7"
       d="M 88.21929,9.7548213 C 87.928579,9.3065406 87.347176,9.0824176 86.838435,9.0077036 c -0.508745,-0.074761 -1.090169,0.07476 -1.598893,0.298837 -0.29071,0.07476 -0.6541,0.2242197 -0.799456,0.5977227 -0.07254,0.2241957 -0.07254,0.4482797 -0.145283,0.6723937 -0.07294,1.195439 -0.799435,2.241408 -0.872132,3.436829 0,0.298845 0.07294,0.747124 0.36339,0.896568 0.29071,0.149363 0.581419,-0.07476 0.872133,-0.224196 0.508724,-0.298854 1.01749,-0.448281 1.598891,-0.523011 0.508721,-0.07476 1.017468,-0.07476 1.380834,-0.448279 0.290716,-0.298837 0.436067,-0.672394 0.581426,-1.120676 0.145266,-0.44828 0.29071,-0.896567 0.29071,-1.419562 0.07294,-0.522997 -0.07294,-1.045993 -0.29071,-1.4195507 z"
       id="path897"
       style="fill:#ff7f2a;fill-opacity:1;stroke-width:0.736878" />
    <path
       class="st9"
       d="m 88.655339,5.6455905 c -0.944792,-0.074762 -1.962264,0.2241961 -2.68904,0.8965599 -1.235483,1.0459926 -1.59887,2.9138332 -1.453536,4.5575186 0.218097,1.79311 0.944794,3.436795 2.107637,4.706944 0.29071,0.298845 0.581403,0.597683 1.017467,0.597683 0.218098,0 0.36339,-0.07476 0.581423,-0.149365 1.38088,-0.672444 2.616383,-1.71843 3.415818,-3.137966 0.799433,-1.344839 1.017489,-3.063261 0.508744,-4.5575108 -0.581423,-1.5689867 -1.96228,-2.764391 -3.488513,-2.9138333 z"
       id="path903"
       style="fill:#a05a2c;fill-opacity:1;stroke-width:0.736878" />
    <path
       class="st3"
       d="m 84.730816,9.9789773 c 0.07296,0.5976797 0.508726,1.1954047 1.090127,1.3448377 0,-0.224219 -0.07296,-0.373589 0,-0.597713 0,-0.224196 0.145282,-0.373559 0.290731,-0.448282 0.290691,-0.149363 0.581401,0 0.799436,0.298837 0.290693,0.373569 0.436066,0.896568 0.363392,1.344848 0.799434,0.224219 1.671567,0.07476 2.471004,0.07476 0.799434,-0.07476 1.744247,-0.07476 2.398346,0.448281 C 92.797931,10.651428 92.434541,8.5594649 91.344416,7.0651905 91.126321,6.766346 90.835673,6.4674779 90.54494,6.3927893 c -0.218095,-0.074762 -0.508724,-0.074762 -0.799434,-0.074762 -1.01747,0 -2.107639,0.1493828 -3.052431,0.6724128 -0.944809,0.5229916 -1.671569,1.4942723 -1.744243,2.5402672 z"
       id="path909"
       style="fill:#454837;fill-opacity:1;stroke-width:0.736878" />
    <path
       class="st12"
       d="m 89.309438,4.7490238 c -0.436068,-0.1493635 -0.944791,-0.074763 -1.453516,0 -0.726799,0.1493843 -1.453557,0.3735657 -2.034979,0.7471549 -0.654056,0.3735682 -1.162802,0.8965599 -1.526191,1.5689631 -0.363369,0.6724362 -0.508746,1.5690033 -0.436067,2.3161138 0.07294,0.8218454 0.29069,1.5689704 0.654078,2.3161194 0.581427,-0.821839 1.162846,-1.7183977 1.816927,-2.4655574 0.6541,-0.747115 1.453556,-1.4195511 2.398346,-1.8678217 C 89.672827,6.990428 90.690294,6.8410183 91.707784,7.2146132 91.417074,6.6168954 90.90835,6.0938945 90.472282,5.6456145 90.108874,5.2720487 89.745506,4.8984899 89.309438,4.749055 Z"
       id="path915"
       style="fill:#ff6600;fill-opacity:1;stroke-width:0.736878" />
    <path
       class="st7"
       d="m 97.231217,19.841122 c 0.07296,-1.344839 -0.218095,-2.68967 -1.017469,-3.810392 -0.436086,-0.597709 -1.017488,-1.045985 -1.744247,-1.045985 -0.872112,0.07475 -1.453515,0.97127 -1.816904,1.793107 -0.944813,2.241409 -1.598911,4.55752 -2.543723,6.798927 1.453555,1.867831 3.197781,2.241389 5.014727,2.166679 0.363368,-0.672412 0.72676,-1.419539 1.017469,-2.166679 0.581404,-1.120695 1.017471,-2.46553 1.090147,-3.735657 z"
       id="path923"
       style="fill:#f96a57;stroke-width:0.736878" />
    <path
       class="st9"
       d="m 90.108874,23.651488 c -0.07254,0.224223 -0.145268,0.448283 -0.218078,0.597717 -1.889625,4.408077 -4.505984,8.367874 -8.212492,11.356388 -0.290731,0 -0.872134,0.224219 -1.162844,0.298877 -0.36339,0.149384 -0.508723,0.448281 -0.65408,0.747125 -0.290711,0.522998 -0.581423,1.120708 -1.01749,1.494276 -0.218118,0.14935 -0.436068,0.298844 -0.65408,0.448278 -0.145282,0.07483 -0.6541,0.224198 -0.6541,0.373556 -0.07274,0.149384 0,0.298847 0.145285,0.373568 0.145264,0.07475 0.218096,0.07475 0.363386,0.149384 0.436067,0.07473 0.872114,0.07473 1.235503,0.149385 0.654121,0.07473 1.017491,-0.149385 1.671567,-0.224221 0.363412,0 0.654104,-0.07473 1.017472,-0.149384 0.581422,-0.224219 1.090167,-0.672409 1.453535,-1.270125 0.36341,-0.522991 0.872134,-0.821837 1.090168,-1.41955 3.997217,-3.212682 8.285167,-6.425326 10.756197,-10.833429 -1.962303,0.149402 -3.706532,-0.22422 -5.160088,-2.091958 z"
       id="path929"
       style="fill:#a05a2c;fill-opacity:1;stroke-width:0.736878" />
    <path
       class="st7"
       d="m 100.57436,23.277933 c -0.50873,-1.867851 -1.017471,-3.735681 -1.962285,-5.379356 -0.944792,-1.643684 -1.380858,-2.540244 -3.343116,-3.21268 -1.962304,-0.672411 -5.959521,-0.672411 -7.34038,0.747124 -1.017469,1.045989 -1.380836,2.465556 -1.308179,3.810386 0.07296,1.344839 0.436046,2.689689 0.799456,4.034526 1.744248,6.126474 2.90707,12.402389 3.415817,18.678303 3.779184,1.494269 8.430475,0.67243 11.410277,-2.01724 0.65408,-0.597723 1.23548,-1.270127 1.38082,-2.091997 0.14529,-0.747125 -0.073,-1.494248 -0.2181,-2.241406 -1.16281,-3.885074 -1.74425,-8.293153 -2.83443,-12.32766 z"
       id="path937"
       style="fill:#ff7f2a;stroke-width:0.736878" />
    <path
       class="st12"
       d="m 93.161323,23.20321 c -0.07254,-1.344846 -0.218099,-2.614964 -0.726782,-3.885079 -0.508721,-1.195429 -1.380855,-2.316114 -2.543681,-2.913835 -0.436067,-0.224221 -0.944791,-0.373566 -1.30818,-0.149364 -0.36339,0.149363 -0.581423,0.448271 -0.726758,0.821836 -0.508746,1.045963 -0.726799,2.316111 -0.654119,3.511516 0.07296,1.195403 0.363388,2.390835 0.581443,3.511508 0.581401,2.465556 1.162823,4.931081 1.744245,7.396633 1.380859,-0.672424 2.398329,-2.017272 2.97973,-3.511539 0.581444,-1.56897 0.726759,-3.212646 0.654102,-4.781645 z"
       id="path943"
       style="fill:#ff6600;stroke-width:0.736878" />
    <path
       class="st11"
       d="m 91.199063,33.961918 c -0.290713,0.07483 -0.508769,0.224193 -0.654123,0.523002 -0.799434,-4.034516 -1.598871,-8.143756 -2.107617,-12.252991 -0.218096,-1.568971 -0.363387,-3.212668 -0.29069,-4.856354 0,-0.522999 0.07296,-1.045994 0.29069,-1.568962 0.218079,-0.522992 0.508746,-0.971278 0.944793,-1.195434 -0.436047,6.50007 0.6541,13.000108 1.816947,19.350739 z"
       id="path951"
       style="fill:#178066;fill-opacity:1;stroke-width:0.736878" />
    <path
       class="st11"
       d="m 97.158541,39.415985 c -3.779185,0 -5.668788,-4.706944 -6.395566,-8.592024 -0.508725,0 -0.799436,-0.298844 -1.380859,0.298852 0.726758,3.660943 0.726758,7.471336 1.090166,11.132287 3.779187,1.494249 8.939246,0.448276 11.846308,-2.166703 0.58144,-0.522968 1.0902,-1.120692 1.30818,-1.867816 -1.96225,1.120692 -4.069881,1.568963 -6.468229,1.195404 z"
       id="path957"
       style="fill:#178066;fill-opacity:1;stroke-width:0.736878" />
    <path
       class="st11"
       d="m 103.55414,38.444715 c 0,-0.07473 0.14528,-0.597716 0.14528,-0.672412 -0.87214,-2.465538 -1.74426,-4.856381 -2.68909,-7.321899 -1.453501,-3.885077 -2.907061,-7.844915 -5.232712,-11.206997 -1.162826,-1.643674 -2.907093,-2.839111 -4.142572,-4.482797 -0.363392,-0.522991 -0.799437,-0.448279 -1.162847,-0.224195 3.270482,3.287392 5.88682,7.247196 7.921781,11.505864 1.8896,4.034516 3.27046,8.666714 4.72401,12.850671 0.14528,-0.224218 0.21812,-0.298851 0.43606,-0.44828 z"
       id="path963"
       style="fill:#178066;fill-opacity:1;stroke-width:0.736878" />
    <path
       class="st11"
       d="m 98.394042,18.645702 c -0.07296,-0.67241 -0.218097,-1.419568 -0.508704,-2.017251 -0.29073,-0.597721 -0.363429,-0.896551 -1.01749,-1.120715 1.526194,3.287392 1.01749,6.275915 1.235502,9.936874 0.290692,5.005794 -0.363386,10.758702 -1.671546,15.615059 0.436044,-0.07473 2.034917,-0.373569 2.470982,-0.373569 0.290741,-7.396585 0.581422,-14.793215 -0.508744,-22.040398 z"
       id="path969"
       style="fill:#178066;fill-opacity:1;stroke-width:0.736878" />
    <path
       class="st9"
       d="m 88.800693,26.864164 c -2.034936,-0.14935 -3.779187,-0.821847 -5.087363,-2.988525 -0.145283,0.224221 -0.21812,0.44828 -0.36339,0.67241 -2.543686,4.557512 -6.177531,8.442596 -10.538142,11.28171 -0.363387,0 -0.726754,0 -1.090147,-0.07473 -0.363409,0 -0.726777,-0.07473 -1.090166,0.07473 -0.436067,0.07473 -0.799435,0.298842 -1.162825,0.448278 -0.436046,0.149368 -0.436046,0.149368 -0.872114,0.298844 -0.145281,0.07473 -0.290731,0.07473 -0.363389,0.224197 -0.07274,0.07473 -0.145266,0.298836 -0.07274,0.373563 0.07274,0.149368 0.2181,0.149368 0.363391,0.149368 0.363368,0 0.29069,0.149402 0.65408,0.07473 0.872112,-0.298828 1.380857,-0.224196 1.816924,0 -0.799454,0.821877 -1.816924,1.419567 -2.979749,1.793128 -0.07275,0.149384 0,0.298866 0.07275,0.37358 0.07275,0.07493 0.218119,0.149384 0.363392,0.22422 0.436066,0.14935 0.872111,0.224195 1.308179,0.298845 0.726755,0.149368 1.090166,-0.07459 1.816924,0 0.36339,0 0.726757,0.07473 1.090144,0 0.654102,-0.149385 1.235528,-0.597682 1.74425,-1.195406 0.436047,-0.52299 1.090167,-0.747123 1.380855,-1.41955 4.796676,-3.137964 9.811406,-6.051768 13.009148,-10.609278 z"
       id="path979"
       style="fill:#a05a2c;fill-opacity:1;stroke-width:0.736878" />
    <path
       class="st7"
       d="m 91.853122,20.438812 c 0.218096,-1.494249 0.07297,-3.13795 -0.581383,-4.408082 -0.363389,-0.672397 -1.017489,-1.344833 -1.744248,-1.419551 -1.017488,-0.07476 -1.744245,0.971277 -2.252989,1.793117 -1.380879,2.390832 -2.39835,5.005786 -3.706551,7.396632 1.308201,2.31611 3.197806,2.913803 5.305419,3.137949 0.508746,-0.747141 1.01749,-1.494267 1.453556,-2.316111 0.654059,-1.270117 1.235503,-2.68967 1.526196,-4.183954 z"
       id="path985"
       style="fill:#ff7f2a;fill-opacity:1;stroke-width:0.736878" />
    <path
       class="st3"
       d="M 69.412522,83.529764 H 52.61465 V 76.303409 H 69.412522 Z M 53.422261,82.735675 H 68.604895 V 77.097502 H 53.422261 Z"
       id="path995"
       style="fill:#233865;stroke-width:0.800815" />
    <polygon
       class="st7"
       points="278.9,195.3 301.6,195.3 301.6,188.6 299.1,183.4 281.4,183.4 278.9,188.6 "
       id="polygon1001"
       transform="matrix(0.80758858,0,0,0.79410389,-173.26784,-65.920615)"
       style="fill:#ff6600;fill-opacity:1" />
    <rect
       x="56.087292"
       y="75.74752"
       class="st7"
       width="10.417891"
       height="1.9058493"
       id="rect1007"
       style="fill:#ff6600;fill-opacity:1;stroke-width:0.800815" />
    <rect
       x="52.776188"
       y="83.688545"
       class="st3"
       width="17.040117"
       height="0.47646233"
       id="rect1015"
       style="fill:#233865;stroke-width:0.800815" />
    <path
       class="st3"
       d="m 61.901918,87.500301 h -1.211354 c -0.56532,0 -0.969117,-0.397067 -0.969117,-0.952937 v -3.573472 c 0,-0.555871 0.403797,-0.952942 0.969117,-0.952942 h 1.211354 c 0.565318,0 0.969116,0.397071 0.969116,0.952942 v 3.573472 c 0,0.476456 -0.484558,0.952937 -0.969116,0.952937 z m -1.211354,-4.764626 c -0.08083,0 -0.16142,0.07931 -0.16142,0.158883 v 3.573495 c 0,0.07954 0.08084,0.158886 0.16142,0.158886 h 1.211354 c 0.08084,0 0.161437,-0.07954 0.161437,-0.158886 v -3.573495 c 0,-0.07953 -0.08084,-0.158883 -0.161437,-0.158883 z"
       id="path1021"
       style="fill:#233865;stroke-width:0.800815" />
  </g>
</svg>
