<?xml version="1.0" encoding="UTF-8" standalone="no"?>
<!-- Created with Inkscape (http://www.inkscape.org/) -->

<svg
   width="350"
   height="150"
   viewBox="0 0 92.604165 39.687501"
   version="1.1"
   id="svg17197"
   inkscape:version="1.1 (c68e22c387, 2021-05-23)"
   sodipodi:docname="plombier_PF.svg"
   xmlns:inkscape="http://www.inkscape.org/namespaces/inkscape"
   xmlns:sodipodi="http://sodipodi.sourceforge.net/DTD/sodipodi-0.dtd"
   xmlns="http://www.w3.org/2000/svg"
   xmlns:svg="http://www.w3.org/2000/svg">
  <sodipodi:namedview
     id="namedview17199"
     pagecolor="#505050"
     bordercolor="#eeeeee"
     borderopacity="1"
     inkscape:pageshadow="0"
     inkscape:pageopacity="0"
     inkscape:pagecheckerboard="0"
     inkscape:document-units="mm"
     showgrid="false"
     inkscape:zoom="2.56"
     inkscape:cx="145.50781"
     inkscape:cy="64.648438"
     inkscape:window-width="1920"
     inkscape:window-height="1001"
     inkscape:window-x="-9"
     inkscape:window-y="-9"
     inkscape:window-maximized="1"
     inkscape:current-layer="layer1"
     width="350px"
     borderlayer="true"
     units="px" />
  <defs
     id="defs17194" />
  <g
     inkscape:label="Calque 1"
     inkscape:groupmode="layer"
     id="layer1">
    <path
       style="fill:#93aca7;fill-opacity:1;stroke:none;stroke-width:0.264583px;stroke-linecap:butt;stroke-linejoin:miter;stroke-opacity:1"
       d="M 0.10335286,36.516639 0.31005859,45.611691 92.604166,45.404985 v -8.578289 z"
       id="path39049" />
    <path
       style="fill:#536c67;fill-opacity:1;stroke:none;stroke-width:0.264583px;stroke-linecap:butt;stroke-linejoin:miter;stroke-opacity:1"
       d="m 0.31005859,45.611691 11.88557941,-9.198406 80.408528,0.413411 -9.198404,8.9917 z"
       id="path38806" />
    <path
       style="fill:#93aca7;fill-opacity:1;stroke:none;stroke-width:0.289881px;stroke-linecap:butt;stroke-linejoin:miter;stroke-opacity:1"
       d="m 22.245157,36.488951 -10.425723,9.512962 21.767995,0.223835 9.857515,-9.771272 z"
       id="path39281" />
    <path
       style="fill:#93aca7;fill-opacity:1;stroke:none;stroke-width:0.308694px;stroke-linecap:butt;stroke-linejoin:miter;stroke-opacity:1"
       d="M 62.3749,36.212508 51.338995,46.403821 74.380996,46.643617 84.815437,36.175575 Z"
       id="path39281-1" />
    <path
       style="fill:#e9d6af;fill-opacity:1;stroke:none;stroke-width:0.288504px;stroke-linecap:butt;stroke-linejoin:miter;stroke-opacity:1"
       d="M 0,-0.10335286 0.10335286,36.516639 92.604166,36.885295 92.500814,0.26530476 Z"
       id="path38804" />
    <path
       class="st3"
       d="m 51.95057,43.68074 c 0,0.351193 -0.860685,0.658461 -1.974516,0.658461 -1.113832,0 -1.97453,-0.307268 -1.97453,-0.658461 0,-0.35118 0.860698,-0.65846 1.97453,-0.65846 1.113831,0 1.974516,0.26338 1.974516,0.65846 z"
       id="path575"
       style="fill:#233865;stroke-width:0.471429" />
    <path
       class="st11"
       d="m 50.786108,43.505158 c -0.506278,0.219482 -1.063201,0.219482 -1.620126,0 v -8.03322 h 1.620126 z"
       id="path581"
       style="fill:#3e3748;fill-opacity:1;stroke-width:0.471429" />
    <path
       class="st3"
       d="m 45.014449,16.991149 h -1.063216 v -2.502136 c 0,-0.131739 0.151932,-0.263385 0.303777,-0.263385 h 0.405036 c 0.151932,0 0.30376,0.131726 0.30376,0.263385 v 2.502136 z"
       id="path587"
       style="fill:#233865;stroke-width:0.471429" />
    <path
       class="st3"
       d="m 46.837077,15.630335 h -4.657842 c -0.303777,0 -0.506294,-0.219486 -0.506294,-0.438969 v 0 c 0,-0.263384 0.253147,-0.438969 0.506294,-0.438969 h 4.657842 c 0.303763,0 0.506278,0.219483 0.506278,0.438969 v 0 c 0,0.219483 -0.253146,0.438969 -0.506278,0.438969 z"
       id="path593"
       style="fill:#233865;stroke-width:0.471429" />
    <rect
       x="39.040253"
       y="17.693504"
       class="st11"
       width="11.188939"
       height="2.8094306"
       id="rect601"
       style="fill:#3e3748;fill-opacity:1;stroke-width:0.471429" />
    <rect
       x="18.940664"
       y="18.439764"
       class="st11"
       width="48.198502"
       height="1.3169204"
       id="rect607"
       style="fill:#3e3748;stroke-width:0.471429" />
    <rect
       x="50.077312"
       y="17.210642"
       class="st3"
       width="1.1138312"
       height="3.8190694"
       id="rect613"
       style="fill:#233865;stroke-width:0.471429" />
    <rect
       x="43.444942"
       y="20.371252"
       class="st11"
       width="1.5694892"
       height="12.379052"
       id="rect619"
       style="fill:#3e3748;fill-opacity:1;stroke-width:0.471429" />
    <rect
       x="42.837399"
       y="19.800583"
       class="st11"
       width="2.7845776"
       height="3.6434796"
       id="rect625"
       style="fill:#3e3748;fill-opacity:1;stroke-width:0.471429" />
    <rect
       x="41.875477"
       y="23.268476"
       class="st3"
       width="4.7590957"
       height="0.74625498"
       id="rect631"
       style="fill:#233865;stroke-width:0.471429" />
    <rect
       x="42.381763"
       y="24.5854"
       class="st3"
       width="3.695894"
       height="1.3608179"
       id="rect637"
       style="fill:#233865;stroke-width:0.471429" />
    <path
       class="st3"
       d="m 50.937997,37.842392 h -2.733956 v -1.711986 c 0,-0.04391 -0.05068,-0.08777 -0.101196,-0.08777 h -2.328917 c -1.56948,0 -2.835201,-1.097435 -2.835201,-2.458259 v -1.711981 h 2.733942 v 1.711987 c 0,0.04391 0.05068,0.08778 0.101196,0.08778 H 48.1028 c 1.569497,0 2.835202,1.097443 2.835202,2.458259 z"
       id="path645"
       style="fill:#233865;stroke-width:0.471429" />
    <ellipse
       class="st11"
       cx="44.508125"
       cy="19.098217"
       id="circle653"
       style="fill:#3e3748;fill-opacity:1;stroke-width:0.471429"
       rx="2.9364641"
       ry="2.546046" />
    <path
       class="st3"
       d="m 45.976393,19.098228 c 0,0.702361 -0.658181,1.273017 -1.468238,1.273017 -0.810068,0 -1.468236,-0.570656 -1.468236,-1.273017 0,-0.702353 0.658168,-1.273019 1.468236,-1.273019 0.810057,-0.04403 1.468238,0.526762 1.468238,1.273019 z"
       id="path659"
       style="fill:#233865;stroke-width:0.471429" />
    <path
       class="st3"
       d="m 45.621988,25.112156 c 0,0.702372 -0.658182,1.273039 -1.468223,1.273039 -0.810084,0 -1.468236,-0.570667 -1.468236,-1.273039 0,-0.702354 0.658152,-1.273018 1.468236,-1.273018 0.810041,0 1.468223,0.570664 1.468223,1.273018 z"
       id="path665"
       style="fill:#233865;stroke-width:0.471429" />
    <rect
       x="38.23019"
       y="17.210642"
       class="st3"
       width="1.1138312"
       height="3.8190694"
       id="rect671"
       style="fill:#233865;stroke-width:0.471429" />
    <rect
       x="32.914192"
       y="17.82519"
       class="st3"
       width="1.1138312"
       height="2.677738"
       id="rect677"
       style="fill:#233865;stroke-width:0.471429" />
    <rect
       x="54.988289"
       y="17.82519"
       class="st3"
       width="1.1138312"
       height="2.677738"
       id="rect683"
       style="fill:#233865;stroke-width:0.471429" />
    <path
       class="st12"
       d="m 26.686853,19.273821 c -0.45565,-0.263384 -0.961929,-0.482881 -1.518859,-0.526764 -0.556914,-0.04391 -1.164457,0.08776 -1.468231,0.482868 -0.303771,0.395071 -0.303771,0.921833 -0.05072,1.360822 0.20253,0.438969 0.607545,0.74625 1.063214,1.053536 0.911315,0.65845 2.278281,1.273019 3.290861,1.843685 0.354405,0.175585 0.708808,0.35117 1.063213,0.526774 0.658155,-0.790158 1.215085,-1.624208 1.670735,-2.546063 -1.468228,-0.790153 -2.582053,-1.448602 -4.050301,-2.194858 z"
       id="path691"
       style="fill:#ff6600;fill-opacity:1;stroke-width:0.471429" />
    <path
       class="st9"
       d="m 44.535926,22.390534 c 0.05068,-0.08777 0.151933,-0.131739 0.151933,-0.219486 0,-0.08776 0,-0.175596 -0.05068,-0.263384 -0.05068,-0.04391 -0.101208,-0.04391 -0.151931,-0.08775 0.05068,-0.04391 0.05068,-0.08777 0.101196,-0.131739 0.05068,-0.08776 0.05068,-0.131726 0.05068,-0.219482 0,-0.08777 -0.101208,-0.131725 -0.151931,-0.131725 -0.05068,-0.04391 -0.101208,-0.04391 -0.151935,-0.04391 0,-0.04391 0,-0.04391 0,-0.08776 0,0 -0.05068,-0.04391 -0.05068,-0.04391 -0.303776,-0.13174 -0.556923,-0.219487 -0.860685,-0.351172 -0.354406,0.219484 -0.911313,0.08776 -1.265719,0.307283 -0.151932,0.08777 -0.253147,0.219482 -0.354406,0.307269 -0.202517,0.131727 -0.405019,0.263387 -0.607553,0.395083 -0.05068,0.04391 -0.202501,0.219483 -0.253131,0.351184 0,0 0,0 0,0 -2.582059,0.482866 -3.392128,0.614553 -6.024814,0.790153 -0.506281,0.04391 -1.01258,0.04391 -1.468229,-0.08777 -0.506298,-0.131738 -1.113843,-0.570665 -1.569492,-0.790153 -0.405035,-0.219482 -0.810052,-0.395084 -1.164456,-0.614571 -0.455667,0.921853 -1.063212,1.755909 -1.670758,2.546057 0.860686,0.351168 1.772003,0.702351 2.582075,1.141321 0.405016,0.219486 1.01256,0.307281 1.468225,0.351189 0.354406,0.04391 1.113829,-0.04391 1.468231,-0.08777 2.98709,-0.219481 7.189258,-1.93147 7.89807,-1.93147 0.253147,0 0.506293,0.04391 0.810055,0.08776 0.253146,0 0.556922,-0.04391 0.810084,-0.08776 0.05068,0 0.151918,-0.04391 0.202503,-0.08777 0.05068,0 0.05068,0 0.101207,0 0.05053,0 0.101197,-0.04391 0.151948,-0.08776 0.05068,-0.04391 0.05068,-0.08777 0.05068,-0.131738 0,-0.04391 -0.05068,-0.08776 -0.151929,-0.131738 0,0 0,0 0,0 0.101196,0 0.202531,0 0.253159,-0.08776 0.05053,-0.04391 0.101208,-0.131738 0.101208,-0.219502 0,-0.08778 -0.05068,-0.175583 -0.151947,-0.175583 0,0 -0.05068,0 -0.05068,0 0,0 0,-0.04391 0,-0.04391 -0.151932,-0.08777 -0.101208,-0.08777 -0.05068,-0.13174 z"
       id="path697"
       style="fill:#a05a2c;fill-opacity:1;stroke-width:0.471429" />
    <path
       class="st3"
       d="m 20.30764,38.808128 c 0.455665,0.04393 0.961946,0.52677 1.265719,0.790153 0.405035,0.307292 0.911316,0.351191 1.316352,0.526775 -0.405036,0.57066 -0.354404,1.536416 -0.75944,2.150965 -0.25314,-0.30728 -1.366966,-0.08783 -1.772,0.13167 -0.405018,0.219482 -0.911316,0.482864 -1.265721,0.790144 -0.354385,0.307295 -1.012561,0.702361 -1.468226,0.74626 -0.151938,0.04398 -0.303775,0 -0.45565,-0.04397 -0.0507,-0.04398 -0.253142,-0.175585 -0.303773,-0.219497 z"
       id="path705"
       style="fill:#333333;stroke-width:0.471429" />
    <path
       class="st10"
       d="m 28.914522,32.22353 c 0.759438,2.238769 2.278301,3.380108 3.695895,5.179894 1.620126,2.019277 2.835215,3.599573 1.366966,5.531071 -2.379545,0.570663 -2.278281,0.790145 -4.75909,0.614548 -2.480809,-0.175583 -4.910985,-0.570647 -7.391794,-0.965728 -0.05054,-0.965741 0,-1.931496 0.101219,-2.897229 2.582072,0.219487 5.164124,0.263386 7.695564,0.131726 -3.594632,-1.22914 -6.379214,-4.126364 -7.037389,-7.418659 2.025141,-0.04391 4.404686,0 6.328581,-0.175599 z"
       id="path711"
       style="fill:#177866;fill-opacity:1;stroke-width:0.471429" />
    <path
       class="st3"
       d="m 18.029357,40.344552 c 0.455649,0.04397 0.961948,0.526761 1.265721,0.790157 0.405017,0.307268 0.911316,0.351166 1.316333,0.526763 -0.405017,0.570649 -0.354385,1.536405 -0.759422,2.150966 -0.253138,-0.30728 -1.366983,-0.08783 -1.772,0.131671 -0.405036,0.219482 -0.911315,0.482878 -1.265721,0.790159 -0.354403,0.30728 -1.01258,0.702345 -1.468229,0.746244 -0.151933,0.04398 -0.303769,0 -0.455667,-0.04397 -0.0507,-0.04398 -0.253141,-0.175583 -0.303771,-0.219483 z"
       id="path719"
       style="fill:#333333;stroke-width:0.471429" />
    <path
       class="st11"
       d="m 28.256346,32.311333 c -1.97451,0.263381 -5.417266,0.351179 -7.442407,0.395082 0.151933,2.326554 1.468227,4.609213 3.544,6.101713 1.873264,1.360826 3.341495,2.019287 5.113494,3.467893 -3.594634,0.13167 -6.277951,-0.175584 -9.720706,-1.141312 -0.202509,1.229109 -0.202509,2.502132 0,3.731255 5.012249,-0.04384 7.037389,1.668102 13.011568,0.570663 0.658178,-0.526764 1.974529,-1.624189 1.721387,-2.28265 -0.75944,-1.975395 -1.56949,-3.204505 -3.138984,-5.311585 -1.366963,-1.799783 -2.733949,-3.423991 -3.088352,-5.531059 z"
       id="path725"
       style="fill:#178066;fill-opacity:1;stroke-width:0.471429" />
    <path
       class="st12"
       d="m 26.484344,19.668892 c -0.05072,-0.307281 -0.202508,-0.614567 -0.50628,-0.74625 -0.202528,-0.08777 -0.455668,-0.08777 -0.708808,-0.08777 -0.860684,0.04391 -1.772001,0.08777 -2.53144,0.482867 -0.151934,0.08777 -0.303773,0.175603 -0.303773,0.307283 -0.05053,0.175605 0.151935,0.30729 0.303773,0.395087 0.860704,0.482866 1.923896,0.702353 2.936477,0.921836 0.202506,0.04391 0.506281,0.08777 0.658173,-0.04391 0.101219,-0.08776 0.151937,-0.219482 0.151937,-0.35117 0.101218,-0.263384 0.101218,-0.570666 0,-0.877948 z"
       id="path733"
       style="fill:#c9433d;stroke-width:0.471429" />
    <path
       class="st7"
       d="m 26.281836,19.010437 c 1.215088,1.273023 1.822631,2.941107 2.025141,4.609217 0.25314,1.668104 0.151936,3.336196 0.25314,5.0043 0.101219,1.668101 0.405037,3.380089 1.316354,4.828711 -2.885845,0.482865 -5.872934,0.570666 -8.809392,0.30728 -0.202507,0 -0.405037,-0.04391 -0.556912,-0.175593 C 20.30764,33.408762 20.30764,33.10148 20.30764,32.882 c 0.101218,-1.799789 -0.405019,-3.599579 -0.708789,-5.399386 -0.303773,-1.799788 -0.303773,-3.994646 0.556911,-5.662746 0.961947,-1.799791 3.49337,-3.555701 5.113494,-3.028928 z"
       id="path739"
       style="fill:#ff7f2a;fill-opacity:1;stroke-width:0.471429" />
    <path
       class="st12"
       d="m 21.168341,22.917302 c -0.405036,0.219483 -0.455667,0.702352 -0.506299,1.141318 -0.151933,2.282673 0.05072,4.609233 0.810071,6.804105 0.0507,0.175581 0.151935,0.395067 0.303774,0.482871 0.202507,0.131724 0.506279,0.08776 0.708788,-0.04391 0.202528,-0.131725 0.354405,-0.351183 0.455667,-0.526768 0.70879,-1.141331 1.012562,-2.414349 1.164459,-3.731275 0.0507,-0.746249 0.0507,-1.536403 -0.20251,-2.282654 -0.253159,-0.746255 -0.81007,-1.404725 -1.569493,-1.755903 -0.303774,-0.219487 -0.759439,-0.307274 -1.164457,-0.08777 z"
       id="path745"
       style="fill:#ff6600;fill-opacity:1;stroke-width:0.471429" />
    <path
       class="st11"
       d="m 29.876471,33.452665 c -0.911317,-1.448622 -1.113827,-3.16061 -1.21509,-4.828711 -0.05071,-0.921838 -0.101218,-2.502144 -0.151933,-3.423992 -1.366964,0.746249 -3.392106,1.448616 -4.202178,2.80942 -0.607545,0.74627 -0.45565,2.282673 -0.759421,3.028924 -0.5063,1.185224 -1.366984,1.624206 -2.075773,2.721639 2.78456,0.263386 5.670408,0.175585 8.404354,-0.30728 z"
       id="path753"
       style="fill:#178066;fill-opacity:1;stroke-width:0.471429" />
    <path
       class="st11"
       d="m 23.85166,21.732069 c -0.607546,-0.482878 -1.417617,-0.877939 -2.22767,-0.965743 -0.405035,-0.04391 -0.911316,-0.04391 -1.164455,0.482865 0.708806,-0.263383 1.518859,-0.131725 2.177035,0.219488 0.658175,0.351189 1.113826,0.877955 1.51886,1.448623 0.860688,1.273019 1.316334,2.809427 1.265722,4.301928 0.303772,-0.04391 0.405016,0.131739 0.556912,-0.08778 0.151933,-0.219487 0.0507,-0.570664 0,-0.834049 0,-0.790152 -0.354405,-2.063176 -0.759441,-2.765543 -0.405014,-0.790154 -0.658175,-1.273024 -1.366963,-1.799792 z"
       id="path759"
       style="fill:#178066;fill-opacity:1;stroke-width:0.471429" />
    <path
       class="st9"
       d="m 26.028696,20.371245 c 0.101219,-0.04391 0.101219,-0.13174 0.101219,-0.219487 0.151933,-0.965733 0.253138,-1.887591 0.405035,-2.853323 -0.810053,0 -1.569492,-0.395067 -2.328915,-0.658451 -0.506298,1.492505 -1.063212,1.799787 -1.569491,2.853325 1.063193,0.30728 2.025141,0.921834 3.138966,0.921834 0.101218,0 0.202528,0 0.253158,-0.04391 z"
       id="path769"
       style="fill:#a05a2c;fill-opacity:1;stroke-width:0.471429" />
    <path
       class="st3"
       d="m 24.813609,16.859472 c -0.303773,1.229121 0.303771,2.194853 1.417594,2.589933 0.101219,-0.702348 0.202511,-1.40472 0.303774,-2.15097 -0.556913,-0.04391 -1.164456,-0.263384 -1.721368,-0.438963 z"
       id="path775"
       style="fill:#784421;fill-opacity:1;stroke-width:0.471429" />
    <path
       class="st9"
       d="m 26.281836,12.733109 c -0.5063,0 -1.01258,0.131725 -1.417616,0.395081 -0.455648,0.263382 -0.759419,0.702353 -0.911316,1.141337 -0.405017,1.053537 -0.151934,2.282654 0.607544,3.160609 0.759439,0.877938 2.025159,1.404706 3.341493,1.360804 0.607543,-0.877933 1.215089,-1.799791 1.417614,-2.765523 0.20251,-1.009639 -0.101218,-2.150978 -1.012578,-2.765545 -0.556913,-0.395066 -1.316351,-0.526763 -2.025141,-0.526763 z"
       id="path783"
       style="fill:#a05a2c;fill-opacity:1;stroke-width:0.471429" />
    <path
       class="st3"
       d="m 28.762644,13.215995 c -0.607543,-0.43899 -1.366984,-0.658475 -2.126404,-0.702374 -0.556931,-0.04391 -1.113844,0.04391 -1.569492,0.307283 -0.455668,0.219487 -0.81007,0.614573 -1.012582,1.053535 -0.506279,0.965739 -0.455646,2.107075 0.151935,3.028929 0.05053,-0.175599 0.151935,-0.307287 0.25314,-0.438984 -0.0507,-0.04391 -0.101218,-0.131738 -0.101218,-0.219486 -0.05072,-0.219481 -0.05072,-0.482866 0.05071,-0.702352 0.0507,-0.131727 0.101219,-0.307281 0.253139,-0.35118 0.20251,-0.08777 0.45567,0 0.556912,0.131726 0.101241,0.08776 0.151936,0.219485 0.151936,0.351163 0.45565,-0.263386 0.911316,-0.570666 1.215088,-0.965738 1.012561,0.263385 1.620105,0.395072 2.683318,0.263385 0,-0.614563 0.101219,-1.316916 -0.506281,-1.755886 z"
       id="path789"
       style="fill:#454837;fill-opacity:1;stroke-width:0.471429" />
    <path
       class="st12"
       d="m 29.62333,13.347671 c -0.151935,-0.30728 -0.5063,-0.570666 -0.860686,-0.702353 -0.911316,-0.438978 -1.974528,-0.526768 -3.03772,-0.614563 -0.860704,0.351179 -1.518861,1.009636 -1.822633,1.799788 0.708789,0.614567 1.670738,1.053538 2.683316,1.273023 1.012562,0.219498 2.025142,0.219498 3.037723,0.175596 -0.0507,-0.658467 0.303771,-1.316919 0,-1.931491 z"
       id="path793"
       style="fill:#ff6600;fill-opacity:1;stroke-width:0.471429" />
    <path
       class="st7"
       d="m 30.686523,16.113211 c 0.101241,0 0.151932,0.04391 0.253138,0.04391 0.101219,0 0.202529,0 0.202529,-0.08778 0.0507,-0.08777 -0.05072,-0.175602 -0.151935,-0.263383 -0.708788,-0.438988 -1.468229,-0.877957 -2.328914,-1.009635 -0.961945,-0.131739 -1.923893,0.131728 -2.885842,-0.04401 0.101218,0.175588 0.303771,0.30729 0.5063,0.395071 0.50628,0.263384 1.01256,0.526768 1.518858,0.746248 0.354406,0.175606 0.658177,0.351191 1.012564,0.43899 0.354402,0.08778 0.759439,0.131737 1.113841,0 0.303774,-0.08777 0.506282,-0.263384 0.759421,-0.219486 z"
       id="path799"
       style="fill:#ff7f2a;fill-opacity:1;stroke-width:0.471429" />
    <path
       class="st7"
       d="m 42.077992,23.619654 1.518852,-1.22912 c 0.151932,-0.131739 0.405019,-0.131739 0.607551,-0.04391 l 0.759411,0.526769 c 0.151946,0.08777 0.151946,0.263381 0.05068,0.395066 l -0.354404,0.395083 -0.506266,-0.263385 0.202504,-0.307282 -0.455651,-0.307282 -1.366991,1.316916 z"
       id="path809"
       style="fill:#ff6600;fill-opacity:1;stroke-width:0.471429" />
    <path
       class="st3"
       d="m 43.748731,24.05862 -1.063202,-0.877932 c -0.101197,-0.08777 -0.303776,-0.08777 -0.455665,0 l -1.518866,1.185218 v 0 c 0.303775,0.263385 0.303775,0.702366 -0.05068,0.921852 -1.518867,1.097437 -3.088339,2.194856 -4.607198,3.292291 -0.455668,0.307289 -0.96195,0.702372 -1.113846,1.185237 -0.0507,0.175586 -0.0507,0.351169 0,0.526769 0.05072,0.175583 0.253141,0.307287 0.455669,0.35117 0.303772,0.04391 0.607543,-0.175587 0.810052,-0.35117 1.670756,-1.536403 3.39212,-3.028924 5.06286,-4.565326 0.303776,-0.263384 0.75944,-0.263384 1.063215,-0.04391 v 0 l 1.366963,-1.18522 c 0.202534,-0.131739 0.202534,-0.307292 0.05068,-0.438987 z"
       id="path815"
       style="fill:#233865;stroke-width:0.471429" />
    <rect
       x="11.397142"
       y="44.963108"
       transform="matrix(0.78857275,-0.61494148,0.71993569,0.69404077,0,0)"
       class="st7"
       width="1.2411066"
       height="0.47025591"
       id="rect821"
       style="fill:#ff6600;fill-opacity:1;stroke-width:0.47379" />
    <path
       class="st7"
       d="m 24.206063,23.883036 c -0.202526,-0.614564 -0.405036,-1.229119 -0.860705,-1.755886 -0.455647,-0.526769 -1.164455,-0.877959 -1.873245,-0.746251 -0.658174,0.131739 -1.113842,0.658451 -1.265719,1.229118 -0.151934,0.570671 -0.0507,1.14134 0.151935,1.711985 0.405035,1.316923 1.01258,2.54606 1.822633,3.68738 0.961947,-0.482867 2.025158,-1.053532 3.138985,-1.536404 -0.405037,-0.834053 -0.810055,-1.711987 -1.113827,-2.589942 z"
       id="path829"
       style="fill:#ff7f2a;fill-opacity:1;stroke-width:0.471429" />
    <path
       class="st9"
       d="m 38.736498,27.570415 c -0.202534,-0.13174 -0.455674,-0.219484 -0.65818,-0.351185 -0.202511,-0.131725 -0.506281,-0.219483 -0.708809,-0.131725 -0.0507,0.04391 -0.10123,0.04391 -0.202509,0.08776 -0.253141,0.08777 -0.455667,-0.131724 -0.708808,-0.131724 -0.202509,0 -0.354404,0.08777 -0.506281,0.219481 -0.151933,0.131741 -0.354405,0.219488 -0.556912,0.263386 -0.556913,0.131739 -1.113843,0.175598 -1.670757,0.263383 -0.506279,0.08777 -1.012561,0.175605 -1.569492,0.219488 -1.164456,0.175594 -2.278279,0.351179 -3.442735,0.438984 -0.405038,0.04391 -0.810074,0.08776 -1.215091,0.08776 -0.101218,0 -1.113843,0.08777 -1.113843,0 -0.354385,-0.658451 -0.708788,-1.316921 -1.01256,-2.019274 -1.113843,0.482871 -2.177039,1.053537 -3.138986,1.536404 0.708807,1.053541 1.518861,2.063177 2.328913,3.072829 0.202528,0.219488 0.405036,0.482866 0.708808,0.61455 0.50628,0.219482 1.164458,0.08777 1.72137,-0.04391 2.58207,-0.658455 5.113512,-1.448604 7.594302,-2.282653 0.253158,-0.04391 0.455667,-0.131739 0.455667,-0.08777 0.101219,0 0.151933,0.04391 0.25314,0.08777 0.151935,0.08776 0.303771,0.175585 0.455668,0.263379 0.202508,0.08777 0.405017,0.08777 0.607546,0.08777 0.405017,0 0.810051,0 1.164454,0 0.05072,0 0.101219,0 0.20251,-0.04391 0.151933,-0.08777 0.101219,-0.263385 0.202509,-0.351189 0.10123,-0.08776 0.354402,0 0.455666,-0.08776 0.101219,-0.08777 0.0507,-0.307287 0.151935,-0.395087 0.101218,-0.131724 0.354407,-0.131724 0.354407,-0.263379 0.05068,-0.131739 -0.101208,-0.263384 -0.05068,-0.351181 0,-0.04382 0.05068,-0.04382 0.05068,-0.08777 0.05068,-0.04391 0.151931,-0.08777 0.151931,-0.175603 0,-0.263381 -0.151931,-0.35116 -0.303777,-0.43897 z"
       id="path835"
       style="fill:#a05a2c;fill-opacity:1;stroke-width:0.471429" />
    <rect
       x="6.9923024"
       y="46.975712"
       transform="matrix(0.71924573,-0.69475577,0.78916521,0.61418098,0,0)"
       class="st7"
       width="0.23510711"
       height="0.71615934"
       id="rect845"
       style="fill:#ff6600;fill-opacity:1;stroke-width:0.473815" />
    <polygon
       class="st7"
       points="295.4,151.5 294.6,150.1 295.4,148.6 297,148.6 297.9,150.1 297,151.5 "
       id="polygon851"
       transform="matrix(0.50628685,0,0,0.43897347,-105.80841,-40.777765)"
       style="fill:#ff6600;fill-opacity:1" />
    <path
       class="st7"
       d="M 69.518723,11.065019 C 69.164317,9.9675777 68.809941,8.8701434 68.151759,7.9044075 67.493578,6.9386546 67.189801,6.4118861 65.822824,6.016815 64.45586,5.6217331 61.671274,5.6217331 60.709331,6.4557839 c -0.708796,0.6145727 -0.961943,1.4486236 -0.911315,2.2387765 0.05082,0.7901453 0.303763,1.5803036 0.556909,2.3704586 1.215076,3.599578 2.025161,7.286952 2.379566,10.974331 2.632683,0.877952 5.872917,0.39508 7.948678,-1.18522 0.455678,-0.351188 0.860714,-0.746268 0.961957,-1.229134 0.101207,-0.438971 -0.05082,-0.877939 -0.151947,-1.316922 -0.810055,-2.282657 -1.215075,-4.872597 -1.974517,-7.243055 z"
       id="path857"
       style="fill:#f96a57;stroke-width:0.471429" />
    <path
       class="st3"
       d="m 73.012119,49.606875 c 0.151918,-0.395066 -0.151933,-1.097413 -0.253148,-1.492492 -0.101196,-0.438979 -0.607551,-0.746259 -0.556935,-1.141338 -0.708797,0 -1.316321,0.131669 -2.025146,0.131669 0.151931,0.351195 -0.202503,0.746261 -0.60754,0.921842 -0.405033,0.175597 -0.911312,0.263383 -1.366962,0.351181 -0.455665,0.08782 -0.961943,0.219496 -1.21509,0.526776 -0.101197,0.08783 -0.15193,0.219469 -0.15193,0.351181 0,0.04383 0,0.30728 0.05081,0.351167 z"
       id="path863"
       style="fill:#333333;stroke-width:0.471429" />
    <path
       class="st10"
       d="m 70.885715,20.020077 c 1.113816,2.370457 0.86067,5.004298 0.303763,7.506438 -0.506309,2.502156 -1.316366,5.004301 -1.26572,7.506454 0.101207,4.214149 2.632681,8.208806 2.582038,12.422953 -0.911315,0.219482 -1.620081,0.702346 -2.936446,0.395065 -1.063185,-2.370447 -1.9745,-4.565327 -3.037717,-6.935774 -0.911313,-1.975379 -1.772011,-3.994656 -2.075773,-6.145623 -0.607553,-4.697022 1.923885,-9.481832 0.506279,-14.047166 1.822628,-0.614562 3.695899,-1.185218 5.518526,-1.799782 z"
       id="path869"
       style="fill:#177866;fill-opacity:1;stroke-width:0.471429" />
    <path
       class="st3"
       d="m 64.860894,51.406673 c 0.202504,-0.395079 -0.05081,-1.009656 -0.101196,-1.404706 -0.101208,-0.438979 -0.151919,-0.746259 -0.101208,-1.141338 -0.81007,0 -2.075775,0 -2.885829,0 0.151932,0.35118 -0.202533,0.746246 -0.658183,0.921855 -0.455665,0.175584 -0.961944,0.263382 -1.518867,0.351154 -0.506278,0.08783 -1.063199,0.219508 -1.366963,0.526775 -0.101208,0.08783 -0.202518,0.219498 -0.202518,0.351181 0,0.04385 0,0.307281 0.05081,0.351181 h 6.784261 z"
       id="path877"
       style="fill:#333333;stroke-width:0.471429" />
    <path
       class="st11"
       d="m 61.468771,49.431291 c 1.417593,-0.131669 2.885816,-0.219482 4.303438,-0.35118 -1.012587,-6.101715 -0.202533,-12.379052 2.227648,-18.129605 0.75944,-1.755886 1.670768,-3.555678 1.873255,-5.443264 0.151948,-1.712003 -0.25313,-3.380092 -0.708795,-5.048197 -1.873243,0.307281 -3.797143,0.482866 -5.72103,0.482866 -0.405021,2.589944 -0.810069,5.179899 -1.265734,7.769843 -0.455649,2.897227 -0.911313,5.750545 -0.961928,8.69167 -0.05081,3.994666 0.759425,8.033203 0.253146,12.027867 z"
       id="path883"
       style="fill:#178066;fill-opacity:1;stroke-width:0.471429" />
    <path
       class="st9"
       d="M 66.075985,6.4557839 C 64.658363,6.5875228 63.291398,6.9386546 62.076309,7.4654193 62.025494,6.4996859 61.620645,5.5339485 60.962478,4.699899 c 0.860699,0.087758 1.518851,-0.3511841 2.32892,-0.7023531 0.607553,0.9218355 1.822644,1.8436903 2.784587,2.458238 z"
       id="path891"
       style="fill:#a05a2c;fill-opacity:1;stroke-width:0.471429" />
    <path
       class="st7"
       d="M 60.861219,3.0756925 C 60.658701,2.8123081 60.253681,2.6806256 59.899277,2.6367278 c -0.354406,-0.043926 -0.759441,0.043926 -1.113832,0.1755803 -0.202517,0.043926 -0.455664,0.131739 -0.556923,0.3511883 -0.05053,0.1317252 -0.05053,0.2633843 -0.101208,0.3950613 -0.05081,0.7023725 -0.556908,1.3169257 -0.607551,2.0192885 0,0.1755845 0.05081,0.4389688 0.253147,0.5267729 0.202517,0.087758 0.405033,-0.043926 0.607552,-0.1317252 0.354391,-0.17559 0.708811,-0.2633843 1.113831,-0.3072918 0.354389,-0.043926 0.708796,-0.043926 0.961927,-0.2633828 0.20252,-0.1755805 0.303776,-0.3950615 0.405036,-0.6584472 0.101196,-0.2633843 0.202517,-0.5267728 0.202517,-0.834055 0.05081,-0.3072848 -0.05081,-0.614567 -0.202517,-0.8340493 z"
       id="path897"
       style="fill:#ff7f2a;fill-opacity:1;stroke-width:0.471429" />
    <path
       class="st9"
       d="m 61.164982,0.66133707 c -0.658168,-0.043926 -1.366966,0.1317251 -1.873259,0.52676873 -0.86067,0.6145671 -1.113816,1.7120063 -1.012572,2.6777438 0.151932,1.0535318 0.658169,2.0192691 1.468237,2.7655381 0.202517,0.1755845 0.405021,0.3511649 0.708795,0.3511649 0.151933,0 0.253148,-0.043926 0.405036,-0.087758 C 61.823177,6.4997036 62.683861,5.8851405 63.24077,5.0511007 63.797676,4.2609481 63.949581,3.251299 63.595175,2.3733613 63.19014,1.451512 62.228197,0.74915887 61.164982,0.66135497 Z"
       id="path903"
       style="fill:#a05a2c;fill-opacity:1;stroke-width:0.471429" />
    <path
       class="st3"
       d="m 58.431053,3.2073942 c 0.05082,0.3511635 0.354392,0.7023532 0.759412,0.7901517 0,-0.1317389 -0.05082,-0.2195002 0,-0.3511828 0,-0.1317252 0.101207,-0.2194824 0.202531,-0.2633856 0.202503,-0.087757 0.40502,0 0.556909,0.1755802 0.202504,0.219488 0.303776,0.5267728 0.253148,0.7901572 0.556908,0.1317389 1.164459,0.043926 1.721368,0.043926 0.556908,-0.043926 1.215091,-0.043926 1.670754,0.2633843 0.455649,-1.0535368 0.202501,-2.2826573 -0.556909,-3.1606099 -0.151931,-0.1755846 -0.354405,-0.3511829 -0.556937,-0.3950657 -0.151931,-0.043926 -0.354391,-0.043926 -0.556908,-0.043926 -0.708796,0 -1.468238,0.087769 -2.126405,0.3950724 -0.65818,0.3072808 -1.16446,0.8779513 -1.215088,1.4925198 z"
       id="path909"
       style="fill:#454837;fill-opacity:1;stroke-width:0.471429" />
    <path
       class="st12"
       d="m 61.620645,0.13456432 c -0.303777,-0.0877577 -0.658167,-0.0439264 -1.012559,0 -0.506307,0.0877699 -1.012587,0.21948644 -1.417621,0.43898665 -0.455634,0.2194879 -0.81004,0.52676873 -1.063187,0.92183553 -0.253132,0.3950861 -0.354405,0.921859 -0.303776,1.3608195 0.05081,0.4828707 0.202504,0.9218397 0.455649,1.3608222 0.405037,-0.4828667 0.81007,-1.009634 1.26572,-1.4486233 C 60.000535,2.3294415 60.557458,1.9343554 61.215625,1.6709765 61.873792,1.4514888 62.582587,1.363704 63.291398,1.5832075 63.088881,1.2320218 62.734491,0.92473557 62.430714,0.66135117 62.177553,0.44186465 61.924421,0.2223823 61.620645,0.13458267 Z"
       id="path915"
       style="fill:#ff6600;fill-opacity:1;stroke-width:0.471429" />
    <path
       class="st7"
       d="m 67.139171,9.001841 c 0.05082,-0.7901528 -0.151931,-1.5803003 -0.708796,-2.2387748 -0.30379,-0.3511801 -0.70881,-0.6145631 -1.21509,-0.6145631 -0.607537,0.043926 -1.012558,0.5706651 -1.265704,1.0535304 -0.658183,1.3169272 -1.113846,2.6777452 -1.772028,3.9946715 1.012587,1.097434 2.227662,1.316916 3.493396,1.27302 0.253132,-0.395072 0.50628,-0.834042 0.708796,-1.27302 0.405022,-0.658458 0.708798,-1.4486083 0.759426,-2.194864 z"
       id="path923"
       style="fill:#f96a57;stroke-width:0.471429" />
    <path
       class="st9"
       d="m 62.177553,11.2406 c -0.05053,0.131741 -0.101197,0.263386 -0.151918,0.351185 -1.316365,2.589941 -3.138991,4.916498 -5.721045,6.672382 -0.202531,0 -0.607552,0.131739 -0.810069,0.175604 -0.253146,0.08777 -0.35439,0.263385 -0.45565,0.438969 -0.202516,0.307285 -0.405034,0.658466 -0.708811,0.877953 -0.151946,0.08775 -0.303776,0.175584 -0.455649,0.263384 -0.101208,0.04396 -0.455664,0.131726 -0.455664,0.21948 -0.05068,0.08777 0,0.175586 0.101208,0.219488 0.101196,0.04392 0.151932,0.04392 0.253146,0.08777 0.303776,0.04391 0.607538,0.04391 0.860685,0.08777 0.455678,0.04391 0.708811,-0.08777 1.164459,-0.131739 0.253162,0 0.455666,-0.04391 0.708798,-0.08777 0.405034,-0.131739 0.75944,-0.395071 1.012572,-0.746255 0.253161,-0.307281 0.607552,-0.482866 0.75944,-0.834049 2.78457,-1.887593 5.771673,-3.775164 7.493059,-6.36512 -1.366994,0.08778 -2.58207,-0.131739 -3.594657,-1.229119 z"
       id="path929"
       style="fill:#a05a2c;fill-opacity:1;stroke-width:0.471429" />
    <path
       class="st7"
       d="M 69.468093,11.02112 C 69.113702,9.9236747 68.759297,8.8262414 68.101115,7.8605094 67.442947,6.8947719 67.139171,6.3680034 65.772209,5.9729173 64.405215,5.5778462 61.620645,5.5778462 60.658701,6.4118861 59.949905,7.0264503 59.696773,7.8605094 59.747388,8.650657 c 0.05082,0.7901524 0.303761,1.580311 0.556922,2.370463 1.215091,3.599575 2.025145,7.286954 2.379551,10.974332 2.632683,0.877949 5.872904,0.395082 7.948708,-1.185218 0.455649,-0.351189 0.86067,-0.746256 0.961912,-1.229141 0.101207,-0.438969 -0.05082,-0.877937 -0.151932,-1.316926 -0.810041,-2.282653 -1.215089,-4.872595 -1.97453,-7.243047 z"
       id="path937"
       style="fill:#ff7f2a;stroke-width:0.471429" />
    <path
       class="st12"
       d="M 64.303972,10.977217 C 64.253445,10.18706 64.152039,9.4408094 63.797676,8.6945604 63.443287,7.9921921 62.835735,7.3337407 62.025679,6.9825526 61.721904,6.8508137 61.367512,6.7630662 61.114366,6.8947949 c -0.253147,0.087757 -0.405035,0.2633789 -0.50628,0.4828653 -0.354405,0.6145492 -0.506307,1.360818 -0.455677,2.0631713 0.05082,0.7023525 0.253147,1.4047225 0.405049,2.0631675 0.40502,1.448623 0.810054,2.897228 1.215089,4.34585 0.961944,-0.395079 1.67074,-1.185237 2.07576,-2.063186 0.40505,-0.921839 0.50628,-1.887572 0.455665,-2.809428 z"
       id="path943"
       style="fill:#ff6600;stroke-width:0.471429" />
    <path
       class="st11"
       d="m 62.937009,17.298435 c -0.202518,0.04396 -0.354422,0.131724 -0.45568,0.307287 -0.556908,-2.370457 -1.113817,-4.784818 -1.468222,-7.199176 -0.151933,-0.9218403 -0.253146,-1.8875853 -0.202503,-2.8533228 0,-0.3072863 0.05082,-0.6145686 0.202503,-0.9218355 0.151918,-0.3072809 0.354405,-0.5706693 0.658167,-0.702371 -0.303762,3.81908 0.455664,7.6381413 1.265735,11.3694183 z"
       id="path951"
       style="fill:#178066;fill-opacity:1;stroke-width:0.471429" />
    <path
       class="st11"
       d="m 67.088543,20.502942 c -2.632683,0 -3.949031,-2.765539 -4.455325,-5.048196 -0.354391,0 -0.556909,-0.175584 -0.961944,0.175589 0.506279,2.150966 0.506279,4.389742 0.75944,6.540713 2.632684,0.877938 6.227324,0.263382 8.252455,-1.273034 0.405049,-0.307267 0.759454,-0.658457 0.911312,-1.097425 -1.366962,0.658456 -2.835184,0.921835 -4.505938,0.702353 z"
       id="path957"
       style="fill:#178066;fill-opacity:1;stroke-width:0.471429" />
    <path
       class="st11"
       d="m 71.543883,19.932277 c 0,-0.04391 0.101207,-0.351184 0.101207,-0.395071 -0.607556,-1.448613 -1.215093,-2.85334 -1.873275,-4.301941 C 68.759253,12.95261 67.746666,10.626029 66.126555,8.650657 65.316499,7.6849249 64.101395,6.9825526 63.240726,6.016815 62.987578,5.7095343 62.683817,5.7534307 62.430656,5.8850899 c 2.278307,1.9314887 4.100919,4.2580491 5.518527,6.7602061 1.316348,2.370457 2.278291,5.092079 3.290877,7.55034 0.101197,-0.131738 0.151934,-0.175589 0.303763,-0.263385 z"
       id="path963"
       style="fill:#178066;fill-opacity:1;stroke-width:0.471429" />
    <path
       class="st11"
       d="M 67.949227,8.2994783 C 67.898405,7.9044075 67.797294,7.4654193 67.59485,7.1142543 67.392319,6.7630662 67.341675,6.5874899 66.886039,6.4557839 c 1.063188,1.9314889 0.708811,3.6873791 0.860684,5.8383551 0.202504,2.941126 -0.253145,6.321215 -1.164444,9.17454 0.30376,-0.04391 1.417578,-0.219488 1.721353,-0.219488 0.202533,-4.345823 0.405035,-8.691671 -0.354405,-12.9497127 z"
       id="path969"
       style="fill:#178066;fill-opacity:1;stroke-width:0.471429" />
    <path
       class="st9"
       d="m 61.26624,13.12819 c -1.417593,-0.08775 -2.632684,-0.482872 -3.543996,-1.755891 -0.101207,0.131739 -0.151948,0.263384 -0.253147,0.39507 -1.772,2.677741 -4.303436,4.9604 -7.341155,6.628506 -0.253146,0 -0.506278,0 -0.759426,-0.04391 -0.253161,0 -0.506294,-0.04391 -0.75944,0.04391 -0.303776,0.04391 -0.556908,0.175583 -0.810056,0.263383 -0.303761,0.08776 -0.303761,0.08776 -0.607537,0.175584 -0.101207,0.04391 -0.202532,0.04391 -0.253147,0.131726 -0.05068,0.04391 -0.101197,0.175579 -0.05068,0.219485 0.05068,0.08776 0.151934,0.08776 0.253148,0.08776 0.253132,0 0.202503,0.08778 0.45565,0.04391 0.607537,-0.175575 0.961942,-0.131725 1.265718,0 -0.556921,0.482889 -1.265718,0.834059 -2.075773,1.053542 -0.05068,0.08777 0,0.175597 0.05068,0.219495 0.05068,0.04402 0.151948,0.08777 0.253149,0.131739 0.303776,0.08775 0.607536,0.131725 0.911313,0.175585 0.506278,0.08776 0.75944,-0.04382 1.265719,0 0.253147,0 0.506279,0.04391 0.759424,0 0.455665,-0.08777 0.860702,-0.351165 1.215091,-0.702354 0.303762,-0.30728 0.759441,-0.438968 0.961942,-0.834049 3.341494,-1.843693 6.834892,-3.555682 9.062525,-6.233422 z"
       id="path979"
       style="fill:#a05a2c;fill-opacity:1;stroke-width:0.471429" />
    <path
       class="st7"
       d="m 63.392644,9.35301 c 0.151932,-0.8779375 0.05083,-1.8436848 -0.405007,-2.5899438 -0.253146,-0.3950628 -0.70881,-0.7901489 -1.21509,-0.8340495 -0.708811,-0.043926 -1.215089,0.5706692 -1.569494,1.0535359 -0.961958,1.4047202 -1.670756,2.9411221 -2.582084,4.3458494 0.911328,1.360818 2.227678,1.711989 3.695899,1.843685 0.354406,-0.438978 0.708811,-0.877948 1.012587,-1.360818 0.455635,-0.74625 0.860685,-1.580301 1.063189,-2.458259 z"
       id="path985"
       style="fill:#ff7f2a;fill-opacity:1;stroke-width:0.471429" />
    <path
       class="st3"
       d="M 46.3308,41.837056 H 35.800015 V 37.842392 H 46.3308 Z M 36.306316,41.39809 h 9.518173 v -3.11673 h -9.518173 z"
       id="path995"
       style="fill:#233865;stroke-width:0.471429" />
    <polygon
       class="st7"
       points="301.6,195.3 301.6,188.6 299.1,183.4 281.4,183.4 278.9,188.6 278.9,195.3 "
       id="polygon1001"
       transform="matrix(0.50628685,0,0,0.43897347,-105.80841,-40.777765)"
       style="fill:#ff6600;fill-opacity:1" />
    <rect
       x="37.977055"
       y="37.535103"
       class="st7"
       width="6.5310993"
       height="1.0535363"
       id="rect1007"
       style="fill:#ff6600;fill-opacity:1;stroke-width:0.471429" />
    <rect
       x="35.901283"
       y="41.924828"
       class="st3"
       width="10.682651"
       height="0.26338407"
       id="rect1015"
       style="fill:#233865;stroke-width:0.471429" />
    <path
       class="st3"
       d="m 41.622313,44.031933 h -0.759412 c -0.354406,0 -0.607551,-0.219495 -0.607551,-0.526775 v -1.975383 c 0,-0.307281 0.253145,-0.526778 0.607551,-0.526778 h 0.759412 c 0.354405,0 0.607551,0.219497 0.607551,0.526778 v 1.975383 c 0,0.26338 -0.303776,0.526775 -0.607551,0.526775 z M 40.862901,41.39809 c -0.05068,0 -0.101196,0.04384 -0.101196,0.08783 v 1.975396 c 0,0.04397 0.05068,0.08783 0.101196,0.08783 h 0.759412 c 0.05068,0 0.101207,-0.04397 0.101207,-0.08783 V 41.48592 c 0,-0.04397 -0.05068,-0.08783 -0.101207,-0.08783 z"
       id="path1021"
       style="fill:#233865;stroke-width:0.471429" />
  </g>
</svg>
