<?xml version="1.0" encoding="UTF-8" standalone="no"?>
<!-- Created with Inkscape (http://www.inkscape.org/) -->

<svg
   width="210mm"
   height="297mm"
   viewBox="0 0 210 297"
   version="1.1"
   id="svg14501"
   inkscape:version="1.1 (c68e22c387, 2021-05-23)"
   sodipodi:docname="reparation.svg"
   xmlns:inkscape="http://www.inkscape.org/namespaces/inkscape"
   xmlns:sodipodi="http://sodipodi.sourceforge.net/DTD/sodipodi-0.dtd"
   xmlns="http://www.w3.org/2000/svg"
   xmlns:svg="http://www.w3.org/2000/svg">
  <sodipodi:namedview
     id="namedview14503"
     pagecolor="#505050"
     bordercolor="#eeeeee"
     borderopacity="1"
     inkscape:pageshadow="0"
     inkscape:pageopacity="0"
     inkscape:pagecheckerboard="0"
     inkscape:document-units="mm"
     showgrid="false"
     inkscape:zoom="0.51134961"
     inkscape:cx="396.01086"
     inkscape:cy="562.23765"
     inkscape:window-width="1920"
     inkscape:window-height="1001"
     inkscape:window-x="-9"
     inkscape:window-y="-9"
     inkscape:window-maximized="1"
     inkscape:current-layer="layer1" />
  <defs
     id="defs14498" />
  <g
     inkscape:label="Calque 1"
     inkscape:groupmode="layer"
     id="layer1">
    <path
       class="st1"
       d="m 183.32389,155.28519 c -1.93233,-7.79494 -1.13666,-15.69518 -2.61433,-23.59545 -1.13666,-6.32022 -4.66032,-11.69237 -9.88896,-15.69518 -8.29767,-6.42556 -17.61836,-6.95223 -27.50733,-8.53227 -11.02565,-1.79071 -16.93631,-8.953629 -25.1203,-15.379181 C 102.50698,79.864027 77.273012,79.96937 66.020024,97.87664 c -5.569662,8.95363 -6.024328,19.90863 -6.933661,30.02097 -0.454664,5.89887 -1.022998,11.79775 -1.477665,17.69657 -0.340977,4.42416 -0.113673,10.21769 -4.205659,13.16715 -3.637331,2.63339 -8.86599,2.3174 -12.844322,4.52944 -3.86466,2.00141 -6.819992,5.26686 -9.093319,8.8483 -5.342329,8.84829 -5.114996,19.38198 -2.841668,29.1783 l 164.36182,-0.10551 c 2.95535,-16.01116 -5.91065,-30.86368 -9.66166,-45.92683 z"
       id="path2355"
       style="fill:#ebe2dd;stroke-width:1.09422" />
    <path
       class="st2"
       d="m 27.487066,197.20925 c 0.227349,8.53226 2.614332,20.22466 10.229989,26.33418 5.796994,4.63483 16.140649,6.84689 24.324639,7.16291 8.183991,0.31612 16.481648,-0.42137 24.665638,0.10552 12.616987,0.84266 21.482978,1.79071 33.531628,4.74012 12.16232,2.84413 25.23399,4.84549 37.28263,1.68539 7.61566,-2.00138 14.32199,-5.89884 18.86863,-11.06036 2.61435,-2.94941 4.54669,-6.32019 7.27469,-9.16431 2.72799,-2.84408 6.36528,-5.26681 8.63864,-8.42692 2.27335,-3.1601 3.06902,-7.3736 0.22726,-10.21768 z"
       id="path2361"
       style="fill:#b3dee5;stroke-width:1.09422" />
    <rect
       x="87.275673"
       y="76.493256"
       class="st1"
       width="79.225578"
       height="121.03199"
       id="rect2375"
       style="fill:#ebe2dd;stroke-width:1.09422" />
    <path
       class="st13"
       d="m 167.75157,205.21483 h -57.17426 c -2.61433,0 -4.774,-2.00141 -4.774,-4.42414 V 185.4115 c 0,-2.42273 2.15967,-4.42414 4.774,-4.42414 h 57.17426 c 2.61433,0 4.77399,2.00141 4.77399,4.42414 v 15.37919 c 0,2.42273 -2.15966,4.42414 -4.77399,4.42414 z"
       id="path2381"
       style="fill:#ffffff;stroke-width:1.09422" />
    <rect
       x="108.19032"
       y="196.26122"
       class="st3"
       width="51.831944"
       height="7.4789124"
       id="rect2387"
       style="fill:#233865;stroke-width:1.09422" />
    <polygon
       class="st13"
       points="123.6,188.3 124,186.6 168,186.6 167.6,188.3 "
       id="polygon2393"
       transform="matrix(1.1366654,0,0,1.053368,-31.619534,0.86142817)"
       style="fill:#ffffff" />
    <polygon
       class="st1"
       points="123.6,190.7 124,189 168,189 167.6,190.7 "
       id="polygon2399"
       transform="matrix(1.1366654,0,0,1.053368,-31.619534,0.86142817)"
       style="fill:#ebe2dd" />
    <path
       class="st1"
       d="m 171.84358,201.52806 c 0,1.36937 -1.13666,2.42273 -2.61433,2.42273 v 0 c -1.47768,0 -2.61433,-1.05336 -2.61433,-2.42273 v -16.64324 c 0,-1.36938 1.13665,-2.42273 2.61433,-2.42273 v 0 c 1.47767,0 2.61433,1.05335 2.61433,2.42273 z"
       id="path2407"
       style="fill:#ebe2dd;stroke-width:1.09422" />
    <path
       class="st1"
       d="m 164.11423,186.35955 c 0,0.42133 -0.34111,0.8427 -0.9093,0.8427 -0.4547,0 -0.90935,-0.3161 -0.90935,-0.8427 0,-0.42134 0.34111,-0.84272 0.90935,-0.84272 0.56832,0.10552 0.9093,0.42138 0.9093,0.84272 z"
       id="path2413"
       style="fill:#ebe2dd;stroke-width:1.09422" />
    <path
       class="st1"
       d="m 164.11423,190.04633 c 0,0.42134 -0.34111,0.84271 -0.9093,0.84271 -0.4547,0 -0.90935,-0.31612 -0.90935,-0.84271 0,-0.42133 0.34111,-0.84271 0.90935,-0.84271 0.56832,0 0.9093,0.31611 0.9093,0.84271 z"
       id="path2419"
       style="fill:#ebe2dd;stroke-width:1.09422" />
    <path
       class="st7"
       d="m 155.81661,120.94538 v 0 c -0.79567,0 -1.47767,-0.63202 -1.47767,-1.36935 v -5.47754 h 2.9553 v 5.47754 c -0.11342,0.73733 -0.682,1.36935 -1.47763,1.36935 z"
       id="path2429"
       style="fill:#f96a57;stroke-width:1.09422" />
    <ellipse
       class="st3"
       cx="155.81657"
       cy="119.36531"
       id="circle2435"
       style="fill:#233865;stroke-width:1.09422"
       rx="0.56833267"
       ry="0.52668393" />
    <path
       class="st7"
       d="m 98.528654,120.94538 v 0 c -0.795663,0 -1.477663,-0.63202 -1.477663,-1.36935 v -5.47754 h 2.955329 v 5.47754 c 0,0.73733 -0.682001,1.36935 -1.477666,1.36935 z"
       id="path2443"
       style="fill:#f96a57;stroke-width:1.09422" />
    <ellipse
       class="st3"
       cx="98.528679"
       cy="119.36531"
       id="circle2449"
       style="fill:#233865;stroke-width:1.09422"
       rx="0.56833267"
       ry="0.52668393" />
    <rect
       x="93.072662"
       y="112.20242"
       class="st7"
       width="68.88192"
       height="2.4227464"
       id="rect2457"
       style="fill:#f96a57;stroke-width:1.09422" />
    <path
       class="st3"
       d="m 151.95192,225.86083 c 0.34111,-0.84267 -0.11385,-2.21205 -0.22726,-3.1601 -0.11385,-1.05335 -0.22726,-1.68538 -0.11385,-2.52808 -1.364,0 -3.63735,0 -5.00134,0 0.22726,0.8427 -0.34111,1.68541 -1.13666,2.10674 -0.79567,0.42134 -1.70502,0.63203 -2.61432,0.84272 -0.90935,0.2106 -1.81869,0.52667 -2.38702,1.15869 -0.22726,0.2106 -0.34098,0.52667 -0.34098,0.84271 0,0.10503 0,0.63202 0.11364,0.73732 z"
       id="path2465"
       style="fill:#233865;stroke-width:1.09422" />
    <path
       class="st10"
       d="m 152.06559,220.59402 c -1.81865,0 -4.31934,0.21061 -6.02432,0 -3.18265,-9.05898 -8.18399,-17.69659 -11.13932,-26.75557 -2.95533,-9.05896 -3.751,-18.64459 -2.95533,-28.1249 4.20566,-0.42137 8.52498,-0.84271 12.73065,-1.26404 1.364,7.90024 -0.56832,16.43255 0.11385,24.43812 0.79568,10.84971 6.82,20.85669 7.27465,31.70639 z"
       id="path2471"
       style="fill:#077f93;stroke-width:1.09422" />
    <path
       class="st9"
       d="m 144.79095,136.7459 c -1.25033,-0.84266 -2.95535,-0.2106 -4.31935,0.31611 -3.52365,1.47473 -6.93365,2.84407 -10.45731,4.3188 -1.023,0.42133 -2.15967,0.8427 -3.18267,0.73737 -0.79566,-0.10552 -1.47766,-0.42135 -2.15966,-0.84272 -2.61433,-1.47468 -5.00133,-3.68678 -7.38833,-5.79352 -0.45466,-0.52668 -1.023,-1.05335 -1.47766,-1.58003 0,-0.21061 -0.11367,-0.42134 -0.11367,-0.63203 -0.11368,-0.21061 -0.11368,-0.42133 -0.34098,-0.63201 -0.11368,-0.21061 -0.22735,-0.52668 -0.34098,-0.73737 -0.11367,-0.2106 -0.34098,-0.42134 -0.56833,-0.63203 -0.11367,-0.2106 -0.34098,-0.42132 -0.34098,-0.63201 -0.11367,-0.31612 -0.22735,-0.63203 -0.34098,-0.84272 -0.22734,-0.3161 -0.56833,-0.52667 -0.90933,-0.63201 -0.11367,0 -0.34098,0 -0.34098,0.10551 0,0 0,0.10552 0,0.10552 0.11368,0.2106 0.34098,0.42132 0.45467,0.73735 0.11367,0.31612 0.22735,0.73736 0.22735,1.05335 0,0.10551 0,0.21062 -0.11368,0.42138 -0.22735,-0.10552 -0.56833,-0.21061 -0.79567,-0.31611 -0.11367,-0.10551 -0.22734,-0.2106 -0.45466,-0.42132 0,0 0.11367,0 0.11367,0 0.11368,0 0.22735,-0.10552 0.22735,-0.21063 0.11367,-0.2106 0,-0.42132 -0.22735,-0.52667 -0.11367,-0.10552 -0.34102,-0.10552 -0.56833,-0.21061 -0.34098,0 -0.79567,0.10551 -1.13666,0.31612 -0.11368,0.10551 -0.34098,0.21061 -0.34098,0.42132 0,0.10552 0.11367,0.21061 0.34098,0.31612 0.11367,0.10503 0.11367,0.31611 0.22734,0.42133 -0.22734,0.10551 -0.45466,0.10551 -0.56833,0.31612 -0.22735,0.21061 -0.34098,0.42137 -0.34098,0.63201 0,0.10552 0.11367,0.21061 0.22735,0.31612 -0.22735,0.10551 -0.34098,0.31611 -0.22735,0.63201 0,0.21061 0.22735,0.42135 0.45467,0.52668 0.11367,0 0.11367,0 0.22735,0 -0.11368,0.10552 -0.11368,0.10552 -0.22735,0.21061 -0.11367,0.21061 0,0.52668 0.11367,0.73736 0.11368,0.31611 0.22735,0.52668 0.45467,0.73734 0.22734,0.2106 0.56833,0.3161 0.79567,0.42137 0.45466,0.21061 0.90933,0.3161 1.25032,0.52668 0.34098,0.10551 0.56834,0.2106 0.90934,0.2106 0,0 0,0 0,0 2.728,4.21346 7.16099,9.48031 11.02565,12.1137 0.682,0.42137 1.364,0.94805 2.27334,1.05339 0.68199,0.10551 1.36399,-0.10552 2.04599,-0.31611 3.069,-0.84267 6.02433,-2.0014 8.97966,-3.16011 1.59133,-0.63201 3.06899,-1.36938 4.43299,-2.3174 1.364,-0.94803 2.50069,-2.21208 3.06902,-3.68677 0.682,-1.15869 0.682,-2.73877 -0.56833,-3.58147 z"
       id="path2479"
       style="fill:#d39d81;stroke-width:1.09422" />
    <path
       class="st3"
       d="m 135.47028,227.75688 c 0.34098,-0.84266 -0.11367,-2.21204 -0.22735,-3.16009 -0.11367,-1.05336 -0.22735,-1.68537 -0.22735,-2.52809 -1.36399,0 -3.63733,0 -5.00133,0 0.22735,0.84272 -0.34097,1.68542 -1.13666,2.10676 -0.79566,0.42133 -1.705,0.63201 -2.61433,0.8427 -0.90933,0.21061 -1.81866,0.52668 -2.387,1.15871 -0.22734,0.2106 -0.34098,0.52667 -0.34098,0.8427 0,0.10519 0,0.63201 0.11368,0.73731 z"
       id="path2485"
       style="fill:#233865;stroke-width:1.09422" />
    <path
       class="st11"
       d="m 128.65029,165.29218 c -2.15967,19.27665 -4.31933,38.97465 1.25033,57.72457 2.387,-0.2106 4.88766,-0.42132 7.27466,-0.63201 -1.25033,-12.00841 -2.15967,-23.38477 1.705,-35.07719 2.50067,-7.58423 6.70634,-16.01115 5.68332,-23.80609 -4.88766,-0.21061 -9.77532,-0.52668 -14.54931,-0.73737 z"
       id="path2491"
       style="fill:#0093b7;stroke-width:1.09422" />
    <path
       class="st3"
       d="m 105.12131,116.52123 c 0.90934,0.42138 1.364,1.47473 1.023,2.31744 -0.34098,0.84267 -1.59133,1.36938 -2.50066,1.05335 -0.90933,-0.31611 -1.59133,-1.36938 -1.25033,-2.21205 -0.22735,0.1055 -0.56833,0.21061 -0.79567,0.31611 -0.34102,1.1587 0.11367,2.42274 1.023,3.1601 1.023,0.73737 2.50066,0.84271 3.63733,0.31611 1.13666,-0.52671 1.81866,-1.79075 1.59133,-2.94945 -0.11367,-1.1587 -1.13667,-2.21205 -2.387,-2.52809 -0.11367,0.21061 -0.22735,0.42138 -0.34098,0.52668 z"
       id="path2499"
       style="fill:#233865;stroke-width:1.09422" />
    <path
       class="st3"
       d="m 107.16731,120.4187 c -0.11367,-0.1055 -0.34098,-0.21061 -0.45467,-0.1055 -0.11367,0.1055 -0.11367,0.31611 0,0.42138 0.11368,0.1055 0.22735,0.21061 0.34098,0.21061 4.092,1.79075 7.95666,4.10815 11.36666,6.95223 0.90933,-0.21063 1.023,-0.73734 0.79566,-1.4747 -2.72799,-1.58007 -5.45599,-3.1601 -8.18399,-4.74017 -0.56833,-0.31611 -1.25033,-0.73736 -1.93233,-0.84267 -0.682,-0.21061 -1.364,-0.10549 -1.93233,-0.42137 z"
       id="path2505"
       style="fill:#233865;stroke-width:1.09422" />
    <path
       class="st3"
       d="m 105.68965,121.89343 c -0.11368,-0.1055 -0.22735,-0.31611 -0.22735,-0.42133 0.11367,-0.1055 0.22735,-0.21061 0.34098,-0.1055 0.11367,0.1055 0.22734,0.21061 0.34098,0.31611 2.27333,3.58146 6.36532,6.84688 7.27466,9.69099 -0.22735,0.52667 -0.56834,0.63203 -1.13667,0.42134 -1.93233,-2.3174 -3.18266,-4.10812 -5.00133,-6.53087 -0.45467,-0.5267 -0.79567,-1.05338 -1.02299,-1.6854 -0.22735,-0.52668 -0.22735,-1.26404 -0.56834,-1.68537 z"
       id="path2511"
       style="fill:#233865;stroke-width:1.09422" />
    <path
       class="st9"
       d="m 144.44993,136.32456 c -1.364,-1.68537 -2.15968,-3.68677 -2.38698,-5.79353 -1.81869,0.63203 -3.86467,1.0534 -5.797,1.26404 0,2.00141 -0.22735,4.00281 -0.682,6.00422 2.84166,-0.73736 5.797,-1.15869 8.86598,-1.47473 z"
       id="path2519"
       style="fill:#d39d81;stroke-width:1.09422" />
    <path
       class="st9"
       d="m 133.65162,132.4271 c 1.59133,0.21061 3.06899,0.3161 4.66033,0 1.70499,-0.31612 3.40998,-0.73736 4.6603,-1.79072 1.59135,-1.26404 3.29637,-3.05476 3.06902,-5.05617 -0.45465,-3.68678 -5.79701,-5.05617 -8.97966,-3.79212 -1.705,0.63202 -2.95533,1.89606 -3.86466,3.37078 -0.90933,1.4747 -1.364,2.84407 -1.705,4.42416 -0.11367,0.52667 -0.11367,1.15869 0.11368,1.68536 0.34097,0.73737 1.25033,1.05336 2.04599,1.15871 z"
       id="path2525"
       style="fill:#d39d81;stroke-width:1.09422" />
    <path
       class="st3"
       d="m 145.2456,124.00018 c -0.79567,-1.47473 -2.61432,-2.63343 -4.31934,-2.94946 -1.70499,-0.31611 -3.75098,0.1055 -5.00131,1.26404 0.90933,0.42138 1.47766,1.26405 1.81866,2.2121 0.11368,0.42133 0.22735,0.73736 0.22735,1.15869 0.22735,-0.10552 0.56833,-0.21061 0.79566,-0.10552 0.45467,0.21061 0.682,0.63203 0.79567,1.05336 0,0.42137 -0.22735,0.84272 -0.45467,1.26404 -0.22734,0.3161 -0.56833,0.52671 -0.90933,0.73737 0.11367,0.52667 0.22735,1.05338 0.45467,1.47473 0.45466,1.05335 1.47766,2.0014 2.72799,2.31739 1.364,-1.05335 4.20567,-3.16011 5.0013,-4.63479 0.682,-1.47473 -0.34111,-2.2121 -1.13665,-3.79213 z"
       id="path2531"
       style="fill:#233865;stroke-width:1.09422" />
    <path
       class="st12"
       d="m 142.40393,120.62939 c 1.47767,0.73736 2.95534,1.79072 3.97832,3.05476 0.4547,0.42133 0.79567,0.94805 0.90935,1.58007 0.22726,0.948 -0.22726,1.79072 -0.90935,2.63339 -0.56832,0.73736 -1.364,1.36938 -1.81865,2.21209 -1.59135,-1.36939 -2.728,-3.05476 -4.20567,-4.52949 -1.47765,-1.47473 -3.06898,-2.84407 -5.11498,-3.37079 0.79566,-0.42133 1.47766,-0.94801 2.27333,-1.47469 0.79567,-0.42137 1.70499,-0.84271 2.61433,-0.73736 0.90932,0 1.59132,0.31611 2.27332,0.63202 z"
       id="path2539"
       style="fill:#c9433d;stroke-width:1.09422" />
    <path
       class="st7"
       d="m 135.12928,120.52404 c -1.023,-0.31611 -2.046,-0.8427 -2.84166,-1.47472 -0.11368,-0.1055 -0.34098,-0.21061 -0.56834,-0.21061 -0.22734,0 -0.22734,0.21061 -0.34098,0.31611 -0.34097,0.84271 0.11368,1.79072 0.90934,2.42274 0.79566,0.52672 1.705,0.84271 2.61433,1.05339 1.364,0.31611 2.61433,1.1587 4.092,1.26404 -0.11368,-0.8427 -0.682,-2.10674 -1.364,-2.52808 -0.79567,-0.31611 -1.705,-0.52668 -2.50067,-0.84271 z"
       id="path2545"
       style="fill:#f96a57;stroke-width:1.09422" />
    <path
       class="st7"
       d="m 140.69895,135.16587 c -2.50067,0.21061 -5.00134,1.26404 -6.70633,2.94941 -2.046,1.89607 -3.069,4.52949 -3.86466,7.05758 -1.93234,6.21485 -2.84167,12.74575 -2.50067,19.1713 0,0.94802 0.11367,2.0014 0.79567,2.84407 0.90933,1.15871 2.61432,1.26404 4.09199,1.3694 4.774,0.10551 9.66167,-0.21061 14.322,-1.05336 -1.59135,-6.42554 -1.8187,-13.06179 -0.90935,-19.48731 0.34111,-2.63342 0.90935,-5.1615 0.79567,-7.79492 -0.11385,-1.26404 -0.34111,-2.52808 -1.25032,-3.3708 -1.1367,-1.47468 -3.06902,-1.79072 -4.774,-1.68537 z"
       id="path2555"
       style="fill:#f96a57;stroke-width:1.09422" />
    <path
       class="st12"
       d="m 140.92626,139.37932 c 0.45469,0.52668 0.68199,1.15871 0.79567,1.89607 0.56832,3.79211 -0.45465,7.58424 -2.15965,11.06038 -1.25033,2.52808 -2.95533,5.05616 -5.34233,6.84688 -0.34102,0.31612 -0.90933,0.52668 -1.364,0.31612 -0.34098,-0.21062 -0.45467,-0.63203 -0.45467,-1.05335 -0.56833,-5.26686 0.11368,-10.74437 2.15967,-15.80054 0.682,-1.68536 1.705,-3.37078 3.41,-3.89746 1.13666,-0.2106 2.27331,-0.10551 2.95531,0.63203 z"
       id="path2561"
       style="fill:#c9433d;stroke-width:1.09422" />
    <path
       class="st11"
       d="m 130.69629,153.17843 c -0.22735,-5.05616 1.25033,-10.21764 4.31932,-14.53647 0.90934,-1.26404 2.046,-2.42273 3.63733,-2.63339 1.59132,-0.10551 2.95531,0.94802 3.97834,2.10671 1.81865,2.10676 3.06897,4.74018 3.52367,7.3736 0.45465,-1.58007 0.22726,-3.37079 -0.4547,-4.84551 -0.682,-1.47469 -1.81865,-2.84408 -3.18265,-4.00277 -0.90935,-0.73736 -2.046,-1.47473 -3.29633,-1.47473 -0.90932,0 -1.59132,0.42133 -2.38699,0.8427 -2.84166,1.79072 -4.66033,4.52946 -5.797,7.4789 -1.13666,2.94943 -1.47766,6.10953 -1.70499,9.26964 0.45466,0.3161 0.90933,0.3161 1.364,0.42132 z"
       id="path2569"
       style="fill:#0093b7;stroke-width:1.09422" />
    <path
       class="st11"
       d="m 133.87895,163.9228 c -3.41,-3.16011 0,-11.37638 -1.13667,-17.69659 0,-0.84267 -1.59133,1.15874 -3.40999,1.26404 -1.47767,5.47755 -2.046,11.16573 -1.81867,16.74857 0,0.94801 0.11368,2.00141 0.79567,2.84408 0.90933,1.15874 2.61433,1.26404 4.09199,1.36937 4.774,0.10552 9.66167,-0.2106 14.32199,-1.05335 -0.11385,-0.63201 -0.22726,-1.15869 -0.34111,-1.79072 -4.66032,0.42134 -8.97963,0.21062 -12.5033,-1.6854 z"
       id="path2575"
       style="fill:#0093b7;stroke-width:1.09422" />
    <path
       class="st11"
       d="m 145.47295,156.33855 c 0.3411,-1.68539 0.22726,-3.37075 0.22726,-5.05617 -1.70498,5.79353 -3.86465,11.48171 -7.50198,16.43253 0.56834,0.21061 1.13667,0.31612 1.81867,0.52673 1.36401,-2.2121 2.50066,-4.42416 3.63731,-6.74159 0.79567,-1.79072 1.47767,-3.47609 1.81869,-5.1615 z"
       id="path2581"
       style="fill:#0093b7;stroke-width:1.09422" />
    <path
       class="st7"
       d="m 141.60825,138.958 c -0.22726,-0.94805 -0.9093,-1.89607 -1.93231,-2.2121 -0.79566,-0.2106 -1.70499,-0.10551 -2.50066,0.31611 -0.79567,0.42134 -1.364,0.94802 -1.93233,1.58003 -1.93233,2.10674 -3.29633,4.42414 -4.66033,6.74158 2.61433,0.63202 5.22866,2.00141 7.50199,3.58144 1.59133,-2.21206 2.84165,-4.52949 3.41001,-7.26823 0.22727,-0.73736 0.34111,-1.79075 0.11342,-2.73875 z"
       id="path2591"
       style="fill:#f96a57;stroke-width:1.09422" />
    <path
       class="st9"
       d="m 130.58262,145.48888 c -0.79567,1.26404 -1.47767,2.52808 -2.27333,3.68679 -3.41,5.26681 -8.41132,8.74294 -13.63999,13.1671 -0.56833,-0.21063 -1.13666,-0.31612 -1.705,-0.31612 -0.22734,0 -0.56833,0.10551 -0.56833,0.31612 -0.22734,0 -0.45467,-0.10552 -0.682,-0.21063 -0.22734,-0.10551 -0.45466,-0.2106 -0.68199,-0.2106 -0.22735,0 -0.56834,0.2106 -0.56834,0.42134 -0.22735,-0.21061 -0.56833,-0.21061 -0.79566,0 -0.22735,0.21061 -0.34098,0.42133 -0.56834,0.63201 -0.22734,0.10552 -0.45466,0.21061 -0.56833,0.31612 -0.56833,0.42138 -0.56833,1.15874 -1.13667,1.58007 0.34098,0.2106 0.90934,0.2106 1.13667,-0.10552 0.11367,-0.10551 0.22735,-0.3161 0.45467,-0.52667 0.22735,-0.10552 0.45466,-0.10552 0.682,-0.10552 0.34098,0 0.682,0 1.13666,0.10552 0.34098,0.10551 0.682,0.2106 0.90933,0.52667 0.22735,0.31611 0.11368,0.73737 -0.11367,0.94806 -0.22735,0.2106 -0.682,0.2106 -1.13666,0.3161 -0.56834,0.10551 -1.13667,0.31612 -1.47767,0.73736 -0.22734,0.21061 -0.34097,0.63203 -0.11367,0.84272 0.11367,0.10551 0.34098,0.21061 0.56833,0.10551 0.22735,0 0.682,-0.10551 0.79567,-0.2106 0.45467,-0.21061 0.34098,-0.42138 0.90933,-0.63202 0.45467,-0.2106 1.47767,-0.10551 1.93233,0 0,0 1.364,0.84267 2.728,-0.84271 l 1.47767,-0.94801 c 0.34097,-0.10551 0.56833,-0.2106 0.79566,-0.42137 5.00133,-2.84407 10.57099,-6.10952 14.77665,-9.79631 2.046,-1.79072 3.97833,-3.79213 5.456,-5.79352 -2.61433,-1.58008 -5.115,-2.84412 -7.72933,-3.58144 z"
       id="path2597"
       style="fill:#d39d81;stroke-width:1.09422" />
    <path
       class="st3"
       d="m 125.01296,211.00836 h -23.64264 v -9.58566 h 23.64264 z m -22.50598,-1.05335 h 21.36931 v -7.47895 h -21.36931 z"
       id="path2607"
       style="fill:#233865;stroke-width:1.09422" />
    <polygon
       class="st7"
       points="118.6,194.7 116.2,199.8 116.2,206.5 138.8,206.5 138.8,199.8 136.4,194.7 "
       id="polygon2613"
       transform="matrix(1.1366654,0,0,1.053368,-31.619534,0.86142817)"
       style="fill:#f96a57" />
    <rect
       x="106.14433"
       y="200.68536"
       class="st7"
       width="14.662983"
       height="2.5280831"
       id="rect2619"
       style="fill:#f96a57;stroke-width:1.09422" />
    <rect
       x="101.48399"
       y="211.21902"
       class="st3"
       width="23.983641"
       height="0.63202077"
       id="rect2627"
       style="fill:#233865;stroke-width:1.09422" />
    <path
       class="st3"
       d="m 114.3283,216.16987 h -1.59133 c -0.79567,0 -1.364,-0.52668 -1.364,-1.26405 v -4.74017 c 0,-0.73737 0.56833,-1.26405 1.364,-1.26405 h 1.705 c 0.79567,0 1.364,0.52668 1.364,1.26405 v 4.74017 c -0.11367,0.73737 -0.682,1.26405 -1.47767,1.26405 z m -1.59133,-6.21486 c -0.11367,0 -0.22734,0.10519 -0.22734,0.2106 v 4.74018 c 0,0.10552 0.11367,0.21061 0.22734,0.21061 h 1.705 c 0.11367,0 0.22735,-0.10551 0.22735,-0.21061 v -4.74018 c 0,-0.10551 -0.11367,-0.2106 -0.22735,-0.2106 z"
       id="path2633"
       style="fill:#233865;stroke-width:1.09422" />
    <path
       class="st9"
       d="m 83.183671,87.764306 c -0.454665,0.105497 -1.022999,0.948012 -2.386998,1.79072 -1.704998,1.053355 -3.409995,2.001405 -5.114993,2.949416 3.29633,0.842709 6.365327,2.106751 9.206989,3.897469 0.568334,-2.106709 1.477664,-4.108115 2.614332,-6.004177 -1.932333,0.210607 -2.500667,-2.949458 -4.31933,-2.633428 z"
       id="path2641"
       style="fill:#d39d81;stroke-width:1.09422" />
    <path
       class="st9"
       d="m 92.390662,83.761495 c -0.454666,-1.053355 -1.591334,-1.685375 -2.727998,-2.106708 -2.159663,-0.632022 -4.66033,-0.421375 -6.251658,1.053353 -1.363999,1.264042 -1.818667,3.265449 -1.363999,4.950823 0.454664,1.790719 1.704998,3.265447 3.182662,4.318802 1.591333,1.053395 3.409996,1.79072 5.22866,2.212094 0.909333,-2.422741 1.591332,-4.950823 2.159666,-7.373603 0.113674,-1.053355 0.227347,-2.10671 -0.227347,-3.054761 z"
       id="path2647"
       style="fill:#d39d81;stroke-width:1.09422" />
    <path
       class="st3"
       d="m 90.230998,81.128069 c -2.500667,-1.053355 -5.114994,-1.158699 -7.274662,0.421374 l -0.340978,0.632021 c -1.022998,0.210606 -0.909328,0.737363 -1.250329,1.580031 -0.340977,0.948051 -0.227347,1.896063 -0.113674,2.844113 0.113674,0.948011 0.34098,1.896063 0.34098,2.844074 0.795667,-0.105496 1.477666,-0.316109 2.273331,-0.632021 1.136664,0.105497 2.273332,0.105497 3.409996,-0.316109 -0.113673,-0.526678 -0.113673,-0.948052 0,-1.474729 0.113674,-0.737363 0.568334,-0.94801 1.250334,-0.94801 0.113673,0 0.227347,0 0.340977,0.105497 0.454666,0.210608 0.56833,0.842708 0.56833,1.264042 0.227349,0 0.340979,0.105496 0.568334,0.105496 -0.113673,-0.948009 0.113673,-1.790717 0.454666,-2.738729 0.340978,0 0.681998,0.10511 1.022999,0.10511 1.477666,0.210606 3.182666,-0.421334 4.091995,-1.474689 -2.045999,-0.210608 -3.523661,-1.580073 -5.342325,-2.317436 z"
       id="path2653"
       style="fill:#233865;stroke-width:1.09422" />
    <path
       class="st3"
       d="m 69.202687,172.66577 c 1.363997,0.10552 2.841662,0.10552 4.205661,0.21061 0,1.47473 0.795667,2.94946 2.045996,3.79213 0.79567,0.63203 1.818668,0.94805 2.614333,1.58008 0.795663,0.63201 1.363997,1.58003 1.022998,2.52808 -2.159662,0 -4.31933,-0.10551 -6.592658,-0.10551 -0.454668,0 -0.909333,0 -1.363997,-0.21061 -0.45467,-0.2106 -0.795669,-0.73736 -1.13667,-1.15869 -0.454664,-0.73736 -1.022998,-1.36939 -1.136664,-2.21206 -0.227347,-1.58006 0.682,-3.05479 0.340979,-4.42414 z"
       id="path2663"
       style="fill:#233865;stroke-width:1.09422" />
    <path
       class="st10"
       d="m 62.269029,118.94401 c -1.136669,5.05617 -0.681999,10.42833 1.136664,15.27381 1.591333,4.00281 3.97833,7.68959 4.773995,11.79774 0.454665,2.52808 0.227347,5.16152 0,7.7949 -0.454666,6.42555 -0.227348,12.95645 0.454665,19.38199 1.932331,0.10552 3.864664,0.21061 5.796993,0.31612 0.795669,-6.95224 1.704998,-14.0098 2.500667,-20.96204 0.340977,-2.84407 0.682,-5.68818 0.56833,-8.6376 -0.113673,-3.58144 -1.023,-7.05756 -1.477665,-10.639 -0.568334,-4.63484 -0.568334,-9.37497 0.113674,-13.90446 -4.54666,-0.21061 -9.206989,-0.31611 -13.867315,-0.42134 z"
       id="path2669"
       style="fill:#077f93;stroke-width:1.09422" />
    <path
       class="st12"
       d="m 89.435329,95.032527 c -1.363998,-0.210608 -2.614327,-0.526678 -3.978326,-0.842668 -2.386998,-0.632021 -4.887665,-1.474729 -7.388326,-1.580073 -1.250333,0 -2.500663,0.105497 -3.523661,0.632021 -1.022999,0.632021 -1.818668,1.685415 -1.591335,2.844113 0.113674,0.842668 0.795666,1.474689 1.477665,2.001407 2.159666,1.685374 5.114994,2.106713 7.842992,2.422743 2.386998,0.2106 4.773995,0.42133 7.160991,0.42133 0.795669,-1.790718 1.023,-3.792125 0,-5.898873 z"
       id="path2677"
       style="fill:#c9433d;stroke-width:1.09422" />
    <path
       class="st9"
       d="m 106.03065,99.351367 c -0.34103,-1.158737 -0.45467,-2.422779 -0.45467,-3.686819 -5.34233,0.632019 -10.798323,0.421372 -16.140651,-0.526678 0.909334,2.106749 0.681999,4.108154 0,6.00422 5.683329,0 11.252991,-0.42138 16.595321,-1.790723 z"
       id="path2683"
       style="fill:#d39d81;stroke-width:1.09422" />
    <rect
       x="149.90591"
       y="81.128082"
       class="st3"
       width="3.9783292"
       height="31.390364"
       id="rect2691"
       style="fill:#233865;stroke-width:1.09422" />
    <rect
       x="101.02931"
       y="81.128082"
       class="st13"
       width="49.217613"
       height="31.390364"
       id="rect2697"
       style="fill:#ffffff;stroke-width:1.09422" />
    <path
       class="st3"
       d="m 115.12397,86.500266 c 0,0.210606 -0.22735,0.421334 -0.45467,0.421334 h -9.54799 c -0.22734,0 -0.45466,-0.210608 -0.45466,-0.421334 v 0 c 0,-0.210608 0.22734,-0.421334 0.45466,-0.421334 h 9.54799 c 0.22735,0 0.45467,0.210607 0.45467,0.421334 z"
       id="path2705"
       style="fill:#233865;stroke-width:1.09422" />
    <path
       class="st3"
       d="m 115.12397,88.607015 c 0,0.210606 -0.22735,0.421334 -0.45467,0.421334 h -9.54799 c -0.22734,0 -0.45466,-0.210609 -0.45466,-0.421334 v 0 c 0,-0.210608 0.22734,-0.421375 0.45466,-0.421375 h 9.54799 c 0.22735,0 0.45467,0.210608 0.45467,0.421375 z"
       id="path2711"
       style="fill:#233865;stroke-width:1.09422" />
    <path
       class="st3"
       d="m 115.12397,90.713725 c 0,0.210606 -0.22735,0.421372 -0.45467,0.421372 h -9.54799 c -0.22734,0 -0.45466,-0.210606 -0.45466,-0.421372 v 0 c 0,-0.210609 0.22734,-0.421334 0.45466,-0.421334 h 9.54799 c 0.22735,0 0.45467,0.210606 0.45467,0.421334 z"
       id="path2717"
       style="fill:#233865;stroke-width:1.09422" />
    <path
       class="st3"
       d="m 115.12397,92.820473 c 0,0.210608 -0.22735,0.421334 -0.45467,0.421334 h -9.54799 c -0.22734,0 -0.45466,-0.210606 -0.45466,-0.421334 v 0 c 0,-0.210606 0.22734,-0.421334 0.45466,-0.421334 h 9.54799 c 0.22735,0 0.45467,0.210608 0.45467,0.421334 z"
       id="path2723"
       style="fill:#233865;stroke-width:1.09422" />
    <path
       class="st3"
       d="m 115.12397,94.927222 c 0,0.210608 -0.22735,0.421334 -0.45467,0.421334 h -9.54799 c -0.22734,0 -0.45466,-0.210607 -0.45466,-0.421334 v 0 c 0,-0.210607 0.22734,-0.421373 0.45466,-0.421373 h 9.54799 c 0.22735,0 0.45467,0.210607 0.45467,0.421373 z"
       id="path2729"
       style="fill:#233865;stroke-width:1.09422" />
    <path
       class="st3"
       d="m 115.12397,97.033932 c 0,0.210608 -0.22735,0.421374 -0.45467,0.421374 h -9.54799 c -0.22734,0 -0.45466,-0.210608 -0.45466,-0.421374 v 0 c 0,-0.210607 0.22734,-0.421334 0.45466,-0.421334 h 9.54799 c 0.22735,0 0.45467,0.210608 0.45467,0.421334 z"
       id="path2735"
       style="fill:#233865;stroke-width:1.09422" />
    <path
       class="st3"
       d="m 115.12397,99.140682 c 0,0.210606 -0.22735,0.421334 -0.45467,0.421334 h -9.54799 c -0.22734,0 -0.45466,-0.210608 -0.45466,-0.421334 v 0 c 0,-0.210608 0.22734,-0.421334 0.45466,-0.421334 h 9.54799 c 0.22735,0 0.45467,0.210606 0.45467,0.421334 z"
       id="path2741"
       style="fill:#233865;stroke-width:1.09422" />
    <ellipse
       transform="matrix(0.17185816,-0.9851217,0.98896218,0.14816816,0,0)"
       class="st11"
       cx="-75.433296"
       cy="148.98494"
       id="ellipse2749"
       style="fill:#0093b7;stroke-width:1.09441"
       rx="11.822611"
       ry="12.707968" />
    <ellipse
       transform="matrix(0.17196265,-0.98510347,0.98894858,0.14825894,0,0)"
       class="st3"
       cx="-75.42244"
       cy="149.0029"
       id="ellipse2755"
       style="fill:#233865;stroke-width:1.09441"
       rx="10.872782"
       ry="11.686954" />
    <path
       class="st11"
       d="m 134.33362,105.77688 c -5.56966,0 -10.11633,-4.21346 -10.11633,-9.374969 0,-5.161509 4.54667,-9.374969 10.11633,-9.374969 5.56965,0 10.11631,4.21346 10.11631,9.374969 0.11385,5.161509 -4.54666,9.374969 -10.11631,9.374969 z m 0,-18.328604 c -5.34233,0 -9.54799,4.002812 -9.54799,8.848291 0,4.950863 4.31932,8.848293 9.54799,8.848293 5.34232,0 9.54798,-4.00277 9.54798,-8.848293 0.11385,-4.845479 -4.20566,-8.848291 -9.54798,-8.848291 z"
       id="path2761"
       style="fill:#0093b7;stroke-width:1.09422" />
    <path
       class="st11"
       d="m 134.33362,103.56483 c -4.31933,0 -7.843,-3.26545 -7.843,-7.268263 0,-4.002771 3.52367,-7.268218 7.843,-7.268218 4.31932,0 7.843,3.265447 7.843,7.268218 0,4.108153 -3.52368,7.268263 -7.843,7.268263 z m 0,-13.90446 c -3.97834,0 -7.27466,3.05476 -7.27466,6.741541 0,3.686779 3.29632,6.741579 7.27466,6.741579 3.97833,0 7.27463,-3.0548 7.27463,-6.741579 0,-3.686781 -3.2963,-6.741541 -7.27463,-6.741541 z"
       id="path2767"
       style="fill:#0093b7;stroke-width:1.09422" />
    <path
       class="st11"
       d="m 134.33362,101.14209 c -2.84167,0 -5.115,-2.106752 -5.115,-4.740179 0,-2.633426 2.27333,-4.740136 5.115,-4.740136 2.84166,0 5.11499,2.10671 5.11499,4.740136 0,2.633427 -2.27333,4.740179 -5.11499,4.740179 z m 0,-8.953638 c -2.50067,0 -4.54667,1.896063 -4.54667,4.213459 0,2.317437 2.046,4.213499 4.54667,4.213499 2.50066,0 4.54666,-1.896062 4.54666,-4.213499 0,-2.317396 -2.046,-4.213459 -4.54666,-4.213459 z"
       id="path2773"
       style="fill:#0093b7;stroke-width:1.09422" />
    <path
       class="st11"
       d="m 134.33362,98.929995 c -1.47767,0 -2.728,-1.158699 -2.728,-2.528084 0,-1.369384 1.25033,-2.528083 2.728,-2.528083 1.47766,0 2.72799,1.158699 2.72799,2.528083 0,1.369385 -1.25033,2.528084 -2.72799,2.528084 z m 0,-4.529489 c -1.25034,0 -2.15967,0.94805 -2.15967,2.001405 0,1.053395 1.023,2.001406 2.15967,2.001406 1.25033,0 2.15966,-0.948011 2.15966,-2.001406 0,-1.053355 -0.90933,-2.001405 -2.15966,-2.001405 z"
       id="path2779"
       style="fill:#0093b7;stroke-width:1.09422" />
    <ellipse
       class="st11"
       cx="152.97493"
       cy="102.61681"
       rx="1.7049981"
       ry="2.7387567"
       id="ellipse2793"
       style="fill:#0093b7;stroke-width:1.09422" />
    <path
       class="st3"
       d="m 161.61358,103.88082 h -6.93366 c -0.90931,0 -1.70498,-0.63202 -1.70498,-1.58003 v 0 c 0,-0.84271 0.682,-1.58008 1.70498,-1.58008 h 6.93366 c 0.90935,0 1.70502,0.63202 1.70502,1.58008 v 0 c -0.11385,0.94801 -0.79567,1.58003 -1.70502,1.58003 z"
       id="path2799"
       style="fill:#233865;stroke-width:1.09422" />
    <polygon
       class="st3"
       points="83.7,148.7 78.3,217.2 76.8,217.1 82.3,147.2 107.4,147.2 101.9,217.2 100.4,217.1 105.8,148.7 "
       id="polygon2809"
       transform="matrix(1.1366654,0,0,1.053368,-31.619534,0.86142817)"
       style="fill:#233865" />
    <rect
       x="60.564022"
       y="182.35678"
       class="st3"
       width="26.711636"
       height="1.580052"
       id="rect2815"
       style="fill:#233865;stroke-width:1.09422" />
    <rect
       x="61.928043"
       y="165.92422"
       class="st3"
       width="26.711636"
       height="1.580052"
       id="rect2821"
       style="fill:#233865;stroke-width:1.09422" />
    <rect
       x="59.086369"
       y="199.10529"
       class="st3"
       width="26.711636"
       height="1.580052"
       id="rect2827"
       style="fill:#233865;stroke-width:1.09422" />
    <rect
       x="57.722347"
       y="215.9592"
       class="st3"
       width="26.711636"
       height="1.580052"
       id="rect2833"
       style="fill:#233865;stroke-width:1.09422" />
    <polygon
       class="st3"
       points="90.8,211.2 89.3,211.4 83.9,147.2 109,147.2 114.4,211.2 113,211.4 107.6,148.7 85.5,148.7 "
       id="polygon2841"
       transform="matrix(1.1366654,0,0,1.053368,-31.619534,0.86142817)"
       style="fill:#233865" />
    <rect
       x="66.929352"
       y="180.03934"
       class="st3"
       width="26.711636"
       height="1.580052"
       id="rect2847"
       style="fill:#233865;stroke-width:1.09422" />
    <rect
       x="65.565361"
       y="165.08153"
       class="st3"
       width="26.711636"
       height="1.580052"
       id="rect2853"
       style="fill:#233865;stroke-width:1.09422" />
    <rect
       x="68.293373"
       y="195.52383"
       class="st3"
       width="26.711636"
       height="1.580052"
       id="rect2859"
       style="fill:#233865;stroke-width:1.09422" />
    <rect
       x="69.771027"
       y="210.90302"
       class="st3"
       width="26.711636"
       height="1.580052"
       id="rect2865"
       style="fill:#233865;stroke-width:1.09422" />
    <path
       class="st3"
       d="m 73.863016,180.56602 c 0,-1.15869 0.227347,-2.42273 0.56833,-3.58144 0.227347,-0.63201 0.568334,-1.36938 1.136668,-1.68542 0.682,-0.42132 1.591328,-0.3161 2.386997,-0.2106 0.795666,0.2106 1.591329,0.42134 2.386998,0.31612 -0.227347,1.05338 0.340977,2.10674 1.25033,2.8441 0.795669,0.73737 1.818667,1.26404 2.727996,1.89606 0.795669,0.73736 1.591332,1.68538 1.363999,2.73874 -3.296326,-0.10552 -6.592659,-0.10552 -9.888989,-0.21061 -0.340979,0 -0.795665,0 -1.136664,-0.21061 -0.681999,-0.2106 -0.795665,-1.1587 -0.795665,-1.89607 z"
       id="path2875"
       style="fill:#233865;stroke-width:1.09422" />
    <path
       class="st11"
       d="m 79.660009,150.33436 c -4.432994,7.58425 -1.704998,17.27525 -5.569664,25.07015 2.727999,0.63202 5.455995,1.05339 8.183993,1.15869 1.250334,-6.53084 3.068995,-13.06174 5.455993,-19.38195 1.250333,-3.37079 2.614332,-6.84689 2.273333,-10.42833 -0.340979,-3.47612 -2.273333,-6.74157 -4.546661,-9.58564 -2.273332,-2.84413 -4.887665,-5.37221 -6.933661,-8.42697 -1.93233,-3.05476 -3.182663,-6.63619 -2.386998,-10.11233 -4.091995,-0.21061 -8.070321,-0.31611 -12.162317,-0.52668 -0.795669,0 -1.704998,-0.10549 -2.386997,0.31611 -0.795669,0.52672 -1.136668,1.58008 -1.136668,2.42278 -0.454666,5.16148 2.614331,10.00699 6.478993,13.79912 3.864664,3.79212 8.411324,6.74153 12.275986,10.42832 0.682,0.73737 1.363997,1.47473 1.477667,2.42274 0.113673,1.15873 -0.454669,2.0014 -1.022999,2.84412 z"
       id="path2881"
       style="fill:#0093b7;stroke-width:1.09422" />
    <path
       class="st12"
       d="m 77.727676,90.713725 c 0.454667,-0.210609 1.023001,-0.105497 1.591335,0 1.477662,0.316109 2.955327,0.842706 4.091995,1.685414 1.25033,0.842668 2.045997,2.212054 1.932327,3.581438 -2.386997,-2.422739 -5.796993,-3.792125 -9.320655,-3.897468 0.682,-0.31611 1.023001,-1.053355 1.704998,-1.369384 z"
       id="path2889"
       style="fill:#c9433d;stroke-width:1.09422" />
    <path
       class="st7"
       d="m 78.86434,91.661775 c -3.296326,-0.210607 -6.365323,1.580032 -8.75232,3.686781 -3.637331,3.265448 -6.365328,7.478904 -8.070326,11.903054 -1.704998,4.42414 -2.500663,9.16432 -2.727996,13.90445 6.024327,0.94806 12.048651,1.26405 18.07298,0.94806 0.227346,-4.42415 1.704997,-8.84829 4.205661,-12.64042 1.591332,-2.42278 3.63733,-4.74018 4.432994,-7.47895 0.681999,-2.212049 0.341022,-4.740131 -1.022999,-6.741536 -1.363999,-2.001407 -3.637327,-3.370793 -6.137994,-3.581439 z"
       id="path2895"
       style="fill:#f96a57;stroke-width:1.09422" />
    <path
       class="st12"
       d="m 76.704678,97.349962 c -0.568334,0 -1.136664,0.31611 -1.363999,0.632021 -0.340977,0.31611 -0.454665,0.737365 -0.568334,1.158699 -0.909329,3.160108 -0.113674,6.530898 2.273334,9.269628 2.159662,-1.68538 4.432994,-3.37075 6.592656,-5.16151 -1.591328,-0.94801 -2.955327,-2.10671 -3.86466,-3.370755 -0.340979,-0.421373 -0.568334,-0.842707 -0.909335,-1.158697 -0.340977,-0.316111 -0.909329,-0.632021 -1.591328,-0.632021 z"
       id="path2901"
       style="fill:#c9433d;stroke-width:1.09422" />
    <path
       class="st11"
       d="m 80.114674,105.77688 c -4.319329,7.58425 -11.025653,11.79775 -20.232642,9.16432 -0.568334,2.63343 -0.340979,3.68678 -0.45467,6.32021 6.024328,0.94801 12.048657,1.26404 18.072981,0.94801 0.227347,-4.42415 1.704998,-8.84829 4.205665,-12.64042 0.795663,-1.26404 1.818664,-2.52808 2.614327,-3.79212 -1.477663,-0.42133 -3.409996,0 -4.205661,0 z"
       id="path2907"
       style="fill:#0093b7;stroke-width:1.09422" />
    <path
       class="st11"
       d="m 68.975352,97.665953 c 1.477668,-1.369386 3.068997,-2.633426 4.887664,-3.581438 1.818664,-0.948052 3.86466,-1.474729 6.024325,-1.369385 2.045996,0.105496 4.205665,0.948051 5.455992,2.528084 -2.159662,-1.79072 -5.455992,-2.001407 -8.183991,-1.158699 -2.727996,0.842707 -5.001324,2.528083 -7.047322,4.424146 -3.409996,3.054759 -6.478993,6.636199 -8.63866,10.639009 0.909333,-4.52949 3.97833,-8.32161 7.501992,-11.481717 z"
       id="path2913"
       style="fill:#0093b7;stroke-width:1.09422" />
    <path
       class="st11"
       d="m 73.408348,93.136463 c -3.978328,2.528085 -6.25166,6.741582 -7.274658,11.165727 -1.022999,4.42415 -1.022999,8.74295 -0.795665,13.27244 0.454666,-0.31611 0.90933,-0.52668 1.477664,-0.63202 -0.795665,-8.11093 0.340978,-14.74717 4.773995,-21.699396 z"
       id="path2919"
       style="fill:#0093b7;stroke-width:1.09422" />
    <path
       class="st7"
       d="m 86.934667,100.9314 c -0.681999,-0.73736 -1.363999,-1.685376 -1.932333,-2.528083 -0.795665,-1.369385 -1.363999,-2.844074 -2.500663,-3.897468 -0.909332,-0.948011 -2.273332,-1.580032 -3.637331,-1.474689 -1.363997,0 -2.727996,0.737325 -3.409996,1.896062 -0.454664,0.948011 -0.454664,2.10671 -0.113673,3.265408 0.682,3.1601 2.614333,5.89887 5.114994,8.11097 2.841662,-1.15874 5.228659,-2.73877 6.478993,-5.3722 z"
       id="path2929"
       style="fill:#f96a57;stroke-width:1.09422" />
    <path
       class="st9"
       d="m 117.96563,106.83027 c -0.682,-0.2106 -1.47766,-0.2106 -2.27333,-0.10549 -0.79566,0.10549 -1.47766,0.2106 -2.27333,0.2106 0.682,-0.42137 1.47767,-0.52671 2.15967,-0.52671 0.34097,0 0.68199,0.10549 1.13666,0 0.34098,0 0.682,-0.10511 0.90933,-0.42134 -1.47766,-0.42133 -3.06899,-0.73736 -4.43299,-0.2106 -0.56834,0.2106 -1.13667,0.52667 -1.81867,0.52667 0.11368,-0.31611 0.22735,-0.63198 0.34098,-0.84266 0.22735,-0.21061 0.45467,-0.42138 0.682,-0.52668 0.22735,-0.21061 0.34102,-0.52668 0.22735,-0.73736 0,-0.1055 -0.11367,-0.1055 -0.11367,-0.1055 -0.11368,0 -0.22735,0 -0.22735,0 -0.682,0.31611 -1.13666,0.94801 -1.81866,1.26404 -0.34098,0.21061 -0.79567,0.31611 -1.023,0.63202 -0.22735,0.21061 -0.22735,0.52668 -0.45467,0.73736 0,0 0,0 0,-0.10549 -4.54666,0.63202 -9.206988,0.63202 -13.526318,-0.63202 -3.296331,-0.94806 -6.478993,-2.63343 -8.752325,-5.05617 -1.25033,2.52808 -3.523662,4.10811 -6.251658,5.05617 1.022998,0.94801 2.273332,1.79071 3.523662,2.52808 4.091995,2.3174 8.979657,3.1601 13.753652,3.26545 3.637327,0 7.388327,-0.42138 10.798317,-1.68542 0.22735,0.1055 0.34098,0.1055 0.45467,0.21061 0.45467,0.21061 1.023,0.21061 1.59133,0.10549 0.56834,-0.10549 1.023,-0.3161 1.47767,-0.42133 1.47766,-0.42137 2.95533,-0.63202 4.43299,-0.94805 0.22735,0 0.45467,-0.1055 0.56833,-0.21061 0,-0.10549 -0.22734,-0.2106 -0.45466,-0.2106 -1.023,0.10549 -2.046,0.10549 -3.069,0.2106 0.22735,-0.31611 0.56834,-0.42133 0.90934,-0.52667 0.34097,-0.1055 0.682,-0.1055 1.02299,-0.1055 0.56833,-0.1055 1.25033,-0.21061 1.81867,-0.42134 0.11367,0 0.34098,-0.10549 0.34098,-0.2106 0,-0.21061 -0.22735,-0.21061 -0.45467,-0.21061 0.11368,-0.1055 0.34098,-0.1055 0.45467,-0.1055 0.22734,-0.10549 0.34097,-0.2106 0.34097,-0.42133 z"
       id="path2935"
       style="fill:#d39d81;stroke-width:1.09422" />
  </g>
</svg>
