<?xml version="1.0" encoding="UTF-8" standalone="no"?>
<!-- Generator: Adobe Illustrator 25.1.0, SVG Export Plug-In . SVG Version: 6.00 Build 0)  -->

<svg
   version="1.1"
   x="0px"
   y="0px"
   viewBox="0 0 30 30"
   xml:space="preserve"
   id="svg52"
   sodipodi:docname="calendrier.svg"
   width="30"
   height="30"
   inkscape:version="1.1 (c68e22c387, 2021-05-23)"
   inkscape:export-filename="C:\Users\Elvis Caleb\Documents\GitHub\IMAGE-JAMOH\Assets\Logo\calendrier.png"
   inkscape:export-xdpi="274.28601"
   inkscape:export-ydpi="274.28601"
   xmlns:inkscape="http://www.inkscape.org/namespaces/inkscape"
   xmlns:sodipodi="http://sodipodi.sourceforge.net/DTD/sodipodi-0.dtd"
   xmlns="http://www.w3.org/2000/svg"
   xmlns:svg="http://www.w3.org/2000/svg"><defs
   id="defs56" /><sodipodi:namedview
   id="namedview54"
   pagecolor="#505050"
   bordercolor="#eeeeee"
   borderopacity="1"
   inkscape:pageshadow="0"
   inkscape:pageopacity="0"
   inkscape:pagecheckerboard="0"
   showgrid="false"
   width="30px"
   inkscape:zoom="10.381462"
   inkscape:cx="39.92694"
   inkscape:cy="7.6578812"
   inkscape:window-width="1920"
   inkscape:window-height="1001"
   inkscape:window-x="-9"
   inkscape:window-y="-9"
   inkscape:window-maximized="1"
   inkscape:current-layer="g49" />
<style
   type="text/css"
   id="style2">
	.st0{fill:#FFFFFF;}
	.st1{fill:#616E7D;}
	.st2{fill:#AAD4C8;}
	.st3{fill:#82BFAB;}
</style>

<g
   id="Object">
	<g
   id="g49">
		<path
   class="st1"
   d="m 1.421587,26.185079 c 0.330526,0.310234 0.7893747,0.489071 1.2559999,0.489071 h 0.221646 0.944918 23.8834551 c 0.466624,0 0.925472,-0.178837 1.255999,-0.489071 0.330528,-0.31023 0.521067,-0.737252 0.521067,-1.175226 V 11.239263 H 0.90440769 v 13.766941 c 0,0.437972 0.19054051,0.868645 0.51717931,1.178875 z m 22.32026,-13.828986 h 4.094639 v 3.419838 h -4.094639 z m 0,4.361479 h 4.094639 v 3.416185 h -4.094639 z m -5.292311,-4.361479 h 4.094637 v 3.419838 h -4.094637 z m 0,4.361479 h 4.094637 v 3.416185 h -4.094637 z m 0,4.365127 h 4.094637 v 3.416187 h -4.094637 z m -5.292313,-8.726606 h 4.094638 v 3.419838 h -4.094638 z m 0,4.361479 h 4.094638 v 3.416185 h -4.094638 z m 0,4.365127 h 4.094638 v 3.416187 H 13.157223 Z M 7.8610184,12.356093 h 4.0946436 v 3.419838 H 7.8610184 Z m 0,4.361479 h 4.0946436 v 3.416185 H 7.8610184 Z m 0,4.365127 h 4.0946436 v 3.416187 H 7.8610184 Z M 2.5687057,16.717572 H 6.663349 v 3.416185 H 2.5687057 Z m 0,4.365127 H 6.663349 v 3.416187 H 2.5687057 Z"
   id="path11"
   style="stroke-width:0.0376728" />
		<rect
   x="0.90440607"
   y="9.6516094"
   class="st2"
   width="28.596375"
   height="0.98543853"
   id="rect13"
   style="stroke-width:0.0376728" />
		<path
   class="st2"
   d="m 3.8441509,4.9142072 h -0.944918 -0.221646 c -0.4666252,0 -0.9254739,0.1788381 -1.2559999,0.4890684 C 1.0910598,5.7135062 0.90051934,6.1405302 0.90051934,6.5785022 V 8.5128815 H 29.496896 V 6.5785022 c 0,-0.437972 -0.190541,-0.864996 -0.521068,-1.1752266 C 28.645302,5.0930453 28.190342,4.9142072 27.723716,4.9142072 h -3.009733 v 2.1789125 c 0,0.405126 -0.349968,0.7372544 -0.785488,0.7372544 h -1.648742 c -0.431631,0 -0.785486,-0.3284799 -0.785486,-0.7372544 V 4.9142072 H 8.9109291 v 2.1789125 c 0,0.405126 -0.349972,0.7372544 -0.7854872,0.7372544 H 6.4728086 c -0.4355154,0 -0.785483,-0.3284799 -0.785483,-0.7372544 V 4.9142072 Z"
   id="path15"
   style="fill:#37c871;stroke-width:0.0376728" />
		<rect
   x="0.90440607"
   y="8.5128803"
   class="st3"
   width="28.596375"
   height="1.1387291"
   id="rect17"
   style="fill:#5fd38d;stroke-width:0.0376728" />
		<polygon
   class="st1"
   points="336.5,289.2 336.5,348.9 379,348.9 379,289.2 379,236.7 336.5,236.7 "
   id="polygon19"
   transform="matrix(0.03888547,0,0,0.03649772,-6.6121519,-5.6409361)" />
		<polygon
   class="st1"
   points="743,289.2 743,348.9 785.5,348.9 785.5,289.2 785.5,236.7 743,236.7 "
   id="polygon21"
   transform="matrix(0.03888547,0,0,0.03649772,-6.6121519,-5.6409361)" />
		<rect
   x="7.8610225"
   y="12.356087"
   class="st3"
   width="4.0946398"
   height="3.4198368"
   id="rect23"
   style="fill:#5fd38d;stroke-width:0.0376728" />
		<rect
   x="13.157223"
   y="12.356087"
   class="st3"
   width="4.0946398"
   height="3.4198368"
   id="rect25"
   style="fill:#5fd38d;stroke-width:0.0376728" />
		<rect
   x="18.44953"
   y="12.356087"
   class="st3"
   width="4.0946398"
   height="3.4198368"
   id="rect27"
   style="fill:#5fd38d;stroke-width:0.0376728" />
		<rect
   x="23.741844"
   y="12.356087"
   class="st3"
   width="4.0946398"
   height="3.4198368"
   id="rect29"
   style="stroke-width:0.0376728" />
		<rect
   x="2.5687079"
   y="16.717566"
   class="st3"
   width="4.0946398"
   height="3.4161873"
   id="rect31"
   style="stroke-width:0.0376728" />
		<rect
   x="7.8610225"
   y="16.717566"
   class="st3"
   width="4.0946398"
   height="3.4161873"
   id="rect33"
   style="stroke-width:0.0376728" />
		<rect
   x="13.157223"
   y="16.717566"
   class="st3"
   width="4.0946398"
   height="3.4161873"
   id="rect35"
   style="fill:#5fd38d;stroke-width:0.0376728" />
		<rect
   x="18.44953"
   y="16.717566"
   class="st2"
   width="4.0946398"
   height="3.4161873"
   id="rect37"
   style="stroke-width:0.0376728" />
		<rect
   x="23.741844"
   y="16.717566"
   class="st3"
   width="4.0946398"
   height="3.4161873"
   id="rect39"
   style="fill:#87deaa;stroke-width:0.0376728" />
		<rect
   x="2.5687079"
   y="21.082703"
   class="st3"
   width="4.0946398"
   height="3.4161873"
   id="rect41"
   style="fill:#5fd38d;stroke-width:0.0376728" />
		<rect
   x="7.8610225"
   y="21.082703"
   class="st2"
   width="4.0946398"
   height="3.4161873"
   id="rect43"
   style="stroke-width:0.0376728" />
		<rect
   x="13.157223"
   y="21.082703"
   class="st3"
   width="4.0946398"
   height="3.4161873"
   id="rect45"
   style="fill:#5fd38d;stroke-width:0.0376728" />
		<rect
   x="18.44953"
   y="21.082703"
   class="st3"
   width="4.0946398"
   height="3.4161873"
   id="rect47"
   style="stroke-width:0.0376728" />
	</g>
</g>
</svg>
