<?xml version="1.0" encoding="UTF-8" standalone="no"?>
<!-- Generator: Adobe Illustrator 25.1.0, SVG Export Plug-In . SVG Version: 6.00 Build 0)  -->

<svg
   version="1.1"
   id="Objects"
   x="0px"
   y="0px"
   viewBox="0 0 30 30"
   xml:space="preserve"
   sodipodi:docname="joberr.svg"
   width="30"
   height="30"
   inkscape:version="1.1 (c68e22c387, 2021-05-23)"
   inkscape:export-filename="C:\Users\Elvis Caleb\Documents\GitHub\IMAGE-JAMOH\Assets\Logo\joberr.png"
   inkscape:export-xdpi="274.28601"
   inkscape:export-ydpi="274.28601"
   xmlns:inkscape="http://www.inkscape.org/namespaces/inkscape"
   xmlns:sodipodi="http://sodipodi.sourceforge.net/DTD/sodipodi-0.dtd"
   xmlns="http://www.w3.org/2000/svg"
   xmlns:svg="http://www.w3.org/2000/svg"><defs
   id="defs305">
	
	
	

		
		
		
		
		
		
		
		
		
		
		
		
		
		
		
		
		
		
		
		
		
		
		
		
		
		
		
		
		
		
	
		
		
		
		
		
		
		
		
		
		
		
		
		
		
		
		
		
		
		
		
		
		
		
		
		
		
		
		
		
		
	</defs><sodipodi:namedview
   id="namedview303"
   pagecolor="#505050"
   bordercolor="#eeeeee"
   borderopacity="1"
   inkscape:pageshadow="0"
   inkscape:pageopacity="0"
   inkscape:pagecheckerboard="0"
   showgrid="false"
   width="30px"
   inkscape:zoom="14.56"
   inkscape:cx="21.978022"
   inkscape:cy="20.020604"
   inkscape:window-width="1920"
   inkscape:window-height="1001"
   inkscape:window-x="-9"
   inkscape:window-y="-9"
   inkscape:window-maximized="1"
   inkscape:current-layer="Thumbs_up_1_" />
<style
   type="text/css"
   id="style2">
	.st0{opacity:0.1;}
	.st1{fill:#686868;}
	.st2{fill:#FFFFFF;}
</style>
<g
   id="User-Add_1_"
   transform="translate(683.51648,50.549451)">
			<path
   id="XMLID_304_"
   class="st2"
   d="m 289.7,134.6 c 0,-6.2 3.7,-11.6 8.9,-14 -2.2,-0.7 -5.3,-1.9 -5.9,-3.1 -0.3,-0.6 -0.3,-1.7 -0.2,-2.9 2.2,-2.6 3.6,-6 4.4,-8.1 1.1,0.8 1.6,-0.2 1.6,-0.2 3.6,-5.2 1.3,-7.3 0.9,-7.7 -0.5,-0.4 -1,0.3 -1,0.3 V 99 c 0.7,-13.8 -11.1,-14.8 -12.5,-14.8 0,0 -0.1,0 -0.9,0 -0.8,0 -0.9,0 -0.9,0 -1.4,0.1 -13.2,1 -12.5,14.8 v -0.1 c 0,0 -0.5,-0.7 -1,-0.3 -0.5,0.4 -2.7,2.5 0.9,7.7 0,0 0.5,1 1.6,0.2 0.8,2.1 2.2,5.4 4.4,8.1 0.1,1.2 0.1,2.3 -0.2,2.9 -0.8,1.7 -6.3,3.3 -7.9,3.7 -1.5,0.5 -9.2,1.9 -10,10.3 l -1.2,9.2 c 0,0 2.7,3.8 7.1,3.2 0,0 9.2,4.1 18.9,4 0.2,0 0.7,0 0.7,0 0,0 0.5,0 0.7,0 3.5,0 6.9,-0.5 9.8,-1.1 -3.5,-2.9 -5.7,-7.3 -5.7,-12.2 z" />
			<path
   id="XMLID_303_"
   class="st2"
   d="m 285.9,84.3 c 0,0 -0.1,0 -0.1,0 0,0 0,0 0.1,0 z" />
			<path
   id="XMLID_301_"
   class="st2"
   d="m 284.1,84.3 c 0.1,0 0.1,0 0.1,0 0,0 -0.1,0 -0.1,0 z" />
			<path
   id="XMLID_298_"
   class="st2"
   d="m 305.2,122.5 c -1.8,0 -3.6,0.4 -5.1,1.2 -4.1,1.9 -7,6.1 -7,11 0,3.8 1.8,7.2 4.5,9.4 2.1,1.7 4.7,2.7 7.6,2.7 6.7,0 12.1,-5.4 12.1,-12.1 0,-6.8 -5.4,-12.2 -12.1,-12.2 z m 8,14.6 h -5.6 v 5.6 h -4.2 v -5.6 h -5.6 v -4.2 h 5.6 v -5.6 h 4.2 v 5.6 l 5.6,-0.1 z" />
		</g><g
   id="Thumbs_up_1_"
   transform="translate(-272.52747,65.934066)">
			<path
   id="XMLID_251_"
   class="st2"
   d="m 283.41608,-42.53174 c -0.38024,-0.663831 -2.80426,-4.409753 -2.42402,-9.246249 0,0 0.19012,-0.09483 0.4753,-0.189666 0.28517,-0.09483 2.47155,-1.043168 2.66166,-1.232834 0,0 0.66542,-2.655334 1.85366,-3.224332 1.18825,-0.569003 3.65979,-3.603669 3.89744,-3.840754 0.23765,-0.237079 1.18825,-0.237079 2.51908,-1.612166 1.04566,-1.090581 0.90306,-1.849251 0.90306,-1.849251 0,0 -0.0475,-0.616417 0.71295,-0.616417 0.095,0 0.095,0 0.23765,0.04741 0.42777,0.142246 2.04377,1.991497 0.76048,4.077833 0,0 -1.18825,1.754418 -2.09132,2.37083 0,0 -1.18824,2.038917 0.19012,2.797586 0,0 2.85179,0.616417 3.08943,0.663836 0.23766,0.04741 1.4259,-0.331918 1.7586,-0.379337 0.33272,-0.04741 1.85367,-0.189666 2.18638,0.142252 0.3327,0.331918 0.808,1.4225 0.85554,2.418249 0,0 0.19012,0.995749 -0.99813,1.280253 0,0 0.66541,0.568998 0.66541,1.375081 0,0.806083 0.1426,1.849251 -1.09318,2.181169 0,0 0.33271,0.237079 0.38024,0.806083 0.0475,0.568997 -0.14259,2.418248 -1.47342,2.513081 0,0 -0.19012,1.896665 -1.04566,2.60792 -0.85554,0.663831 -6.36898,0.995749 -8.98312,0.23708 0,0 -1.47342,-0.521584 -2.2339,-0.426751 -1.04565,0.09483 -1.71107,-0.04742 -1.71107,-0.04742 0,0 -0.71295,-0.142252 -1.09318,-0.853502 z"
   style="fill:#37c8ab;stroke-width:0.474732" />
			<path
   id="XMLID_250_"
   class="st2"
   d="m 277.56992,-52.584072 c 1.2833,-0.189666 2.47154,-0.379332 2.7092,-0.426751 0.28518,-0.04741 0.61788,0.04741 0.85554,0.237085 -0.0475,0 -0.1426,-0.142252 -0.19012,-0.142252 v 0 c -0.19012,0 -0.42778,0.142252 -0.6179,0.237085 -0.23764,0.142246 -0.52282,0.521584 -0.61788,1.280248 0,0.284497 0,0.616417 0,0.948335 0,0.189666 0,0.379332 0,0.568998 0,0.09483 0,0.189664 0.0475,0.284504 0.095,0.71125 0.61788,4.362333 2.51908,7.444411 0.71295,1.185421 1.23578,1.138002 2.13883,1.185421 -0.28517,0.616417 -0.85553,0.853496 -0.85553,0.853496 0,0 -3.0419,0.806089 -4.23014,0.331919 h 0.0475 c -2.42401,-0.900916 -3.18449,-2.513082 -3.94497,-4.836497 -0.38024,-1.232834 -0.61788,-2.513088 -0.76048,-3.55625 -0.0475,-0.521584 -0.095,-0.995755 -0.095,-1.375086 -0.095,-1.944084 1.80613,-2.702748 2.99438,-3.034666 z"
   style="fill:#2ca089;stroke-width:0.474732" />
		</g>
</svg>
