<?xml version="1.0" encoding="UTF-8" standalone="no"?>
<!-- Created with Inkscape (http://www.inkscape.org/) -->

<svg
   width="210mm"
   height="297mm"
   viewBox="0 0 210 297"
   version="1.1"
   id="svg14008"
   inkscape:version="1.1 (c68e22c387, 2021-05-23)"
   sodipodi:docname="branchement.svg"
   xmlns:inkscape="http://www.inkscape.org/namespaces/inkscape"
   xmlns:sodipodi="http://sodipodi.sourceforge.net/DTD/sodipodi-0.dtd"
   xmlns="http://www.w3.org/2000/svg"
   xmlns:svg="http://www.w3.org/2000/svg">
  <sodipodi:namedview
     id="namedview14010"
     pagecolor="#505050"
     bordercolor="#eeeeee"
     borderopacity="1"
     inkscape:pageshadow="0"
     inkscape:pageopacity="0"
     inkscape:pagecheckerboard="0"
     inkscape:document-units="mm"
     showgrid="false"
     inkscape:zoom="0.51134961"
     inkscape:cx="396.01086"
     inkscape:cy="562.23765"
     inkscape:window-width="1920"
     inkscape:window-height="1001"
     inkscape:window-x="-9"
     inkscape:window-y="-9"
     inkscape:window-maximized="1"
     inkscape:current-layer="layer1" />
  <defs
     id="defs14005" />
  <g
     inkscape:label="Calque 1"
     inkscape:groupmode="layer"
     id="layer1">
    <path
       class="st55"
       d="m 68.832588,143.18043 c 10.439769,2.60661 42.208122,6.19071 48.382172,16.12854 6.17407,9.77489 77.56863,67.12087 73.07843,69.56463 -3.03093,1.79204 -60.28129,17.10602 -60.28129,17.10602 L 18.654321,245.16505 v -82.7607 z"
       id="path2718"
       style="fill:#662619;stroke-width:1.35234" />
    <path
       class="st23"
       d="m 99.702886,135.19759 c -1.122551,-4.72452 -4.602474,-9.93781 -5.837296,-9.61196 -2.132859,0.81456 -3.367666,13.52191 -4.265704,20.85306 -1.683834,3.09537 -5.276028,8.14575 -5.725039,9.61195 -0.561283,1.62919 5.500526,7.98284 7.633371,5.86494 1.908346,-1.95499 3.704436,-6.19072 4.602488,-9.61196 0.224528,0 0.336741,-0.9775 0.336741,-0.9775 0,0 4.377973,-11.40401 3.255425,-16.12853 z"
       id="path2720"
       style="fill:#203689;stroke-width:1.35234" />
    <polygon
       class="st21"
       points="28.3,423.5 28.3,403.8 73.8,392.2 73.8,409.7 "
       id="polygon2722"
       transform="matrix(1.1225563,0,0,1.6291479,-13.226275,-467.42426)"
       style="fill:#2f0300" />
    <path
       class="st71"
       d="M 126.86875,242.55843 V 242.2327 Z"
       id="path2724"
       style="fill:#f2ddd6;stroke-width:1.35234" />
    <polygon
       class="st46"
       points="74,353.8 28.4,356.3 28.4,407.4 74,398 "
       id="polygon2728"
       transform="matrix(1.1225563,0,0,1.6291479,-13.226275,-467.42426)"
       style="fill:#e5c0ae" />
    <path
       class="st46"
       d="m 24.603871,156.37649 -5.725037,1.30334 v 5.53909 l 5.500524,-1.30334 v 5.05037 l 11.562333,-2.93247 v -4.72451 l 5.612779,-1.30335 v 0 l 4.602482,-1.14036 v 4.23576 l -6.623084,1.62918 v 4.88744 l -3.367668,0.9775 v 0 l -11.562329,3.09533 v 5.53914 l 9.317218,-2.60668 v 5.05037 l 3.143157,-0.97749 v 4.72452 l 10.552028,-3.42118 v 0 l 9.653985,-3.09539 v 0 l 8.868187,-2.93246 v -4.72453 l -4.377962,1.30335 v -4.23582 l 3.59218,-0.97748 v -4.39873 l 3.255411,-0.81457 v -4.5616 l -8.980449,2.28084 v 4.56159 l -3.479925,0.97749 -6.174059,1.62913 v -4.23574 l 6.174059,-1.6292 v -4.39866 l 5.051502,-1.14041 8.643679,-2.11791 v -4.5616 l -4.265709,0.97749 v -4.39872 h 0.44903 v 0 l 3.928935,-0.81457 v -0.4889 l -3.592179,0.65164 v -3.58411 l 3.479923,-0.65169 v -4.88745 l -3.816679,0.65169 v -4.39872 l -4.377975,0.65164 v -4.07282 l 3.592179,-0.4889 v -4.72452 l -9.204962,0.9775 v 0 l -9.653981,1.14041 -10.439773,1.14041 v 5.05031 l -2.132859,0.32572 v 5.2133 l 3.143159,-0.4889 v 4.72452 l 10.439775,-1.62913 4.939244,-0.81457 v 4.39868 l -4.939244,0.81463 v 4.72452 l -0.673535,0.16316 -5.837295,1.14035 v -4.88744 l -10.888795,1.95498 v 0 l -11.225562,1.95498 v 0.6517 l 10.664283,-1.95498 v 4.23575 l -10.664283,2.11789 v 0.65171 l 5.949547,-1.14042 v 4.5616 z m -5.163757,6.02786 v -4.39873 l 10.888795,-2.4437 v 4.23582 z m 15.940298,1.14042 -10.439775,2.60661 v -4.2358 l 10.439775,-2.44369 z m 5.83729,-6.19079 -9.990747,2.28084 V 155.399 l 1.908342,-0.48889 3.030903,-0.6517 v 0 h 0.112257 v 0 l 4.939244,-1.14042 z m -5.051502,-3.5841 v -4.39874 h 0.112257 z m 3.928947,9.28612 9.429474,-2.4437 v 3.90996 l -9.429474,2.60661 z m -3.59218,5.86492 9.653985,-2.60662 v 3.90995 l -9.653985,2.76956 z m -11.337817,7.33119 v -4.2358 l 10.439775,-2.93245 v 4.07287 z m 9.317215,2.28077 v -4.07281 l 7.633384,-2.28083 v 4.07287 l -1.683835,0.4889 z m 12.684888,0.65171 -9.541727,3.09538 v -4.07287 l 0.336745,-0.16318 4.490223,-1.30334 1.010302,-0.32572 3.81669,-1.14041 v 3.90995 z m -4.377971,-3.09539 v -4.07289 l 9.204961,-2.60661 v 3.90996 l -4.377969,1.30327 z m 14.031952,0 -8.868193,2.93247 v -3.90997 l 4.377969,-1.30334 3.030902,-0.97748 1.459322,-0.4889 z m 8.868197,-6.51658 v 3.74704 l -8.306918,2.60661 v -3.74703 0 z m -5.612783,-11.72986 8.0824,-2.1179 v 3.58411 l -8.0824,2.11789 z m -3.479923,5.53908 8.306913,-2.28082 v 3.74702 l -8.306913,2.44376 z m 4.714737,3.25831 v 3.74705 l -4.265715,1.30327 v 0 l -4.265712,1.30334 v -3.90995 z m -5.38827,-3.09538 v 3.74703 l -8.980452,2.60661 v -3.90996 z m -0.224526,-5.21329 -8.980447,2.28082 v -3.90996 l 8.980447,-2.1179 z m 4.939249,-5.53909 -8.643685,1.95498 v -3.90995 l 4.377971,-0.81457 v 0 l 4.377968,-0.97749 v 3.74703 z m 0.224526,-4.39873 v 0 l -1.571577,0.32573 -2.58188,0.4889 v -3.74704 l 8.306918,-1.62912 v 3.74703 z m -8.194659,-7.49407 v -3.90995 l 8.531426,-1.46626 v 3.74709 z m 16.726088,6.19079 v 3.58411 l -7.970149,1.95497 v -3.74702 l 0.44902,-0.16318 z m -3.704434,-4.07288 -8.306919,1.62913 v -3.74704 l 8.306919,-1.46626 z m 4.041204,-8.79739 v 3.5841 l -7.970152,1.46626 v -3.74709 z m -4.041204,-3.74704 v 3.74704 l -8.306919,1.30327 v -3.74703 l 3.479924,-0.48889 z m -9.092707,-7.65704 8.306913,-0.97749 v 3.74709 l -8.306913,0.97749 z m 4.714737,3.90995 v 3.74709 l -4.153462,0.65164 v 0 l -4.490222,0.65164 v -3.90995 z m -14.480976,-2.76953 8.980446,-0.9775 v 3.74703 l -8.980446,1.14042 z m -10.327519,1.1404 9.653985,-1.1404 v 3.90995 l -9.653985,1.30333 z m -2.132857,9.28618 v -4.07288 l 7.633385,-0.97749 v 4.07287 z m 12.684889,2.76954 -9.541732,1.62913 v -4.07289 l 4.939249,-0.65163 h 0.112256 l 2.469628,-0.32573 2.132856,-0.32573 v 3.74704 z m -4.265716,-3.90996 v -4.07288 l 9.20496,-1.14041 v 3.90995 l -2.469622,0.32574 -2.020602,0.32572 z m 5.051503,3.74703 v -3.90996 l 4.37797,-0.65163 v 0 l 4.490224,-0.6517 v 3.74703 z m 0,5.53909 8.868194,-1.62914 v 3.74704 l -8.868194,1.79206 z m -0.673533,4.88744 8.980448,-1.79206 v 3.74703 l -4.490225,0.9775 v 0 l -4.490223,0.97748 z m -0.336745,4.56165 v 0 l 4.490223,-0.97748 v 3.90995 l -9.317215,2.11785 v -4.07283 z M 46.38149,147.5791 v 3.90995 l -4.826995,0.97749 v 0 l -0.449022,0.16316 -4.377969,0.9775 v -4.07288 z m -16.164811,-1.79206 10.103006,-1.79205 v 4.07287 l -10.103006,1.95499 z m -5.051503,6.19078 10.439772,-2.1179 v 4.07288 l -5.051502,1.14036 v 0 l -5.500529,1.14041 z"
       id="path2730"
       style="fill:#e5c0ae;stroke-width:1.35234" />
    <path
       class="st46"
       d="m 26.512218,130.79886 3.592178,-0.4889 v -5.21329 l -11.450075,1.30334 v 5.70201 l 7.296617,-0.97749 v 4.2358 l -7.296617,0.97749 v 0.65164 l 7.857897,-1.14041 z m -7.52113,0.4889 v -4.2358 l 10.664286,-1.14042 v 4.07288 z"
       id="path2732"
       style="fill:#e5c0ae;stroke-width:1.35234" />
    <path
       class="st55"
       d="m 55.923192,165.49975 c 0,-2.44375 -1.010302,-4.07289 -2.581881,-3.90997 l -8.868193,2.4437 c -1.459323,0.32572 -1.010302,1.79206 -1.010302,4.07288 v 20.20141 l 12.572629,-3.42118 v -19.38684 z"
       id="path2736"
       style="fill:#662619;stroke-width:1.35234" />
    <path
       class="st29"
       d="m 87.018,191.89194 c 0,1.14041 -3.367666,1.95498 -7.408873,1.95498 -4.041206,0 -7.408873,-0.81457 -7.408873,-1.95498 0,-1.14041 3.367667,-1.95497 7.408873,-1.95497 4.153463,0 7.408873,0.81456 7.408873,1.95497 z"
       id="path2740"
       style="fill:#b4c1d1;stroke-width:1.35234" />
    <path
       class="st30"
       d="m 86.456718,192.38066 c 0,0.97749 -3.030897,1.62919 -6.847591,1.62919 -3.816693,0 -6.84759,-0.81464 -6.84759,-1.62919 0,-0.9775 3.030897,-1.62913 6.84759,-1.62913 3.816694,-0.16317 6.847591,0.65163 6.847591,1.62913 z"
       id="path2742"
       style="fill:#8494af;stroke-width:1.35234" />
    <path
       class="st29"
       d="m 85.670936,176.57791 c -0.673539,-5.21324 -3.704437,-9.12319 -7.52113,-9.12319 h -1.45932 c 0,0 0,0 0,0 H 43.238304 v 16.78023 h 28.063912 c 0.785782,0.16317 2.245102,0 2.245102,2.11785 v 47.89695 0 c 0,0.48889 2.694142,2.28082 6.061809,2.28082 3.367666,0 5.949553,-1.79205 6.061809,-2.28082 v 0 -54.41353 c 0.112199,-0.32572 0,-3.25831 0,-3.25831 z"
       id="path2746"
       style="fill:#b4c1d1;stroke-width:1.35234" />
    <path
       class="st30"
       d="m 79.384614,235.22724 v -47.24525 c 0,-0.4889 -0.112199,-3.42125 -0.112199,-3.42125 -0.112343,-7.49406 -3.704436,-9.12318 -7.521129,-9.12318 h -1.459335 c 0,0 0,0 0,0 H 43.238296 v 8.79739 h 28.063906 c 0.785796,0.16317 2.245116,0 2.245116,2.11785 v 47.73409 c 0,0 0,0 0,0 0,0.4889 2.581871,2.28076 5.837281,2.28076 z"
       id="path2748"
       style="fill:#8494af;stroke-width:1.35234" />
    <path
       class="st30"
       d="m 79.609127,194.1727 c -3.816693,0 -6.959847,0 -6.959847,-0.97749 v 9.77489 0 c 0.1122,1.46628 3.143154,2.76961 6.959847,2.76961 3.816694,0 6.959847,-1.30333 6.959847,-2.76961 v 0 -10.42652 c 0,0.97749 -3.143153,1.62912 -6.959847,1.62912 z"
       id="path2750"
       style="fill:#8494af;stroke-width:1.35234" />
    <path
       class="st29"
       d="m 86.568974,202.9701 v 0 -7.98277 h -3.030897 v 10.2636 c 1.79609,-0.4889 3.030897,-1.30334 3.030897,-2.28083 z"
       id="path2752"
       style="fill:#b4c1d1;stroke-width:1.35234" />
    <path
       class="st29"
       d="m 87.018,195.96483 v -4.23582 c 0,0.9775 -3.367666,2.11791 -7.408873,2.11791 -4.041206,0 -7.408873,-1.30334 -7.408873,-2.11791 v 4.23582 c 0.336741,1.14035 3.92895,2.44369 7.408873,2.44369 3.367666,0 6.735334,-1.46621 7.408873,-2.44369 z"
       id="path2758"
       style="fill:#b4c1d1;stroke-width:1.35234" />
    <path
       class="st30"
       d="m 72.200254,192.86943 v 3.0954 c 0.336741,1.14035 3.92895,2.44369 7.408873,2.44369 1.122551,0 2.132859,-0.16318 3.143153,-0.32574 v -3.5841 c -1.010294,0.16318 -2.020602,0.32573 -3.25541,0.32573 -3.704436,0 -6.735333,-1.14041 -7.296616,-1.95498 z"
       id="path2760"
       style="fill:#8494af;stroke-width:1.35234" />
    <path
       class="st29"
       d="m 88.477321,172.01631 c 0,0.65165 1.908346,1.14042 4.377975,1.14042 2.357358,0 4.377961,-0.4889 4.377961,-1.14042 0,-0.65164 -1.908332,-1.14041 -4.377961,-1.14041 -2.469629,0 -4.377975,0.4889 -4.377975,1.14041 z"
       id="path2768"
       style="fill:#b4c1d1;stroke-width:1.35234" />
    <path
       class="st30"
       d="m 88.701834,172.17924 c 0,0.4889 1.79609,0.97749 4.041205,0.97749 2.245116,0 4.041206,-0.4889 4.041206,-0.97749 0,-0.48889 -1.79609,-0.97749 -4.041206,-0.97749 -2.245115,0 -4.041205,0.4889 -4.041205,0.97749 z"
       id="path2770"
       style="fill:#8494af;stroke-width:1.35234" />
    <path
       class="st29"
       d="m 89.263116,163.056 c 0.336741,-3.09541 2.245102,-5.37617 4.377961,-5.37617 h 0.785796 c 0,0 0,0 0,0 h 13.133907 v 9.77489 h -9.990753 c -0.449027,0 -1.347064,0 -1.347064,1.30327 v 65.49176 0 c 0,0.32573 -1.571577,1.30334 -3.59218,1.30334 -1.908346,0 -3.479923,-0.9775 -3.59218,-1.30334 v 0 -69.23878 c 0.112198,-0.16317 0.224528,-1.95497 0.224528,-1.95497 z"
       id="path2774"
       style="fill:#b4c1d1;stroke-width:1.35234" />
    <path
       class="st30"
       d="m 92.855296,234.73852 v -65.00303 c 0,-0.32573 0,-1.95498 0,-1.95498 0,-4.39867 2.245116,-5.37616 4.377961,-5.37616 h 0.785796 c 0,0 0,0 0,0 h 9.429477 v 5.21329 h -9.99076 c -0.449012,0 -1.347064,0 -1.347064,1.30328 v 65.32883 c 0,0 0,0 0,0 0,0.32573 -1.571577,1.30334 -3.479923,1.30334 z"
       id="path2776"
       style="fill:#8494af;stroke-width:1.35234" />
    <path
       class="st30"
       d="m 88.701834,172.34216 v 6.02786 0 c 0,0.81457 1.79609,1.62913 4.041205,1.62913 2.245116,0 4.041206,-0.65163 4.041206,-1.62913 v 0 -5.53914 c 0,0.4889 -1.79609,0.4889 -4.041206,0.4889 -2.245115,0 -4.041205,-0.4889 -4.041205,-0.97749 z"
       id="path2778"
       style="fill:#8494af;stroke-width:1.35234" />
    <path
       class="st29"
       d="m 88.701834,178.53288 v 0 -4.72452 h 1.79609 v 6.02786 c -1.122551,-0.32572 -1.79609,-0.81455 -1.79609,-1.30334 z"
       id="path2780"
       style="fill:#b4c1d1;stroke-width:1.35234" />
    <path
       class="st29"
       d="m 92.743039,175.76335 c 2.020603,0 4.153448,-0.81458 4.265719,-1.4662 v -2.44375 c 0,0.48889 -1.908346,1.30333 -4.377975,1.30333 -2.357372,0 -4.377975,-0.65164 -4.377975,-1.30333 v 2.44375 c 0.561282,0.65162 2.469629,1.4662 4.490231,1.4662 z"
       id="path2786"
       style="fill:#b4c1d1;stroke-width:1.35234" />
    <path
       class="st30"
       d="m 97.121,172.50509 v 1.79206 c -0.224513,0.65162 -2.245101,1.4662 -4.265704,1.4662 -0.673539,0 -1.234807,-0.16318 -1.79609,-0.16318 v -2.11784 c 0.561283,0.16317 1.234807,0.16317 1.908346,0.16317 2.020603,0 3.816693,-0.65163 4.153448,-1.14035 z"
       id="path2788"
       style="fill:#8494af;stroke-width:1.35234" />
    <path
       d="m 123.38883,224.31199 c 0.67353,5.86495 1.01029,8.79741 -1.12256,9.28612 -1.90835,0.4889 -2.46963,-1.14041 -3.59217,-0.32573 -2.91866,2.11791 -4.15347,1.79211 -5.05153,1.79211 -3.81667,0 -3.70442,-3.74709 -1.01029,-5.05036 2.80639,-1.30335 4.93925,-5.86494 4.93925,-5.86494 z"
       id="path2796"
       style="stroke-width:1.35234" />
    <path
       class="st0"
       d="m 125.07265,228.71067 c 0,0 -0.56128,-30.62801 -1.2348,-37.79622 0.1122,-1.95497 0.1122,-3.58416 0,-4.39872 -0.44902,-3.25826 -0.1122,-11.8928 -0.56128,-20.20143 -0.22453,-3.5841 -0.44903,-7.16827 -0.89804,-9.93781 0,0 0,0 -0.1122,-0.16316 -0.56128,-3.0954 -1.34706,-5.70201 -2.46963,-7.16821 -4.82699,-6.51664 -12.57263,-0.9775 -12.57263,-0.9775 1.45932,3.25826 4.26572,10.10067 4.26572,13.359 0,3.25831 1.79609,36.16708 2.91864,37.79621 1.12256,1.62919 0.22453,28.5101 0.22453,28.5101 z"
       id="path2798"
       style="fill:#12195b;stroke-width:1.35234" />
    <path
       d="m 135.40017,224.47486 c 1.12256,4.39874 1.57158,9.28618 -0.67352,10.26366 -2.02061,0.81457 -2.13287,-0.65163 -3.25541,0.4889 -2.91866,2.7696 -4.37798,2.28083 -5.38829,2.44375 -3.92893,0.81457 -4.26571,-3.25831 -1.57158,-5.05037 2.8064,-1.79205 4.26572,-7.00533 4.26572,-7.00533 z"
       id="path2800"
       style="stroke-width:1.35234" />
    <path
       class="st2"
       d="m 95.549424,110.10867 c 1.122565,1.30334 0.673539,5.86493 2.806398,7.00535 2.020608,0.97749 2.132858,-0.4889 2.132858,-0.4889 l -1.459333,12.21858 c 0,0 -1.683833,0.4889 -2.13286,-0.4889 -0.224513,-0.6517 -4.377961,-3.74703 -5.163756,-4.88744 -0.449012,-0.4889 3.816693,-13.35906 3.816693,-13.35906 z"
       id="path2804"
       style="fill:#d3a994;stroke-width:1.35234" />
    <path
       class="st0"
       d="m 93.304322,124.93393 c -0.785796,3.58416 -0.336755,3.09539 -0.673539,5.37622 -0.224527,2.28077 3.367667,10.10068 7.521127,15.31396 1.23481,1.62914 3.8167,3.42125 6.95984,7.16828 1.34707,1.62913 4.26572,9.44904 5.27603,11.56695 0.67353,1.30333 2.35736,-10.91531 2.35736,-10.91531 0,0 -2.13286,-0.65164 -5.72504,-7.16827 -3.92895,-7.16822 -10.552021,-20.0385 -13.02165,-18.73516 -1.459321,0.97749 -2.694128,-2.60667 -2.694128,-2.60667 z"
       id="path2806"
       style="fill:#12195b;stroke-width:1.35234" />
    <path
       class="st0"
       d="m 133.60408,193.84692 c 0,0 -5.61277,-27.53262 -5.50053,-29.81344 0.3368,-7.00534 1.68384,-19.06099 -3.70443,-24.11137 -2.46961,-5.05038 -4.82699,-10.58945 -8.53143,-15.80274 -0.56128,-0.81457 -5.38826,-6.19078 -8.41916,-7.98284 -2.35738,-1.30328 -3.92895,-0.16317 -8.643696,-0.16317 0,0 0.561282,7.00534 -3.367667,11.89279 -0.449012,0.48889 2.581886,8.7974 5.051513,10.42659 3.25541,7.33113 18.9712,21.66761 19.64474,25.57757 1.01029,5.86494 2.13285,33.23461 3.25541,33.23461 1.12254,0 3.70443,32.42007 3.70443,32.42007 0,0 9.54174,1.30333 9.54174,0.16316 0.33673,-26.55511 -3.03092,-35.84123 -3.03092,-35.84123 z"
       id="path2808"
       style="fill:#12195b;stroke-width:1.35234" />
    <path
       class="st2"
       d="m 83.76259,114.83325 c 0,-2.93246 1.683833,-6.3537 4.153462,-8.30869 3.592166,-2.60661 7.18436,0.81457 8.531424,6.67951 1.234807,5.53913 -0.785796,12.54442 -2.581886,14.33653 0,0 -1.234807,1.62913 -3.479923,-0.4889 -0.673539,-0.65163 -2.581885,-3.42117 -3.704436,-5.05036 -1.010295,-1.62913 -3.25541,-6.6795 -2.918641,-7.16821 z"
       id="path2810"
       style="fill:#d3a994;stroke-width:1.35234" />
    <path
       class="st57"
       d="m 86.793487,111.41201 c 0.561283,1.14041 2.13286,0.97749 3.479924,0.97749 1.347078,0 3.030911,1.14042 3.367666,1.62912 0.224528,0.4889 0.112343,-1.95497 1.234822,-1.79205 0.785781,0.16317 1.571577,3.25832 1.234807,3.74703 -0.449026,0.6517 2.020603,2.60668 2.020603,2.60668 0,0 0.785781,-5.21329 -2.357372,-10.58946 -3.143154,-5.37621 -7.857885,-4.07287 -9.204963,-2.28082 -1.79609,2.28082 0.224528,5.70201 0.224528,5.70201 z"
       id="path2812"
       style="fill:#210500;stroke-width:1.35234" />
    <path
       d="m 96.559732,109.2941 c -2.806398,1.6292 -6.510834,3.42125 -6.510834,3.42125 L 87.018,104.24374 c 0,0 3.704437,-1.79205 6.286322,-0.4889 1.571577,0.97748 3.25541,5.53908 3.25541,5.53908 z"
       id="path2814"
       style="stroke-width:1.35234" />
    <path
       class="st6"
       d="m 90.834693,112.06365 -6.623077,6.3537 c 0,0 -2.581886,-4.56159 -2.132859,-7.33119 0.449026,-2.76954 4.265704,-7.16821 5.276013,-6.84242 0.898038,0.48889 3.479923,7.81991 3.479923,7.81991 z"
       id="path2816"
       style="fill:#24272b;stroke-width:1.35234" />
    <path
       d="m 91.957244,110.9233 c -0.561268,0.65163 -1.347064,6.51657 -1.908346,7.00529 -0.561269,0.48889 -6.735334,6.51662 -7.072105,5.86491 -0.336739,-0.65162 1.347065,-5.53907 1.347065,-5.53907 z"
       id="path2818"
       style="stroke-width:1.35234" />
    <path
       class="st22"
       d="m 102.62152,154.74737 c 0,0 -4.265698,3.90995 -4.714724,4.5616 -0.449026,0.65162 -0.898038,2.44374 -1.010309,2.76953 -0.224513,0.9775 -0.112199,0.81457 -0.224513,2.11791 -0.112343,0.97748 0.561269,0.65163 0.785782,-0.32573 0.224527,-0.81457 0.449026,-1.62913 0.449026,-1.62913 l 0.449026,-0.65164 c 0,0 -0.673539,2.44369 -0.673539,2.76953 -0.1122,0.32574 -0.1122,1.79206 -0.224528,2.28084 -0.112199,0.4889 0.561283,1.14035 0.898053,0.32573 0.224527,-0.81457 0.673524,-2.44369 0.785781,-3.09539 0.112342,-0.4889 0.224527,-0.65164 0.224527,-0.65164 -0.336741,1.46626 -0.785795,3.42124 -0.785795,4.07288 0.112198,0.48889 0.785795,0.48889 1.010308,-0.4889 0.224527,-0.97749 0.898035,-2.44369 0.898035,-2.44369 l -0.898035,2.44369 c 0,0 0.224527,0.32572 0.449025,0.16317 0.44901,-0.32573 1.0103,-1.14041 1.68383,-2.1179 0.78579,-1.46621 1.12255,-1.79206 1.68384,-3.09534 0.44902,-0.65169 1.90834,-1.30333 1.90834,-1.46626 0.22452,-2.1179 -1.12256,-5.86493 -2.69414,-5.53908 z"
       id="path2824"
       style="fill:#ff800a;stroke-width:1.35234" />
    <path
       class="st23"
       d="m 108.12205,119.23193 c -3.14315,-3.58411 -5.50053,-1.62914 -5.72502,0.81455 -0.67354,5.86493 2.80638,16.12859 4.04119,20.52726 0.44903,2.44376 -6.959847,15.80275 -5.16376,15.96568 1.23481,0.16317 5.16376,7.00535 5.16376,7.00535 0,0 8.41918,-16.78024 7.74564,-21.34184 -0.44902,-5.53914 -3.36767,-19.87562 -6.06181,-22.971 z"
       id="path2826"
       style="fill:#203689;stroke-width:1.35234" />
    <path
       class="st29"
       d="m 88.477321,155.72486 c -2.13286,0 -3.816693,2.44369 -3.816693,5.53908 0,3.0954 1.683833,5.53908 3.816693,5.53908 2.132859,0 3.816692,-2.44368 3.816692,-5.53908 0,-3.09539 -1.683833,-5.53908 -3.816692,-5.53908 z m 0,9.77489 c -1.571577,0 -2.918641,-1.79206 -2.918641,-4.23581 0,-2.28083 1.234807,-4.2358 2.918641,-4.2358 1.571577,0 2.918655,1.7921 2.918655,4.2358 0,2.28083 -1.347078,4.23581 -2.918655,4.23581 z"
       id="path2828"
       style="fill:#b4c1d1;stroke-width:1.35234" />
    <rect
       x="88.140549"
       y="156.3765"
       class="st29"
       width="0.6735338"
       height="9.9378023"
       id="rect2830"
       style="fill:#b4c1d1;stroke-width:1.35234" />
    <rect
       x="85.109665"
       y="160.77516"
       class="st29"
       width="6.8475928"
       height="0.97748876"
       id="rect2832"
       style="fill:#b4c1d1;stroke-width:1.35234" />
    <rect
       x="-20.481802"
       y="171.6804"
       transform="matrix(0.56690276,-0.82378472,0.56788209,0.82310991,0,0)"
       class="st29"
       width="0.83962601"
       height="8.5323286"
       id="rect2836"
       style="fill:#b4c1d1;stroke-width:1.39906" />
    <rect
       x="-24.261095"
       y="175.45741"
       transform="matrix(0.56690276,-0.82378472,0.56788209,0.82310991,0,0)"
       class="st29"
       width="8.5361977"
       height="0.83924556"
       id="rect2838"
       style="fill:#b4c1d1;stroke-width:1.39906" />
    <path
       class="st1"
       d="m 88.028295,152.30362 c -0.673525,-0.81457 -3.59218,-0.65165 -4.377961,0.97749 -0.673541,1.14041 -0.673541,2.93246 -0.673541,2.93246 0,0 0,1.30334 0.224529,1.95498 0.33674,0.97748 0.785795,2.44375 1.45932,2.28082 0.673539,0 -0.561282,-1.79205 -0.561282,-2.60661 0,-0.81462 0.112198,-0.81462 0.112198,-0.81462 0,0 0.336784,0.65169 0.561268,2.11789 0,0 1.234822,2.44375 2.13286,2.44375 0.336755,0 -0.336741,-0.81455 -0.898038,-2.44375 -0.561283,-1.62912 -0.449026,-2.11789 -0.449026,-2.11789 0,0 0,0.81462 0.449026,1.95497 0.449012,1.30333 1.347064,3.25832 1.79609,3.09539 0.561268,-0.16317 0,-1.62913 -0.336798,-2.93247 -0.224528,-0.81455 -0.224528,-1.4662 -0.224528,-1.79205 0,-0.32573 -0.112199,3.42125 1.459335,3.90996 0.785781,0.16318 -0.561283,-4.39868 -0.561283,-5.37616 0,-0.32573 0.561283,-0.32573 0.673525,0.32573 0.112199,2.44375 0.336755,2.44375 0.561283,1.79206 0.336755,-1.46621 0.785795,-2.11785 0.561282,-2.93248 -0.561282,-1.62912 -1.908346,-2.76953 -1.908346,-2.76953 z"
       id="path2844"
       style="fill:#d94a00;stroke-width:1.35234" />
    <path
       class="st23"
       d="m 136.635,229.85108 c 0.33673,-26.55512 -3.03092,-35.84123 -3.03092,-35.84123 0,0 -3.47992,-31.93135 -3.70443,-34.21211 -0.89804,-8.7974 0.11219,-15.80275 -6.8476,-22.8081 -2.46961,-5.05037 -3.47992,-7.49406 -7.18436,-12.70735 -0.56128,-0.81456 -5.38826,-6.19078 -8.41916,-7.98284 -2.35738,-1.30334 -3.92895,-0.65163 -8.643696,-0.16316 0,0 0.112199,1.46626 -0.112199,3.58415 1.347065,0 7.521125,-0.16316 8.868185,2.28077 1.45933,2.28083 9.87851,14.82527 11.11332,17.75773 2.0206,4.88745 4.60248,9.44904 5.27601,14.98818 0.67354,5.37616 4.37797,27.36969 5.27601,32.90877 0.89806,5.37622 2.24512,13.35899 2.91866,17.5948 0.33678,2.28083 -0.67354,4.88745 0.1122,6.67949 0.67354,1.79206 0.78579,5.70201 0.67354,7.81991 -0.22453,2.1179 -2.69415,6.19079 -1.90835,6.84243 2.80638,2.28082 -0.56128,1.62919 -0.44903,3.42123 2.80641,0.32574 6.06182,0.4889 6.06182,-0.16315 z"
       id="path2846"
       style="fill:#203689;stroke-width:1.35234" />
  </g>
</svg>
