<?xml version="1.0" encoding="UTF-8" standalone="no"?>
<!-- Created with Inkscape (http://www.inkscape.org/) -->

<svg
   width="210mm"
   height="297mm"
   viewBox="0 0 210 297"
   version="1.1"
   id="svg8407"
   inkscape:version="1.1 (c68e22c387, 2021-05-23)"
   sodipodi:docname="chauf_eau.svg"
   xmlns:inkscape="http://www.inkscape.org/namespaces/inkscape"
   xmlns:sodipodi="http://sodipodi.sourceforge.net/DTD/sodipodi-0.dtd"
   xmlns="http://www.w3.org/2000/svg"
   xmlns:svg="http://www.w3.org/2000/svg">
  <sodipodi:namedview
     id="namedview8409"
     pagecolor="#505050"
     bordercolor="#eeeeee"
     borderopacity="1"
     inkscape:pageshadow="0"
     inkscape:pageopacity="0"
     inkscape:pagecheckerboard="0"
     inkscape:document-units="mm"
     showgrid="false"
     inkscape:zoom="0.51134961"
     inkscape:cx="396.01086"
     inkscape:cy="562.23765"
     inkscape:window-width="1920"
     inkscape:window-height="1001"
     inkscape:window-x="-9"
     inkscape:window-y="-9"
     inkscape:window-maximized="1"
     inkscape:current-layer="layer1" />
  <defs
     id="defs8404">
    <linearGradient
       id="SVGID_7_"
       gradientUnits="userSpaceOnUse"
       x1="39.8554"
       y1="212.233"
       x2="67.007698"
       y2="185.8593"
       gradientTransform="matrix(1.3197005,0,0,1.4917663,11.79793,-105.63273)">
      <stop
         offset="0.1209"
         style="stop-color:#FFFFFF"
         id="stop367" />
      <stop
         offset="0.1972"
         style="stop-color:#FBFBFB"
         id="stop369" />
      <stop
         offset="0.277"
         style="stop-color:#EEEEEE"
         id="stop371" />
      <stop
         offset="0.3585"
         style="stop-color:#D9D9D9"
         id="stop373" />
      <stop
         offset="0.441"
         style="stop-color:#BCBCBC"
         id="stop375" />
      <stop
         offset="0.5244"
         style="stop-color:#969696"
         id="stop377" />
      <stop
         offset="0.6074"
         style="stop-color:#696969"
         id="stop379" />
      <stop
         offset="0.6154"
         style="stop-color:#646464"
         id="stop381" />
    </linearGradient>
  </defs>
  <g
     inkscape:label="Calque 1"
     inkscape:groupmode="layer"
     id="layer1">
    <path
       class="st24"
       d="m 75.671436,88.296895 c -0.923794,1.044242 -1.187731,2.386832 -0.791821,3.281884 -0.131979,0.14919 -0.131979,0.298369 -0.263957,0.447559 -1.319699,0.895065 -2.639403,1.64094 -3.299249,3.43106 -0.263957,0.149186 -0.395886,0.447507 -0.659852,0.596714 -0.791821,0.895055 -1.187731,2.386813 -0.923789,3.281878 -0.263958,0.149197 0.131978,0.89507 -0.131979,1.19343 -1.319699,1.64093 -1.583641,3.7294 -0.527879,4.77363 0.263957,0.29838 0.79182,0.44751 1.187731,0.44751 0,0.14919 0,0.29836 0,0.4475 -1.847582,1.93929 -0.79182,2.83436 0.791821,3.43106 0,0.59671 0.263955,1.04423 0.659851,1.49177 0.791821,0.74589 2.11152,0.5967 3.167282,-0.29837 2.507429,1.34258 -1.583641,4.77365 2.243487,4.62447 -0.131978,2.08847 1.055763,2.98354 4.091073,3.58024 0.131975,0.89507 0.395888,1.7901 1.055764,2.23766 1.451666,1.34256 3.563183,0.89505 5.146824,-0.89506 1.58364,4.77362 1.847591,7.45879 8.182152,4.62449 0,1.04418 3.299243,2.53598 3.959099,2.98349 0.263968,1.19343 1.187726,3.43104 2.111516,4.17698 1.84759,1.64093 3.16728,1.0442 4.8829,-0.29826 0.39589,0.89506 0.13197,2.68518 3.43122,3.87861 1.05576,0.44768 4.75092,-0.44767 5.67472,-0.44767 2.1115,5.81792 17.42004,-1.19343 15.44048,-2.53599 -1.84757,-1.34263 -1.97953,-7.0113 -3.0353,-11.78495 -0.52788,-2.38683 -3.5632,-2.23766 -5.01486,-3.58024 -0.13199,-1.64095 -0.39588,-3.72942 -0.79183,-5.51953 -0.52788,-2.38683 -3.29924,-2.68519 -4.09107,-2.68519 0,-0.14918 0.13197,-0.14918 0.13197,-0.14918 1.18774,-2.08847 0.39589,-4.77366 -1.58363,-5.96708 0,0 0,0 0,0 -0.52788,-0.44749 -1.18774,-1.04423 -2.11152,-1.64093 -2.37546,-1.790122 -2.37546,-2.536001 -2.90333,-3.431066 0,-1.193418 -0.52789,-2.386824 -1.71562,-3.132703 -0.65985,-0.298373 -1.45166,-0.447507 -2.11152,-0.447507 -0.13198,0 -0.13198,-0.149196 -0.26396,-0.149196 0.26396,-1.342585 -0.26395,-2.685175 -1.45167,-3.28188 -1.18772,-0.596705 -2.77136,-0.447503 -3.82712,0.298381 0,0 -0.13199,-0.14919 -0.13199,-0.14919 0,0 0,0 0,0 1.05575,-1.640948 0.79182,-3.431063 -0.65984,-4.326128 -1.05577,-0.596704 -2.507439,-0.447503 -3.563203,0.298371 -0.131974,-0.14918 -0.395887,-0.14918 -0.527871,-0.298371 -0.263969,0 -0.395887,-0.149179 -0.659856,-0.149179 0,-0.895063 -0.395886,-1.640947 -1.187737,-2.088484 -0.923791,-0.447493 -1.979544,-0.447493 -3.035308,0.14919 -0.791828,-0.447503 -1.451665,-0.895064 -2.111516,-1.19341 -1.319702,-0.745885 -3.299257,0.447503 -5.410774,1.491757 -0.131988,-0.149179 -0.263963,-0.29837 -0.527876,-0.447503 -1.18774,-0.745873 -2.903344,-0.149179 -4.091072,1.193422 -0.131987,0.149179 -0.131987,0.149179 -0.263963,0.298369 -0.395887,0.149191 -0.791814,0.447504 -1.187727,0.596705 -0.791822,-0.14919 -2.243495,0.447504 -3.299252,1.640948 z"
       id="path227"
       style="opacity:0.27;fill:#aecfef;stroke-width:1.40309" />
    <path
       class="st24"
       d="m 73.164,81.882294 c -0.527878,1.49178 -0.395934,2.983537 0.263958,3.729421 0,0.149191 -0.131978,0.447504 -0.131978,0.596706 -0.923795,1.193421 -4.223044,2.834358 -4.223044,4.624473 -0.131978,0.29837 -0.263958,0.596706 -0.395886,0.895063 -0.395885,1.193411 2.11152,2.536003 2.50743,3.132706 -0.131978,0.298373 -1.3197,0.895066 -1.451668,1.193417 -0.659852,1.939296 1.3197,3.729417 2.507429,4.17694 0.395886,0.14919 0.659853,0.14919 1.055763,0 0,0.14919 0,0.29838 0,0.29838 -0.923794,2.23764 0.131979,2.53599 1.451668,2.53599 0.131978,0.4475 0.395885,0.74589 0.79182,0.89506 0.791821,0.29837 1.58364,-0.29836 2.243493,-1.34258 2.111518,0.14919 -0.263958,4.02777 2.507431,2.53601 0.263951,1.49176 1.187728,1.64093 3.299258,1.04423 0.131974,0.5967 0.527875,0.89505 0.923788,1.19341 1.055753,0.4475 2.375456,-0.59671 3.035307,-2.23764 1.451665,2.536 1.847579,4.02777 5.146836,0.29836 0,0.59671 1.979555,0.59671 2.375452,0.59671 0.263969,0.59671 0.791829,1.64094 1.319711,1.79011 0.92378,0.44751 1.583635,-0.29837 2.507426,-1.49176 0.131973,0.4475 0.131973,1.49176 1.715616,1.19341 0.52787,-0.14918 2.24348,-1.49176 2.77136,-1.79012 0.9238,2.536 6.99442,-7.608006 6.07063,-7.906358 -0.79183,-0.298372 0.39588,-1.044241 0.13197,-3.729416 -0.13197,-1.491761 -1.7156,-0.596704 -2.24349,-1.044234 0,-1.044232 0,-2.536001 -0.26394,-3.580243 -0.26397,-1.640936 -1.71562,-1.044232 -2.11152,-0.895063 0,0 0,-0.149179 0.13197,-0.149179 0.65986,-1.939295 0.26395,-3.729411 -0.79182,-4.176948 0,0 0,0 0,0 -0.26395,-0.29837 -0.65985,-0.596706 -1.18773,-0.895052 -1.45166,-0.895063 -1.45166,-1.49178 -1.7156,-2.237655 0,-1.193415 -0.3959,-2.088474 -1.18775,-2.38683 -0.395872,-0.149186 -0.923787,-0.149186 -1.319696,0.149185 0,0 -0.131973,0 -0.131973,-0.149185 0.131973,-1.34259 -0.263958,-2.535999 -1.055765,-2.834354 -0.791817,-0.298372 -1.847581,0.298371 -2.639399,1.342589 0,0 -0.131973,0 -0.131973,-0.149186 0,0 0,0 0,0 0.659855,-1.9393 0.263947,-3.878593 -0.791828,-4.326124 -0.791807,-0.298372 -1.847582,0.298372 -2.639391,1.342589 -0.131975,0 -0.263964,-0.149185 -0.395888,-0.149185 -0.131976,0 -0.395888,0 -0.527889,0 -0.131976,-1.044241 -0.527875,-1.79012 -1.187727,-2.088474 -0.791815,-0.298373 -1.583641,0.149186 -2.375455,1.044233 -0.659852,-0.298372 -1.319703,-0.596704 -1.847579,-0.745879 -1.319703,-0.59671 -2.771368,1.491765 -4.355009,3.281885 -0.131989,-0.149186 -0.263964,-0.298374 -0.527889,-0.447559 -1.187727,-0.447501 -2.639397,0.745886 -3.299249,2.68518 0,0.149186 -0.131979,0.298372 -0.131979,0.447501 -0.263957,0.298371 -0.659852,0.745885 -0.923794,1.193415 -1.055757,-0.298372 -2.243487,0.89506 -2.77137,2.535994 z"
       id="path229"
       style="opacity:0.27;fill:#aecfef;stroke-width:1.40309" />
    <path
       class="st25"
       d="m 100.0859,83.523241 c -1.451675,2.386822 -1.847584,4.922833 -1.055766,6.712948 -0.131984,0.29837 -0.263958,0.745884 -0.395931,1.044243 -1.979555,1.790115 -4.355007,3.580231 -5.014874,6.86212 -0.395875,0.298362 -0.659855,0.745879 -1.055753,1.342583 -1.187737,1.790135 -1.583638,4.624495 -1.055763,5.967075 -0.395874,0.44751 0.263968,1.49176 -0.131974,2.08846 -1.847579,2.98354 -1.979555,6.4146 -0.263951,7.7572 0.527875,0.4475 1.187731,0.5967 1.847564,0.4475 0,0.14919 0,0.4475 0,0.59671 -2.507416,3.28187 -0.92378,4.47531 1.451684,4.92287 0.131973,0.74582 0.395886,1.49169 1.055764,1.79006 1.187726,0.89506 2.903323,0.44767 4.486969,-1.04424 3.563191,1.19342 -1.979543,6.8621 3.299251,5.66878 -0.13197,2.68513 1.45168,3.43106 5.2788,3.43106 0.132,1.04424 0.52789,1.93929 1.18775,2.53593 1.58364,1.19343 4.22302,0.14941 6.20258,-2.38675 1.45167,5.07199 1.58364,7.90629 8.842,3.28186 -0.13198,1.04426 3.16728,1.93931 3.82713,2.23763 0.13198,1.19343 0.79181,3.13273 1.58364,3.8786 1.58364,1.19344 2.90334,0.29827 5.01486,-1.49174 0.13197,0.74587 -0.39589,2.536 2.50743,2.83437 0.92379,0.14885 4.48699,-1.4918 5.41078,-1.79011 0.65984,4.7736 15.04458,-9.69654 13.85685,-10.74074 -1.18773,-0.89504 1.05576,-1.4918 1.71562,-6.4146 0.39587,-2.53599 -2.63941,-1.79011 -3.5632,-2.98355 0.39588,-1.93932 0.92379,-4.32614 1.05576,-6.41462 0.26396,-2.98354 -2.50742,-2.83435 -3.29925,-2.68518 0.13197,-0.14918 0.13197,-0.14918 0.26397,-0.29837 1.97953,-2.98354 2.11151,-6.4146 0.39587,-7.75718 0,0 0,0 0,0 -0.39587,-0.59671 -0.92379,-1.3426 -1.71561,-2.08847 -2.11151,-2.237652 -1.97955,-3.431059 -2.24349,-4.773652 0.39589,-1.939306 0.13198,-3.878599 -1.05575,-4.624484 -0.65985,-0.596705 -1.58365,-0.596705 -2.37546,-0.447503 -0.13199,-0.149179 -0.13199,-0.149179 -0.26396,-0.149179 0.79182,-2.386832 0.52788,-4.624474 -0.79183,-5.519538 -1.3197,-1.04423 -3.43122,-0.447503 -5.14684,1.044232 0,-0.149179 -0.13197,-0.149179 -0.13197,-0.298369 0,0 0,0 0,0 1.97956,-2.983538 2.11152,-6.563774 0.26397,-7.906363 -1.31971,-1.044235 -3.29927,-0.596704 -5.01486,1.044234 -0.26397,-0.149185 -0.5279,-0.298372 -0.79183,-0.447501 -0.26395,-0.149185 -0.52787,-0.298373 -0.92379,-0.447502 0.26394,-1.79012 -0.13198,-3.431059 -1.18773,-4.176944 -1.18774,-0.89506 -2.90334,-0.596705 -4.48698,0.596705 -1.05576,-0.74588 -2.11152,-1.640939 -2.90334,-2.23765 -1.97955,-1.640938 -5.2788,1.34259 -8.842,3.58024 -0.26395,-0.298373 -0.39589,-0.74588 -0.65985,-0.89506 -1.84758,-1.34259 -4.75092,0 -6.73047,2.983535 -0.13198,0.149185 -0.26396,0.4475 -0.39588,0.596703 -0.65986,0.447502 -1.3197,0.89506 -1.97956,1.491771 -1.84758,-0.745886 -4.35501,0.596704 -6.07063,3.281888 z"
       id="path231"
       style="opacity:0.27;fill:#92bbdd;stroke-width:1.40309" />
    <path
       class="st26"
       d="m 79.894478,95.755729 c -0.92379,2.386823 -0.92379,4.773651 0,6.265411 -0.131976,0.29838 -0.131976,0.59672 -0.263965,1.04424 -1.583636,1.93929 -3.431218,3.87859 -3.563188,7.0113 -0.263956,0.44751 -0.527884,0.74589 -0.79182,1.34259 -0.79182,1.9393 -0.659852,4.32613 0,5.51953 -0.263957,0.44751 0.527879,1.34259 0.263956,1.93931 -1.319698,2.98352 -0.791819,6.11626 1.055763,7.16045 0.527879,0.29826 1.18773,0.29826 1.847587,0.14941 0,0.14941 0,0.44768 0,0.59675 -1.715618,3.43104 -0.131987,4.17692 2.111517,4.32611 0.263951,0.74588 0.659852,1.19337 1.187728,1.49175 1.187727,0.59669 2.771369,-0.14941 3.959096,-1.64094 3.431232,0.59669 -0.659852,6.56379 3.959109,4.62448 0.395887,2.536 1.979558,2.83438 5.410774,2.23763 0.263947,0.89506 0.791818,1.64093 1.583635,2.08849 1.715609,0.89506 3.9591,-0.59668 5.41078,-3.13274 2.11152,4.4753 2.77136,6.86216 8.71002,1.4918 0,1.04426 3.29925,1.34257 3.95911,1.49176 0.26394,1.04424 1.18772,2.68518 2.11151,3.28186 1.58364,0.74594 2.77138,-0.14885 4.35501,-2.08844 0.26397,0.74588 0.13199,2.38681 2.77138,2.23763 0.92378,0 3.9591,-2.08844 4.75092,-2.536 1.3197,4.17692 12.40518,-11.33739 11.08548,-11.93415 -1.3197,-0.74587 0.79183,-1.64093 0.52789,-6.11623 -0.13199,-2.38681 -2.77138,-1.19337 -3.82713,-2.08844 0.13197,-1.79014 0.13197,-4.17696 0,-5.96708 -0.26397,-2.68518 -2.77139,-2.08847 -3.56321,-1.79012 0,-0.14919 0.13199,-0.14919 0.13199,-0.29838 1.3197,-2.98352 0.92379,-6.11624 -0.92379,-7.16048 0,0 0,0 0,0 -0.39589,-0.44749 -1.05577,-1.04423 -1.97956,-1.64093 -2.37545,-1.64095 -2.37545,-2.83436 -2.77137,-4.027769 0.13197,-1.790131 -0.52787,-3.431065 -1.71562,-4.027768 -0.65984,-0.298383 -1.58363,-0.298383 -2.37545,0 -0.13197,0 -0.13197,-0.149187 -0.26396,-0.149187 0.39589,-2.237657 -0.26396,-4.176951 -1.71561,-4.922824 -1.45167,-0.745884 -3.16728,0 -4.61895,1.790115 -0.13198,0 -0.13198,-0.14919 -0.26396,-0.14919 0,0 0,0 0,0 1.3197,-2.983526 0.79182,-6.265421 -1.05576,-7.160474 -1.45166,-0.745884 -3.16728,0 -4.48697,1.790116 -0.26397,-0.14919 -0.52789,-0.14919 -0.79183,-0.298369 -0.26395,0 -0.52789,-0.149191 -0.92379,-0.149191 0,-1.640937 -0.65985,-2.983526 -1.71562,-3.580243 -1.18773,-0.596693 -2.77136,-0.149179 -4.09106,1.193422 -1.18774,-0.596705 -2.2435,-1.044231 -3.03531,-1.491769 -2.111516,-1.044237 -4.750926,2.088474 -7.654271,4.624475 -0.263947,-0.298371 -0.527871,-0.596706 -0.791807,-0.745885 -1.847596,-0.895053 -4.486989,0.745885 -5.67473,3.729422 -0.131974,0.14919 -0.131974,0.447503 -0.26395,0.596704 -0.52789,0.447504 -1.055765,1.044232 -1.583641,1.640937 -1.319703,-0.895052 -3.43122,0.745885 -4.486984,3.431064 z"
       id="path233"
       style="opacity:0.27;fill:#9abedb;stroke-width:1.40309" />
    <path
       class="st27"
       d="m 112.35911,91.578779 c -1.31971,2.088478 -1.7156,4.475301 -1.18773,6.116246 -0.13198,0.298362 -0.26396,0.596703 -0.39589,0.895055 -1.84757,1.49177 -3.95909,3.13271 -4.75092,6.11625 -0.26395,0.29836 -0.65985,0.74588 -0.92379,1.19341 -1.05576,1.64093 -1.45166,4.17694 -1.05576,5.37036 -0.39589,0.44749 0.26396,1.34258 -0.13197,1.93929 -1.71561,2.68518 -1.97956,5.81789 -0.26396,7.1605 0.52788,0.44767 1.05575,0.59668 1.71561,0.44767 0,0.14941 0,0.44767 -0.13198,0.59673 -2.37546,2.9835 -0.92379,4.02775 1.18773,4.62443 0.13198,0.74594 0.39589,1.34263 0.9238,1.79014 1.05575,0.89505 2.63939,0.44766 4.09107,-0.89507 3.16728,1.19344 -1.97955,6.26543 2.90333,5.22123 -0.13198,2.536 1.31971,3.13268 4.75092,3.28186 0.13199,0.89507 0.39589,1.79013 1.05577,2.23763 1.45168,1.19343 3.95911,0.29826 5.6747,-1.93925 1.18774,4.77361 1.18774,7.16047 8.05019,3.13268 -0.13198,1.04424 2.90334,1.93931 3.43122,2.23768 0.13198,1.19337 0.65985,2.83431 1.3197,3.58024 1.31969,1.04419 2.63939,0.29826 4.61895,-1.19344 0.13198,0.74588 -0.39589,2.38681 2.24349,2.68519 0.79181,0.1494 4.09107,-1.34263 5.01486,-1.49175 0.52788,4.32612 13.85686,-8.5031 12.80111,-9.39816 -1.18775,-0.89506 1.05575,-1.34255 1.71559,-5.81786 0.39589,-2.38685 -2.37545,-1.64098 -3.16728,-2.83436 0.39594,-1.79013 0.92379,-4.0278 1.18773,-5.81792 0.26397,-2.68516 -2.24348,-2.536 -3.03531,-2.536 0.13199,-0.14918 0.13199,-0.14918 0.26397,-0.29837 1.84758,-2.68518 1.97954,-5.81788 0.39588,-7.16047 0,0 0,0 0,0 -0.26395,-0.59672 -0.79182,-1.19342 -1.58365,-1.93931 -1.84756,-2.08846 -1.7156,-3.1327 -1.84756,-4.47529 0.39588,-1.79011 0.26395,-3.43107 -0.79183,-4.32611 -0.65985,-0.447511 -1.45166,-0.596728 -2.24349,-0.447511 -0.13197,-0.149196 -0.13197,-0.149196 -0.26396,-0.149196 0.79182,-2.088462 0.52789,-4.176944 -0.65984,-5.071999 -1.18773,-0.895055 -3.03532,-0.596704 -4.75093,0.895055 0,-0.149176 -0.13197,-0.149176 -0.13197,-0.298373 0,0 0,0 0,0 1.84758,-2.685175 1.97954,-5.96706 0.39587,-7.16047 -1.18772,-1.044231 -3.0353,-0.596705 -4.61894,0.895064 -0.26396,-0.149191 -0.39587,-0.29837 -0.65985,-0.447504 -0.26395,-0.149179 -0.52789,-0.298369 -0.79182,-0.298369 0.26396,-1.640948 0,-3.132706 -0.92379,-3.87859 -1.05577,-0.895064 -2.6394,-0.596705 -4.09107,0.447492 -0.92378,-0.745872 -1.84757,-1.491757 -2.6394,-2.088462 -1.84758,-1.491772 -4.8829,1.044231 -8.05018,3.132705 -0.13198,-0.29837 -0.39588,-0.596706 -0.65985,-0.895064 -1.58363,-1.342589 -4.35502,-0.149179 -6.2026,2.536 -0.13197,0.14919 -0.26394,0.447503 -0.26394,0.596717 -0.65986,0.447503 -1.18773,0.745873 -1.84759,1.342589 -1.84757,-1.193422 -4.09107,0 -5.6747,2.386821 z"
       id="path235"
       style="opacity:0.39;fill:#aecfef;stroke-width:1.40309" />
    <path
       class="st28"
       d="m 135.71781,124.24845 c -1.45166,0 -2.63939,-0.59669 -3.9591,-0.59669 v 0 -3.43106 c 1.58364,0 2.90334,0.44767 3.56319,0.59669 v 0 c 0,0 0,0 0,0 v 0 -24.614134 c 0,-2.237648 -1.58365,-4.027772 -3.56319,-4.027772 v 0 H 90.056174 v -3.431052 h 41.702536 c 3.69516,0 6.59851,3.431052 6.59851,7.458824 v 0 24.614134 c 0,0.89507 -0.13199,1.79011 -0.65986,2.53599 v 0 c -0.52787,0.74593 -1.45166,0.89507 -1.97955,0.89507 v 0 c 0,0 0,0 0,0 z"
       id="path237"
       style="fill:#87391e;stroke-width:1.40309" />
    <path
       class="st29"
       d="m 115.9223,119.32563 v 112.47918 0 c 0.13198,1.79011 8.57806,3.28191 18.87172,3.28191 10.29367,0 18.73975,-1.4918 18.87173,-3.28191 v 0 -112.47918 z"
       id="path239"
       style="fill:#b4c1d1;stroke-width:1.40309" />
    <path
       class="st30"
       d="m 115.9223,231.95399 v 0 c 0.13198,1.49175 5.80669,2.68517 13.59292,3.13273 V 119.47481 H 115.9223 Z"
       id="path241"
       style="fill:#8494af;stroke-width:1.40309" />
    <path
       class="st29"
       d="m 153.79771,119.32563 c 0,0.89507 -8.44609,1.64094 -18.87172,1.64094 -10.42563,0 -18.87171,-0.74587 -18.87171,-1.64094 0,-0.89505 8.44608,-1.64093 18.87171,-1.64093 10.42563,0 18.87172,0.74588 18.87172,1.64093 z"
       id="path247"
       style="fill:#b4c1d1;stroke-width:1.40309" />
    <path
       class="st28"
       d="m 168.31442,153.78542 v -41.62026 c 0,-2.53602 -1.84758,-4.62449 -4.09107,-4.62449 v 0 h -19.13566 v -2.38681 h 19.13566 c 3.43121,0 6.07062,3.1327 6.07062,6.86212 v 0 41.62031 h -1.97955 z"
       id="path249"
       style="fill:#87391e;stroke-width:1.40309" />
    <path
       class="st31"
       d="m 164.22335,105.30303 h -19.13566 v 0.89506 h 18.34383 c 3.29925,0 6.07063,2.98354 6.07063,6.86213 v 40.7252 h 0.79182 v -41.62026 c 0,-3.72942 -2.77137,-6.86213 -6.07062,-6.86213 z"
       id="path251"
       style="fill:#bc7148;stroke-width:1.40309" />
    <path
       class="st28"
       d="m 170.95382,143.93976 c 0,0.29826 -0.26396,0.44767 -0.65985,0.44767 h -1.97955 c -0.39593,0 -0.65986,-0.14941 -0.65986,-0.44767 v -3.43105 c 0,-0.29827 0.26396,-0.44768 0.65986,-0.44768 h 1.97955 c 0.39589,0 0.65985,0.14941 0.65985,0.44768 z"
       id="path255"
       style="fill:#87391e;stroke-width:1.40309" />
    <path
       d="m 170.03003,170.64243 c 0,0.59668 -0.39593,1.04418 -0.79183,1.04418 v 0 c -0.39589,0 -0.79181,-0.44768 -0.79181,-1.04418 l -0.26397,-2.0885 c 0,-0.59669 0.65986,-1.04424 1.05577,-1.04424 v 0 c 0.39588,0 1.05576,0.44766 1.05576,1.04424 z"
       id="path257"
       style="stroke-width:1.40309" />
    <path
       class="st7"
       d="m 172.14154,144.38732 c 0,0.74587 -0.52787,1.34255 -1.18772,1.34255 h -3.29926 c -0.65985,0 -1.18772,-0.59668 -1.18772,-1.34255 v 0 c 0,-0.74587 0.52787,-1.34263 1.18772,-1.34263 h 3.29926 c 0.65985,0 1.18772,0.59676 1.18772,1.34263 z"
       id="path259"
       style="fill:#00665c;stroke-width:1.40309" />
    <path
       class="st7"
       d="m 179.004,164.97369 c 0,2.23761 -1.97957,4.17692 -4.35503,4.17692 H 163.9594 c -2.37545,0 -4.35501,-1.79011 -4.35501,-4.17692 v -15.8127 c 0,-2.23768 1.97956,-4.17699 4.35501,-4.17699 h 10.68957 c 2.37546,0 4.35503,1.93931 4.35503,4.17699 z"
       id="path261"
       style="fill:#00665c;stroke-width:1.40309" />
    <path
       class="st8"
       d="m 179.004,164.97369 v -15.8127 c 0,-2.23768 -1.97957,-4.17699 -4.35503,-4.17699 h -7.39033 v 24.01743 h 7.39033 c 2.37546,0.14941 4.35503,-1.64093 4.35503,-4.02774 z"
       id="path263"
       style="fill:#01897f;stroke-width:1.40309" />
    <rect
       x="159.47243"
       y="151.69696"
       class="st7"
       width="19.399597"
       height="1.0442363"
       id="rect271"
       style="fill:#00665c;stroke-width:1.40309" />
    <rect
       x="159.47243"
       y="151.10028"
       class="st8"
       width="19.399597"
       height="1.0442363"
       id="rect273"
       style="fill:#01897f;stroke-width:1.40309" />
    <path
       class="st30"
       d="m 133.73825,224.64432 c 0,-2.08843 1.45169,-3.72942 3.29926,-3.72942 1.84758,0 3.29926,1.64099 3.29926,3.72942 0,2.0885 -1.45168,3.72944 -3.29926,3.72944 -1.84757,0 -3.29926,-1.64094 -3.29926,-3.72944 z"
       id="path285"
       style="fill:#8494af;stroke-width:1.40309" />
    <path
       class="st28"
       d="m 144.03192,173.62592 v -69.66548 c 0,-2.23765 -1.58363,-4.027767 -3.56319,-4.027767 v 0 H 89.792223 v -3.431065 h 50.676507 c 3.69517,0 6.5985,3.431065 6.5985,7.458832 v 0 69.66548 z"
       id="path287"
       style="fill:#87391e;stroke-width:1.40309" />
    <path
       class="st32"
       d="m 136.11373,225.83776 v -2.23768 h 4.355 c 2.24349,0 4.09108,-2.08843 4.09108,-4.62443 v 0 -71.0081 h 1.97955 v 71.0081 c 0,3.87856 -2.77137,6.86211 -6.07063,6.86211 v 0 z"
       id="path289"
       style="fill:#894a31;stroke-width:1.40309" />
    <path
       class="st4"
       d="m 120.14535,96.203256 -1.18774,-1.79012 -2.77137,-0.447559 c -1.45166,0.149186 -2.6394,1.193406 -3.16728,2.535999 l -0.39589,3.580244 0.52788,0.89506 c 1.31971,1.9393 2.50744,2.08846 3.56319,2.08846 2.24349,0 4.09109,-2.08846 4.09109,-4.624468 -0.13199,-0.596692 -0.26396,-1.491758 -0.65987,-2.237647 z"
       id="path291"
       style="fill:#3357bc;stroke-width:1.40309" />
    <path
       class="st4"
       d="m 114.20668,95.755729 h -4.09107 c -0.26394,0 -0.52787,0.298372 -0.52787,0.596703 v 3.132703 c -0.39589,0.149196 -0.65985,0.149196 -0.65985,0.298372 0,0.149187 0.79182,1.342593 0.79182,1.342593 v 0 c 0.13198,0.14919 0.26395,0.14919 0.39588,0.14919 h 4.09107 c 0.26397,0 0.52789,-0.29838 0.52789,-0.59671 v -4.326127 c 0,-0.298373 -0.26396,-0.596703 -0.52789,-0.596703 z"
       id="path293"
       style="fill:#3357bc;stroke-width:1.40309" />
    <path
       class="st5"
       d="m 113.94275,99.634321 c 0,0.298373 -0.26395,0.596699 -0.52787,0.596699 h -3.95911 c -0.26396,0 -0.52788,-0.298368 -0.52788,-0.596699 v -4.32612 c 0,-0.298383 0.26396,-0.596703 0.52788,-0.596703 h 4.09107 c 0.26396,0 0.52788,0.298362 0.52788,0.596703 v 4.32612 z"
       id="path295"
       style="fill:#4d87db;stroke-width:1.40309" />
    <path
       class="st5"
       d="m 111.43532,97.396673 c 0,-2.685175 1.84757,-4.773651 4.22305,-4.773651 2.37545,0 4.22303,2.088476 4.22303,4.773651 0,2.685177 -1.84758,4.773647 -4.22303,4.773647 -2.37548,0 -4.22305,-2.08847 -4.22305,-4.773647 z"
       id="path297"
       style="fill:#4d87db;stroke-width:1.40309" />
    <path
       class="st33"
       d="m 115.65837,93.51807 c -1.84758,0 -3.43122,1.790131 -3.43122,3.878603 0,2.088462 1.58364,3.878597 3.43122,3.878597 1.84758,0 3.43121,-1.790135 3.43121,-3.878597 0,-2.088472 -1.45166,-3.878603 -3.43121,-3.878603 z m 0,6.86213 c -1.45169,0 -2.63941,-1.342593 -2.63941,-2.983527 0,-1.640944 1.18772,-2.983537 2.63941,-2.983537 1.45166,0 2.63939,1.342593 2.63939,2.983537 0,1.640934 -1.18773,2.983527 -2.63939,2.983527 z"
       id="path299"
       style="opacity:0.4;fill:#4d87db;stroke-width:1.40309" />
    <path
       class="st31"
       d="m 130.0431,99.783497 c 0,0.298373 -0.13198,0.596703 -0.39589,0.596703 h -5.41078 c -0.26395,0 -0.39587,-0.29837 -0.39587,-0.596703 v -3.281889 c 0,-0.298362 0.13197,-0.596703 0.39587,-0.596703 h 5.41078 c 0.26396,0 0.39589,0.298372 0.39589,0.596703 z"
       id="path305"
       style="fill:#bc7148;stroke-width:1.40309" />
    <path
       class="st29"
       d="m 127.66764,100.9769 c 0,0.29839 -0.13199,0.44751 -0.39589,0.44751 h -0.65984 c -0.26397,0 -0.39589,-0.14918 -0.39589,-0.44751 v -3.729403 c 0,-0.298383 0.13197,-0.447506 0.39589,-0.447506 h 0.65984 c 0.26396,0 0.39589,0.149176 0.39589,0.447506 z"
       id="path307"
       style="fill:#b4c1d1;stroke-width:1.40309" />
    <path
       class="st30"
       d="m 127.40369,101.27527 -1.05575,0.5967 -0.39589,-0.5967 c 0,0 0.39589,-0.44751 0.52787,-0.44751 0.132,0 0.79183,0 0.92379,0.14917 0.132,0.1492 0,0.29839 0,0.29839 z"
       id="path309"
       style="fill:#8494af;stroke-width:1.40309" />
    <path
       class="st34"
       d="m 126.87582,104.10963 c 0,0.29836 -0.26396,0.5967 -0.52788,0.5967 v 0 c -0.26395,0 -0.5279,-0.29838 -0.5279,-0.5967 v -3.13273 c 0,-0.29837 0.26397,-0.5967 0.5279,-0.5967 v 0 c 0.26394,0 0.52788,0.29837 0.52788,0.5967 z"
       id="path311"
       style="fill:#b20000;stroke-width:1.40309" />
    <path
       class="st31"
       d="m 157.62484,107.68986 c 0,0.29837 -0.13197,0.44749 -0.26395,0.44749 h -3.95911 c -0.13197,0 -0.26394,-0.14917 -0.26394,-0.44749 v -2.38683 c 0,-0.29838 0.13197,-0.4475 0.26394,-0.4475 h 3.95911 c 0.13198,0 0.26395,0.14917 0.26395,0.4475 z"
       id="path315"
       style="fill:#bc7148;stroke-width:1.40309" />
    <path
       class="st29"
       d="m 155.90923,108.58491 c 0,0.1492 -0.13198,0.29837 -0.26396,0.29837 h -0.52788 c -0.13198,0 -0.26396,-0.14917 -0.26396,-0.29837 v -2.68517 c 0,-0.14919 0.13198,-0.29838 0.26396,-0.29838 h 0.52788 c 0.13198,0 0.26396,0.14919 0.26396,0.29838 z"
       id="path317"
       style="fill:#b4c1d1;stroke-width:1.40309" />
    <path
       class="st30"
       d="m 155.64528,108.7341 -0.7918,0.44749 -0.26397,-0.44749 c 0,0 0.26397,-0.44751 0.39589,-0.44751 0.13197,0 0.52788,0 0.65985,0.14918 0.13197,0.29838 0,0.29838 0,0.29838 z"
       id="path319"
       style="fill:#8494af;stroke-width:1.40309" />
    <path
       class="st34"
       d="m 155.24939,110.97174 c 0,0.29838 -0.13199,0.4475 -0.39589,0.4475 v 0 c -0.26397,0 -0.39589,-0.14917 -0.39589,-0.4475 v -2.23764 c 0,-0.29837 0.13198,-0.44751 0.39589,-0.44751 v 0 c 0.26395,0 0.39589,0.14918 0.39589,0.44751 z"
       id="path321"
       style="fill:#b20000;stroke-width:1.40309" />
    <path
       class="st28"
       d="m 107.34425,199.43347 v -7.75718 c 0,-4.17692 3.03531,-7.45885 6.5985,-7.45885 v 0 h 1.97955 v 3.43112 h -1.97955 c -1.97956,0 -3.56319,1.79012 -3.56319,4.02773 v 0 7.75718 c 0,2.23767 1.58363,4.02779 3.56319,4.02779 v 0 3.43105 c -3.69515,0.14942 -6.5985,-3.28187 -6.5985,-7.45884 z"
       id="path327"
       style="fill:#87391e;stroke-width:1.40309" />
    <path
       class="st28"
       d="m 118.16579,216.29047 v -5.37036 c 0,-2.68517 -1.97955,-4.92285 -4.355,-4.92285 v 0 -1.79013 c 3.29924,0 5.93865,2.98356 5.93865,6.71298 v 0 5.37036 z"
       id="path329"
       style="fill:#87391e;stroke-width:1.40309" />
    <path
       class="st35"
       d="m 117.242,98.440904 c -0.52788,1.790116 -0.39588,3.431066 0.26396,4.326126 0,0.29838 -0.13197,0.44756 -0.13197,0.74587 -0.92379,1.49177 -3.29926,2.08847 -3.29926,4.32613 -0.13198,0.29838 -0.26395,0.59671 -0.39588,0.89507 -0.39593,1.34258 -0.79183,4.02777 -0.26396,4.77365 -0.13197,0.29837 0.39589,0.89506 0.26396,1.19341 -0.65985,2.08847 0.65984,3.72942 1.84758,4.17695 0.39588,0.14918 0.26394,-0.59672 0.65985,-0.74588 0,0.14917 1.58364,1.49175 1.7156,1.64094 -0.92379,2.38684 0.13197,2.83433 1.58365,2.83433 0.13197,0.44768 0.39588,0.74588 0.79182,1.04426 0.79181,0.29825 1.71561,-0.29826 2.37546,-1.34257 2.24349,0.14885 -0.13198,4.4753 2.6394,2.9835 0.39594,1.64093 1.31971,1.9393 3.5632,1.34262 0.26394,0.59668 0.52787,1.19338 1.05575,1.34255 1.18774,0.44768 2.6394,-0.59668 3.43122,-2.38681 1.58364,2.98357 2.11152,4.62449 5.93866,0.5967 0,0.74587 2.37545,0.74587 2.77137,0.89506 0.26395,0.74588 0.92379,1.9393 1.58364,2.23768 1.18772,0.44767 1.97955,-0.29826 3.03531,-1.64094 0.26396,0.44768 1.97955,1.93925 3.82713,1.64094 0.65985,-0.14942 8.71003,-3.87862 7.65426,-4.32612 2.24349,-2.53604 3.16729,-5.07203 0.9238,-6.26544 -0.13198,-1.79013 -1.05576,-6.26543 -1.84759,-7.0113 0,-1.3426 0,-3.13272 -0.13197,-4.4753 -0.26396,-2.08847 -2.11152,-1.34259 -2.6394,-1.04424 0,-0.14919 0.13199,-0.14919 0.13199,-0.29837 0.92379,-2.38684 0.52787,-4.77366 -0.9238,-5.37037 0,0 0,0 0,0 -0.39588,-0.29837 -0.79182,-0.745874 -1.45168,-1.044236 -1.7156,-1.044231 -1.84757,-1.939296 -2.11151,-2.834351 0,-1.491769 -0.52789,-2.53601 -1.31971,-2.983538 -0.52787,-0.149186 -1.05575,-0.149186 -1.71562,0.298373 0,0 -0.13197,0 -0.13197,-0.149186 0.13197,-1.790119 -0.26394,-3.132708 -1.3197,-3.580234 -1.05575,-0.447503 -2.24348,0.447504 -3.16728,1.790115 0,0 -0.13197,-0.14919 -0.13197,-0.14919 0,0 0,0 0,0 0.7918,-2.386821 0.39588,-4.773641 -0.92379,-5.370346 -1.05577,-0.447504 -2.24349,0.447503 -3.16728,1.790115 -0.13198,0 -0.39589,-0.149179 -0.5279,-0.149179 -0.13197,0 -0.39587,0 -0.65983,0 -0.13197,-1.193411 -0.52789,-2.237653 -1.31971,-2.536 -0.92378,-0.29837 -1.97956,0.29837 -2.77137,1.342589 -0.79182,-0.29837 -1.58365,-0.596716 -2.11152,-0.895063 -1.45167,-0.596706 -3.03531,2.088474 -4.88289,4.176948 -0.13197,-0.149191 -0.39589,-0.29837 -0.52789,-0.447504 -1.31969,-0.447503 -2.90333,1.044231 -3.56318,3.281884 0,0.149179 -0.13199,0.298369 -0.13199,0.447502 -0.26395,0.447507 -0.65985,0.895055 -0.92379,1.342593 -1.7156,0.149176 -3.0353,1.491759 -3.56319,3.58023 z"
       id="path331"
       style="opacity:0.65;fill:#ffffff;stroke-width:1.40309" />
    <path
       class="st36"
       d="m 129.38324,92.921368 c -0.92379,0.895065 -1.31969,2.237657 -1.05575,3.132712 -0.13197,0.149187 -0.13197,0.298373 -0.26396,0.447496 -1.05577,0.596704 -2.37546,1.193407 -3.0353,2.685186 -0.26397,0.149186 -0.39589,0.298373 -0.65986,0.447496 -0.65985,0.745892 -1.05576,2.088472 -0.92379,2.834362 -0.26396,0.14919 0,0.74588 -0.13197,1.04423 -1.18774,1.19342 -1.45169,2.83436 -0.65987,3.72942 0.26397,0.29837 0.52789,0.4475 0.9238,0.4475 0,0.14919 0,0.14919 -0.13197,0.29838 -1.45168,1.34258 -0.79183,2.08847 0.26395,2.68517 0,0.44751 0.13198,0.74589 0.39588,1.04424 0.52788,0.59671 1.45168,0.59671 2.2435,0 1.58364,1.04423 -1.45168,3.1327 1.18773,3.1327 -0.26396,1.3426 0.39589,1.9393 2.24349,2.38684 0,0.5967 0.13197,1.04423 0.39589,1.34259 0.65985,0.74588 5.80668,2.53601 6.86244,1.64095 0.26396,2.68518 7.65426,1.34257 8.05017,1.79013 -0.26396,5.07199 6.46654,-0.89507 6.73047,-1.93931 2.90335,-1.19342 1.58364,-6.71296 1.05577,-6.71296 0,0 0.13197,-0.14918 0.13197,-0.14918 1.18773,-1.19342 1.45168,-2.83436 0.79183,-3.72942 0,0 0,0 0,0 -0.13197,-0.29837 -0.39589,-0.74589 -0.65986,-1.34259 -0.92379,-1.34259 -0.65984,-1.93929 -0.65984,-2.68517 0.39589,-0.89506 0.39589,-1.79012 -0.13199,-2.38684 -0.26395,-0.29837 -0.65984,-0.44749 -1.18772,-0.59669 0,0 0,-0.1492 -0.13199,-0.1492 0.5279,-1.04424 0.65986,-2.08847 0,-2.834349 -0.52787,-0.745889 -1.58364,-0.745889 -2.63938,-0.149197 0,0 0,-0.149175 -0.132,-0.149175 0,0 0,0 0,0 1.18774,-1.193428 1.45168,-2.983538 0.79183,-3.878603 -0.52787,-0.745879 -1.58364,-0.745879 -2.50743,-0.149176 -0.13198,-0.149197 -0.26397,-0.149197 -0.39588,-0.298383 -0.13199,-0.149176 -0.26396,-0.149176 -0.3959,-0.298373 0.26397,-0.895065 0.26397,-1.640934 -0.26395,-2.23765 -0.52787,-0.596705 -1.3197,-0.745872 -2.24349,-0.298369 -0.52788,-0.596705 -0.92379,-1.044232 -1.3197,-1.491758 -0.92379,-1.044243 -2.63941,0 -4.61895,0.596705 -0.13199,-0.14919 -0.13199,-0.447503 -0.26396,-0.596705 -0.79182,-0.895064 -2.37546,-0.596716 -3.5632,0.596705 -0.13197,0.149179 -0.13197,0.149179 -0.26395,0.29837 -0.39588,0.14918 -0.65985,0.29837 -1.05576,0.447503 -0.52788,-0.298381 -1.84758,0 -2.77137,1.044232 z"
       id="path333"
       style="opacity:0.85;fill:#ffffff;stroke-width:1.40309" />
    <path
       class="st36"
       d="m 140.99662,86.059253 c -0.92381,0.29837 -1.71561,1.044231 -1.8476,1.790115 -0.13197,0 -0.26394,0.149191 -0.39587,0.149191 -1.05577,0 -2.11153,-0.149191 -3.16728,0.596694 -0.13199,0 -0.39593,0 -0.65985,0.14919 -0.79183,0.149191 -1.45168,1.044232 -1.71562,1.640936 -0.26394,0 -0.26394,0.596717 -0.52787,0.596717 -1.18773,0.29837 -2.11154,1.491757 -1.84758,2.38682 0.13197,0.298372 0.26395,0.596703 0.39588,0.745889 0,0 -0.13198,0.149176 -0.13198,0.149176 -1.45167,0.298373 -1.31971,1.193407 -0.65985,2.088472 -0.13198,0.298373 -0.13198,0.596703 -0.13198,0.895065 0.13198,0.596704 0.79181,1.044231 1.58364,1.044231 0.79182,1.491769 -2.11153,1.640945 -0.26396,2.834361 -0.65985,0.89506 -0.39587,1.49177 0.79183,2.68518 -0.26397,0.29837 -0.26397,0.74589 -0.13198,1.1934 0.26395,0.89507 3.29924,4.47531 4.35501,4.32613 -0.65985,2.08847 5.14684,4.4753 5.2788,4.92283 -1.97955,3.58024 5.01485,2.23764 5.54275,1.64094 2.50742,0.44751 3.43121,-4.17694 3.16728,-4.32613 0,0 0.13197,0 0.13197,0 1.31971,-0.29836 2.11152,-1.34258 1.84758,-2.38681 0,0 0,0 0,0 0,-0.29838 0,-0.74589 0,-1.19342 -0.13197,-1.34258 0.13198,-1.64094 0.39589,-2.23765 0.52788,-0.4475 0.92379,-1.1934 0.79182,-1.79012 -0.13198,-0.44749 -0.26396,-0.74588 -0.65986,-0.89505 0,0 0,-0.1492 0,-0.1492 0.79183,-0.44751 1.18774,-1.34259 1.05577,-2.08847 -0.13198,-0.74587 -0.92379,-1.193409 -1.84759,-1.342595 0,0 0,-0.149176 0,-0.149176 0,0 0,0 0,0 1.31972,-0.298383 2.11152,-1.491768 1.84759,-2.386834 -0.13198,-0.745879 -0.92379,-1.193406 -1.84759,-1.342593 0,-0.149175 -0.13197,-0.298362 -0.13197,-0.298362 -0.13198,-0.149197 -0.13198,-0.298372 -0.13198,-0.447506 0.52789,-0.447507 0.79183,-1.044231 0.65985,-1.640948 -0.13198,-0.596694 -0.79182,-1.044231 -1.45167,-1.193398 -0.13197,-0.596717 -0.26396,-1.193422 -0.39589,-1.640949 -0.26394,-1.193409 -1.97955,-1.193409 -3.56319,-1.640936 0,-0.14919 0,-0.298381 0,-0.596717 -0.26395,-1.04423 -1.45167,-1.491757 -2.77137,-1.193409 -0.13197,0 -0.13197,0 -0.26395,0.14919 -0.26396,0 -0.65985,-0.14919 -0.92379,-0.14919 -0.26397,-0.895053 -1.31971,-1.34259 -2.37547,-0.895053 z"
       id="path335"
       style="opacity:0.85;fill:#ffffff;stroke-width:1.40309" />
    <path
       class="st22"
       d="m 105.62863,189.5878 c 0.65986,0.14942 1.3197,0.74593 2.11153,0.59676 2.24349,-0.29826 3.43122,0.29824 3.5632,0.1494 1.18773,-1.49181 -2.37547,-1.64098 -1.58365,-3.13274 0.65985,-0.59668 1.31969,-1.79011 1.58365,-1.93931 0.52787,-0.44766 2.37545,-0.74587 2.50743,-0.89505 0.13197,-0.5967 -2.50743,-1.19338 -3.95911,-0.44768 -2.50743,1.04426 -4.88288,1.93931 -4.88288,1.93931 z"
       id="path337"
       style="fill:#ff800a;stroke-width:1.40309" />
    <path
       class="st30"
       d="m 85.437214,173.62592 c 1.979554,2.23767 7.258358,10.29321 10.689574,12.38165 1.055764,0.59674 9.897752,-0.74587 9.897752,-0.74587 l -0.26395,7.60803 c 0,0 -9.105942,2.38682 -11.217459,2.08843 -3.299255,-0.44766 -15.968382,-8.65222 -15.968382,-8.65222 z"
       id="path339"
       style="fill:#8494af;stroke-width:1.40309" />
    <path
       class="st2"
       d="m 86.097065,166.46543 c -0.659851,1.49181 -1.58364,2.68518 -3.299244,4.47531 -3.43122,3.72942 -3.43122,4.62448 -3.43122,4.62448 l 5.410775,6.26543 c 0,0 4.618947,-5.66875 6.466525,-6.11624 1.847579,-0.44767 -5.146836,-9.24898 -5.146836,-9.24898 z"
       id="path341"
       style="fill:#d3a994;stroke-width:1.40309" />
    <path
       class="st2"
       d="m 98.106343,172.73085 c -0.131973,-0.89505 0.527882,-3.28186 0.527882,-3.87855 0,0 0,0 0,0 1.187737,-1.04424 2.375465,-3.28192 2.243475,-5.9671 0,-0.14941 -0.65983,-0.29826 -0.923775,-0.74588 -0.791818,-4.4753 -10.161702,-9.69647 -13.197008,-3.72942 -5.806674,11.03909 3.167281,17.30451 5.278799,18.64707 0.395887,0.29826 1.3197,0.44767 2.507426,-1.64093 0.791829,-0.74588 1.319711,-1.19338 1.847593,-1.93931 0.659855,0.14942 1.319688,0 1.583646,-0.44768 0.131973,-0.1494 0.131973,-0.29825 0.131973,-0.29825 z"
       id="path343"
       style="fill:#d3a994;stroke-width:1.40309" />
    <path
       class="st3"
       d="m 90.188136,154.82967 c 1.319703,-0.44768 2.639409,-2.08844 5.542755,0.1494 2.507425,1.93931 5.542729,3.72942 5.806669,6.8621 0.13198,2.83437 2.11153,3.28193 2.11153,3.28193 0,0 -0.79183,1.79012 -2.50743,1.49175 -0.79183,-0.14942 -3.035317,-2.98355 -4.48699,-2.08849 -1.187726,0.59674 -2.771361,0.74592 -2.771361,0.74592 0,0 -3.035321,0.14885 -3.431234,1.0442 -0.131976,0.29826 -1.84758,2.23768 -2.639394,2.68518 -2.111529,0.59674 -4.750922,-0.14941 -4.750922,-0.14941 0,0 1.055765,-2.0885 1.847579,-7.01136 0.791814,-5.66867 3.299244,-6.41454 5.278798,-7.01129 z"
       id="path345"
       style="fill:#300901;stroke-width:1.40309" />
    <path
       class="st2"
       d="m 92.959507,165.12288 c 1.3197,-2.38687 -1.451668,-2.38687 -1.715606,-1.64094 -0.395888,0.74588 -1.979554,2.68518 -1.055765,4.02775 0.791827,1.34261 2.771371,-2.38681 2.771371,-2.38681 z"
       id="path347"
       style="fill:#d3a994;stroke-width:1.40309" />
    <path
       d="m 77.387044,227.47869 c -0.395884,2.83437 -0.659851,6.56379 1.187731,6.56379 1.847578,0 2.50743,-1.34262 5.01486,-0.74587 2.50743,0.44767 9.897754,2.08844 9.897754,0 0,-2.0885 -1.187726,-2.98355 -2.507426,-3.13274 -3.167282,-0.44768 -5.806687,-6.11623 -6.994415,-5.66873 -1.58364,0.29826 -6.598504,2.98355 -6.598504,2.98355 z"
       id="path351"
       style="stroke-width:1.40309" />
    <path
       class="st23"
       d="m 76.991135,196.59915 c 3.035318,0.29826 19.663535,-1.9393 21.247181,1.49175 3.167284,6.86212 -1.319699,11.63578 -3.167281,17.15533 -1.847581,5.51954 -2.903345,12.97833 -3.563196,13.87339 -0.791813,1.19344 -11.481386,1.34262 -12.141238,0.29826 -2.639408,-4.32612 2.903331,-17.752 5.01486,-20.43719 1.451667,-1.79011 -5.806686,6.11623 -7.918204,6.71293 z"
       id="path353"
       style="fill:#203689;stroke-width:1.40309" />
    <path
       class="st30"
       d="m 82.665845,169.8965 c -2.771367,0.59673 -12.537152,1.79011 -20.059446,28.1944 0,0 10.689575,12.08328 12.933062,12.08328 0.791821,-3.43105 12.141245,-18.94538 12.405196,-28.19436 0,-4.47529 -5.278812,-12.08332 -5.278812,-12.08332 z"
       id="path355"
       style="fill:#8494af;stroke-width:1.40309" />
    <path
       class="st37"
       d="m 54.160313,220.76577 c -2.11152,-2.0885 -3.167282,-3.58023 -5.542743,-3.43111 -2.243488,0.29827 -2.90334,1.79012 -2.90334,3.8786 0,2.08851 -0.791821,5.37036 -0.659846,7.90636 0.131977,1.79012 1.583636,5.51954 6.86244,4.77367 3.431219,-0.44766 -0.527884,-3.58023 -0.923793,-5.66873 -0.395885,-2.08842 3.167282,-7.45879 3.167282,-7.45879 z"
       id="path357"
       style="fill:#232121;stroke-width:1.40309" />
    <path
       class="st0"
       d="m 74.087795,178.69797 c 0,-0.29827 -3.695165,0 -3.695165,0.14884 -9.237902,14.02264 -12.273217,27.59772 -9.501844,34.31063 2.243492,5.51955 6.994415,8.95061 7.522294,9.24898 0.263955,0.14942 -1.055758,-0.89506 -3.167283,-1.34262 -1.58364,-0.29825 -6.730473,-1.79011 -12.933062,-3.58024 -2.111524,-0.59668 -3.035314,10.59154 -0.79182,11.93415 5.410769,3.43106 19.531566,6.26542 22.170969,6.26542 4.355012,0 5.410766,2.38681 5.146828,-7.30966 -0.263951,-9.69648 -0.263951,-22.3765 -0.263951,-22.3765 l 4.223048,-15.8127 c 0,0 -8.446093,5.66867 -8.710029,-11.48659 z"
       id="path359"
       style="fill:#12195b;stroke-width:1.40309" />
    <path
       class="st23"
       d="m 51.652882,232.55068 c 10.821543,2.53604 19.663541,4.17698 24.018554,4.02779 4.355017,0 9.237902,-0.59668 8.050175,-8.50309 -1.847592,-12.23247 -3.695158,-17.752 -3.695158,-17.752 l 4.750923,-19.84051 c 0,0 -5.410775,2.08849 -8.973973,-0.29826 -0.923788,2.08843 -4.223044,12.08327 -4.88289,14.76845 -0.263956,1.34262 2.639398,8.05554 4.22304,12.38165 2.243491,5.81792 5.80669,11.63578 1.451671,12.38171 -6.466531,1.19338 -22.434911,-3.28192 -26.525982,-5.66872 -0.659852,1.04424 0.79182,8.20472 1.58364,8.50303 z"
       id="path361"
       style="fill:#203689;stroke-width:1.40309" />
    <path
       class="st0"
       d="m 68.149143,185.56006 c 0.527878,-2.83436 6.334562,-9.84565 9.76578,-11.78496 5.146836,-2.98355 8.05018,2.3868 8.578055,8.05555 0.527877,5.66872 -2.375454,8.8014 -2.375454,8.8014 l -0.92379,0.44767 c 0,0 2.903331,-11.63577 0.659839,-14.61933 -2.375455,-2.98355 -6.73047,-3.13267 -12.669123,8.9506 -1.715609,3.43105 -3.035307,0.14942 -3.035307,0.14942 z"
       id="path365"
       style="fill:#12195b;stroke-width:1.40309" />
    <path
       class="st38"
       d="m 76.463257,176.90784 -12.40519,13.72421 c 0,0 -6.334562,13.57508 -2.639397,20.88474 1.97955,3.87862 4.486979,8.65223 4.486979,8.65223 l 23.886574,-16.40938 z"
       id="path384"
       style="fill:url(#SVGID_7_);stroke-width:1.40309" />
    <path
       class="st30"
       d="m 105.23273,200.92527 c 0.13198,-0.14942 0.65985,-0.74587 0.92379,-1.79011 0.26395,-0.89507 1.18773,-1.34263 2.11152,-1.04426 0.79182,0.14941 1.84757,0.89506 1.71561,1.19343 -0.13198,0.29827 -1.18774,0 -1.45167,0.29827 -0.52788,0.44767 -0.26396,1.64093 -0.26396,1.64093 l 0.79182,2.53605 c 0,0 -0.92379,0.44766 -1.58364,0.29825 -0.39587,-0.14941 -1.58364,0.29826 -1.71561,0.44768 0,0 -0.52789,-3.58024 -0.52789,-3.58024 z"
       id="path386"
       style="fill:#8494af;stroke-width:1.40309" />
    <path
       class="st30"
       d="m 108.92789,203.16288 c 0.52788,0 1.45167,-1.9393 1.45167,-2.3868 -1.05575,0.14942 -3.03531,0.89506 -3.03531,0.89506 z"
       id="path388"
       style="fill:#8494af;stroke-width:1.40309" />
    <path
       class="st29"
       d="m 109.05986,203.16288 c 0.52788,-0.1494 1.3197,-1.9393 1.3197,-2.23761 -0.52788,0.14941 -1.3197,0.44767 -1.84758,0.59668 0,0 -0.52788,-1.49175 0,-1.79011 0.26395,-0.29826 1.45167,-0.14941 1.58363,-0.44767 0.132,-0.14941 -0.7918,-0.74593 -1.45166,-0.89506 -0.79183,-0.14942 -1.58363,0.29826 -1.84758,1.19338 -0.65985,1.4918 -1.05577,2.08848 -1.58364,2.38685 0,0 0.79181,2.68518 0.92379,2.536 0.13198,-0.14942 1.3197,-0.44767 1.7156,-0.29827 0.65986,0.14942 1.45169,-0.29825 1.45169,-0.29825 z"
       id="path392"
       style="fill:#b4c1d1;stroke-width:1.40309" />
    <path
       class="st30"
       d="m 105.23273,202.5662 c 0.26395,-0.29827 0.92379,-0.74587 0.92379,-0.74587 0,0 0.9238,-0.14941 1.05576,0 0,0.14941 0.26396,0.89506 0.39593,1.49175 0,0.14941 -0.92379,0 -1.05575,0 -0.13199,0 -1.05577,0.74587 -1.05577,0.74587 z"
       id="path394"
       style="fill:#8494af;stroke-width:1.40309" />
    <path
       class="st39"
       d="m 105.3647,200.77608 -11.877311,9.69647 c -0.659844,0.5967 -0.395886,2.23768 0,3.13274 0.527882,0.74588 1.583646,1.04419 2.243502,0.44767 l 10.425629,-9.69647 z m -9.765794,11.78497 c -0.263946,0.1494 -0.527871,0.1494 -0.791806,-0.14942 -0.131996,-0.29826 -0.131996,-0.59668 0.131973,-0.89505 0.263947,-0.14941 0.527893,-0.14941 0.791818,0.1494 0.131984,0.29826 0.131984,0.74588 -0.131985,0.89507 z"
       id="path398"
       style="fill:#77000c;stroke-width:1.40309" />
    <path
       class="st34"
       d="m 105.62863,201.37278 -11.613359,9.54733 c -0.395886,0.29826 -0.131973,1.64094 0.131974,2.08844 0.263968,0.44767 1.187737,0.89506 1.583646,0.44767 l 10.557609,-9.39815 z m -10.029724,11.18827 c -0.263946,0.1494 -0.527871,0.1494 -0.791806,-0.14942 -0.131996,-0.29826 -0.131996,-0.59668 0.131973,-0.89505 0.263947,-0.14941 0.527893,-0.14941 0.791818,0.1494 0.131984,0.29826 0.131984,0.74588 -0.131985,0.89507 z"
       id="path400"
       style="fill:#b20000;stroke-width:1.40309" />
    <path
       class="st22"
       d="m 96.918617,203.75964 c 0.923791,-0.14942 5.146833,-1.641 5.542733,-1.34262 0.39594,0.44767 -0.13197,0.89506 -0.79182,1.34262 -0.65984,0.59668 -0.26395,0.44766 -0.26395,0.44766 0,0 1.45167,0.5967 3.29925,1.93931 0.92379,0.74587 1.18773,2.08849 -0.52787,1.19343 0.65983,0.74588 0.92378,1.93925 -0.3959,1.49175 0.52788,0.74586 0.3959,1.49174 -0.79182,1.19342 0.39589,0.29827 0.26396,0.89507 -0.39587,1.0442 -0.3959,0 -1.97956,0.29826 -4.091085,-1.19337 -1.979555,-1.34263 -3.431228,-2.23769 -3.431228,-2.23769 z"
       id="path406"
       style="fill:#ff800a;stroke-width:1.40309" />
    <path
       class="st1"
       d="m 98.502252,210.02505 c 1.979558,1.34257 3.563198,1.19337 4.091068,1.19337 0.65986,-0.14941 0.79183,-0.74587 0.39589,-1.04424 0.92379,0.29826 1.18773,-0.14885 1.05575,-0.74587 -2.63938,-0.44767 -5.806666,-2.08844 -7.786221,-3.87856 l -1.055764,2.23763 c -0.263957,0 1.187738,0.74587 3.299255,2.23767 z"
       id="path408"
       style="fill:#d94a00;stroke-width:1.40309" />
    <path
       class="st29"
       d="m 75.803403,176.75866 c -1.187729,1.79011 -0.263956,6.8621 -0.263956,6.8621 0.79182,4.0278 4.09108,11.3374 6.59851,15.5144 2.50743,4.17692 12.405174,11.63577 12.405174,11.63577 l 4.486992,-7.30967 c 0,0 -8.314111,-8.80141 -10.029727,-12.68002 -1.847579,-3.87861 -3.431219,-10.59153 -4.618947,-12.8292 -2.903343,-5.81787 -7.126387,-3.58025 -8.578061,-1.19338 z"
       id="path414"
       style="fill:#b4c1d1;stroke-width:1.40309" />
    <path
       class="st40"
       d="m 107.08032,200.77608 c 0,-1.19344 0.7918,-2.08849 1.84757,-2.08849 1.05576,0 1.84758,0.89505 1.84758,2.08849 0,1.19343 -0.79182,2.0885 -1.84758,2.0885 -1.05577,0 -1.84757,-0.89507 -1.84757,-2.0885 z"
       id="path416"
       style="fill:#ffffff;stroke-width:1.40309" />
    <path
       class="st34"
       d="m 107.87212,200.77608 c 0,-0.59668 0.52789,-1.19344 1.05577,-1.19344 0.52788,0 1.05576,0.59676 1.05576,1.19344 0,0.5967 -0.52788,1.19343 -1.05576,1.19343 -0.65985,0 -1.05577,-0.59673 -1.05577,-1.19343 z"
       id="path418"
       style="fill:#b20000;stroke-width:1.40309" />
    <path
       class="st28"
       d="m 136.11373,224.04764 v -5.22117 c 0,-2.68519 -1.97956,-4.77368 -4.35502,-4.92286 v 0 h -12.66913 v -1.79012 h 12.80109 c 3.29927,0 5.93867,2.98354 5.93867,6.71298 v 0 5.22117 z"
       id="path422"
       style="fill:#87391e;stroke-width:1.40309" />
    <rect
       x="111.1714"
       y="220.76575"
       class="st31"
       width="1.5836407"
       height="1.4917663"
       id="rect424"
       style="fill:#bc7148;stroke-width:1.40309" />
    <path
       class="st31"
       d="m 112.75502,223.15257 c 0,0 0,-0.44765 0,-0.44765 h -1.58364 c 0,0.59673 0.13198,1.04424 -0.13198,1.64097 -0.13198,0.44768 -0.52788,0.44768 -0.79183,0.44768 h -2.11151 c -1.18773,0 -1.97956,1.04424 -1.97956,2.23768 0,0 0,0.14885 0,0.14885 0.3959,0.1494 0.65986,0.1494 1.18774,0.1494 0.13198,-0.89505 0.39589,-1.34256 1.97955,-1.34256 h 2.11152 c 1.3197,0.14941 1.58364,-1.64093 1.3197,-2.83437 z"
       id="path426"
       style="fill:#bc7148;stroke-width:1.40309" />
    <path
       class="st31"
       d="m 113.15093,222.55589 c 0,0.29826 -0.26396,0.59668 -0.52788,0.59668 h -1.31969 c -0.26397,0 -0.52789,-0.29826 -0.52789,-0.59668 v 0 c 0,-0.29826 0.26394,-0.59675 0.52789,-0.59675 h 1.31969 c 0.26396,0 0.52788,0.29827 0.52788,0.59675 z"
       id="path428"
       style="fill:#bc7148;stroke-width:1.40309" />
    <path
       class="st29"
       d="m 114.20668,220.9149 c 0.26397,0.29826 0.26397,0.74593 -0.13197,1.04424 -0.39589,0.14942 -0.79182,0.14942 -1.05576,-0.29825 -0.26395,-0.29826 -0.13198,-0.74594 0.13198,-0.89507 0.26396,-0.29826 0.79182,-0.14941 1.05575,0.14885 z"
       id="path430"
       style="fill:#b4c1d1;stroke-width:1.40309" />
    <path
       class="st29"
       d="m 111.17138,222.55589 c 0.26395,0.44767 0.13198,1.04419 -0.26396,1.34256 -0.39588,0.29827 -0.92379,0.14942 -1.18773,-0.29826 -0.26396,-0.44767 -0.13197,-1.04419 0.26396,-1.19337 0.39588,-0.44768 0.92379,-0.29826 1.18773,0.14941 z"
       id="path432"
       style="fill:#b4c1d1;stroke-width:1.40309" />
    <path
       class="st29"
       d="m 113.81079,221.21326 c 0.13197,0.14942 -0.65986,0.74588 -1.71562,1.34263 -1.05577,0.59668 -1.97956,0.89506 -2.11152,0.59668 -0.13198,-0.14941 0.65986,-0.74587 1.71561,-1.3426 1.05576,-0.59671 1.97955,-0.89507 2.11153,-0.59671 z"
       id="path434"
       style="fill:#b4c1d1;stroke-width:1.40309" />
    <path
       class="st30"
       d="m 114.86654,223.60008 c -0.26395,0.44767 -0.79182,0.59675 -1.3197,0.29825 -0.52788,-0.29825 -0.65984,-0.89505 -0.52788,-1.34255 0.26397,-0.44767 0.79183,-0.59675 1.18772,-0.29825 0.65986,0.29825 0.92379,0.89504 0.65986,1.34255 z"
       id="path438"
       style="fill:#8494af;stroke-width:1.40309" />
    <path
       class="st30"
       d="m 110.90744,221.66083 c -0.26396,0.29825 -0.65984,0.44767 -1.05576,0.29825 -0.39589,-0.14941 -0.39589,-0.59668 -0.26395,-1.04424 0.13197,-0.29826 0.65984,-0.44768 0.92379,-0.29826 0.39589,0.14941 0.52787,0.59668 0.39589,1.04425 z"
       id="path440"
       style="fill:#8494af;stroke-width:1.40309" />
    <path
       class="st30"
       d="m 114.07472,223.30177 c -0.13197,0.1494 -1.18772,-0.14942 -2.24349,-0.74588 -1.05576,-0.59675 -1.84758,-1.19343 -1.71562,-1.34263 0.132,-0.1494 1.05577,0.14942 2.11154,0.74588 1.05574,0.44768 1.97953,1.04425 1.84757,1.34263 z"
       id="path442"
       style="fill:#8494af;stroke-width:1.40309" />
    <path
       class="st28"
       d="m 119.48548,214.35117 h -4.7509 c -1.3197,0 -2.37547,0.44767 -3.03532,1.34256 -0.65986,0.89505 -0.65986,2.08849 -0.65986,3.58023 0,0.59675 0,1.04426 0,1.79013 v 0 c 0.132,0 0.39589,0.1494 0.79183,0.1494 0.39589,0 0.79182,-0.1494 0.79182,-0.1494 0,0 0,0 0,0 v 0 c 0,-0.59669 0,-1.19338 0,-1.64094 0,-1.34257 0.13198,-2.08849 0.39589,-2.38681 0.26395,-0.29826 0.52787,-0.59673 1.71561,-0.59673 h 4.75092 z"
       id="path448"
       style="fill:#87391e;stroke-width:1.40309" />
  </g>
</svg>
