<?xml version="1.0" encoding="UTF-8" standalone="no"?>
<!-- Created with Inkscape (http://www.inkscape.org/) -->

<svg
   width="210mm"
   height="297mm"
   viewBox="0 0 210 297"
   version="1.1"
   id="svg4462"
   inkscape:version="1.1 (c68e22c387, 2021-05-23)"
   sodipodi:docname="deboucher_lavabo.svg"
   xmlns:inkscape="http://www.inkscape.org/namespaces/inkscape"
   xmlns:sodipodi="http://sodipodi.sourceforge.net/DTD/sodipodi-0.dtd"
   xmlns="http://www.w3.org/2000/svg"
   xmlns:svg="http://www.w3.org/2000/svg">
  <sodipodi:namedview
     id="namedview4464"
     pagecolor="#505050"
     bordercolor="#eeeeee"
     borderopacity="1"
     inkscape:pageshadow="0"
     inkscape:pageopacity="0"
     inkscape:pagecheckerboard="0"
     inkscape:document-units="mm"
     showgrid="false"
     inkscape:zoom="0.51134961"
     inkscape:cx="396.01086"
     inkscape:cy="562.23765"
     inkscape:window-width="1920"
     inkscape:window-height="1001"
     inkscape:window-x="-9"
     inkscape:window-y="-9"
     inkscape:window-maximized="1"
     inkscape:current-layer="layer1" />
  <defs
     id="defs4459" />
  <g
     inkscape:label="Calque 1"
     inkscape:groupmode="layer"
     id="layer1">
    <g
       id="g5131">
      <path
         class="st68"
         d="m 83.941849,200.60964 c 0,-8.27092 6.780181,-14.81075 15.355161,-14.81075 v 0 h 26.52258 v 5.96275 H 99.29701 c -4.985459,0 -9.173195,4.03933 -9.173195,8.848 v 0 z"
         id="path1456"
         style="fill:#a8b4c6;stroke-width:1.9585" />
      <path
         class="st30"
         d="m 80.152898,233.30854 c -0.39871,-0.19264 -1.595292,-0.38456 -3.19066,-0.19264 -1.595368,0.19264 -2.791874,-0.76936 -3.19066,-2.30817 -0.398711,-1.34636 -0.398711,-3.26988 0.198978,-3.46223 0.598441,-0.19265 0.997151,1.73115 1.794797,2.11587 0.997077,0.38457 2.393015,-0.76943 2.393015,-0.76943 l 2.791875,-3.07753 c 0,0 1.395862,0.96173 1.794723,2.1158 0.199732,0.76937 1.595367,2.11581 1.994152,2.30816 0,-0.19264 -4.586598,3.26988 -4.586598,3.26988 z"
         id="path1458"
         style="fill:#8494af;stroke-width:1.9585" />
      <path
         class="st30"
         d="m 80.152898,226.19171 c -0.39871,-0.76936 -3.988306,-0.96173 -4.586598,-0.57723 1.196507,1.34644 3.589521,4.03925 3.589521,4.03925 z"
         id="path1460"
         style="fill:#8494af;stroke-width:1.9585" />
      <path
         class="st29"
         d="m 80.152898,225.99942 c -0.598442,-0.57722 -3.788952,-0.57722 -4.187737,-0.57722 0.598442,0.57722 1.595293,1.5388 2.393015,2.30816 0,0 -1.595369,1.73116 -2.393015,1.34643 -0.598441,-0.19264 -1.595367,-2.11579 -1.994228,-2.11579 -0.398711,0 -0.398711,1.73108 0,2.88516 0.39871,1.34644 1.794798,2.1158 3.190735,2.1158 2.592444,-0.19265 3.788952,0.19266 4.586598,0.57723 0,0 2.991229,-3.07753 2.791874,-3.07753 -0.398709,0 -1.794797,-1.53879 -1.994228,-2.30816 -0.199732,-1.15408 -1.595292,-1.92352 -1.595292,-1.92352 z"
         id="path1464"
         style="fill:#b4c1d1;stroke-width:1.9585" />
      <path
         class="st30"
         d="m 82.346482,232.15447 c -0.598442,-0.19266 -1.994154,-0.96172 -1.994154,-0.96172 0,0 -0.997077,-1.34644 -0.797646,-1.5388 0.199732,-0.19266 0.997077,-0.96172 1.794723,-1.73108 0.199732,-0.19266 0.598441,1.34644 0.797722,1.53879 0.198978,0.19265 1.794722,0.96173 1.794722,0.96173 z"
         id="path1466"
         style="fill:#8494af;stroke-width:1.9585" />
      <path
         class="st39"
         d="m 79.754112,233.11619 23.331848,10.96379 c 1.39594,0.57723 3.58952,-0.96171 4.18781,-2.30815 0.59845,-1.34644 0,-3.07752 -1.39593,-3.84696 l -21.935991,-8.84793 z m 24.528358,6.34748 c 0.39871,0.19264 0.79764,0.76937 0.39871,1.34644 -0.19973,0.38457 -0.79772,0.76936 -1.19651,0.38457 -0.39871,-0.19264 -0.79772,-0.76937 -0.39871,-1.15408 0.19973,-0.57722 0.79765,-0.76937 1.19651,-0.57722 z"
         id="path1470"
         style="fill:#77000c;stroke-width:1.9585" />
      <path
         class="st34"
         d="m 80.551759,232.34683 22.733631,10.77144 c 0.79765,0.38457 2.39302,-0.96173 2.79188,-1.73116 0.39871,-0.76936 0.19973,-2.30816 -0.59845,-2.6928 l -21.736552,-9.23265 z m 23.730711,7.11684 c 0.39871,0.19264 0.79764,0.76937 0.39871,1.34644 -0.19973,0.38457 -0.79772,0.76936 -1.19651,0.38457 -0.39871,-0.19264 -0.79772,-0.76937 -0.39871,-1.15408 0.19973,-0.57722 0.79765,-0.76937 1.19651,-0.57722 z"
         id="path1472"
         style="fill:#b20000;stroke-width:1.9585" />
      <path
         class="st5"
         d="m 100.29409,236.57843 c 0.99715,-1.92345 2.59244,-3.65452 3.58952,-4.42396 0,0 -4.5866,-4.61633 -8.774337,-5.19333 -0.398709,0 -0.598441,0.96173 -3.190735,1.73109 -2.991231,0.38456 -5.783105,0.57722 -5.384244,1.53879 0.199732,0.96173 3.589521,0.57723 3.589521,1.34644 0,0 -0.39871,0.96173 -0.797647,1.34645 -0.598441,0.57721 -1.595367,1.53872 -2.193658,2.1158 -0.997077,0.76935 -1.794723,0.57722 -2.193584,0.96172 -0.39871,0.57722 0.797722,1.73109 0.997076,1.73109 1.196508,0.19264 2.193659,0 2.193659,0 l 1.196507,1.53879 c 0,0 3.190661,2.1158 3.988306,2.1158 0.797722,0.38458 4.387243,-0.57722 6.979616,-4.80868 z"
         id="path1478"
         style="fill:#4d87db;stroke-width:1.9585" />
      <path
         class="st23"
         d="m 107.27377,178.68212 c -2.9913,1.15408 -4.38724,28.46729 -4.38724,28.46729 0,0 -9.572056,20.00409 -9.572056,21.73517 2.592446,3.65461 8.176116,9.80973 10.967996,7.30921 0.59844,-0.57723 6.38139,-9.80973 12.56336,-22.50461 3.98831,-8.46321 4.5866,-18.84994 5.18481,-23.46625 0.79772,-6.92448 -2.59244,-11.73317 -6.78018,-12.69489 -4.18781,-0.76944 -7.97669,1.15408 -7.97669,1.15408 z"
         id="path1482"
         style="fill:#203689;stroke-width:1.9585" />
      <rect
         x="78.757027"
         y="157.3316"
         class="st29"
         width="9.7714739"
         height="12.310192"
         id="rect1484"
         style="fill:#b4c1d1;stroke-width:1.9585" />
      <rect
         x="80.152969"
         y="168.10298"
         class="st29"
         width="6.9796238"
         height="12.310192"
         id="rect1486"
         style="fill:#b4c1d1;stroke-width:1.9585" />
      <path
         class="st68"
         d="m 94.710412,154.25407 c 0,4.42396 -4.985458,7.88621 -11.167423,7.88621 -6.18189,0 -11.167349,-3.6546 -11.167349,-7.88621 0,-4.42396 4.985459,-7.88621 11.167349,-7.88621 6.181965,0 11.167423,3.46225 11.167423,7.88621 z"
         id="path1488"
         style="fill:#a8b4c6;stroke-width:1.9585" />
      <path
         class="st29"
         d="m 127.41496,127.13315 c 4.98545,0.96171 4.78603,2.11579 -1.7948,2.11579 H 41.864675 c -6.580752,0 -7.179043,-0.96172 -2.592446,-2.11579 l 8.57498,-2.69281 c 1.794798,-0.38458 5.783104,-0.76944 8.97384,-0.76944 h 52.845741 c 3.19066,0 7.37839,0.38458 9.37262,0.76944 z"
         id="path1490"
         style="fill:#b4c1d1;stroke-width:1.9585" />
      <path
         class="st30"
         d="m 120.83414,127.90257 c 4.18781,0.96173 3.98838,1.7311 -1.39594,1.7311 H 48.24607 c -5.384319,0 -5.982534,-0.96173 -2.193583,-1.7311 l 6.78018,-2.30815 c 1.595369,-0.38458 4.786028,-0.57723 7.577904,-0.57723 h 46.663769 c 2.7918,0 6.18197,0.19265 7.77726,0.57723 z"
         id="path1492"
         style="fill:#8494af;stroke-width:1.9585" />
      <path
         class="st30"
         d="m 122.62893,149.25303 c 0,3.46225 -3.78895,6.34748 -8.77441,6.34748 H 53.032098 c -4.786028,0 -8.77441,-2.88523 -8.77441,-6.34748 v -15.38777 c 0,-3.46223 3.788951,-6.3474 8.77441,-6.3474 h 60.822422 c 4.78603,0 8.77441,2.88517 8.77441,6.3474 z"
         id="path1494"
         style="fill:#8494af;stroke-width:1.9585" />
      <path
         class="st29"
         d="m 134.59401,134.44234 c 0,0.76937 -1.39595,1.53881 -3.19074,1.53881 H 35.682709 c -1.794724,0 -3.19066,-0.76944 -3.19066,-1.53881 v -4.80867 c 0,-0.76937 1.395936,-1.53881 3.19066,-1.53881 h 95.720561 c 1.79479,0 3.19074,0.76944 3.19074,1.53881 z"
         id="path1496"
         style="fill:#b4c1d1;stroke-width:1.9585" />
      <path
         class="st68"
         d="m 89.724954,169.44947 c 0,1.34637 -1.395937,2.50046 -2.99123,2.50046 h -6.381396 c -1.595367,0 -2.991229,-1.15409 -2.991229,-2.50046 v -0.76942 c 0,-1.34645 1.395862,-2.50052 2.991229,-2.50052 h 6.381396 c 1.595293,0 2.99123,1.15407 2.99123,2.50052 z"
         id="path1500"
         style="fill:#a8b4c6;stroke-width:1.9585" />
      <path
         class="st68"
         d="m 89.126738,180.60556 c 0,1.34645 -1.196508,2.30816 -2.791875,2.30816 h -5.583674 c -1.395938,0 -2.791874,-0.96171 -2.791874,-2.30816 v -0.76936 c 0,-1.34644 1.196506,-2.30816 2.791874,-2.30816 h 5.583674 c 1.395938,0 2.791875,0.96172 2.791875,2.30816 z"
         id="path1502"
         style="fill:#a8b4c6;stroke-width:1.9585" />
      <path
         class="st29"
         d="m 91.320322,183.87545 c 0,-1.34644 -1.196507,-2.50052 -2.592445,-2.50052 h -9.970916 c -1.395862,0 -2.592369,1.15408 -2.592369,2.50052 v 15.7724 c 0,0.57723 0.199731,0.96179 0.398709,1.34644 0.797722,2.30816 3.788951,4.03933 7.179043,4.03933 3.589521,0 6.381395,-1.73117 7.179041,-4.03933 0.199732,-0.38457 0.39871,-0.76936 0.39871,-1.34644 z"
         id="path1504"
         style="fill:#b4c1d1;stroke-width:1.9585" />
      <path
         class="st4"
         d="m 103.28539,165.2178 c -3.589519,-0.57723 -4.786027,-0.57723 -6.381394,-1.92344 -1.794723,-1.34645 -5.783105,-2.69289 -7.976689,-1.92345 -1.196506,0.38458 -2.791874,1.73108 -4.387167,3.07752 -2.393013,2.11581 -2.393013,3.07752 -1.595367,3.26989 1.395937,0.19265 2.791875,-0.96172 3.788951,-1.15408 1.794722,-0.19265 2.791799,0.57722 3.589521,1.73115 0.797646,1.15408 -4.786028,2.69281 -4.187812,4.2316 0.39871,1.15409 4.187812,-0.38456 6.181966,-0.38456 4.786028,0.19264 2.592444,-1.73109 6.979611,0.96172 0.79772,0.57722 3.98838,-7.8862 3.98838,-7.8862 z"
         id="path1506"
         style="fill:#3357bc;stroke-width:1.9585" />
      <path
         class="st23"
         d="m 101.09181,164.6408 c 1.99415,-0.19266 33.5022,3.84688 33.5022,3.84688 l -1.39595,16.54185 c 0,0 -34.499266,-8.07856 -34.698697,-8.84793 -0.199731,-0.96172 2.592447,-11.5408 2.592447,-11.5408 z"
         id="path1508"
         style="fill:#203689;stroke-width:1.9585" />
      <path
         class="st6"
         d="m 167.69734,222.53718 c 4.38716,2.1158 6.97961,4.61632 6.58082,6.53976 -0.39871,1.34645 -2.393,6.92449 -2.393,6.92449 0,0 0.19897,2.69288 -1.59537,6.92448 -1.39595,3.46224 -6.97962,4.23161 -11.56622,2.69288 -1.19651,-0.38458 -2.39301,-2.30816 0.39871,-4.61633 3.19074,-2.50052 1.99424,-5.96275 1.7948,-8.07855 -0.59845,-4.80869 -3.58952,-5.96277 -3.58952,-5.96277 z"
         id="path1510"
         style="fill:#24272b;stroke-width:1.9585" />
      <path
         d="m 172.88222,226.76879 c -2.59243,-0.96173 -4.58659,1.34643 -5.58374,8.84792 -0.59845,4.03931 -4.38717,8.848 -8.97377,10.00208 -0.99707,0.19265 10.56913,2.30816 12.56329,-3.84696 2.19366,-6.15512 1.79479,-8.27092 2.79187,-10.38673 1.99416,-2.88523 -0.79765,-4.61631 -0.79765,-4.61631 z"
         id="path1512"
         style="stroke-width:1.9585" />
      <path
         class="st23"
         d="m 164.50668,217.34378 6.18196,6.34748 -10.5692,9.61728 c 0,0 -17.14988,-11.5408 -17.94762,-12.69488 -0.79763,-1.34644 22.33486,-3.26988 22.33486,-3.26988 z"
         id="path1514"
         style="fill:#203689;stroke-width:1.9585" />
      <path
         d="m 147.15729,227.92287 c 4.38724,2.1158 7.37847,4.61632 8.97384,8.65556 0.79764,2.30817 -2.79187,5.57811 -2.79187,5.57811 0,0 -2.39302,1.73109 -4.18775,5.96269 -1.59537,3.46225 -10.36977,3.84696 -14.95637,2.88525 -1.39593,-0.19265 -3.98838,-2.30817 -1.99415,-5.38569 1.39594,-2.30816 7.77725,-1.92352 7.77725,-4.03932 0.59845,-7.69385 -4.98545,-8.07856 -4.98545,-8.07856 z"
         id="path1518"
         style="stroke-width:1.9585" />
      <path
         class="st0"
         d="m 140.17768,205.99533 c -5.58367,-2.30815 -27.71909,-9.61736 -31.7074,-4.2316 -3.98838,5.38568 -4.78603,13.84897 1.59529,17.69585 6.3814,3.84696 26.52259,23.27398 26.52259,23.27398 0,0 18.34646,-7.69385 18.34646,-10.00202 0,-2.30815 -7.77733,-10.38673 -7.77733,-10.38673 l -10.3697,-6.92448 z"
         id="path1520"
         style="fill:#12195b;stroke-width:1.9585" />
      <path
         class="st0"
         d="m 165.90261,194.26218 c 2.59237,2.50052 9.1732,14.61832 6.58076,20.58108 -2.59245,6.15513 -10.56913,12.31024 -24.329,10.19436 -13.7598,-2.11579 -21.13828,-6.15504 -23.33185,-9.23264 -2.19359,-3.07752 2.59244,-11.15609 2.59244,-11.15609 z"
         id="path1522"
         style="fill:#12195b;stroke-width:1.9585" />
      <path
         class="st46"
         d="m 100.09473,158.87039 c 1.59529,7.50149 7.57783,14.81069 10.76856,14.61833 3.19066,-0.19265 9.37263,-9.80965 9.1732,-15.96477 -0.19973,-5.96276 -4.78603,-10.9638 -10.76856,-9.80972 -6.3814,1.15409 -10.369706,5.1934 -9.1732,11.15616 z"
         id="path1524"
         style="fill:#e5c0ae;stroke-width:1.9585" />
      <path
         class="st3"
         d="m 98.698794,155.40815 c -2.393013,-1.73116 5.783106,-13.84896 15.155726,-12.11789 9.37263,1.53881 11.36686,8.848 11.56622,13.46433 0.19973,4.61632 -0.59845,5.96269 0.79772,6.3474 1.79471,0.38458 -11.76564,4.61633 -11.76564,4.61633 0,0 -4.98546,-3.26989 -4.98546,-4.42396 0,-4.42397 -3.19074,-5.00104 -3.19074,-3.46225 -0.19973,1.15409 -0.19973,2.1158 -0.19973,2.1158 h -0.99715 c 0,0 -4.38717,-2.69288 -5.384246,-3.46223 -0.797647,-0.76936 -0.997077,-3.07753 -0.997077,-3.07753 z"
         id="path1528"
         style="fill:#300901;stroke-width:1.9585" />
      <path
         class="st0"
         d="m 130.80506,160.60147 c 3.19065,0 11.5662,1.92352 18.14703,7.69392 5.18481,4.61633 18.54583,23.65862 23.53128,35.39179 -3.3901,2.69287 -32.70455,15.96476 -42.67539,2.11579 -3.98839,-5.57804 -8.17612,-8.84792 -8.17612,-8.84792 0,0 -0.79772,-14.04133 -15.55459,-16.34949 0,0 -0.79772,-2.30816 4.58659,-7.3092 2.19359,-1.92344 3.19066,-4.80868 5.18482,-6.34741 3.58952,-2.50052 7.17904,-6.15511 14.95638,-6.34748 z"
         id="path1532"
         style="fill:#12195b;stroke-width:1.9585" />
      <path
         class="st23"
         d="m 173.28102,202.5331 c 0,0 -9.77141,-20.19646 -24.12951,-34.23771 -6.18195,-6.15511 -14.95637,-7.69392 -18.14703,-7.69392 -3.58952,0 -6.18196,0.76944 -8.37555,1.92352 5.58368,0.96173 30.71033,15.96477 44.66955,42.50863 1.79479,3.6546 4.18781,10.002 2.19366,14.61832 -0.99716,1.73116 8.17612,-7.8862 3.78888,-17.11884 z"
         id="path1536"
         style="fill:#203689;stroke-width:1.9585" />
      <path
         class="st23"
         d="m 129.01025,161.17855 -4.18773,-2.11581 c 0,0 -12.56336,5.57806 -13.75987,10.38673 -0.19898,2.30817 1.19651,3.07752 1.19651,3.07752 0,0 10.17034,-8.65563 12.96222,-9.61735 3.19066,-0.96173 3.78887,-1.73109 3.78887,-1.73109 z"
         id="path1538"
         style="fill:#203689;stroke-width:1.9585" />
    </g>
  </g>
</svg>
