<?xml version="1.0" encoding="UTF-8" standalone="no"?>
<!-- Created with Inkscape (http://www.inkscape.org/) -->

<svg
   width="210mm"
   height="297mm"
   viewBox="0 0 210 297"
   version="1.1"
   id="svg12657"
   inkscape:version="1.1 (c68e22c387, 2021-05-23)"
   sodipodi:docname="egou.svg"
   xmlns:inkscape="http://www.inkscape.org/namespaces/inkscape"
   xmlns:sodipodi="http://sodipodi.sourceforge.net/DTD/sodipodi-0.dtd"
   xmlns="http://www.w3.org/2000/svg"
   xmlns:svg="http://www.w3.org/2000/svg">
  <sodipodi:namedview
     id="namedview12659"
     pagecolor="#505050"
     bordercolor="#eeeeee"
     borderopacity="1"
     inkscape:pageshadow="0"
     inkscape:pageopacity="0"
     inkscape:pagecheckerboard="0"
     inkscape:document-units="mm"
     showgrid="false"
     inkscape:zoom="0.51134961"
     inkscape:cx="396.01086"
     inkscape:cy="562.23765"
     inkscape:window-width="1920"
     inkscape:window-height="1001"
     inkscape:window-x="-9"
     inkscape:window-y="-9"
     inkscape:window-maximized="1"
     inkscape:current-layer="layer1" />
  <defs
     id="defs12654" />
  <g
     inkscape:label="Calque 1"
     inkscape:groupmode="layer"
     id="layer1">
    <path
       class="st1"
       d="m 90.697002,141.36359 c 1.54657,1.22218 1.96837,0.91662 3.093154,0.91662 1.124783,0.153 1.54657,0 2.530762,0.45845 0.984179,0.45845 4.217942,2.44427 3.796132,2.90254 -0.421756,0.45845 -0.984174,0.45845 -1.68717,0.15301 -0.702983,-0.30544 -1.54657,-0.76383 -1.54657,-0.76383 0,0 2.671353,1.52767 2.671353,1.986 -0.140604,0.45845 -4.639724,3.05539 -5.483312,3.05539 -0.843587,0 -2.39017,-0.7639 -3.233758,-1.37495 -0.843587,-0.61105 -2.108962,-1.37489 -2.671366,-1.52766 -0.562379,-0.15301 2.530775,-5.80521 2.530775,-5.80521 z"
       id="path12285"
       style="fill:#d94a00;stroke-width:1.46557" />
    <path
       class="st23"
       d="m 81.839327,135.40566 c 0,0 -2.671366,-5.04138 -5.342719,-10.84659 -1.265381,-4.43028 -3.093158,-6.87454 -4.217938,-7.33287 0,0 -3.093158,8.09676 -2.811961,11.15208 0.56239,5.34688 7.029899,15.27687 8.154679,15.58237 0.281214,0.153 10.123051,6.41626 10.123051,6.41626 0,0 4.499133,-7.48565 4.639738,-8.24948 -0.984192,-0.61105 -10.54485,-6.72177 -10.54485,-6.72177 z"
       id="path12287"
       style="fill:#203689;stroke-width:1.46557" />
    <path
       d="m 51.470172,225.5389 c -0.421766,2.44433 -0.702985,6.11077 0.421768,6.41627 3.796144,0.76382 2.811961,-0.91662 5.764517,0.6111 2.108968,1.22211 7.592288,1.37489 8.435875,0.61105 0.702992,-0.61105 1.265383,-3.66643 -1.827771,-4.12477 -3.093158,-0.45845 -4.780333,-3.36087 -5.764517,-5.1941 -0.984184,-1.83321 -2.952556,-2.44427 -2.952556,-2.44427 l -3.233754,0.61106 z"
       id="path12289"
       style="stroke-width:1.46557" />
    <path
       class="st0"
       d="m 54.703927,227.83045 c 1.827771,-7.02738 5.764516,-38.65038 8.85767,-64.621 l -7.592289,6.87459 c -0.984183,11.1521 -3.93674,24.44291 -5.202121,34.06734 -1.54658,11.15204 -1.265382,18.02663 -1.124786,23.67907 0.140607,0 2.81196,1.2221 5.061526,0 z"
       id="path12291"
       style="fill:#12195b;stroke-width:1.46557" />
    <path
       d="m 36.988588,223.2474 7.873485,-0.30543 c 0,0 0.140607,6.1107 5.342718,8.0967 1.687175,0.61111 1.968373,3.36094 -0.281214,4.27756 -2.24957,0.9166 -7.170494,0.61105 -9.138866,-1.68051 -1.968373,-2.29149 -2.10897,-0.30544 -3.655548,-1.37488 -1.546575,-1.0694 -0.562391,-4.88861 -0.421821,-7.1801 z"
       id="path12295"
       style="stroke-width:1.46557" />
    <path
       class="st23"
       d="m 51.751371,199.11 c 0.984184,-2.13877 4.780327,-14.51298 5.623915,-18.02663 4.920929,-19.70714 7.592288,-18.63775 8.717073,-28.72046 0.421767,-3.66644 0,-13.74914 -0.281213,-16.49897 0,-0.61105 -3.514947,4.8886 -5.202122,4.73583 l -6.608105,34.83116 c -3.655542,18.48496 -11.247831,43.08064 -10.966638,54.99657 1.265381,0.15301 3.37435,0.30544 4.920929,0.15301 -0.140607,-0.15301 1.546579,-26.73445 3.796144,-31.47028 z"
       id="path12297"
       style="fill:#203689;stroke-width:1.46557" />
    <path
       class="st0"
       d="m 66.79535,115.54576 -0.702991,-2.74984 c 0,0 -9.279463,3.20817 -11.950823,11.45766 -2.24957,7.18009 -6.045713,19.40157 -7.170494,25.81783 -1.405983,3.05534 -3.37435,7.63839 -3.37435,13.4436 0,6.87454 -2.671364,25.66506 -4.639732,32.08132 -6.18631,21.2348 -2.811961,33.76178 -2.811961,33.76178 0,0 0.843589,1.37495 6.889298,0.45845 0,0 4.920929,-25.51234 5.342723,-29.48429 0.140607,-1.37493 8.85767,-39.1087 11.810226,-45.83047 1.405978,-3.20816 3.655548,-11.30486 3.374351,-14.0547 0,-0.30544 1.265381,-20.1654 1.687175,-20.31819 2.108969,-0.45845 1.546578,-4.58304 1.546578,-4.58304 z"
       id="path12301"
       style="fill:#12195b;stroke-width:1.46557" />
    <path
       class="st23"
       d="m 72.559862,122.26758 c 0,0 -1.546573,-1.986 -3.655542,-4.43028 -2.10897,-2.44433 -1.265382,-2.29154 -1.265382,-2.29154 l -4.92093,3.36093 c 0,0 5.342725,19.2488 1.124786,18.48491 0,0 -1.124786,13.13809 -2.952557,23.06802 -0.140606,0.45845 -2.390166,30.40089 -3.093158,36.35889 -2.39016,17.72108 -3.796143,31.92855 -3.796143,31.92855 0,0 2.390165,0 7.592288,-1.06939 -0.984184,-2.59705 -0.140607,-19.09602 0.702991,-27.3455 0.281214,-2.90261 1.405977,-7.02738 1.405977,-7.63843 0.562396,-6.72183 3.374351,-29.78979 4.217939,-32.53961 9.841858,-28.72046 5.061526,-35.74778 4.639731,-37.88655 z"
       id="path12303"
       style="fill:#203689;stroke-width:1.46557" />
    <path
       class="st2"
       d="m 129.08024,231.03855 c 0,3.51367 -11.66964,6.26349 -26.15123,6.26349 -14.481575,0 -26.15121,-2.74982 -26.15121,-6.26349 0,-3.51365 11.669635,-6.26349 26.15121,-6.26349 14.48159,-0.15301 26.15123,2.74984 26.15123,6.26349 z"
       id="path12305"
       style="fill:#d3a994;stroke-width:1.46557" />
    <path
       class="st55"
       d="m 127.39306,231.49688 c 0,3.20811 -10.96665,5.80516 -24.46405,5.80516 -13.497396,0 -24.464035,-2.59705 -24.464035,-5.80516 0,-3.20815 10.966639,-5.8052 24.464035,-5.8052 13.4974,0 24.46405,2.59705 24.46405,5.8052 z"
       id="path12307"
       style="fill:#662619;stroke-width:1.46557" />
    <path
       class="st21"
       d="m 124.01871,234.3995 c -2.81196,-2.29156 -11.10724,-4.12477 -21.0897,-4.12477 -9.84185,0 -18.277725,1.68044 -21.089683,4.12477 4.217937,1.68044 12.09142,2.74982 21.089683,2.74982 8.99828,0 16.73116,-1.06938 21.0897,-2.74982 z"
       id="path12309"
       style="fill:#2f0300;stroke-width:1.46557" />
    <path
       class="st1"
       d="m 124.8623,203.54026 c -1.54658,1.22217 -1.96837,0.91662 -3.09315,1.0694 -1.1248,0.15301 -1.54659,0.15301 -2.53077,0.61105 -0.98419,0.45845 -4.21793,2.44434 -3.79615,2.9026 0.42176,0.45845 0.98418,0.45845 1.68718,0.15301 0.70299,-0.30544 1.54658,-0.9166 1.54658,-0.9166 0,0 -2.67137,1.68044 -2.67137,2.13877 0.14061,0.45845 4.07735,2.59706 5.06153,2.59706 0.84359,0 1.96837,-1.986 2.81196,-2.59706 0.84358,-0.61112 2.39017,-0.76384 2.95256,-1.06938 0.56239,-0.30544 -1.96837,-4.88861 -1.96837,-4.88861 z"
       id="path12317"
       style="fill:#d94a00;stroke-width:1.46557" />
    <path
       d="m 142.85883,225.84445 c 0.14061,2.74984 1.68718,7.63843 0,7.48566 -1.68717,-0.15301 -2.39017,-0.15301 -4.63974,0.15301 -2.39015,0.30544 -9.13885,1.06933 -8.99826,-0.91661 0.14061,-1.986 1.26539,-2.59711 2.53076,-2.59711 2.95256,-0.15301 5.76452,-5.04133 6.7487,-4.58305 1.40598,0.45845 4.35854,0.45845 4.35854,0.45845 z"
       id="path12319"
       style="stroke-width:1.46557" />
    <path
       class="st0"
       d="m 151.15411,205.83182 c -2.81195,0 -14.76278,-8.86059 -20.1055,-5.49965 -2.81196,1.83321 -2.10898,8.40226 0.42176,15.58235 1.82778,5.04133 3.93674,14.97126 5.20213,15.27682 2.10896,0.61105 9.56065,-2.44428 10.40424,-3.05539 0.84359,-0.61105 -4.92093,-16.3462 -5.62391,-16.95725 -0.703,-0.61106 8.29527,9.1661 11.95082,7.48566 z"
       id="path12321"
       style="fill:#12195b;stroke-width:1.46557" />
    <path
       class="st30"
       d="m 143.98361,181.23614 c -0.84358,0.76383 -1.26537,3.66644 -2.81195,6.26349 -1.96837,3.51367 -4.63974,6.72176 -7.7329,9.4716 -2.81195,2.5971 -11.81022,7.33287 -11.81022,7.33287 l 4.21794,7.02738 c 0,0 9.98246,-5.80522 11.66963,-6.8746 6.6081,-3.97194 11.38842,-15.27681 11.38842,-15.27681 z"
       id="path12323"
       style="fill:#8494af;stroke-width:1.46557" />
    <path
       class="st2"
       d="m 143.14003,187.49963 c -3.23376,-2.74982 -5.90512,-3.972 -5.90512,-3.972 l 3.51495,-7.79115 c 0,0 5.34273,3.51366 7.0299,3.81916 0.98418,0.30544 -4.63973,7.94399 -4.63973,7.94399 z"
       id="path12325"
       style="fill:#d3a994;stroke-width:1.46557" />
    <path
       class="st2"
       d="m 139.20329,168.25083 c -0.703,-1.22217 -2.10898,-1.37495 -3.09316,-1.68044 -4.07734,-1.6805 -9.42006,2.90255 -9.27946,6.87454 0,2.29155 1.54657,4.2775 2.95255,6.8746 0,0.61105 0.703,2.44428 0.703,3.36088 0.1406,0.61106 0.98417,0.15302 1.68717,0 1.26537,1.52766 2.39016,2.44428 3.37435,2.44428 0.98418,0 4.21794,-2.2915 4.35853,-2.44428 0.14062,0 6.18632,-3.97199 -0.70298,-15.42958 z"
       id="path12327"
       style="fill:#d3a994;stroke-width:1.46557" />
    <path
       class="st3"
       d="m 135.26654,165.34822 c -1.26538,-0.76383 -2.24956,0.30544 -4.92093,2.13878 -2.67135,1.83322 -2.95255,0.61106 -3.51494,3.81916 -0.28122,1.68049 0.98418,3.81921 0.98418,3.81921 0,0 0.84359,-0.91661 1.54658,-1.06938 0.70298,-0.15301 0,0.15301 1.54657,0.91661 1.26539,0.61111 1.96837,1.37493 1.96837,1.37493 0,0 4.92094,-1.52765 5.48333,-0.61105 0.42176,0.61105 4.07733,1.22211 5.76451,1.52766 0,0 -0.42177,-2.90259 -1.96838,-6.41626 -2.10896,-4.73582 -6.4675,-5.34688 -6.88929,-5.49966 z"
       id="path12329"
       style="fill:#300901;stroke-width:1.46557" />
    <path
       class="st2"
       d="m 136.25072,175.73648 c 0.14061,-0.76388 0.28122,-1.98599 1.12479,-1.83321 1.26538,0.30544 2.67136,1.98593 2.10897,3.51366 -0.42177,1.68044 -3.23376,-1.68045 -3.23376,-1.68045 z"
       id="path12331"
       style="fill:#d3a994;stroke-width:1.46557" />
    <path
       class="st29"
       d="m 143.56183,181.54164 c 0.84358,-2.9026 1.68717,-3.66644 1.68717,-3.66644 3.23375,1.22217 12.37262,2.44433 18.41832,24.90124 0,0 -9.84185,11.1521 -11.81022,11.1521 -1.68718,-3.20817 -10.54485,-17.41559 -10.82604,-25.97063 -0.14061,-1.37489 1.96836,-4.73583 2.53077,-6.41627 z"
       id="path12333"
       style="fill:#b4c1d1;stroke-width:1.46557" />
    <path
       class="st37"
       d="m 164.37032,221.56696 c 1.82776,-1.986 2.81195,-2.59711 4.92092,-2.44433 2.10897,0.30544 2.24956,1.52773 2.24956,3.51366 0,1.986 0.84359,4.73582 0.703,6.8746 0,1.68045 -1.12478,4.88861 -5.90513,4.12471 -3.09314,-0.45845 0.42178,-3.36087 0.8436,-5.1941 0.42177,-1.986 -2.81195,-6.87454 -2.81195,-6.87454 z"
       id="path12335"
       style="fill:#232121;stroke-width:1.46557" />
    <path
       class="st23"
       d="m 153.96606,186.88851 c 0,-0.30543 2.24958,-1.98593 2.39017,-1.83321 8.43587,12.98531 13.77859,26.58168 11.24783,32.69245 -2.10897,5.1941 -17.15294,8.70775 -18.27773,9.31887 -0.2812,0.15301 17.01234,-9.1661 17.99654,-7.33287 1.12478,2.29149 2.53076,10.0827 0.56239,11.45759 -4.92094,3.20816 -17.99653,1.52765 -20.3867,1.52765 -3.93673,0 -6.8893,-0.61105 -6.8893,-2.74982 0,-9.01332 14.34099,-18.17942 14.34099,-18.17942 l -9.84185,-16.49896 c -0.14061,0.15301 8.85766,4.12477 8.85766,-8.40228 z"
       id="path12337"
       style="fill:#203689;stroke-width:1.46557" />
    <g
       id="g12341"
       transform="matrix(1.4059793,0,0,1.5276825,-343.8912,71.395716)">
      <path
         class="st0"
         d="m 362.8,105.7 c -5.9,0.9 -13.9,1 -18.3,1 -2.8,0 -6,-3 -4.4,-4.9 3.3,-3.9 9.8,-8.8 9.8,-8.8 l -4.8,-13.6 c 0,0 6.3,2.3 8.7,-0.9 0.6,1.2 3.7,8.9 4.4,10.9 0.3,0.8 2.5,4.2 -2.8,6.8 -3.3,1.6 -8.2,4.2 -8,5.3 0.4,1.8 14.4,1.7 17,0.3 1,2.2 -1.1,3.8 -1.6,3.9 z"
         id="path12339" />
    </g>
    <path
       class="st23"
       d="m 157.90281,190.40224 c -0.42177,-2.59711 -5.62393,-8.70782 -8.01408,-9.77722 -3.65555,-1.52765 -6.46751,-0.153 -6.88931,5.04139 -0.42176,5.1941 1.68718,10.3882 1.68718,10.3882 l 2.95256,-0.91661 c 0,0 -4.07733,-7.79114 -2.81196,-11.15203 0.98418,-2.59711 5.90511,-5.49965 10.68544,6.26349 1.40598,3.2081 2.39017,0.153 2.39017,0.153 z"
       id="path12347"
       style="fill:#203689;stroke-width:1.46557" />
    <path
       class="st22"
       d="m 140.89046,168.70911 c 1.40598,-0.15301 2.81196,0.61111 2.24957,1.22216 -0.5624,0.76384 -3.51496,2.13877 -6.04572,3.36088 -2.39016,1.22217 -7.73288,5.80522 -8.43587,6.72182 -0.70299,0.76384 -1.40598,1.22217 -2.39016,1.22217 -0.98419,0 -3.79615,-0.15301 -3.23376,-1.37494 0.56239,-1.22216 2.24957,-3.51367 3.23376,-4.73583 0.98418,-1.2221 10.54483,-5.95793 11.95081,-6.11071 1.26539,0 2.67137,-0.30545 2.67137,-0.30545 z"
       id="path12349"
       style="fill:#ff800a;stroke-width:1.46557" />
    <path
       class="st1"
       d="m 142.85883,169.16744 c 0,0.15301 0,0.30544 -0.1406,0.30544 -0.56241,0.76388 -3.51496,2.13878 -6.04572,3.36094 -2.39016,1.2221 -7.73289,5.80515 -8.43587,6.72177 -0.70299,0.76389 -1.40598,1.22215 -2.39018,1.22215 -0.70298,0 -2.39015,0 -3.09315,-0.61105 0.14061,0.91661 2.53076,1.0694 3.37435,0.91661 0.98419,0 1.68718,-0.45845 2.39017,-1.22216 0.703,-0.76384 6.0457,-5.34689 8.43588,-6.72182 2.39017,-1.2221 5.48332,-2.59705 6.0457,-3.36089 0.28122,-0.15301 0.14062,-0.45845 -0.14061,-0.61105 z"
       id="path12351"
       style="fill:#d94a00;stroke-width:1.46557" />
    <path
       class="st1"
       d="m 141.87465,169.47294 c -0.42177,-0.76383 -2.10897,-3.20811 -2.53076,-3.81916 -2.10898,-2.13877 -5.48333,-2.44433 -8.71708,-1.06939 -4.35853,1.83321 -6.7487,6.72177 -5.20212,10.99932 0.1406,0.30544 0.56239,1.68043 0.70298,1.83322 1.12479,0.30543 3.09316,-0.30544 4.07735,-0.91661 1.54657,-1.06939 3.65554,-3.05539 5.34272,-3.972 2.24957,-1.06938 3.51494,-2.13877 6.32691,-3.05538 z"
       id="path12353"
       style="fill:#d94a00;stroke-width:1.46557" />
    <path
       class="st22"
       d="m 133.43876,164.88989 c 1.12479,-0.45845 2.10898,-0.76383 3.23376,-0.76383 -1.82778,-0.61105 -3.93674,-0.30544 -6.04571,0.61111 -4.35853,1.83322 -6.7487,6.72177 -5.20212,10.99931 0.1406,0.30544 0.56239,1.68045 0.70298,1.83322 0.703,0.15244 1.54659,0.15244 2.53077,-0.153 -0.14061,-0.45845 -0.42177,-1.22218 -0.5624,-1.37495 -1.54657,-4.43026 0.9842,-9.31887 5.34272,-11.15209 z"
       id="path12355"
       style="fill:#ff800a;stroke-width:1.46557" />
    <path
       class="st5"
       d="m 115.72343,236.23271 0.42177,-0.9166 c 1.40597,-3.05539 5.06153,-6.41628 7.87347,-10.23549 v 0 c 0.98419,-1.37494 1.40599,-2.74982 1.40599,-4.27755 v 0 c 0,-3.51366 -1.12478,-7.94393 -10.12304,-11.30481 v 0 c -0.9842,-0.61111 -4.21794,-1.06939 -6.32692,-1.52772 v 0 c -2.10897,7.02738 -5.76452,12.67982 -12.232021,13.59642 v 0 c -2.952549,0.45845 -5.483311,0.61105 -7.873482,0.61105 v 0 c -6.467504,0 -10.966638,-1.22216 -14.903378,-1.22216 v 0 c -3.374351,0 -6.186311,0.76383 -9.982455,3.972 v 0 c -0.421767,0.45845 -1.124786,0.30543 -1.54658,-0.15301 v 0 c -0.421766,-0.45845 -0.281212,-1.22217 0.140607,-1.68045 v 0 c 4.077337,-3.51365 7.592288,-4.43027 11.247831,-4.43027 v 0 c 4.217939,0 8.576484,1.22211 14.903383,1.22211 v 0 c 2.249567,0 4.780329,-0.15301 7.592287,-0.61105 v 0 c 5.061528,-0.76383 8.295278,-5.19411 10.263658,-11.76316 v 0 c -1.68718,-0.30542 -3.65555,-0.61105 -5.76452,-1.06938 v 0 c -5.764513,-1.06939 -12.513212,-2.74983 -19.12132,-6.41626 v 0 c -8.576473,-4.8886 -12.794412,-12.83254 -12.794412,-21.08202 v 0 c 0,-4.58305 1.265381,-9.1661 3.514946,-13.44359 v 0 c 6.186312,-11.45765 14.200399,-17.11008 22.495669,-19.85991 v 0 c 0.843587,-0.30544 1.546583,-0.45845 2.390171,-0.45845 v 0 c 3.655546,0 6.326896,2.9026 8.295266,7.02732 v 0 c 2.10898,4.12477 3.51496,9.92993 4.78033,16.19347 v 0 c 0.42178,1.98595 0.98419,8.40221 0.98419,16.19342 v 0 c 0,6.72182 -0.42177,14.3602 -2.10897,20.92924 v 0 c 1.96837,0.45845 5.34272,1.06938 6.60811,1.68044 v 0 c 9.27946,3.97199 11.38843,8.40227 11.38843,13.29087 v 0 c 0,1.986 -0.70299,3.97194 -1.96838,5.65243 v 0 c -2.67135,3.66644 -6.18629,6.41627 -7.45168,9.31883 0.56239,0.45845 -2.10896,0.9166 -2.10896,0.76387 z M 97.586293,147.62708 c -0.562392,0 -1.124784,0.15301 -1.687175,0.30545 v 0 c -7.873483,2.59705 -15.325178,7.79115 -21.230286,18.79046 v 0 c -2.10897,3.972 -3.23375,8.24949 -3.23375,12.37426 v 0 c 0,7.48565 3.655543,14.51298 11.66962,19.09602 v 0 c 6.186321,3.51366 12.794416,5.1941 18.418328,6.26349 v 0 c 2.10898,0.45845 4.21794,0.76384 6.04572,1.06938 v 0 c 1.54657,-6.26347 2.10896,-13.90191 2.10896,-20.47096 v 0 c 0,-7.63837 -0.70298,-14.20742 -0.98418,-15.73508 v 0 c -1.26538,-6.26354 -2.67135,-11.76321 -4.63973,-15.58237 v 0 c -1.82777,-4.12477 -4.077337,-6.11076 -6.467507,-6.11076 v 0 c 0,0 0,0 0,0 z"
       id="path12363"
       style="fill:#4d87db;stroke-width:1.46557" />
    <path
       class="st22"
       d="m 67.779534,145.79387 c 2.530764,2.13877 8.717074,8.86059 9.701258,9.16609 0.984183,0.15301 3.093148,2.90261 3.514948,3.66644 0.421761,0.61112 1.124783,2.13878 0.843587,3.05538 -0.421774,0.91661 -0.562391,2.13879 -1.265387,1.986 -0.562392,-0.15301 -0.281209,-2.13877 -0.281209,-2.13877 0,0 0.140604,1.37494 -0.984192,1.68044 -0.421813,0.153 -1.687172,0.76382 -1.687172,0.76382 0,0 0,0.91662 -1.546574,0.15302 -0.843588,-0.45845 -2.671364,-3.51366 -3.233755,-4.58305 -0.562389,-1.06938 -5.764516,-5.1941 -8.014082,-7.02733 -2.249565,-1.98598 2.952558,-6.72182 2.952558,-6.72182 z"
       id="path12365"
       style="fill:#ff800a;stroke-width:1.46557" />
    <path
       class="st0"
       d="m 64.54578,119.36497 c 1.124786,1.22217 1.827777,3.36088 1.827777,7.63843 0,4.27749 0.843587,10.0827 1.265381,11.76314 0.56239,2.13879 10.123051,16.19342 10.123051,16.19342 l -7.029897,6.26349 c 0,0 -8.998266,-9.4716 -11.388433,-18.79047 0,0 -5.342723,-18.94324 -0.140607,-23.22079 3.233749,-2.59705 5.342718,0.15301 5.342718,0.15301 z"
       id="path12367"
       style="fill:#12195b;stroke-width:1.46557" />
    <path
       class="st22"
       d="m 93.50896,150.22414 c 0.702983,0.153 1.968371,0.30544 1.968371,-0.30545 0.140604,-0.45845 -0.281222,-1.68044 -1.124784,-2.44433 -0.702996,-0.76382 -1.265387,-1.2221 -1.687175,-0.61105 -0.421774,0.61105 0.843588,1.83322 0.843588,1.986 0.281209,0.30544 0,1.37489 0,1.37489 z"
       id="path12371"
       style="fill:#ff800a;stroke-width:1.46557" />
    <path
       class="st22"
       d="m 95.196135,150.22414 c 0.702983,0.45844 1.54657,0 1.54657,-0.15301 0.140617,-0.30544 0.281222,-1.52772 -0.281209,-2.13877 -0.562391,-0.61106 -1.405979,-1.22218 -1.687174,-1.22218 -0.421762,0 -0.702996,0.15301 -0.421762,0.76384 0.281209,0.45845 0.702983,1.986 0.702983,1.986 z"
       id="path12373"
       style="fill:#ff800a;stroke-width:1.46557" />
    <path
       class="st22"
       d="m 96.742705,149.61308 c -0.702983,0.15301 0.984192,0.30544 1.265388,-0.30544 0.281209,-0.61105 0,-1.52767 -0.140605,-1.83321 -0.140604,-0.30544 -1.124783,-1.22211 -1.546583,-1.3749 -0.421813,-0.30544 -0.984179,0.15301 -0.702983,0.45845 0.281209,0.45845 0.984179,1.83323 0.984179,1.83323 0,0 0.281221,1.22216 0.140604,1.22216 z"
       id="path12375"
       style="fill:#ff800a;stroke-width:1.46557" />
    <path
       class="st22"
       d="m 97.867488,148.69647 c 0.421775,0.15301 0.702996,0.45845 0.984192,0.15301 0.281209,-0.30543 0.562392,-1.37494 0.140605,-1.68044 -0.421762,-0.45845 -1.405979,-1.06939 -1.687175,-1.06939 -0.421762,0 -0.421762,0.45845 -0.281209,0.91661 0.140604,0.30545 0.843587,1.68044 0.843587,1.68044 z"
       id="path12377"
       style="fill:#ff800a;stroke-width:1.46557" />
    <path
       class="st22"
       d="m 130.34561,213.1647 c -0.98418,-0.15301 -5.20212,-1.37495 -5.62392,-0.91662 -0.42181,0.45845 0.14061,0.91662 0.84359,1.3749 0.703,0.45845 0.28122,0.45845 0.28122,0.45845 0,0 -1.40599,0.61105 -3.23375,2.29149 -0.9842,0.76383 -1.12479,2.13877 0.56239,1.22216 -0.703,0.76384 -0.84359,1.986 0.56239,1.37489 -0.56239,0.76389 -0.42176,1.52772 0.84359,1.06939 -0.42177,0.30544 -0.28121,0.91661 0.42176,1.06938 0.42177,0 2.10897,0.15301 4.07734,-1.52766 1.96837,-1.52772 3.51496,-2.59706 3.51496,-2.59706 z"
       id="path12381"
       style="fill:#ff800a;stroke-width:1.46557" />
    <path
       class="st1"
       d="m 129.08024,219.42819 c -1.96837,1.52766 -3.65555,1.52766 -4.07735,1.52766 -0.70298,0 -0.84359,-0.61105 -0.42176,-1.06938 -0.84359,0.30544 -1.12478,0 -0.98419,-0.61106 2.67136,-0.61105 5.76452,-2.59705 7.87348,-4.58305 l 1.12478,2.13877 c -0.1406,0.15301 -1.54657,1.06939 -3.51494,2.59706 z"
       id="path12383"
       style="fill:#d94a00;stroke-width:1.46557" />
    <path
       class="st29"
       d="m 151.5759,185.51363 c 1.96837,2.90261 0.42178,6.41627 0.42178,6.41627 -1.26539,5.34689 -3.09317,10.69376 -5.76453,14.3602 -3.09315,4.12477 -12.79441,13.44365 -12.79441,13.44365 l -4.35853,-6.72183 c 0,0 9.84185,-9.47166 10.82603,-10.84654 1.12479,-1.52772 3.51496,-12.67975 3.93674,-14.97131 1.12479,-5.49965 4.49914,-6.1107 7.73289,-1.68044 z"
       id="path12389"
       style="fill:#b4c1d1;stroke-width:1.46557" />
    <path
       class="st22"
       d="m 121.20675,211.94254 c -0.70299,0 -1.96837,0.61105 -2.10897,0.15301 -0.14061,-0.45845 0.1406,-1.68044 0.84359,-2.44428 0.70298,-0.91662 1.12478,-1.37495 1.54657,-0.91662 0.42177,0.45845 -0.56238,1.98595 -0.70299,2.13872 0,0.30544 0.42178,1.06939 0.42178,1.06939 z"
       id="path12393"
       style="fill:#ff800a;stroke-width:1.46557" />
    <path
       class="st22"
       d="m 119.37897,212.24808 c -0.70298,0.45845 -1.68717,0.15301 -1.82776,0 -0.14062,-0.30544 -0.28122,-1.52771 0.1406,-2.13877 0.56239,-0.76382 1.26538,-1.52766 1.54657,-1.52766 0.42183,0 0.703,0.153 0.56239,0.61105 -0.1406,0.45845 -0.56239,1.986 -0.56239,1.986 z"
       id="path12395"
       style="fill:#ff800a;stroke-width:1.46557" />
    <path
       class="st22"
       d="m 117.8324,211.94254 c 0.70299,0.15301 -0.84358,0.30544 -1.12478,-0.15301 -0.28122,-0.45845 -0.42177,-1.52767 -0.28122,-1.83323 0.1406,-0.30544 0.98419,-1.37488 1.26539,-1.68044 0.42176,-0.30544 0.98418,0 0.84358,0.30545 -0.1406,0.45845 -0.70299,1.98599 -0.70299,1.98599 0,0 -0.14061,1.37488 0,1.37488 z"
       id="path12397"
       style="fill:#ff800a;stroke-width:1.46557" />
    <path
       class="st22"
       d="m 116.70762,211.02592 c -0.703,0.30545 -1.26539,0.61106 -1.54658,0.30545 -0.42178,-0.30545 -0.70299,-1.22218 -0.28121,-1.68044 0.42176,-0.45845 1.68717,-1.22217 2.10896,-1.22217 0.42183,0 0.42183,0.45844 0.28121,0.76383 -0.14061,0.45844 -0.56238,1.83322 -0.56238,1.83322 z"
       id="path12399"
       style="fill:#ff800a;stroke-width:1.46557" />
    <path
       class="st0"
       d="m 72.84106,117.99009 c 0.843588,1.52765 1.827772,5.49965 1.827772,5.49965 l -1.405978,-0.30544 0.281214,1.06938 -1.265381,3.66644 c 0,0 0.843587,-5.19416 -0.140607,-7.48565 -0.421768,-1.37495 0.70299,-2.44428 0.70299,-2.44428 z"
       id="path12401"
       style="fill:#12195b;stroke-width:1.46557" />
    <path
       class="st2"
       d="m 72.27867,106.83799 c -0.562396,1.68044 -1.124785,3.05533 -5.202127,6.11071 -2.108969,1.52767 -0.56239,3.20816 -0.56239,3.20816 l 5.202121,5.95793 c 0,0 1.968374,-3.2081 5.061526,-3.36088 1.827777,0 -4.49913,-11.91592 -4.49913,-11.91592 z"
       id="path12403"
       style="fill:#d3a994;stroke-width:1.46557" />
    <path
       class="st2"
       d="m 74.528235,106.22688 c 2.390167,-4.27749 6.748701,-6.721768 9.982459,-3.51366 3.514941,3.51366 3.514941,5.34687 0.984179,9.47164 -0.562392,0.91662 -1.968371,1.68046 -2.671354,2.59706 -0.562404,1.52766 -0.843587,3.36089 -1.265387,3.51366 -0.281209,0 -0.702984,-0.15301 -1.124784,-0.30544 -1.827771,1.98595 -3.374349,2.59705 -4.499135,1.68044 -1.265381,-0.91661 -4.217939,-3.972 -4.217939,-7.18009 0.140607,-1.68051 1.54658,-3.972 2.811961,-6.26356 z"
       id="path12405"
       style="fill:#d3a994;stroke-width:1.46557" />
    <path
       class="st3"
       d="m 88.588027,108.21288 c -0.421762,2.44433 -1.265388,3.05538 -2.390158,3.05538 -2.530762,-0.153 -2.671367,-2.44427 -3.655546,-2.29155 -0.843587,0.153 -2.108975,-0.76383 -2.811971,-0.76383 -0.702983,0 -2.108964,0.61111 -2.108964,0.61111 l -1.546573,-0.15301 -0.843588,-1.06939 -1.405983,2.13877 -5.342718,1.68044 c 0,0 1.827772,-2.9026 2.390161,-5.80521 0.421768,-1.986 0.984189,-2.59705 1.687175,-3.51366 0.702992,-1.06939 0.984189,-0.9166 1.687176,-1.83321 0.843587,-1.069389 3.233754,-1.52767 4.077342,-1.222176 0.843581,0.305442 1.405972,0.45845 1.687168,0.76384 0.281222,0.458446 0.8436,-0.45845 1.968384,0 1.265374,0.458446 1.265374,0.153008 2.811945,1.222156 1.546583,1.06939 2.390171,3.36089 3.233758,4.73583 0.562392,1.06938 0.562392,2.44428 0.562392,2.44428 z"
       id="path12407"
       style="fill:#300901;stroke-width:1.46557" />
    <path
       class="st2"
       d="m 76.7778,107.44904 c 0.140607,-1.22216 -0.984184,-1.986 -1.687175,-1.52767 -0.702987,0.61106 -2.108968,3.51367 -0.984184,4.73584 1.124786,1.37488 2.671359,-3.20817 2.671359,-3.20817 z"
       id="path12409"
       style="fill:#d3a994;stroke-width:1.46557" />
    <path
       class="st0"
       d="m 70.732092,125.47568 1.546578,2.44433 c 0,0 -0.984189,-5.34689 -2.249571,-9.01332 -0.421766,-1.22216 -1.405977,-8.09676 -1.405977,-8.09676 l -3.514947,2.13877 0.562391,6.26349 2.671359,0.9166 -0.562391,1.68046 c 0,-0.30545 1.827772,1.68049 2.952558,3.66643 z"
       id="path12413"
       style="fill:#12195b;stroke-width:1.46557" />
    <path
       class="st22"
       d="m 74.106441,101.18555 c -1.265381,-0.30544 -2.671359,0 -2.390167,0.76384 0.421768,0.76383 3.093159,2.59705 5.202128,4.27749 2.108967,1.68049 6.6081,7.02737 7.029887,7.94398 0.562405,0.91662 1.124797,1.3749 2.108975,1.68044 0.984192,0.15301 3.655546,0.61106 3.37435,-0.76382 -0.421761,-1.37495 -1.687175,-3.66644 -2.390158,-5.04139 -0.843587,-1.37488 -9.279467,-7.63837 -10.544848,-7.94393 -1.265381,-0.30544 -2.390167,-0.91661 -2.390167,-0.91661 z"
       id="path12415"
       style="fill:#ff800a;stroke-width:1.46557" />
    <path
       class="st1"
       d="m 71.716274,101.94939 c 0.421768,0.76383 3.093159,2.59705 5.202128,4.27749 2.108967,1.68049 6.6081,7.02737 7.029887,7.94398 0.562405,0.91662 1.124797,1.3749 2.108975,1.68044 0.843588,0.15301 3.093154,0.45845 3.37435,-0.30543 -0.702983,0.30543 -2.390158,0.15301 -2.952562,0 -0.984179,-0.15302 -1.546571,-0.76384 -2.108962,-1.68045 -0.562392,-0.9166 -4.920921,-6.26349 -7.029894,-7.94393 -2.108969,-1.68044 -4.780334,-3.51365 -5.202128,-4.27754 0,-0.15301 -0.140606,-0.30544 0,-0.30544 -0.421767,0 -0.562389,0.30544 -0.421767,0.61105 z"
       id="path12417"
       style="fill:#d94a00;stroke-width:1.46557" />
    <path
       class="st1"
       d="m 78.605577,105.92137 c 1.546575,1.22211 3.23375,3.51367 4.499125,4.73584 0.843587,0.76383 2.671367,1.68044 3.79615,1.52765 0.140604,-0.30544 0.843587,-1.37493 0.984192,-1.68043 2.108962,-3.81922 0.562391,-8.8606 -3.37435,-11.457651 -2.952562,-1.833212 -6.045719,-2.291492 -8.435879,-0.611053 -0.562396,0.45845 -2.530764,2.597054 -3.093158,3.208104 2.530762,1.52772 3.655547,2.59711 5.62392,4.27754 z"
       id="path12419"
       style="fill:#d94a00;stroke-width:1.46557" />
    <path
       class="st22"
       d="m 85.213677,110.19887 c -0.140604,0.15302 -0.421774,0.76384 -0.702983,1.22217 0.843587,0.45845 1.687175,0.76382 2.390158,0.61105 0.140604,-0.30544 0.843587,-1.37488 0.984192,-1.68044 2.108962,-3.81922 0.562391,-8.86054 -3.37435,-11.457644 -1.827779,-1.222107 -3.79615,-1.833225 -5.623929,-1.527666 0.984192,0.305442 1.968383,0.763827 2.952562,1.374945 3.796137,2.597055 5.483312,7.791145 3.37435,11.457585 z"
       id="path12421"
       style="fill:#ff800a;stroke-width:1.46557" />
    <path
       class="st21"
       d="m 104.4756,242.64898 c -0.14061,3.97194 -9.982461,6.72176 -21.792685,6.11071 -11.810228,-0.61106 -21.370883,-4.27749 -21.230288,-8.24949 0.140607,-3.97198 9.982455,-6.72182 21.792679,-6.1107 11.950829,0.61105 21.370884,4.27749 21.230294,8.24948 z"
       id="path12427"
       style="fill:#2f0300;stroke-width:1.46557" />
    <path
       class="st84"
       d="m 105.03799,245.7043 c -6.467506,4.12477 -22.073879,4.88861 -33.884105,1.986 -6.326907,-1.52766 -10.404248,-5.34687 -11.529029,-7.63843 -0.42182,0.61112 -0.281213,2.74984 -0.140607,3.51371 0.281214,2.74984 4.35854,5.49967 11.529035,7.18011 11.810222,2.90261 27.275992,2.13872 33.884096,-1.986 1.26538,-0.76383 2.10897,-1.68044 2.53077,-2.59705 0.2812,-0.76383 0.2812,-3.36093 0,-4.12477 -0.5624,0.45845 -1.40598,2.90261 -2.39017,3.66643 z"
       id="path12429"
       style="fill:#543e3b;stroke-width:1.46557" />
    <path
       class="st54"
       d="m 92.946568,234.55222 c -11.669632,-2.13872 -25.167034,-0.91662 -30.93155,2.5971 -5.764512,3.51367 -1.968368,8.40221 8.998271,11.15204 11.81023,2.90261 27.276,2.13877 33.884091,-1.98594 6.46751,-3.97199 0.703,-9.31887 -11.950812,-11.7632 z m 8.717072,4.88859 -5.061526,2.90262 c -0.421775,0.153 -1.405979,0.30544 -2.108975,0.153 -0.702983,-0.153 -1.124784,-0.45845 -0.702983,-0.6111 l 5.905112,-3.36089 c 0.702982,0.30544 1.405982,0.61105 1.968372,0.91661 z m -2.81196,-1.22216 -6.186308,3.36095 c -0.421774,0.15301 -1.405979,0.30543 -2.108975,0.15301 -0.702983,-0.15301 -0.984178,-0.45845 -0.702983,-0.61112 l 6.608095,-3.66644 c 0.984192,0.15301 1.687175,0.45845 2.390171,0.76384 z m -5.76452,-1.68043 c 0.843587,0.153 1.687175,0.45845 2.530762,0.6111 l -6.748699,3.66644 c -0.421762,0.15301 -1.265375,0.30544 -2.108963,0.15301 -0.702996,-0.15301 -0.984191,-0.45845 -0.562391,-0.61106 z m -1.968371,-0.45845 c 0.421761,0 0.702996,0.153 1.124783,0.153 l -6.889291,3.81916 c -0.421774,0.15301 -1.265387,0.30544 -1.96837,0.15301 -0.702996,-0.15301 -0.984192,-0.45845 -0.562392,-0.61105 l 6.7487,-3.81923 c 0.421761,0.15302 0.984178,0.30545 1.54657,0.30545 z m -2.671354,-0.30545 -6.748699,3.81921 c -0.421774,0.15301 -1.265388,0.30545 -1.968384,0.15301 -0.702983,-0.15301 -0.984179,-0.45845 -0.562391,-0.6111 l 6.467503,-3.51367 c 0.843588,-0.15301 1.82778,0 2.811971,0.15301 z m -7.029908,-0.61105 c 0.984192,0 1.968384,0.15301 3.093167,0.15301 l -6.326911,3.51366 c -0.421766,0.15301 -1.265381,0.30543 -1.968373,0.15301 -0.702991,-0.15301 -0.984183,-0.45845 -0.562389,-0.61112 z m -1.265375,0 -5.48332,3.05532 c -0.421768,0.15302 -1.265382,0.30544 -1.968368,0.15302 -0.702991,-0.15302 -0.843588,-0.45845 -0.562396,-0.61107 l 4.499136,-2.59703 c 1.265382,0 2.390165,0 3.514948,0 z m -11.107237,1.83321 2.530764,-1.37493 c 1.265381,-0.15302 2.530762,-0.30544 3.93674,-0.45845 l -4.077337,2.29149 c -0.421766,0.15301 -1.265381,0.30545 -1.827776,0.15301 -0.702986,0 -0.984184,-0.30544 -0.562391,-0.61105 z m -5.483318,3.05534 2.952556,-1.68044 c 0.421821,-0.15301 1.265381,-0.30545 1.827772,-0.15301 0.70299,0.15301 0.843587,0.45845 0.562395,0.6111 l -4.499135,2.44428 c -0.421768,-0.30544 -0.702993,-0.76384 -0.843588,-1.22217 z m 1.265381,1.83321 4.92093,-2.74983 c 0.421819,-0.15301 1.265381,-0.30544 1.968366,-0.15301 0.702992,0.15301 0.843588,0.45845 0.562396,0.61106 l -5.764517,3.2081 c -0.702992,-0.30544 -1.265381,-0.61105 -1.687175,-0.91661 z m 2.249565,1.22217 6.045714,-3.36088 c 0.421768,-0.15301 1.265381,-0.30544 1.968368,-0.15301 0.702991,0.15301 0.98419,0.45845 0.562396,0.61106 l -6.608106,3.66643 c -0.843587,-0.153 -1.405977,-0.45845 -1.968372,-0.76384 z m 2.671365,1.06939 6.7487,-3.81922 c 0.421767,-0.153 1.265381,-0.30544 1.968367,-0.153 0.702986,0.153 0.984194,0.45845 0.562394,0.6111 l -7.029896,3.97193 c -0.843588,-0.153 -1.54658,-0.30542 -2.249565,-0.61105 z m 4.63973,1.22217 c -0.562394,-0.15301 -0.984188,-0.15301 -1.546578,-0.30544 l 7.170488,-3.972 c 0.421774,-0.15301 1.265388,-0.30544 1.968384,-0.15301 0.702983,0.15301 0.984179,0.45845 0.562391,0.61111 l -7.170501,3.97194 c -0.281212,0 -0.70299,0 -0.984184,-0.15243 z m 1.968368,0.45845 7.170496,-3.972 c 0.421762,-0.15301 1.265375,-0.30544 2.108962,-0.15301 0.702996,0.15301 0.984192,0.45845 0.562405,0.61106 l -7.029908,3.97198 c -0.984178,-0.15301 -1.827765,-0.30543 -2.811955,-0.45844 z m 3.936751,0.61105 6.889291,-3.81916 c 0.421774,-0.15301 1.265387,-0.30544 2.108975,-0.15301 0.702983,0.15301 0.984179,0.45844 0.702983,0.61106 l -6.467504,3.66644 c -1.124783,-0.15301 -2.108975,-0.15301 -3.233745,-0.30545 z m 4.49912,0.30543 6.326912,-3.51365 c 0.421761,-0.15301 1.405979,-0.30544 2.108975,-0.15301 0.702983,0.15301 1.124783,0.45845 0.702983,0.61105 l -5.483312,3.05539 c -1.265387,0.15301 -2.530762,0.15301 -3.655558,0 z m 12.93502,-2.13877 -3.514954,1.986 c -1.405979,0.153 -2.811958,0.153 -4.358529,0.30544 l 5.061525,-2.74983 c 0.421813,-0.30544 1.405979,-0.30544 2.108962,-0.153 0.702996,0 1.124783,0.45845 0.702996,0.61105 z m 2.671353,-1.52767 c -0.421812,0.15301 -1.405978,0.30544 -2.108961,0.15301 -0.843588,-0.15301 -1.124784,-0.45844 -0.702996,-0.76383 l 4.639737,-2.59705 c 0.70298,0.45845 1.12478,0.91661 1.40598,1.37489 z"
       id="path12431"
       style="fill:#704f49;stroke-width:1.46557" />
  </g>
</svg>
