<?xml version="1.0" encoding="UTF-8" standalone="no"?>
<!-- Created with Inkscape (http://www.inkscape.org/) -->

<svg
   width="300"
   height="150"
   viewBox="0 0 79.374998 39.687501"
   version="1.1"
   id="svg13513"
   inkscape:version="1.1 (c68e22c387, 2021-05-23)"
   sodipodi:docname="fuitedeau.svg"
   xmlns:inkscape="http://www.inkscape.org/namespaces/inkscape"
   xmlns:sodipodi="http://sodipodi.sourceforge.net/DTD/sodipodi-0.dtd"
   xmlns="http://www.w3.org/2000/svg"
   xmlns:svg="http://www.w3.org/2000/svg">
  <sodipodi:namedview
     id="namedview13515"
     pagecolor="#505050"
     bordercolor="#eeeeee"
     borderopacity="1"
     inkscape:pageshadow="0"
     inkscape:pageopacity="0"
     inkscape:pagecheckerboard="0"
     inkscape:document-units="mm"
     showgrid="false"
     inkscape:zoom="2.8926302"
     inkscape:cx="100.77334"
     inkscape:cy="84.179443"
     inkscape:window-width="1920"
     inkscape:window-height="1001"
     inkscape:window-x="-9"
     inkscape:window-y="-9"
     inkscape:window-maximized="1"
     inkscape:current-layer="layer1"
     units="px"
     borderlayer="true" />
  <defs
     id="defs13510">
    <inkscape:path-effect
       effect="bspline"
       id="path-effect29582"
       is_visible="true"
       lpeversion="1"
       weight="33.333333"
       steps="2"
       helper_size="0"
       apply_no_weight="true"
       apply_with_weight="true"
       only_selected="false" />
    <inkscape:path-effect
       effect="spiro"
       id="path-effect4178"
       is_visible="true"
       lpeversion="1" />
  </defs>
  <g
     inkscape:label="Calque 1"
     inkscape:groupmode="layer"
     id="layer1">
    <path
       style="fill:#d5ffd5;stroke:none;stroke-width:0.264583px;stroke-linecap:butt;stroke-linejoin:miter;stroke-opacity:1;fill-opacity:1"
       d="M -0.0646777,0.1293554 V 39.647428 l 79.5535697,0.06468 V 0.1293554 Z"
       id="path4453" />
    <path
       style="fill:#00665c;fill-opacity:1;stroke:none;stroke-width:0.291255px;stroke-linecap:butt;stroke-linejoin:miter;stroke-opacity:1"
       d="m 48.652538,8.705771 -0.194807,2.923011 2.782448,1.454919 z"
       id="path5014" />
    <g
       id="g4141"
       transform="matrix(0.00641728,0.69401528,-0.91262333,0.04081778,52.312726,-1.6302055)">
      <path
         class="st31"
         d="m 0.9893968,32.205969 v 0 h -0.852359 v 0 c -0.426176,0.05884 -0.791469,1.117596 -0.791469,2.411661 0,1.294071 0.365293,2.352849 0.791469,2.411676 v 0 h 0.852359 v 0 l 25.2662412,-0.01962 v -4.842944 z"
         id="path1242"
         style="fill:#67536c;fill-opacity:1;stroke-width:0.345504" />
      <path
         class="st28"
         d="m 1.1437811,34.480381 v 0 c -0.72691398,0 -1.78424098,0 -1.78424098,0.01962 -0.06607,1.313677 0.396495,2.490098 0.859075,2.54893 v 0 H 1.1437811 v 0 l 23.6577209,-0.01962 v -2.568528 z"
         id="path1244"
         style="fill:#67536c;fill-opacity:1;stroke-width:0.359958" />
      <path
         class="st12"
         d="M 22.531009,32.852996 13.39801,32.068712 c 0,0 1.454137,-3.588093 5.535923,-5.215478 3.137875,4.313559 3.826677,5.607626 3.826677,5.607626 z"
         id="path1271"
         style="fill:#a6ddff;stroke-width:0.223652" />
      <polygon
         class="st13"
         points="238.2,407.5 220.1,382.1 220.8,381.5 238.5,407.8 239.1,409.6 237.8,408.9 206.2,401.3 205.1,400.7 238,408.6 209.4,395.3 210.1,394.7 238.3,408.5 211.3,389.5 211.9,389.3 236.4,406.3 216.1,385.7 "
         id="polygon1273"
         transform="matrix(0.25511171,0,0,0.1960706,-38.058016,-47.3987)"
         style="opacity:0.57;fill:#ffffff" />
      <polygon
         class="st14"
         points="213.6,388 213.8,387.7 238.4,407.9 238.2,408.1 "
         id="polygon1275"
         transform="matrix(0.25511171,0,0,0.1960706,-38.058016,-47.3987)"
         style="opacity:0.69;fill:#c2ecff" />
      <polygon
         class="st14"
         points="238.2,407.5 238.3,407.8 218.1,383.9 218.5,383.7 237.8,406.8 "
         id="polygon1277"
         transform="matrix(0.25511171,0,0,0.1960706,-38.058016,-47.3987)"
         style="opacity:0.69;fill:#c2ecff" />
      <polygon
         class="st14"
         points="206.8,398.1 207,397.6 238.4,408.7 238.4,409.1 "
         id="polygon1279"
         transform="matrix(0.25511171,0,0,0.1960706,-38.058016,-47.3987)"
         style="opacity:0.69;fill:#c2ecff" />
      <polygon
         class="st14"
         points="238,407.6 222.9,379.4 223.3,379.4 238.3,407.5 "
         id="polygon1281"
         transform="matrix(0.25511171,0,0,0.1960706,-38.058016,-47.3987)"
         style="opacity:0.69;fill:#c2ecff" />
      <polygon
         class="st14"
         points="238.1,409.1 203.6,403.8 203.6,403.3 238,408.9 238,409.5 "
         id="polygon1283"
         transform="matrix(0.25511171,0,0,0.1960706,-38.058016,-47.3987)"
         style="opacity:0.69;fill:#c2ecff" />
      <polygon
         class="st14"
         points="210.9,392.1 211.1,391.7 238.4,408.3 238.3,408.6 "
         id="polygon1285"
         transform="matrix(0.25511171,0,0,0.1960706,-38.058016,-47.3987)"
         style="opacity:0.69;fill:#c2ecff" />
      <path
         class="st31"
         d="m 22.37794,31.460893 v 0 c -0.561244,0.07843 -1.020446,1.411708 -1.020446,3.058701 0,1.646995 0.459202,2.980276 1.020446,3.058705 v 0 h 4.234855 l -0.0255,-6.117406 z"
         id="path1291"
         style="fill:#442178;stroke-width:0.223652" />
      <g
         id="g1295"
         transform="matrix(0.25511171,0,0,0.1960706,-38.058016,-47.3987)"
         style="fill:#442178">
        <path
           class="st28"
           d="m 237,433.3 v 0 h 16.5 v -21 h -20.3 c -0.2,1.7 -0.3,3.5 -0.2,5.4 0,8.4 1.7,15.2 4,15.6 z"
           id="path1293"
           style="fill:#442178" />
      </g>
      <path
         class="st28"
         d="m 27.250575,34.499986 c 0,1.686212 -0.280624,3.058705 -0.663292,3.058705 -0.357156,0 -0.66329,-1.372493 -0.66329,-3.058705 0,-1.6862 0.280623,-3.0587 0.66329,-3.0587 0.382668,0 0.663292,1.3725 0.663292,3.0587 z"
         id="path1301"
         style="fill:#2d1650;stroke-width:0.223652" />
      <path
         class="st28"
         d="m 27.071995,34.578423 c 0,1.392097 -0.178578,2.529308 -0.408177,2.529308 -0.229601,0 -0.40818,-1.137211 -0.40818,-2.529308 0,-1.392111 0.178579,-2.529316 0.40818,-2.529316 0.204089,0 0.408177,1.137205 0.408177,2.529316 z"
         id="path1303"
         style="fill:#2d1650;fill-opacity:1;stroke-width:0.223652" />
      <path
         class="st31"
         d="m 53.441078,32.225577 v 0 h -0.482374 v 0 L 26.91101,32.205941 v 0 c -0.1447,0.0392 -0.578838,1.097992 -0.578838,2.431275 0,1.333285 0.434129,2.431273 0.627074,2.431273 0,0 0,0 0,0 l 25.999458,0.01963 v 0 h 0.482374 v 0 c 0.241183,-0.05884 0.434123,-1.117601 0.434123,-2.411665 0,-1.333286 -0.19294,-2.392063 -0.434123,-2.450878 z"
         id="path1305"
         style="fill:#67536c;stroke-width:0.307536" />
      <path
         class="st28"
         d="m 26.937976,37.029306 c 0,0 0,0 0,0 l 25.986323,0.01963 v 0 h 0.48213 v 0 c 0.24106,-0.05884 0.433904,-1.117608 0.433904,-2.411676 0,-0.05884 0,-0.09804 0,-0.137253 H 26.35943 c 0,0.0392 0,0.07843 0,0.117647 -0.0482,1.333279 0.385699,2.411668 0.578546,2.411668 z"
         id="path1307"
         style="fill:#67536c;fill-opacity:1;stroke-width:0.307457" />
      <path
         class="st12"
         d="m 26.434216,32.637318 2.066403,-8.17614 c 0,0 5.612454,1.745027 6.734948,5.88212 -6.785968,2.097952 -8.80135,2.470488 -8.80135,2.470488 z"
         id="path1336"
         style="fill:#a6ddff;stroke-width:0.223652" />
      <polygon
         class="st13"
         points="285,393.3 253.2,408.8 252,409.4 252.7,408.3 265.1,373.2 266,371.7 253,408.5 272.3,379 253.1,408.8 279.9,384.3 279.8,384.8 257.6,405.6 282.9,390.1 253.5,408.6 284.5,392.4 "
         id="polygon1338"
         transform="matrix(0.25511171,0,0,0.1960706,-38.058016,-47.3987)"
         style="opacity:0.57;fill:#ffffff" />
      <polygon
         class="st14"
         points="253.9,407.8 278.2,381.6 278.5,382 254,407.9 253.4,408.8 "
         id="polygon1340"
         transform="matrix(0.25511171,0,0,0.1960706,-38.058016,-47.3987)"
         style="opacity:0.69;fill:#c2ecff" />
      <polygon
         class="st14"
         points="268.9,374.3 269.5,374.5 252.8,408.9 252.5,408.8 "
         id="polygon1342"
         transform="matrix(0.25511171,0,0,0.1960706,-38.058016,-47.3987)"
         style="opacity:0.69;fill:#c2ecff" />
      <polygon
         class="st14"
         points="275.3,380.1 275.7,380.5 253.2,408.9 252.9,408.7 "
         id="polygon1344"
         transform="matrix(0.25511171,0,0,0.1960706,-38.058016,-47.3987)"
         style="opacity:0.69;fill:#c2ecff" />
    </g>
    <path
       class="st0"
       d="m 49.779605,14.146371 c 0.6492,-0.08161 1.236858,-2.380971 1.663318,-2.875673 0.426443,-0.494695 -0.622051,-4.3756221 -1.293234,-4.4516353 -0.671208,-0.076016 -1.410221,1.3917021 -1.536041,1.8428709 -0.125918,0.4511712 1.165957,5.4844374 1.165957,5.4844374 z"
       id="path1352"
       style="fill:#00665c;fill-opacity:1;stroke-width:0.431218" />
    <path
       class="st1"
       d="m 45.118885,15.517657 c -0.296029,0.538045 -0.468793,0.5254 -0.78247,0.67466 -0.316498,0.192101 -0.448909,0.225466 -0.681879,0.466745 -0.232966,0.241276 -0.948921,1.222183 -0.77899,1.277683 0.169907,0.05557 0.348337,-0.01767 0.532449,-0.176299 0.184103,-0.158759 0.376718,-0.446027 0.376718,-0.446027 0,0 -0.615377,0.772988 -0.537512,0.907855 0.08068,0.09202 1.765058,0.215309 2.03271,0.105672 0.267646,-0.109613 0.601185,-0.558766 0.790968,-0.803206 0.192628,-0.28727 0.920535,-0.793704 1.015437,-0.915933 C 47.224441,16.489713 45.118888,15.5176 45.118888,15.5176 Z"
       id="path1354"
       style="fill:#a05a2c;stroke-width:0.431218" />
    <path
       d="M 47.981136,4.6341997 C 47.904756,4.5091565 47.808847,4.4982945 47.712958,4.487435 v 0 C 47.671418,4.443885 47.438273,4.3787786 47.499205,4.3080737 l 1.95853,-2.0277366 c 0.05453,-0.03267 0.204739,-0.05436 0.130896,0.092372 z"
       id="path1362"
       style="stroke-width:0.431218" />
    <path
       class="st0"
       d="m 48.457731,11.628782 c 0,0 3.044307,1.213092 3.061956,1.601887 0.01201,0.474477 -4.164427,3.744517 -4.164427,3.744517 0,0 -2.186904,-0.894195 -2.512538,-1.219412 0.276163,-0.238117 3.615009,-4.126992 3.615009,-4.126992 z"
       id="path1366"
       style="fill:#00665c;fill-opacity:1;stroke-width:0.431218"
       sodipodi:nodetypes="ccccc" />
    <path
       class="st0"
       d="m 51.808184,30.045399 c -0.35968,-1.90243 -0.554616,-4.484343 -0.537085,-11.463723 l 3.894474,2.380335 c -0.164112,2.967882 -1.179654,6.343555 -1.128564,8.90917 0.0756,2.995031 -1.465699,0.57093 -2.228825,0.174218 z"
       id="path1368"
       style="fill:#00665c;fill-opacity:1;stroke-width:0.431218" />
    <path
       class="st23"
       d="m 50.078303,7.2376168 c 0,0 0.668667,-0.1957706 1.546086,-0.7557494 0.87741,-0.5599767 0.583265,-0.5545045 0.583265,-0.5545045 l 1.624622,1.0760524 c 0,0 -1.678163,4.9683977 -0.152997,4.9084197 0,0 -1.316208,3.419177 -1.092885,6.120668 0.02856,0.119627 -0.556826,7.84915 -0.535251,9.441794 0.112678,4.783368 -1.482015,3.245263 -1.406242,1.081872 0.03395,-0.771862 -0.161425,-1.918767 -0.183412,-2.076392 0.11325,-1.810095 0.205733,-8.082853 -0.0065,-8.843803 C 48.15075,9.656721 49.837101,7.7920816 50.078281,7.2376074 Z"
       id="path1372"
       style="fill:#178066;fill-opacity:1;stroke-width:0.431218" />
    <path
       class="st23"
       d="m 50.000817,6.2592055 c -0.359047,0.3859738 -0.9178,1.369907 -0.9178,1.369907 l 0.492402,-0.021785 -0.147783,0.2935484 0.323687,0.9675131 c 0,0 -0.101977,-1.4078281 0.385488,-1.9731764 0.250172,-0.3207493 -0.135891,-0.635971 -0.135891,-0.635971 z"
       id="path1384"
       style="fill:#ff6600;fill-opacity:1;stroke-width:0.431218" />
    <path
       class="st2"
       d="m 50.574446,3.1825661 c 0.113892,0.4783228 0.247245,0.8425002 1.590702,1.8479259 0.647764,0.4999978 0.09694,0.8642529 0.09694,0.8642529 L 50.91301,7.0662738 50.0783,7.2376168 c 0,0 -0.576377,-0.9185479 -1.672569,-1.0814795 C 47.741046,6.0420097 50.57445,3.1825661 50.57445,3.1825661 Z"
       id="path1386"
       style="fill:#784421;stroke-width:0.431218"
       sodipodi:nodetypes="sccccccs" />
    <path
       class="st2"
       d="M 49.909733,3.0684978 C 49.241454,1.8292514 47.763169,1.0412701 46.469769,1.7480619 c -1.45021,0.766611 -1.534577,1.261266 -0.811874,2.467888 0.152841,0.2500224 0.641274,0.5380495 0.842048,0.7934986 0.120377,0.4402678 0.186335,0.9131649 0.27574,0.9620794 0.09587,0.010857 0.246208,-0.010967 0.44445,-0.027215 0.580347,0.6087263 1.129702,0.8260798 1.552172,0.6412114 0.470436,-0.1794314 1.715893,-0.8916561 1.85218,-1.6907208 0.08436,-0.4946399 -0.33917,-1.1631846 -0.714756,-1.8262819 z"
       id="path1388"
       style="fill:#a05a2c;stroke-width:0.431218" />
    <path
       class="st3"
       d="m 45.133449,2.9929928 c 0.0335,0.6631441 -0.05337,0.8860158 0.330163,0.9294525 0.965362,0.070483 1.069188,-0.5382585 1.398301,-0.4621997 0.329104,0.076117 0.799526,-0.1033749 1.039242,-0.076226 0.239708,0.027147 0.741133,0.2390724 0.741133,0.2390724 l 0.540348,-0.016351 0.381026,-0.2283468 0.436512,0.5924355 1.83983,0.6737911 c 0,0 -0.541411,-0.8370302 -0.603384,-1.6197446 C 51.177115,2.513923 50.969891,2.2965323 50.817062,2.0465094 50.581328,1.7095235 50.520399,1.7802005 50.278168,1.481268 50.042433,1.1442817 49.192438,0.97045501 48.843859,1.00854 c -0.30063,0.0435 -0.546841,0.054462 -0.614254,0.1631448 -0.115329,0.1033324 -0.268177,-0.1467645 -0.719134,-0.081444 -0.450965,0.06532 -0.492393,0.021783 -1.065216,0.2284386 -0.620742,0.2011993 -1.012225,0.7774251 -1.364782,1.1253445 -0.230703,0.2065837 0.05296,0.5489974 0.05296,0.5489974 z"
       id="path1390"
       style="fill:#454837;fill-opacity:1;stroke-width:0.431218" />
    <path
       class="st2"
       d="m 49.036285,3.3186356 c 0.004,-0.3098118 0.426456,-0.4946867 0.688157,-0.3099114 0.261695,0.1847738 0.611339,1.0000832 0.169381,1.2991067 -0.435462,0.2609576 -0.857538,-0.9891953 -0.857538,-0.9891953 z"
       id="path1392"
       style="fill:#a05a2c;stroke-width:0.431218" />
    <path
       class="st4"
       d="m 50.383073,1.7258283 c 0.498899,-0.059893 0.958848,0.1085919 0.824034,0.3260386 -0.176323,0.173953 -1.219498,0.5600253 -2.064473,0.929755 -0.838463,0.331678 -2.660708,1.5603645 -2.897903,1.8050038 -0.230701,0.2065822 -0.496367,0.3316327 -0.838464,0.3316776 -0.34858,0.038074 -1.368363,1.659e-4 -1.16613,-0.3259932 0.202231,-0.3261745 0.744047,-0.9241613 1.090117,-1.2340293 0.346068,-0.3098811 3.699949,-1.6366065 4.144425,-1.6638311 0.403001,-0.070749 0.908394,-0.1686214 0.908394,-0.1686214 z"
       id="path1398"
       style="fill:#ff6600;fill-opacity:1;stroke-width:0.431218" />
    <path
       class="st5"
       d="m 51.095716,1.8453256 c -0.0065,0.03811 -0.01301,0.076078 -0.01947,0.1141882 -0.176316,0.173957 -1.219495,0.5600254 -2.064454,0.9297564 -0.83848,0.3316758 -2.660706,1.5603656 -2.897902,1.8050009 -0.230721,0.2065844 -0.496387,0.3316316 -0.838482,0.3316788 -0.24621,0.010967 -0.834496,0.021884 -1.102684,-0.1248817 0.05695,0.2391608 0.884958,0.2553732 1.185601,0.211823 0.348575,-0.038074 0.607763,-0.1250944 0.838466,-0.3316838 0.230723,-0.2065832 2.052944,-1.4352708 2.897903,-1.8050017 0.838486,-0.3316763 1.929637,-0.7123107 2.064469,-0.9297516 0.061,-0.070639 0.02595,-0.1521962 -0.0634,-0.2011063 z"
       id="path1400"
       style="fill:#ff7f2a;fill-opacity:1;stroke-width:0.431218" />
    <path
       class="st5"
       d="M 50.740649,1.9214616 C 50.622731,1.7529702 50.000981,1.1007711 49.780741,0.959476 48.995646,0.40514129 47.825544,0.38897159 46.686448,0.76417717 45.18578,1.2535734 44.376836,2.5582302 44.975181,3.6344193 c 0.03496,0.081506 0.222765,0.4130749 0.305673,0.5000406 0.377033,0.081547 1.087184,-0.070795 1.41378,-0.2665224 0.489904,-0.2935913 1.264929,-0.8263796 1.844212,-1.0710628 0.790534,-0.3371074 1.226,-0.598059 2.201803,-0.8754131 z"
       id="path1402"
       style="fill:#ff7f2a;fill-opacity:1;stroke-width:0.431218" />
    <path
       class="st4"
       d="M 47.706212,0.80210819 C 48.067777,0.68790474 48.470795,0.61720008 48.819378,0.57909955 48.154672,0.464974 47.409565,0.53582773 46.686448,0.76417717 45.18578,1.2535734 44.376836,2.5582302 44.975181,3.6344193 c 0.03496,0.081506 0.222765,0.4130749 0.305673,0.5000406 0.233214,0.065258 0.533869,0.021616 0.888929,-0.054463 -0.07638,-0.1250408 -0.194278,-0.2935028 -0.229251,-0.375038 -0.591864,-1.1142288 0.217075,-2.4188869 1.76568,-2.90285071 z"
       id="path1404"
       style="fill:#ff6600;fill-opacity:1;stroke-width:0.431218" />
    <path
       class="st6"
       d="m 54.306479,34.59473 c 0.104949,0.244596 0.07998,1.250191 -0.514798,1.299192 -1.093669,0.108844 -1.240002,-0.179252 -1.636542,-0.146525 -0.888931,0.05446 -1.947658,0.24485 -2.67977,0.239501 -0.930389,0.01102 -2.272786,-0.141006 -2.142984,-0.902051 0.09735,-0.570749 0.443409,-0.88063 0.376,-0.771905 -0.280162,0.78276 0.800587,0.750022 1.177627,0.831504 2.205384,0.249765 3.185168,-0.337406 3.590685,-0.136346 0.399047,0.239118 0.73465,0.277127 0.980852,0.266218 0.738606,-0.03275 0.848924,-0.679554 0.848924,-0.679554 z"
       id="path1410"
       style="fill:#24272b;stroke-width:0.431218" />
    <path
       class="st7"
       d="m 54.240537,34.121842 c 0.013,-0.07609 -0.02851,-0.119623 -0.01552,-0.1957 0.108846,-0.06524 -0.08144,-0.668569 -0.08144,-0.668569 0,0 0.490048,-5.452017 0.239469,-3.696271 -0.0649,0.380507 0.314431,-2.989647 -0.101551,-2.842844 -1.60304,0.516596 -4.217916,0.375595 -4.217916,0.375595 -0.256661,0.35879 0.575145,5.223603 0.502308,6.223756 -0.339575,0.271836 -0.768553,0.494748 -1.213013,0.521976 -0.888928,0.05447 -1.906196,0.288329 -1.661446,0.859046 0.244741,0.570717 2.251849,0.836808 3.15376,0.706238 0.901912,-0.130578 1.206518,-0.483921 1.790846,-0.185039 1.12716,0.554301 1.764875,-0.03283 1.604494,-1.098192 z"
       id="path1414"
       style="fill:#ff7f2a;fill-opacity:1;stroke-width:0.431218" />
    <g
       id="g1418"
       transform="matrix(0.47942822,0.05429649,-0.06489753,0.38050381,-64.273405,-146.34873)"
       style="fill:#ff6600">
      <path
         class="st8"
         d="m 304.9,428.2 c 0,0 0.2,-3.5 -0.4,-8.4 -0.5,-4.6 -0.6,-8.5 -1.5,-8 -0.6,0.3 -1.8,0.8 -2.5,1 1.1,2.1 1.4,1.5 2.1,5.1 0.6,3.5 0.9,8.5 1.2,10.9 1.4,1.6 1,5.2 1.4,5.2 2.2,-0.1 -0.3,-5.8 -0.3,-5.8 z"
         id="path1416"
         style="fill:#ff6600" />
    </g>
    <path
       class="st23"
       d="m 54.738144,29.485166 c -0.238258,-0.608772 -1.023596,-4.886533 -1.203447,-5.837749 -0.884784,-5.413795 -2.704083,-5.348333 -2.585408,-8.049866 0.01837,-0.967564 0.623017,-3.652832 0.835684,-4.32689 0.02595,-0.15221 1.073814,1.44031 1.655617,1.467411 l 1.593705,9.566557 c 0.505212,5.060524 3.261649,8.669458 2.585649,11.773293 1.45776,0.0487 -2.189063,-2.924108 -2.881829,-4.592759 z"
       id="path1424"
       style="fill:#178066;fill-opacity:1;stroke-width:0.431218" />
    <path
       class="st0"
       d="m 51.746226,6.340529 0.933315,-1.1742225 c 0,0 3.213212,1.2171917 3.795669,3.5327011 0.490541,1.9948264 1.281305,5.3811304 1.427248,7.1042194 0.391084,0.858787 0.902563,2.15783 0.58854,3.712466 -0.311509,1.826424 -0.148393,6.887004 0.182833,8.66985 1.251367,5.843176 -0.952512,5.011793 -0.952512,5.011793 0,0 0.09468,4.315903 -2.02382,3.843272 0,0 -0.235158,-6.930449 -0.251701,-7.979508 C 55.456237,28.713192 53.783612,18.749865 52.99244,16.798566 52.614341,15.863678 52.553829,14.499347 52.47239,13.830763 51.73645,8.9768214 53.573066,7.0904087 53.43578,7.0360919 52.89292,6.7806695 51.746261,6.340533 51.746261,6.340533 Z"
       id="path1428"
       style="fill:#00665c;fill-opacity:1;stroke-width:0.431218" />
    <path
       class="st3"
       d="m 55.658394,23.01024 h -7.321795 v -4.708181 h 7.321795 z m -6.969776,-0.517372 h 6.617749 v -3.673432 h -6.617749 z"
       id="path995"
       style="fill:#233865;stroke-width:0.426758" />
    <rect
       x="49.850243"
       y="18.032885"
       class="st7"
       width="4.5409112"
       height="1.0241081"
       id="rect1007"
       style="fill:#ff2a2a;fill-opacity:1;stroke-width:0.387563" />
    <path
       class="st22"
       d="m 54.562357,14.183811 c -0.622199,0.782819 -2.03786,3.065961 -2.303532,3.191038 -0.320104,0.157672 -0.763514,1.038296 -0.795963,1.228544 -0.08048,0.18481 -0.164851,0.679473 0.0555,0.820765 0.213753,0.179367 0.449491,0.516341 0.667219,0.385865 0.156847,-0.05981 -0.148853,-0.559865 -0.148853,-0.559865 0,0 0.133353,0.364178 0.529884,0.331506 0.150368,-0.02178 0.629757,0.0325 0.629757,0.0325 0,0 0.111416,0.206558 0.559815,-0.130524 0.224215,-0.168533 0.536785,-1.141552 0.636648,-1.440518 0.106249,-0.337043 1.440151,-1.853747 1.994926,-2.527832 0.493878,-0.603428 -1.825393,-1.331511 -1.825393,-1.331511 z"
       id="path1430"
       style="fill:#a05a2c;stroke-width:0.431218" />
    <path
       class="st23"
       d="m 52.767057,7.231838 c -0.269639,0.4348847 -0.271077,1.0165114 0.224869,2.1198723 0.448036,1.0979607 0.824683,2.6144587 0.842696,3.0819267 0.04004,0.625098 -1.732594,5.001011 -1.732594,5.001011 l 3.114819,0.934549 c 0,0 2.111751,-3.212742 1.868888,-5.800069 0,0 -0.226584,-5.2616993 -2.51736,-5.8701951 C 53.216957,6.3131683 52.767057,7.231838 52.767057,7.231838 Z"
       id="path1432"
       style="fill:#178066;fill-opacity:1;stroke-width:0.431218" />
    <path
       class="st0"
       d="m 50.436938,8.2866561 -0.685646,0.5817044 c 0,0 0.575728,-1.3698615 1.223886,-2.3048804 0.202278,-0.326154 0.657169,-1.9672529 0.657169,-1.9672529 l 1.430742,0.6135169 -0.518787,1.6090165 -0.99779,0.1197142 0.168328,0.4456961 c -0.04803,-0.00544 -0.762064,0.4566968 -1.277902,0.9024852 z"
       id="path1396"
       style="fill:#ff7f2a;stroke-width:0.431218"
       sodipodi:nodetypes="ccccccccc" />
    <path
       class="st6"
       d="m 57.913312,36.94248 c 0.05042,0.277206 0.129392,0.673997 -0.286642,0.820813 -0.470414,0.179438 -0.860453,0.174048 -1.247971,0.440446 -0.9733,0.549115 -2.26775,0.402515 -2.830085,0.261274 -0.466461,-0.130389 -0.919923,-0.336897 -0.976874,-0.576061 -0.0634,-0.201122 -0.01408,-0.777309 0.29963,-0.896916 0.368057,-0.152255 0.08793,0.63052 0.404064,0.78267 0.488431,0.28803 1.863267,0.249837 2.368675,0.151866 0.505381,-0.0979 1.117116,-0.532827 1.641989,-0.744889 0.476899,-0.217485 0.627222,-0.239249 0.627222,-0.239249 z"
       id="path1436"
       style="fill:#24272b;stroke-width:0.431218" />
    <path
       class="st7"
       d="m 53.435162,36.551679 c 0.511867,-0.135956 1.04972,-0.424124 1.482663,-0.956857 -0.08795,-0.630539 0.101732,-2.315603 0.05419,-3.756045 -0.02409,-1.864433 -0.152021,-3.120054 0.225038,-3.038561 1.425303,0.23898 3.362489,0.341992 3.961234,-0.01681 0.544322,-0.326202 0.246851,2.277502 -0.306882,3.804998 -0.434409,1.114357 -0.563113,2.728763 -0.884713,3.468053 0.170841,0.717484 0.169388,1.299108 -0.479834,1.380723 -0.703649,0.114236 -0.732128,-0.0054 -1.276449,0.320859 -0.653193,0.391454 -1.487682,0.413289 -2.302711,0.320985 -1.767388,-0.238979 -1.339478,-1.315261 -0.472535,-1.527346 z"
       id="path1440"
       style="fill:#ff7f2a;stroke-width:0.431218" />
    <g
       id="g1446"
       transform="matrix(0.47942822,0.05429649,-0.06489753,0.38050381,-64.273405,-146.34873)"
       style="fill:#ff6600">
      <g
         id="g1444"
         style="fill:#ff6600">
        <path
           class="st8"
           d="m 308.8,433.9 c -0.7,0 -1.1,0.1 -1.5,0.7 -0.6,0.8 -0.7,-3.9 -1.4,-8.8 -0.7,-4.8 -2.1,-9.9 -1.5,-9.5 0.7,0.4 2.2,0.3 3.2,0.4 -0.1,4.1 -0.3,9.6 1.2,17.2 z"
           id="path1442"
           style="fill:#ff6600" />
      </g>
    </g>
    <polygon
       class="st7"
       points="299.1,183.4 281.4,183.4 278.9,188.6 278.9,195.3 301.6,195.3 301.6,188.6 "
       id="polygon1001"
       transform="matrix(0.35200869,0,0,0.42671167,-50.120228,-57.29691)"
       style="fill:#ff2a2a;fill-opacity:1" />
    <rect
       x="48.407009"
       y="23.09556"
       class="st3"
       width="7.427382"
       height="0.25602701"
       id="rect1015"
       style="fill:#233865;stroke-width:0.387563" />
    <path
       class="st3"
       d="m 52.384699,25.143809 h -0.528001 c -0.246408,0 -0.422414,-0.213363 -0.422414,-0.512061 v -1.920205 c 0,-0.298698 0.176006,-0.512065 0.422414,-0.512065 h 0.528001 c 0.246409,0 0.422415,0.213367 0.422415,0.512065 v 1.920205 c 0,0.256022 -0.211208,0.512061 -0.422415,0.512061 z m -0.528001,-2.560272 c -0.03524,0 -0.07036,0.04262 -0.07036,0.08537 v 1.920218 c 0,0.04274 0.03524,0.08538 0.07036,0.08538 h 0.528001 c 0.03524,0 0.07037,-0.04274 0.07037,-0.08538 v -1.920219 c 0,-0.04274 -0.03524,-0.08538 -0.07037,-0.08538 z"
       id="path1021"
       style="fill:#233865;stroke-width:0.387563" />
    <path
       style="fill:#67536c;stroke:none;stroke-width:0.264583px;stroke-linecap:butt;stroke-linejoin:miter;stroke-opacity:1;fill-opacity:1"
       d="m 23.213198,37.108943 c -0.03266,0.334846 -0.09796,1.004303 -0.526882,1.445604 -0.428919,0.4413 -1.221627,0.654721 -5.074094,0.798905 -3.852467,0.144184 -10.7644834,0.219078 -14.6671363,0.280052 -3.902653,0.06097 -4.7957566,0.108035 -5.2272015,-0.340894 -0.4314449,-0.448929 -0.4009561,-1.394081 -0.3704753,-2.003882 0.030481,-0.609801 0.06097,-0.8842 3.7503909,-1.280692 3.6894213,-0.396491 11.0372102,-0.9148 15.3379042,-0.863134 4.300694,0.05166 5.554022,0.673114 6.181059,1.039697 0.627036,0.366582 0.628069,0.47817 0.628585,0.533834 5.15e-4,0.05566 5.12e-4,0.05566 -0.03215,0.39051 z"
       id="path29580"
       inkscape:path-effect="#path-effect29582"
       inkscape:original-d="m 23.24586,36.774096 c -0.06504,0.669721 -0.130338,1.339178 -0.195904,2.00837 -0.792475,0.213693 -1.585182,0.427117 -2.37817,0.640276 -6.912028,0.07516 -13.8240445,0.150055 -20.7364637,0.224686 -0.89287485,0.04733 -1.7859785,0.09439 -2.6793647,0.141187 0.030755,-0.944925 0.061243,-1.890077 0.091468,-2.83551 0.030755,-0.274146 0.061243,-0.548545 0.091468,-0.823214 7.3483473,-0.518065 14.6961364,-1.036373 22.0438074,-1.554956 1.253644,0.621739 2.506973,1.243187 3.760062,1.864386 0.0013,0.111858 0.0023,0.223446 0.0031,0.334775 z" />
  </g>
</svg>
