<?xml version="1.0" encoding="UTF-8" standalone="no"?>
<!-- Created with Inkscape (http://www.inkscape.org/) -->

<svg
   width="210mm"
   height="297mm"
   viewBox="0 0 210 297"
   version="1.1"
   id="svg10105"
   inkscape:version="1.1 (c68e22c387, 2021-05-23)"
   sodipodi:docname="dessin.svg"
   xmlns:inkscape="http://www.inkscape.org/namespaces/inkscape"
   xmlns:sodipodi="http://sodipodi.sourceforge.net/DTD/sodipodi-0.dtd"
   xmlns="http://www.w3.org/2000/svg"
   xmlns:svg="http://www.w3.org/2000/svg">
  <sodipodi:namedview
     id="namedview10107"
     pagecolor="#505050"
     bordercolor="#eeeeee"
     borderopacity="1"
     inkscape:pageshadow="0"
     inkscape:pageopacity="0"
     inkscape:pagecheckerboard="0"
     inkscape:document-units="mm"
     showgrid="false"
     inkscape:zoom="0.51134961"
     inkscape:cx="396.01086"
     inkscape:cy="562.23765"
     inkscape:window-width="1920"
     inkscape:window-height="1001"
     inkscape:window-x="-9"
     inkscape:window-y="-9"
     inkscape:window-maximized="1"
     inkscape:current-layer="layer1" />
  <defs
     id="defs10102">
    <linearGradient
       id="SVGID_24_"
       gradientUnits="userSpaceOnUse"
       x1="364.2486"
       y1="270.81021"
       x2="362.25861"
       y2="253.52921"
       gradientTransform="matrix(1.5995203,0,0,1.4718669,-499.09861,-252.1621)">
      <stop
         offset="0"
         style="stop-color:#FFFFFF"
         id="stop2288" />
      <stop
         offset="0.1293"
         style="stop-color:#E6E6E6"
         id="stop2290" />
      <stop
         offset="0.5229"
         style="stop-color:#A1A1A1"
         id="stop2292" />
      <stop
         offset="0.8069"
         style="stop-color:#757575"
         id="stop2294" />
      <stop
         offset="0.9505"
         style="stop-color:#646464"
         id="stop2296" />
    </linearGradient>
    <linearGradient
       id="SVGID_23_"
       gradientUnits="userSpaceOnUse"
       x1="412.27161"
       y1="267.89011"
       x2="410.87299"
       y2="255.7444"
       gradientTransform="matrix(1.5995203,0,0,1.4718669,-499.09861,-252.1621)">
      <stop
         offset="0"
         style="stop-color:#FFFFFF"
         id="stop2237" />
      <stop
         offset="0.1293"
         style="stop-color:#E6E6E6"
         id="stop2239" />
      <stop
         offset="0.5229"
         style="stop-color:#A1A1A1"
         id="stop2241" />
      <stop
         offset="0.8069"
         style="stop-color:#757575"
         id="stop2243" />
      <stop
         offset="0.9505"
         style="stop-color:#646464"
         id="stop2245" />
    </linearGradient>
  </defs>
  <g
     inkscape:label="Calque 1"
     inkscape:groupmode="layer"
     id="layer1">
    <g
       id="g11529">
      <rect
         x="35.301163"
         y="96.081627"
         class="st70"
         width="94.691605"
         height="152.4854"
         id="rect1729"
         style="fill:#cc9a89;stroke-width:1.53436" />
      <path
         class="st71"
         d="M 82.167096,96.228809 V 95.934528 Z"
         id="path1731"
         style="fill:#f2ddd6;stroke-width:1.53436" />
      <path
         class="st71"
         d="m 71.930166,101.52752 v -5.298711 h 15.675306 v 5.004331 0.29428 z m 15.195452,-0.29426 v -0.29429 z M 72.729929,100.93897 H 86.8057 V 96.670499 H 72.729929 Z"
         id="path1733"
         style="fill:#f2ddd6;stroke-width:1.53436" />
      <path
         class="st71"
         d="m 56.734725,101.52752 v -5.298711 h 15.675296 v 5.004331 0.29428 z m 15.195441,-0.29426 v -0.29429 z M 57.374532,100.93897 H 71.45031 V 96.670499 H 57.374532 Z"
         id="path1735"
         style="fill:#f2ddd6;stroke-width:1.53436" />
      <path
         class="st71"
         d="m 41.379331,101.52752 v -5.298711 h 15.675296 v 5.004331 0.29428 z m 15.195439,-0.29426 v -0.29429 z M 42.179086,100.93897 H 56.25487 V 96.670499 H 42.179086 Z"
         id="path1737"
         style="fill:#f2ddd6;stroke-width:1.53436" />
      <path
         class="st71"
         d="m 78.168297,106.67905 v -5.29871 h 15.675294 v 5.15151 0.29428 H 78.168297 Z m 15.195439,-0.29428 v -0.29429 z m -14.395682,-0.29429 h 14.07578 v -4.2684 h -14.07578 z"
         id="path1739"
         style="fill:#f2ddd6;stroke-width:1.53436" />
      <path
         class="st71"
         d="m 62.812899,106.67905 v -5.29871 h 15.6753 v 5.00431 0.29428 z m 15.355398,-0.29428 v -0.29429 z m -14.555634,-0.29429 h 14.07578 v -4.2684 h -14.07578 z"
         id="path1741"
         style="fill:#f2ddd6;stroke-width:1.53436" />
      <path
         class="st71"
         d="m 47.61746,106.67905 v -5.29871 h 15.675295 v 5.15151 0.29428 H 47.61746 Z m 15.195439,-0.29428 v -0.29429 z m -14.555633,-0.29429 h 14.075778 v -4.2684 H 48.257266 Z"
         id="path1743"
         style="fill:#f2ddd6;stroke-width:1.53436" />
      <path
         class="st71"
         d="m 70.490597,111.38904 v -5.29872 h 15.675297 v 5.00433 0.29428 z m 15.195443,-0.14741 v -0.29429 z m -14.395679,-0.29429 h 14.075777 v -4.26841 H 71.290361 Z"
         id="path1745"
         style="fill:#f2ddd6;stroke-width:1.53436" />
      <path
         class="st71"
         d="m 55.295158,111.38904 v -5.29872 h 15.675296 v 5.00433 0.29428 z m 15.195439,-0.14741 v -0.29429 z m -14.555633,-0.29429 h 14.075778 v -4.26841 H 55.934964 Z"
         id="path1747"
         style="fill:#f2ddd6;stroke-width:1.53436" />
      <path
         class="st71"
         d="m 39.939762,111.38904 v -5.29872 h 15.675296 v 5.00433 0.29428 z m 15.19544,-0.14741 v -0.29429 z m -14.395684,-0.29429 h 14.075783 v -4.26841 H 40.739518 Z"
         id="path1749"
         style="fill:#f2ddd6;stroke-width:1.53436" />
      <path
         class="st71"
         d="m 75.928978,116.54057 v -5.29872 h 15.675293 v 5.00433 0.29428 z m 15.355375,-0.29428 v -0.29428 z M 76.72872,115.95201 h 14.075779 v -4.26846 H 76.72872 Z"
         id="path1751"
         style="fill:#f2ddd6;stroke-width:1.53436" />
      <path
         class="st71"
         d="M 50.816497,96.228809 V 95.934528 Z"
         id="path1753"
         style="fill:#f2ddd6;stroke-width:1.53436" />
      <path
         class="st71"
         d="m 35.621057,126.54929 v -5.29874 h 15.675296 v 5.15154 0.29428 H 35.621057 Z m 15.19544,-0.14743 v -0.29428 z m -14.395683,-0.29428 h 14.075783 v -4.26839 H 36.420814 Z"
         id="path1755"
         style="fill:#f2ddd6;stroke-width:1.53436" />
      <path
         class="st71"
         d="m 47.61746,116.54057 v -5.29872 h 15.675295 v 5.00433 0.29428 z m 15.195439,-0.29428 v -0.29428 z m -14.555633,-0.29428 h 14.075778 v -4.26846 H 48.257266 Z"
         id="path1757"
         style="fill:#f2ddd6;stroke-width:1.53436" />
      <path
         class="st71"
         d="m 81.047437,121.6921 v -5.29873 h 15.675292 v 5.00434 0.29428 z m 15.195438,-0.29429 v -0.29427 z m -14.395682,-0.29427 h 14.075779 v -4.26841 H 81.847193 Z"
         id="path1759"
         style="fill:#f2ddd6;stroke-width:1.53436" />
      <path
         class="st71"
         d="m 65.692036,121.6921 v -5.29873 h 15.675303 v 5.00434 0.29428 z m 15.355401,-0.29429 v -0.29427 z m -14.555638,-0.29427 h 14.075783 v -4.26841 H 66.491799 Z"
         id="path1761"
         style="fill:#f2ddd6;stroke-width:1.53436" />
      <path
         class="st71"
         d="m 50.496597,121.6921 v -5.29873 h 15.675296 v 5.00434 0.29428 z m 15.195439,-0.29429 v -0.29427 z m -14.395683,-0.29427 h 14.075783 v -4.26841 H 51.296353 Z"
         id="path1763"
         style="fill:#f2ddd6;stroke-width:1.53436" />
      <path
         class="st71"
         d="m 112.07813,111.38904 v -5.29872 h 15.6753 v 5.00433 0.29428 z m 15.19545,-0.29427 v -0.29428 z m -14.39569,-0.29428 h 14.07578 v -4.26842 h -14.07578 z"
         id="path1765"
         style="fill:#f2ddd6;stroke-width:1.53436" />
      <path
         class="st71"
         d="m 96.722729,111.38904 v -5.29872 h 15.675301 v 5.00433 0.29428 z m 15.355401,-0.29427 v -0.29428 z m -14.555644,-0.29428 h 14.075794 v -4.26842 H 97.522486 Z"
         id="path1767"
         style="fill:#f2ddd6;stroke-width:1.53436" />
      <path
         class="st71"
         d="m 106.63975,116.54057 v -5.29872 h 15.6753 v 5.00433 0.29428 z m 15.19545,-0.29428 v -0.29428 z m -14.39569,-0.29428 h 14.07579 v -4.26846 h -14.07579 z"
         id="path1769"
         style="fill:#f2ddd6;stroke-width:1.53436" />
      <path
         class="st71"
         d="m 114.4774,121.6921 v -5.29873 h 15.67531 v 5.00434 0.29428 z m 15.19545,-0.29429 v -0.29427 z m -14.55564,-0.29427 h 14.07578 v -4.26841 h -14.07578 z"
         id="path1771"
         style="fill:#f2ddd6;stroke-width:1.53436" />
      <path
         class="st71"
         d="m 87.285554,126.84362 v -5.29871 h 15.675306 v 5.00438 0.29428 z m 15.195456,-0.29429 v -0.29427 z m -14.555635,-0.29427 h 14.075775 v -4.26841 H 87.925375 Z"
         id="path1773"
         style="fill:#f2ddd6;stroke-width:1.53436" />
      <path
         class="st71"
         d="m 71.930166,126.84362 v -5.29871 h 15.675306 v 5.00438 0.29428 z m 15.195452,-0.29429 v -0.29427 z M 72.729929,126.25506 H 86.8057 v -4.26841 H 72.729929 Z"
         id="path1775"
         style="fill:#f2ddd6;stroke-width:1.53436" />
      <path
         class="st71"
         d="m 56.734725,126.84362 v -5.29871 h 15.675296 v 5.00438 0.29428 z m 15.195441,-0.29429 v -0.29427 z M 57.374532,126.25506 H 71.45031 v -4.26841 H 57.374532 Z"
         id="path1777"
         style="fill:#f2ddd6;stroke-width:1.53436" />
      <path
         class="st71"
         d="m 79.607859,131.55361 v -5.29872 h 15.675308 v 5.15153 0.29428 H 79.607859 Z m 15.195454,-0.29428 v -0.29428 z M 80.407631,130.96505 H 94.48341 v -4.26846 H 80.407631 Z"
         id="path1779"
         style="fill:#f2ddd6;stroke-width:1.53436" />
      <path
         class="st71"
         d="m 64.252468,131.55361 v -5.29872 h 15.675309 v 5.00433 0.29428 z m 15.355391,-0.29428 v -0.29428 z M 65.05223,130.96505 h 14.075775 v -4.26846 H 65.05223 Z"
         id="path1781"
         style="fill:#f2ddd6;stroke-width:1.53436" />
      <path
         class="st71"
         d="m 49.057029,131.55361 v -5.29872 h 15.675295 v 5.00433 0.29428 z m 15.195439,-0.29428 v -0.29428 z m -14.395684,-0.29428 h 14.075783 v -4.26846 H 49.856784 Z"
         id="path1783"
         style="fill:#f2ddd6;stroke-width:1.53436" />
      <path
         class="st71"
         d="m 57.694438,146.56665 v -0.2944 z"
         id="path1785"
         style="fill:#f2ddd6;stroke-width:1.53436" />
      <path
         class="st71"
         d="m 77.048637,161.87409 v -5.29872 h 15.675294 v 5.00432 0.29428 z m 15.355391,-0.29428 v -0.29429 z m -14.555634,-0.29429 h 14.07578 v -4.2684 h -14.07578 z"
         id="path1787"
         style="fill:#f2ddd6;stroke-width:1.53436" />
      <path
         class="st71"
         d="m 125.51411,151.71818 v -0.29429 z"
         id="path1789"
         style="fill:#f2ddd6;stroke-width:1.53436" />
      <path
         class="st71"
         d="m 110.1587,151.71818 v -0.29429 z"
         id="path1791"
         style="fill:#f2ddd6;stroke-width:1.53436" />
      <path
         class="st71"
         d="m 102.32106,136.70514 v -5.29872 h 15.67529 v 5.00432 0.29428 z m 15.35539,-0.29428 v -0.29428 z M 103.12081,136.264 h 14.07579 v -4.26846 h -14.07579 z"
         id="path1793"
         style="fill:#f2ddd6;stroke-width:1.53436" />
      <path
         class="st71"
         d="m 87.125618,136.70514 v -5.29872 h 15.675292 v 5.00432 0.29428 z m 15.195442,-0.29428 v -0.29428 z M 87.925375,136.264 h 14.075775 v -4.26846 H 87.925375 Z"
         id="path1795"
         style="fill:#f2ddd6;stroke-width:1.53436" />
      <path
         class="st71"
         d="m 108.07932,161.87409 v -5.29872 h 15.67531 v 5.00432 0.29428 z m 15.19545,-0.29428 v -0.29429 z m -14.55563,-0.29429 h 14.07578 v -4.2684 h -14.07578 z"
         id="path1797"
         style="fill:#f2ddd6;stroke-width:1.53436" />
      <path
         class="st71"
         d="m 111.11841,182.18585 v -5.15157 h 15.19544 v 5.00438 0.29427 h -15.19544 z m 14.71558,-0.29429 v -0.29428 z m -14.07577,-0.29428 h 13.75589 v -4.12119 h -13.75589 z"
         id="path1799"
         style="fill:#f2ddd6;stroke-width:1.53436" />
      <path
         class="st71"
         d="m 96.242875,182.18585 v -5.15157 h 15.195445 v 5.00438 0.29427 H 96.242875 Z m 14.715585,-0.29429 v -0.29428 z m -14.075779,-0.29428 h 13.755879 v -4.12119 H 96.882681 Z"
         id="path1801"
         style="fill:#f2ddd6;stroke-width:1.53436" />
      <path
         class="st71"
         d="m 102.16111,187.19018 v -5.15152 h 15.19544 v 5.00432 0.29428 h -15.19544 z m 14.87554,-0.29428 v -0.29429 z m -14.07579,-0.29429 h 13.75588 v -4.12126 h -13.75588 z"
         id="path1803"
         style="fill:#f2ddd6;stroke-width:1.53436" />
      <path
         class="st71"
         d="m 109.5189,172.32433 v -5.15152 h 15.19543 v 5.00432 0.29429 H 109.5189 Z m 14.87553,-0.29428 v -0.29428 z m -14.23573,-0.29428 h 13.75588 v -4.12121 H 110.1587 Z"
         id="path1805"
         style="fill:#f2ddd6;stroke-width:1.53436" />
      <path
         class="st71"
         d="m 114.79731,177.32867 v -5.15154 h 15.19545 v 5.00434 0.29428 h -15.19545 z m 14.87554,-0.29429 v -0.29428 z m -14.07577,-0.29428 h 13.75588 v -4.12126 h -13.75588 z"
         id="path1807"
         style="fill:#f2ddd6;stroke-width:1.53436" />
      <path
         class="st71"
         d="m 109.67885,191.75298 v -5.15153 h 15.19544 v 5.00433 0.29428 h -15.19544 z m 14.87553,-0.14742 v -0.29429 z m -14.23572,-0.29429 h 13.75587 v -4.12121 h -13.75587 z"
         id="path1809"
         style="fill:#f2ddd6;stroke-width:1.53436" />
      <path
         class="st71"
         d="m 114.4774,196.75731 v -5.15153 h 15.19545 v 5.00433 0.29429 H 114.4774 Z m 14.87556,-0.29428 v -0.29428 z m -14.23575,-0.29428 h 13.75588 v -4.12126 h -13.75588 z"
         id="path1811"
         style="fill:#f2ddd6;stroke-width:1.53436" />
      <path
         class="st71"
         d="m 51.936165,141.56232 v -0.29428 z"
         id="path1813"
         style="fill:#f2ddd6;stroke-width:1.53436" />
      <path
         class="st71"
         d="m 58.174295,136.85233 v -5.29872 h 15.675296 v 5.00433 0.29428 z m 15.355395,-0.29427 v -0.14743 z m -14.55564,-0.14743 h 14.075785 v -4.26829 H 58.97405 Z"
         id="path1815"
         style="fill:#f2ddd6;stroke-width:1.53436" />
      <path
         class="st71"
         d="m 36.740719,172.02994 v -5.29872 h 15.675302 v 5.15152 0.29429 H 36.740719 Z m 15.195446,-0.29428 v -0.29428 z M 37.540482,171.44138 H 51.61626 v -4.26841 H 37.540482 Z"
         id="path1817"
         style="fill:#f2ddd6;stroke-width:1.53436" />
      <path
         class="st71"
         d="m 48.737121,161.87409 v -5.29872 h 15.675303 v 5.00432 0.29428 z m 15.195446,-0.29428 v -0.29429 z m -14.395682,-0.29429 h 14.075778 v -4.2684 H 49.536885 Z"
         id="path1819"
         style="fill:#f2ddd6;stroke-width:1.53436" />
      <path
         class="st71"
         d="m 82.167096,167.02561 v -5.29872 h 15.675293 v 5.00433 0.29428 z m 15.195439,-0.29428 v -0.29428 z m -14.395682,-0.29428 h 14.075779 v -4.26839 H 82.966853 Z"
         id="path1821"
         style="fill:#f2ddd6;stroke-width:1.53436" />
      <path
         class="st71"
         d="m 66.971654,167.02561 v -5.29872 H 82.64695 v 5.00433 0.29428 z m 15.195442,-0.29428 v -0.29428 z m -14.555635,-0.29428 h 14.075781 v -4.26839 H 67.611461 Z"
         id="path1823"
         style="fill:#f2ddd6;stroke-width:1.53436" />
      <path
         class="st71"
         d="m 51.61626,167.02561 v -5.29872 h 15.675301 v 5.00433 0.29428 z m 15.195444,-0.29428 v -0.29428 z m -14.395683,-0.29428 h 14.075778 v -4.26862 H 52.416021 Z"
         id="path1825"
         style="fill:#f2ddd6;stroke-width:1.53436" />
      <path
         class="st71"
         d="m 88.405229,172.17713 v -5.29872 h 15.675291 v 5.00433 0.29429 z m 15.195441,-0.29427 v -0.29428 z m -14.555636,-0.29428 h 14.075776 v -4.26846 H 89.045034 Z"
         id="path1827"
         style="fill:#f2ddd6;stroke-width:1.53436" />
      <path
         class="st71"
         d="m 73.049835,172.17713 v -5.29872 h 15.675297 v 5.00433 0.29429 z m 15.355394,-0.29427 v -0.29428 z m -14.555638,-0.29428 h 14.075784 v -4.26846 H 73.849591 Z"
         id="path1829"
         style="fill:#f2ddd6;stroke-width:1.53436" />
      <path
         class="st71"
         d="m 57.854388,172.17713 v -5.29872 H 73.52969 v 5.15153 0.29429 H 57.854388 Z m 15.195447,-0.29427 v -0.29428 z m -14.55564,-0.29428 h 14.075783 v -4.26846 H 58.494195 Z"
         id="path1831"
         style="fill:#f2ddd6;stroke-width:1.53436" />
      <path
         class="st71"
         d="m 80.727534,176.88712 v -5.29871 h 15.675293 v 5.00434 0.29428 z m 15.195438,-0.29427 v -0.29428 z M 81.527291,176.29857 H 95.60307 v -4.2684 H 81.527291 Z"
         id="path1833"
         style="fill:#f2ddd6;stroke-width:1.53436" />
      <path
         class="st71"
         d="m 65.532087,176.88712 v -5.29871 h 15.675301 v 5.00434 0.29428 z m 15.195447,-0.29427 v -0.29428 z M 66.171893,176.29857 H 80.24768 v -4.2684 H 66.171893 Z"
         id="path1835"
         style="fill:#f2ddd6;stroke-width:1.53436" />
      <path
         class="st71"
         d="m 50.17669,176.88712 v -5.29871 h 15.675301 v 5.00434 0.29428 z m 15.195446,-0.29427 v -0.29428 z M 50.976452,176.29857 H 65.05223 v -4.2684 H 50.976452 Z"
         id="path1837"
         style="fill:#f2ddd6;stroke-width:1.53436" />
      <path
         class="st71"
         d="m 81.047437,186.89579 v -5.29871 h 15.675292 v 5.00437 0.29428 z m 15.195438,-0.29428 v -0.29429 z m -14.395682,-0.29429 h 14.075779 v -4.2684 H 81.847193 Z"
         id="path1839"
         style="fill:#f2ddd6;stroke-width:1.53436" />
      <path
         class="st71"
         d="m 86.165894,191.90018 v -5.29873 h 15.675296 v 5.00433 0.29428 z m 15.195436,-0.14742 v -0.29429 z M 86.8057,191.45847 h 14.07578 v -4.26841 H 86.8057 Z"
         id="path1841"
         style="fill:#f2ddd6;stroke-width:1.53436" />
      <path
         class="st71"
         d="m 70.810503,191.90018 v -5.29873 h 15.675309 v 5.00433 0.29428 z m 15.19544,-0.29428 v -0.29428 z M 71.610266,191.45847 H 85.68604 v -4.26841 H 71.610266 Z"
         id="path1843"
         style="fill:#f2ddd6;stroke-width:1.53436" />
      <path
         class="st71"
         d="m 55.615058,191.90018 v -5.29873 h 15.675303 v 5.00433 0.29428 z m 15.195445,-0.29428 v -0.29428 z M 56.25487,191.45847 h 14.075778 v -4.26841 H 56.25487 Z"
         id="path1845"
         style="fill:#f2ddd6;stroke-width:1.53436" />
      <path
         class="st71"
         d="m 92.244077,197.0517 v -5.29872 h 12.316303 v 5.15152 0.29429 H 92.244077 Z m 11.996393,-0.29428 v -0.29428 z m -11.196636,-0.29428 h 10.876736 v -4.12121 H 93.043834 Z"
         id="path1847"
         style="fill:#f2ddd6;stroke-width:1.53436" />
      <path
         class="st71"
         d="m 77.048637,197.0517 v -5.29872 h 15.675294 v 5.15152 0.29429 H 77.048637 Z m 15.19544,-0.29428 v -0.29428 z m -14.555634,-0.29428 h 14.07578 v -4.26863 h -14.07578 z"
         id="path1849"
         style="fill:#f2ddd6;stroke-width:1.53436" />
      <path
         class="st71"
         d="m 61.693237,197.0517 v -5.29872 H 77.36854 v 5.15152 0.29429 H 61.693237 Z m 15.3554,-0.29428 v -0.29428 z M 62.493,196.46314 h 14.075783 v -4.26863 H 62.493 Z"
         id="path1851"
         style="fill:#f2ddd6;stroke-width:1.53436" />
      <path
         class="st71"
         d="m 84.726332,201.90884 v -5.29873 h 15.675298 v 5.00438 0.29429 z m 15.19544,-0.29429 v -0.29428 z m -14.555634,-0.29428 h 14.07578 v -4.2684 h -14.07578 z"
         id="path1853"
         style="fill:#f2ddd6;stroke-width:1.53436" />
      <path
         class="st71"
         d="m 69.370935,201.90884 v -5.29873 h 15.6753 v 5.00438 0.29429 z m 15.195446,-0.29429 v -0.29428 z m -14.395683,-0.29428 h 14.07578 v -4.2684 h -14.07578 z"
         id="path1855"
         style="fill:#f2ddd6;stroke-width:1.53436" />
      <path
         class="st71"
         d="m 54.015539,201.90884 v -5.29873 h 15.675302 v 5.00438 0.29429 z m 15.355396,-0.29429 v -0.29428 z m -14.555634,-0.29428 h 14.075778 v -4.2684 H 54.815301 Z"
         id="path1857"
         style="fill:#f2ddd6;stroke-width:1.53436" />
      <path
         class="st71"
         d="m 46.817698,206.91322 v -5.29873 H 62.493 v 5.15153 0.29428 H 46.817698 Z m 15.195447,-0.29429 v -0.29428 z m -14.555641,-0.29428 h 14.075783 v -4.2684 H 47.457504 Z"
         id="path1859"
         style="fill:#f2ddd6;stroke-width:1.53436" />
      <path
         class="st71"
         d="m 49.696835,186.89579 v -5.29871 h 15.675301 v 5.00437 0.29428 z m 15.355395,-0.29428 v -0.29429 z m -14.555633,-0.29429 h 14.075776 v -4.2684 H 50.496597 Z"
         id="path1861"
         style="fill:#f2ddd6;stroke-width:1.53436" />
      <path
         class="st71"
         d="m 71.290361,181.89146 v -5.29871 h 15.675305 v 5.00433 0.29426 z m 15.195451,-0.29429 v -0.29427 z m -14.555646,-0.14741 h 14.075777 v -4.2684 H 71.930166 Z"
         id="path1863"
         style="fill:#f2ddd6;stroke-width:1.53436" />
      <path
         class="st71"
         d="m 61.693237,206.91322 v -5.29873 H 77.36854 v 5.15153 0.29428 H 61.693237 Z m 15.3554,-0.29429 v -0.29428 z M 62.493,206.32465 h 14.075783 v -4.2684 H 62.493 Z"
         id="path1865"
         style="fill:#f2ddd6;stroke-width:1.53436" />
      <path
         class="st71"
         d="m 69.370935,212.06474 v -5.29872 h 15.6753 v 5.00433 0.29428 z m 15.195446,-0.29427 v -0.29429 z m -14.395683,-0.29429 h 14.07578 v -4.26841 h -14.07578 z"
         id="path1867"
         style="fill:#f2ddd6;stroke-width:1.53436" />
      <path
         class="st71"
         d="m 54.015539,212.06474 v -5.29872 h 15.675302 v 5.00433 0.29428 z m 15.355396,-0.29427 v -0.29429 z m -14.555634,-0.29429 h 14.075778 v -4.26841 H 54.815301 Z"
         id="path1869"
         style="fill:#f2ddd6;stroke-width:1.53436" />
      <path
         class="st71"
         d="m 38.820094,212.06474 v -5.29872 h 15.675303 v 5.00433 0.29428 z m 15.195445,-0.29427 v -0.29429 z m -14.395684,-0.29429 h 14.075778 v -4.26841 H 39.619855 Z"
         id="path1871"
         style="fill:#f2ddd6;stroke-width:1.53436" />
      <path
         class="st71"
         d="m 85.68604,217.21627 v -5.29872 h 15.67529 v 5.00433 0.29427 z m 15.19544,-0.29428 v -0.29428 z m -14.395668,-0.29428 h 14.075768 v -4.26846 H 86.485812 Z"
         id="path1873"
         style="fill:#f2ddd6;stroke-width:1.53436" />
      <path
         class="st71"
         d="m 70.330648,217.21627 v -5.29872 h 15.675295 v 5.00433 0.29427 z m 15.355392,-0.29428 v -0.29428 z m -14.55563,-0.29428 h 14.075776 v -4.26846 H 71.13041 Z"
         id="path1875"
         style="fill:#f2ddd6;stroke-width:1.53436" />
      <path
         class="st71"
         d="m 55.135202,217.21627 v -5.29872 h 15.675301 v 5.00433 0.29427 z m 15.195446,-0.29428 v -0.29428 z m -14.395684,-0.29428 h 14.075778 v -4.26846 H 55.934964 Z"
         id="path1877"
         style="fill:#f2ddd6;stroke-width:1.53436" />
      <path
         class="st71"
         d="m 78.008345,221.92625 v -5.29872 h 15.675294 v 5.00433 0.29428 z m 15.355391,-0.29427 V 221.3377 Z M 78.808102,221.3377 h 14.07578 v -4.2684 h -14.07578 z"
         id="path1879"
         style="fill:#f2ddd6;stroke-width:1.53436" />
      <path
         class="st71"
         d="m 62.812899,221.92625 v -5.29872 h 15.6753 v 5.00433 0.29428 z m 15.195446,-0.29427 V 221.3377 Z M 63.452712,221.3377 h 14.075779 v -4.2684 H 63.452712 Z"
         id="path1881"
         style="fill:#f2ddd6;stroke-width:1.53436" />
      <path
         class="st71"
         d="m 47.457504,221.92625 v -5.29872 h 15.675301 v 5.00433 0.29428 z M 62.65295,221.63198 V 221.3377 Z M 48.257266,221.3377 h 14.075778 v -4.2684 H 48.257266 Z"
         id="path1883"
         style="fill:#f2ddd6;stroke-width:1.53436" />
      <path
         class="st71"
         d="m 80.887485,231.78772 v -5.29873 h 15.675293 v 5.0044 0.29428 z m 15.35539,-0.29429 v -0.29428 z m -14.555633,-0.29428 h 14.075779 v -4.26839 H 81.687242 Z"
         id="path1885"
         style="fill:#f2ddd6;stroke-width:1.53436" />
      <path
         class="st71"
         d="m 86.005943,236.9393 v -5.29871 h 15.675307 v 5.00433 0.29426 z m 15.195437,-0.29429 v -0.29427 z M 86.8057,236.35074 h 14.07578 v -4.2684 H 86.8057 Z"
         id="path1887"
         style="fill:#f2ddd6;stroke-width:1.53436" />
      <path
         class="st71"
         d="m 70.650553,236.9393 v -5.29871 h 15.675293 v 5.00433 0.29426 z m 15.35539,-0.29429 v -0.29427 z M 71.45031,236.35074 h 14.075779 v -4.2684 H 71.45031 Z"
         id="path1889"
         style="fill:#f2ddd6;stroke-width:1.53436" />
      <path
         class="st71"
         d="m 55.455107,236.9393 v -5.29871 H 71.13041 v 5.00433 0.29426 z m 15.195446,-0.29429 v -0.29427 z M 56.25487,236.35074 h 14.075778 v -4.2684 H 56.25487 Z"
         id="path1891"
         style="fill:#f2ddd6;stroke-width:1.53436" />
      <path
         class="st71"
         d="m 92.244077,241.94363 v -5.29871 h 12.316303 v 5.15151 0.29428 H 92.244077 Z m 11.996393,-0.29428 v -0.29429 z M 92.883882,241.35506 H 103.76062 V 237.0866 H 92.883882 Z"
         id="path1893"
         style="fill:#f2ddd6;stroke-width:1.53436" />
      <path
         class="st71"
         d="m 76.888686,241.94363 v -5.29871 H 92.56398 v 5.15151 0.29428 H 76.888686 Z m 15.195439,-0.29428 v -0.29429 z m -14.395682,-0.29429 h 14.07578 v -4.26846 h -14.07578 z"
         id="path1895"
         style="fill:#f2ddd6;stroke-width:1.53436" />
      <path
         class="st71"
         d="m 61.693237,241.94363 v -5.29871 H 77.36854 v 5.15151 0.29428 H 61.693237 Z m 15.195449,-0.29428 v -0.29429 z M 62.333044,241.35506 H 76.408832 V 237.0866 H 62.333044 Z"
         id="path1897"
         style="fill:#f2ddd6;stroke-width:1.53436" />
      <path
         class="st71"
         d="m 84.566381,246.80076 v -5.29871 h 15.675289 v 5.00438 0.29428 z M 99.76182,246.50648 V 246.2122 Z M 85.366138,246.2122 h 14.07578 v -4.2684 h -14.07578 z"
         id="path1899"
         style="fill:#f2ddd6;stroke-width:1.53436" />
      <path
         class="st71"
         d="m 69.210985,246.80076 v -5.29871 h 15.675299 v 5.00438 0.29428 z m 15.355396,-0.29428 V 246.2122 Z M 70.010742,246.2122 h 14.075785 v -4.2684 H 70.010742 Z"
         id="path1901"
         style="fill:#f2ddd6;stroke-width:1.53436" />
      <path
         class="st71"
         d="m 54.015539,246.80076 v -5.29871 h 15.675302 v 5.00438 0.29428 z m 15.195446,-0.29428 V 246.2122 Z M 54.655346,246.2122 h 14.075783 v -4.2684 H 54.655346 Z"
         id="path1903"
         style="fill:#f2ddd6;stroke-width:1.53436" />
      <path
         class="st71"
         d="m 101.36133,236.9393 v -5.29871 h 15.67532 v 5.00433 0.29426 z m 15.19546,-0.29429 v -0.29427 z m -14.39568,-0.29427 h 14.07578 v -4.2684 h -14.07578 z"
         id="path1905"
         style="fill:#f2ddd6;stroke-width:1.53436" />
      <path
         class="st71"
         d="m 49.696835,231.78772 v -5.29873 h 15.675301 v 5.0044 0.29428 z m 15.195446,-0.29429 v -0.29428 z M 50.33664,231.19915 h 14.075784 v -4.26839 H 50.33664 Z"
         id="path1907"
         style="fill:#f2ddd6;stroke-width:1.53436" />
      <path
         class="st71"
         d="m 71.13041,226.93058 v -5.29872 H 86.8057 v 5.15153 0.29428 H 71.13041 Z m 15.195436,-0.29428 v -0.29428 z m -14.39568,-0.29428 h 14.075777 v -4.26845 H 71.930166 Z"
         id="path1909"
         style="fill:#f2ddd6;stroke-width:1.53436" />
      <path
         class="st71"
         d="m 109.99875,212.06474 v -5.29872 h 15.67529 v 5.00433 0.29428 z m 15.19544,-0.29427 v -0.29429 z m -14.55563,-0.29429 h 14.07577 v -4.26841 h -14.07577 z"
         id="path1911"
         style="fill:#f2ddd6;stroke-width:1.53436" />
      <path
         class="st71"
         d="m 94.643347,212.06474 v -5.29872 h 15.675313 v 5.00433 0.29428 z m 15.355403,-0.29427 v -0.29429 z M 95.443118,211.47618 H 109.5189 v -4.26841 H 95.443118 Z"
         id="path1913"
         style="fill:#f2ddd6;stroke-width:1.53436" />
      <path
         class="st71"
         d="m 101.36133,217.21627 v -5.29872 h 15.67532 v 5.00433 0.29427 z m 15.35541,-0.29428 v -0.29428 z m -14.55563,-0.29428 h 14.07578 v -4.26846 h -14.07578 z"
         id="path1915"
         style="fill:#f2ddd6;stroke-width:1.53436" />
      <path
         class="st71"
         d="m 108.71914,221.92625 v -5.29872 h 15.67529 v 5.00433 0.29428 z m 15.19544,-0.29427 v -0.29428 z m -14.55563,-0.29428 h 14.07577 v -4.2684 h -14.07577 z"
         id="path1917"
         style="fill:#f2ddd6;stroke-width:1.53436" />
      <path
         class="st71"
         d="m 93.363736,221.92625 v -5.29872 h 15.675314 v 5.00433 0.29428 z m 15.355404,-0.29427 V 221.3377 Z M 94.163493,221.3377 h 14.075797 v -4.2684 H 94.163493 Z"
         id="path1919"
         style="fill:#f2ddd6;stroke-width:1.53436" />
      <path
         class="st71"
         d="m 101.84119,226.93058 v -5.29872 h 15.67531 v 5.15153 0.29428 h -15.67531 z m 15.19546,-0.29428 v -0.29428 z m -14.55564,-0.29428 h 14.07578 v -4.26845 h -14.07578 z"
         id="path1921"
         style="fill:#f2ddd6;stroke-width:1.53436" />
      <path
         class="st71"
         d="M 129.19299,96.228809 V 95.934528 Z"
         id="path1923"
         style="fill:#f2ddd6;stroke-width:1.53436" />
      <path
         class="st71"
         d="M 113.51769,96.228809 V 95.934528 Z"
         id="path1925"
         style="fill:#f2ddd6;stroke-width:1.53436" />
      <path
         class="st71"
         d="M 97.842389,96.228809 V 95.934528 Z"
         id="path1927"
         style="fill:#f2ddd6;stroke-width:1.53436" />
      <path
         class="st71"
         d="m 114.4774,101.67472 v -5.298714 h 15.67531 v 5.004334 0.29427 z m 15.35541,-0.29429 v -0.29427 z m -14.55565,-0.29427 h 14.0758 v -4.268626 h -14.0758 z"
         id="path1929"
         style="fill:#f2ddd6;stroke-width:1.53436" />
      <path
         class="st71"
         d="m 99.281966,101.67472 v -5.298714 h 15.675314 v 5.004334 0.29427 z m 15.195434,-0.29429 v -0.29427 z M 99.921772,101.08616 H 113.99755 V 96.817534 H 99.921772 Z"
         id="path1931"
         style="fill:#f2ddd6;stroke-width:1.53436" />
      <polygon
         class="st46"
         points="392.8,236.7 430.9,224.9 430.9,351.9 392.8,339.7 "
         id="polygon1935"
         transform="matrix(1.5995203,0,0,1.4718669,-499.09861,-252.1621)"
         style="fill:#e5c0ae" />
      <path
         class="st46"
         d="M 155.90498,88.575111 V 88.28083 Z"
         id="path1937"
         style="fill:#e5c0ae;stroke-width:1.53436" />
      <path
         class="st46"
         d="m 149.5069,96.228809 v -5.740313 l 9.75708,-2.796503 v 5.740252 0.294281 z m 9.59713,-2.796564 v -0.294282 z m -9.11727,2.06063 8.79737,-2.355024 v -4.709937 l -8.79737,2.502172 z"
         id="path1939"
         style="fill:#e5c0ae;stroke-width:1.53436" />
      <path
         class="st46"
         d="m 140.70955,98.583771 v -5.593054 l 9.11726,-2.649356 v 5.445858 0.294282 z m 8.79735,-2.649355 v -0.294281 z m -8.47745,1.913434 8.15755,-2.207778 v -4.562789 l -8.15755,2.354962 z"
         id="path1941"
         style="fill:#e5c0ae;stroke-width:1.53436" />
      <path
         class="st46"
         d="m 132.39203,100.7916 v -5.445909 l 8.47747,-2.502171 v 5.298723 0.294282 z m 8.31752,-2.50216 v -0.294281 z m -7.9976,1.76624 7.67769,-2.060634 v -4.415604 l -7.67769,2.207777 z"
         id="path1943"
         style="fill:#e5c0ae;stroke-width:1.53436" />
      <path
         class="st46"
         d="m 153.34575,100.7916 v -5.887499 l 10.07698,-2.649368 v 5.740313 0.294282 z m 9.75707,-2.649357 v -0.294281 z m -9.27721,1.913437 9.11726,-2.20783 v -4.857133 l -9.11726,2.354974 z"
         id="path1945"
         style="fill:#e5c0ae;stroke-width:1.53436" />
      <path
         class="st46"
         d="m 144.22849,102.99938 v -5.740255 l 9.27721,-2.502171 v 5.593056 0.29428 z m 9.11726,-2.50218 v -0.29428 z m -8.79736,1.76626 8.47746,-2.06064 v -4.562748 l -8.47746,2.207778 z"
         id="path1947"
         style="fill:#e5c0ae;stroke-width:1.53436" />
      <path
         class="st46"
         d="m 135.59107,105.06001 v -5.445924 l 8.63742,-2.354961 v 5.445915 0.29428 z m 8.63742,-2.35497 v -0.29427 z m -8.15754,1.76624 7.83763,-1.91343 v -4.415607 l -7.83763,2.060577 z"
         id="path1949"
         style="fill:#e5c0ae;stroke-width:1.53436" />
      <path
         class="st46"
         d="m 148.70715,107.12064 v -5.7403 l 9.75707,-2.354978 v 5.740248 0.29428 z m 9.43717,-2.35503 v -0.29427 z m -8.95732,1.61904 8.79735,-1.91337 v -4.709997 l -8.79735,2.060637 z"
         id="path1951"
         style="fill:#e5c0ae;stroke-width:1.53436" />
      <path
         class="st46"
         d="m 139.90979,109.03402 v -5.59305 l 8.95731,-2.20783 v 5.44591 0.29428 z m 8.79736,-2.20777 v -0.29428 z m -8.47747,1.61905 8.15756,-1.76625 v -4.56279 l -8.15756,1.91343 z"
         id="path1953"
         style="fill:#e5c0ae;stroke-width:1.53436" />
      <path
         class="st46"
         d="m 131.59228,110.94745 v -5.44591 l 8.47746,-2.06057 v 5.29871 0.29428 z m 8.15755,-2.20777 v -0.29427 z m -7.6777,1.47185 7.6777,-1.76623 v -4.41561 l -7.6777,1.91344 z"
         id="path1955"
         style="fill:#e5c0ae;stroke-width:1.53436" />
      <path
         class="st46"
         d="m 152.06614,111.97777 v -5.88745 l 9.91703,-2.20782 v 5.74031 0.29428 z m 9.59712,-2.35496 v -0.29428 z m -9.27722,1.61904 8.95731,-1.76624 v -4.71 l -8.95731,1.91344 z"
         id="path1957"
         style="fill:#e5c0ae;stroke-width:1.53436" />
      <path
         class="st46"
         d="M 137.51051,93.873835 V 93.579553 Z"
         id="path1959"
         style="fill:#e5c0ae;stroke-width:1.53436" />
      <path
         class="st46"
         d="m 129.35296,126.40209 v -5.29873 l 8.3175,-1.47191 v 5.29873 0.29428 z m 8.15755,-1.47191 v -0.29429 z m -7.6777,0.88312 7.51775,-1.17745 v -4.26841 l -7.51775,1.32466 z"
         id="path1961"
         style="fill:#e5c0ae;stroke-width:1.53436" />
      <path
         class="st46"
         d="M 135.59107,115.21586 V 109.77 l 8.63742,-1.91344 v 5.44592 0.29428 z m 8.63742,-2.06058 V 112.861 Z m -8.15754,1.32466 7.83763,-1.61905 v -4.41559 l -7.83763,1.76623 z"
         id="path1963"
         style="fill:#e5c0ae;stroke-width:1.53436" />
      <path
         class="st46"
         d="m 155.10522,116.9821 v -5.88745 l 10.23695,-2.06063 v 5.8875 0.29428 z m 10.07699,-2.06058 v -0.29428 z m -9.59713,1.32466 9.27723,-1.61904 V 109.77 l -9.27723,1.76624 z"
         id="path1965"
         style="fill:#e5c0ae;stroke-width:1.53436" />
      <path
         class="st46"
         d="m 145.828,118.6012 v -5.74031 l 9.43718,-1.91344 v 5.59312 0.29429 z m 9.27722,-1.91343 v -0.29428 z m -8.79736,1.17745 8.63741,-1.61904 v -4.70994 l -8.63741,1.76624 z"
         id="path1967"
         style="fill:#e5c0ae;stroke-width:1.53436" />
      <path
         class="st46"
         d="m 137.19061,120.22024 v -5.44592 l 8.79734,-1.76624 v 5.44592 0.29429 z m 8.63739,-1.91343 v -0.29428 z m -8.15754,1.17751 7.99759,-1.47191 v -4.4156 l -7.99759,1.61905 z"
         id="path1969"
         style="fill:#e5c0ae;stroke-width:1.53436" />
      <path
         class="st46"
         d="m 176.2189,100.9388 v -6.47624 l 11.9964,-2.943749 v 6.329039 0.294282 z m 11.83645,-2.943754 v -0.294281 z m -11.19664,2.207774 10.87673,-2.502167 V 92.40193 l -10.87673,2.649367 z"
         id="path1971"
         style="fill:#e5c0ae;stroke-width:1.53436" />
      <path
         class="st46"
         d="M 165.50212,103.29377 V 97.111928 L 176.5388,94.46256 v 6.03464 0.29429 z m 10.71678,-2.64937 v -0.29428 z m -10.23693,1.91345 10.07698,-2.20784 v -5.004319 l -10.07698,2.502159 z"
         id="path1973"
         style="fill:#e5c0ae;stroke-width:1.53436" />
      <path
         class="st46"
         d="m 172.38005,107.85656 v -6.32904 l 11.67649,-2.649355 v 6.181845 0.29428 z m 11.35659,-2.64935 v -0.29428 z m -10.87674,1.91343 10.55684,-2.20783 v -5.151527 l -10.55684,2.354977 z"
         id="path1975"
         style="fill:#e5c0ae;stroke-width:1.53436" />
      <path
         class="st46"
         d="m 177.97837,112.86089 v -6.47624 l 12.15636,-2.50215 v 6.32903 0.29428 z m 11.9964,-2.50216 v -0.29428 z m -11.3566,1.76624 11.0367,-1.91344 v -5.29872 l -11.0367,2.20783 z"
         id="path1977"
         style="fill:#e5c0ae;stroke-width:1.53436" />
      <path
         class="st46"
         d="m 159.10403,121.98648 v -6.03465 l 10.55683,-1.91343 v 5.88745 0.29429 z m 10.23693,-1.91344 v -0.29428 z m -9.75708,1.17751 9.59713,-1.4719 v -4.85713 l -9.59713,1.61905 z"
         id="path1979"
         style="fill:#e5c0ae;stroke-width:1.53436" />
      <path
         class="st46"
         d="m 149.5069,123.45834 v -5.74026 l 9.75708,-1.76625 v 5.74027 0.29427 z m 9.59713,-1.76624 v -0.29429 z m -9.11727,1.17752 8.79737,-1.47191 v -4.70994 l -8.79737,1.61904 z"
         id="path1981"
         style="fill:#e5c0ae;stroke-width:1.53436" />
      <path
         class="st46"
         d="m 140.70955,124.93018 v -5.59306 l 9.11726,-1.61904 v 5.44587 0.29428 z m 8.79735,-1.76623 v -0.29429 z m -8.47745,1.03031 8.15755,-1.32464 v -4.56281 l -8.15755,1.47184 z"
         id="path1983"
         style="fill:#e5c0ae;stroke-width:1.53436" />
      <path
         class="st46"
         d="m 154.30547,128.02113 v -5.88746 l 10.07699,-1.61908 v 5.8875 0.29428 z m 9.75706,-1.61904 v -0.29429 z m -9.43716,0.88312 9.11726,-1.32471 v -4.85714 l -9.11726,1.47186 z"
         id="path1985"
         style="fill:#e5c0ae;stroke-width:1.53436" />
      <path
         class="st46"
         d="m 145.02824,129.34579 v -5.74025 l 9.43718,-1.47187 v 5.59308 0.29426 z m 9.11726,-1.61904 v -0.29428 z m -8.6374,0.88311 8.47745,-1.17746 v -4.70998 l -8.47745,1.32465 z"
         id="path1987"
         style="fill:#e5c0ae;stroke-width:1.53436" />
      <path
         class="st46"
         d="m 136.39083,130.3761 v -5.44592 l 8.79737,-1.32464 v 5.4459 0.29428 z m 8.63741,-1.32466 v -0.29426 z m -8.15756,0.73594 7.99761,-1.03032 v -4.4156 l -7.99761,1.17751 z"
         id="path1989"
         style="fill:#e5c0ae;stroke-width:1.53436" />
      <path
         class="st46"
         d="m 153.98555,150.24634 v -0.29429 z"
         id="path1991"
         style="fill:#e5c0ae;stroke-width:1.53436" />
      <path
         class="st46"
         d="m 149.34695,155.98659 v -5.74025 l 9.75708,-0.44171 v 5.74031 0.29427 z m 9.59713,-0.58874 v -0.29427 z m -9.11727,0 8.79737,-0.29427 v -4.70995 l -8.79737,0.44171 z"
         id="path1993"
         style="fill:#e5c0ae;stroke-width:1.53436" />
      <path
         class="st46"
         d="m 140.5496,156.28098 v -5.59311 l 9.11726,-0.44171 v 5.44592 0.29428 z m 8.79735,-0.58873 v -0.29429 z m -8.47745,0 8.15755,-0.29429 v -4.56279 l -8.15755,0.4417 z"
         id="path1995"
         style="fill:#e5c0ae;stroke-width:1.53436" />
      <path
         class="st46"
         d="m 132.23208,156.42818 v -5.44592 l 8.47747,-0.4417 v 5.29872 0.29428 z m 8.15756,-0.44171 v -0.29428 z m -7.83766,-0.14741 7.6777,-0.29429 v -4.4156 l -7.6777,0.29427 z"
         id="path1997"
         style="fill:#e5c0ae;stroke-width:1.53436" />
      <path
         class="st46"
         d="m 152.70594,161.57969 v -5.88744 l 10.07698,-0.29429 v 5.74027 0.29427 z m 9.75708,-0.44169 v -0.29428 z m -9.27722,-0.29428 h 9.11727 v -4.85719 l -9.11727,0.29427 z"
         id="path1999"
         style="fill:#e5c0ae;stroke-width:1.53436" />
      <path
         class="st46"
         d="m 169.34096,132.14234 v -6.32904 l 11.35659,-1.61904 v 6.18184 0.29428 z m 11.19664,-1.61904 v -0.29428 z m -10.71679,0.88312 10.39689,-1.17752 v -5.15152 l -10.23693,1.32471 v 5.00433 z"
         id="path2001"
         style="fill:#e5c0ae;stroke-width:1.53436" />
      <path
         class="st46"
         d="m 158.94408,133.17265 v -6.03464 l 10.55683,-1.47184 v 5.88744 0.29428 z m 10.39688,-1.47184 v -0.29428 z m -9.75708,0.88312 9.59713,-1.03032 v -4.85719 l -9.59713,1.32471 z"
         id="path2003"
         style="fill:#e5c0ae;stroke-width:1.53436" />
      <path
         class="st46"
         d="m 169.50091,155.54505 v -6.32903 l 11.35659,-0.58874 v 6.18185 0.29428 z m 11.03669,-0.73592 v -0.29429 z m -10.55683,0 10.39688,-0.29429 v -5.15153 l -10.39688,0.44171 z"
         id="path2005"
         style="fill:#e5c0ae;stroke-width:1.53436" />
      <path
         class="st46"
         d="m 173.33976,161.4325 v -6.32903 l 11.83644,-0.29428 v 6.32897 0.29428 z m 11.51654,-0.4417 v -0.29428 z m -11.03669,-0.29428 h 10.55683 V 155.545 l -10.55683,0.29428 z"
         id="path2007"
         style="fill:#e5c0ae;stroke-width:1.53436" />
      <path
         class="st46"
         d="m 175.5791,185.57114 v -6.18184 l 11.67649,0.73592 v 6.18184 0.29428 z m 11.35659,0.58872 v -0.29427 z m -10.87674,-1.17751 10.55683,0.88312 v -5.15152 l -10.55683,-0.73593 z"
         id="path2009"
         style="fill:#e5c0ae;stroke-width:1.53436" />
      <path
         class="st46"
         d="m 165.02226,184.68802 v -6.03464 l 10.71679,0.58872 v 5.88745 0.29428 z m 10.55684,0.58873 v -0.29428 z m -10.07698,-1.17752 9.75705,0.73599 v -4.8572 l -9.75705,-0.58872 z"
         id="path2011"
         style="fill:#e5c0ae;stroke-width:1.53436" />
      <path
         class="st46"
         d="m 169.18101,190.86986 v -6.03464 l 11.03669,0.88312 v 6.03464 0.29428 z m 10.87674,0.73592 v -0.29428 z m -10.39689,-1.32471 10.07698,1.03032 v -5.00433 l -10.07698,-0.88312 z"
         id="path2013"
         style="fill:#e5c0ae;stroke-width:1.53436" />
      <path
         class="st46"
         d="m 174.45942,173.79617 v -6.18183 l 11.51656,0.14742 v 6.18184 0.29428 z m 11.19666,0 v -0.29427 z m -10.71679,-0.73592 10.39686,0.44171 v -5.00433 l -10.39686,-0.14743 z"
         id="path2015"
         style="fill:#e5c0ae;stroke-width:1.53436" />
      <path
         class="st46"
         d="m 178.29828,179.97802 v -6.32904 l 11.83645,0.4417 v 6.18184 0.29429 z m 11.67649,0.29428 v -0.29428 z m -11.03668,-1.03031 10.71678,0.58872 v -5.15152 l -10.71678,-0.4417 z"
         id="path2017"
         style="fill:#e5c0ae;stroke-width:1.53436" />
      <path
         class="st46"
         d="m 174.45942,197.0517 v -6.18184 l 11.51656,1.17745 v 6.18184 0.29429 z m 11.35659,1.03032 v -0.29428 z m -10.71677,-1.76625 10.39688,1.32465 v -5.00432 l -10.39688,-1.03032 z"
         id="path2019"
         style="fill:#e5c0ae;stroke-width:1.53436" />
      <path
         class="st46"
         d="m 177.97837,203.38073 v -6.32903 l 11.83645,1.47184 v 6.18185 0.29428 z m 11.6765,1.32466 v -0.29429 z m -11.0367,-1.91343 10.7168,1.47191 v -5.1516 l -10.7168,-1.32465 z"
         id="path2021"
         style="fill:#e5c0ae;stroke-width:1.53436" />
      <path
         class="st46"
         d="m 141.5093,135.38048 v -5.5931 l 9.11727,-1.17752 v 5.44591 0.29428 z m 8.95732,-1.32471 v -0.29428 z m -8.47746,0.58874 8.3175,-0.88312 v -4.56275 l -8.3175,1.03026 z"
         id="path2023"
         style="fill:#e5c0ae;stroke-width:1.53436" />
      <path
         class="st46"
         d="m 129.99276,171.58841 v -5.29872 l 8.31751,0.14686 v 5.29872 0.29428 z m 7.9976,0 v -0.29428 z m -7.6777,-0.44169 7.51775,0.29427 v -4.4156 l -7.51775,-0.14742 z"
         id="path2025"
         style="fill:#e5c0ae;stroke-width:1.53436" />
      <path
         class="st46"
         d="m 136.23088,161.57969 v -5.4459 l 8.79736,-0.29428 v 5.4459 0.29428 z m 8.63741,-0.29428 v -0.29426 z m -8.15754,-0.29426 h 7.99759 v -4.41562 l -7.99759,0.14687 z"
         id="path2027"
         style="fill:#e5c0ae;stroke-width:1.53436" />
      <path
         class="st46"
         d="m 155.90498,167.17281 v -5.8875 h 10.23694 v 5.8875 0.29428 z m 9.91704,-0.14742 v -0.29429 z m -9.43719,-0.44169 9.27724,0.1474 v -4.85713 h -9.27724 z"
         id="path2029"
         style="fill:#e5c0ae;stroke-width:1.53436" />
      <path
         class="st46"
         d="m 146.46781,167.02561 v -5.7403 h 9.59712 v 5.5931 0.29428 z m 9.43717,-0.14742 v -0.29428 z m -8.95732,-0.44169 8.63742,0.14741 v -4.70994 h -8.63742 z"
         id="path2031"
         style="fill:#e5c0ae;stroke-width:1.53436" />
      <path
         class="st46"
         d="m 137.83041,166.87841 v -5.5931 h 8.79737 v 5.44591 0.29428 z m 8.6374,-0.14741 v -0.29429 z m -8.15754,-0.4417 7.99759,0.14687 v -4.56274 h -7.99759 z"
         id="path2033"
         style="fill:#e5c0ae;stroke-width:1.53436" />
      <path
         class="st46"
         d="m 159.90379,173.06025 v -6.03464 l 10.55683,0.14743 v 5.88744 0.29428 z m 10.23693,0 v -0.29428 z m -9.75708,-0.73592 9.59713,0.29429 v -4.85714 l -9.59713,-0.14742 z"
         id="path2035"
         style="fill:#e5c0ae;stroke-width:1.53436" />
      <path
         class="st46"
         d="m 150.30666,172.61866 v -5.88744 l 9.75708,0.14742 v 5.74025 0.29428 z m 9.43718,0 v -0.29428 z m -9.11727,-0.58872 8.95731,0.29429 v -4.71001 l -8.95731,-0.1474 z"
         id="path2037"
         style="fill:#e5c0ae;stroke-width:1.53436" />
      <path
         class="st46"
         d="m 141.34935,172.32433 v -5.59311 l 9.11727,0.14742 v 5.44592 0.29428 z m 8.79736,0 v -0.29428 z m -8.47746,-0.58879 8.31751,0.29429 v -4.56269 l -8.31751,-0.14741 z"
         id="path2039"
         style="fill:#e5c0ae;stroke-width:1.53436" />
      <path
         class="st46"
         d="m 154.94527,178.06459 v -5.88746 l 10.23694,0.44171 v 5.8875 0.29428 z m 9.91704,0.29428 v -0.29428 z m -9.43718,-0.88312 9.27721,0.58873 v -4.85713 l -9.27721,-0.44171 z"
         id="path2041"
         style="fill:#e5c0ae;stroke-width:1.53436" />
      <path
         class="st46"
         d="m 145.66805,177.47587 v -5.74033 l 9.43717,0.29429 v 5.59312 0.29428 z m 9.27722,0.29428 v -0.29428 z m -8.79737,-0.88312 8.63742,0.44168 v -4.70998 l -8.63742,-0.29428 z"
         id="path2043"
         style="fill:#e5c0ae;stroke-width:1.53436" />
      <path
         class="st46"
         d="m 137.03065,177.03428 v -5.44587 l 8.79735,0.29429 v 5.44591 0.29428 z m 8.6374,0.14741 v -0.29428 z m -8.15754,-0.73592 7.99759,0.44169 v -4.41559 l -7.99759,-0.29429 z"
         id="path2045"
         style="fill:#e5c0ae;stroke-width:1.53436" />
      <path
         class="st46"
         d="m 155.10522,189.10361 v -5.88749 l 10.23695,0.88311 v 5.88751 0.29427 z m 10.07699,0.73594 v -0.44171 z m -9.59713,-1.32471 9.27723,0.88311 v -4.85713 l -9.27723,-0.73592 z"
         id="path2047"
         style="fill:#e5c0ae;stroke-width:1.53436" />
      <path
         class="st46"
         d="m 158.30427,195.13826 v -6.03465 l 10.55684,1.03032 v 5.88745 0.29427 z m 10.23693,0.88312 v -0.29427 z m -9.75707,-1.47185 9.43717,1.17746 v -4.85713 l -9.43717,-1.03031 z"
         id="path2049"
         style="fill:#e5c0ae;stroke-width:1.53436" />
      <path
         class="st46"
         d="m 148.8671,193.96074 v -5.74025 l 9.75708,1.03032 v 5.74025 0.29428 z m 9.43717,0.88313 v -0.29428 z m -8.95732,-1.47185 8.79737,1.03031 v -4.70998 l -8.79737,-0.88312 z"
         id="path2051"
         style="fill:#e5c0ae;stroke-width:1.53436" />
      <path
         class="st46"
         d="m 140.06974,192.78329 v -5.59311 l 8.95731,0.88312 v 5.44592 0.29427 z m 8.79736,0.88312 v -0.29428 z m -8.47746,-1.32471 8.15756,1.03032 v -4.56279 l -8.15756,-0.88313 z"
         id="path2053"
         style="fill:#e5c0ae;stroke-width:1.53436" />
      <path
         class="st46"
         d="m 162.46302,201.46729 v -6.18184 l 8.47745,1.03032 v 5.88744 0.29429 z m 8.15755,0.88312 v -0.29428 z m -7.6777,-1.47191 7.51775,1.03034 v -5.00434 l -7.51775,-0.88312 z"
         id="path2055"
         style="fill:#e5c0ae;stroke-width:1.53436" />
      <path
         class="st46"
         d="m 152.54599,199.99539 v -5.88745 l 10.07698,1.17751 v 5.74025 0.29429 z m 9.91703,1.17751 v -0.29428 z m -9.43717,-1.76624 9.11727,1.32471 v -4.85718 l -9.11727,-1.17751 z"
         id="path2057"
         style="fill:#e5c0ae;stroke-width:1.53436" />
      <path
         class="st46"
         d="m 143.58867,198.67074 v -5.59311 l 9.27722,1.17751 v 5.59311 0.29429 z m 8.95732,1.03032 v -0.29428 z m -8.63741,-1.61904 8.47746,1.17744 v -4.56278 l -8.47746,-1.03027 z"
         id="path2059"
         style="fill:#e5c0ae;stroke-width:1.53436" />
      <path
         class="st46"
         d="m 157.50449,206.0301 v -6.03471 l 10.3969,1.4719 v 5.88746 0.29428 z m 10.07699,1.47185 v -0.44171 z m -9.59713,-2.06064 9.43718,1.61904 v -4.85714 l -9.43718,-1.32471 z"
         id="path2061"
         style="fill:#e5c0ae;stroke-width:1.53436" />
      <path
         class="st46"
         d="m 148.06734,204.411 v -5.74026 l 9.59713,1.47184 v 5.74033 0.29427 z m 9.2772,1.32471 v -0.29429 z m -8.9573,-1.76624 8.79737,1.47184 v -4.70994 l -8.79737,-1.32471 z"
         id="path2063"
         style="fill:#e5c0ae;stroke-width:1.53436" />
      <path
         class="st46"
         d="m 139.26997,202.93916 v -5.59313 l 8.95732,1.32471 v 5.44593 0.29428 z m 8.63742,1.17751 v -0.29429 z m -8.31751,-1.61906 8.15756,1.32466 v -4.56281 l -8.15756,-1.17744 z"
         id="path2065"
         style="fill:#e5c0ae;stroke-width:1.53436" />
      <path
         class="st46"
         d="m 135.27117,207.50195 v -5.44593 l 8.63741,1.47186 v 5.29872 0.29428 z m 8.47746,1.32465 v -0.29428 z m -8.15756,-1.76625 7.83765,1.47191 v -4.41559 l -7.83765,-1.32471 z"
         id="path2067"
         style="fill:#e5c0ae;stroke-width:1.53436" />
      <path
         class="st46"
         d="m 136.87068,187.19018 v -5.44592 l 8.79737,0.73593 v 5.44591 0.29428 z m 8.47747,0.58872 v -0.29426 z m -8.15754,-1.17745 7.99759,0.73593 v -4.41561 l -7.99759,-0.73592 z"
         id="path2069"
         style="fill:#e5c0ae;stroke-width:1.53436" />
      <path
         class="st46"
         d="m 149.02705,183.21612 v -5.74025 l 9.75708,0.58872 v 5.74031 0.29428 z m 9.59713,0.4417 v -0.29429 z m -9.11728,-1.03031 8.79737,0.73592 v -4.70995 l -8.79737,-0.58889 z"
         id="path2071"
         style="fill:#e5c0ae;stroke-width:1.53436" />
      <path
         class="st46"
         d="m 143.58867,209.121 v -5.59312 l 9.27722,1.6191 v 5.59306 0.29427 z m 8.95732,1.47184 v -0.29428 z m -8.63741,-2.06058 8.47746,1.61905 v -4.5628 l -8.47746,-1.47184 z"
         id="path2073"
         style="fill:#e5c0ae;stroke-width:1.53436" />
      <path
         class="st46"
         d="m 148.06734,215.45002 v -5.7403 l 9.59713,1.76624 v 5.74031 0.29428 z m 9.2772,1.61905 v -0.29428 z m -8.9573,-2.06063 8.79737,1.76624 v -4.70994 l -8.79737,-1.61905 z"
         id="path2075"
         style="fill:#e5c0ae;stroke-width:1.53436" />
      <path
         class="st46"
         d="m 139.26997,213.53659 v -5.59311 l 8.95732,1.76624 v 5.44592 0.29427 z m 8.63742,1.61905 v -0.29428 z m -8.31751,-2.06058 8.15756,1.76624 v -4.56279 l -8.15756,-1.61905 z"
         id="path2077"
         style="fill:#e5c0ae;stroke-width:1.53436" />
      <path
         class="st46"
         d="m 131.11242,211.91755 v -5.44592 l 8.3175,1.61904 v 5.29872 0.29428 z m 8.15755,1.32464 v -0.29427 z m -7.83765,-1.91337 7.51775,1.61904 v -4.4156 l -7.51775,-1.47191 z"
         id="path2079"
         style="fill:#e5c0ae;stroke-width:1.53436" />
      <path
         class="st46"
         d="m 158.14432,223.25091 v -5.88744 l 10.39688,2.20776 v 5.88751 0.29429 z m 10.23693,2.06063 v -0.29428 z m -9.75707,-2.50217 9.43716,2.20778 v -4.85713 l -9.43716,-2.06063 z"
         id="path2081"
         style="fill:#e5c0ae;stroke-width:1.53436" />
      <path
         class="st46"
         d="m 148.5472,221.04314 v -5.74032 l 9.75707,2.06065 v 5.74024 0.29429 z m 9.59712,1.91338 v -0.29428 z m -9.11727,-2.35497 8.79737,2.06063 v -4.70999 l -8.79737,-1.91343 z"
         id="path2083"
         style="fill:#e5c0ae;stroke-width:1.53436" />
      <path
         class="st46"
         d="m 139.74983,218.98251 v -5.59312 l 8.95732,1.91343 v 5.44592 0.29428 z m 8.79737,1.76623 v -0.29428 z m -8.31752,-2.20782 8.15756,1.91343 v -4.56279 l -8.15756,-1.76625 z"
         id="path2085"
         style="fill:#e5c0ae;stroke-width:1.53436" />
      <path
         class="st46"
         d="m 153.1858,227.37211 v -5.88745 l 10.07698,2.35498 v 5.7403 0.29429 z m 9.91702,2.20783 v -0.29427 z m -9.43717,-2.64936 9.11727,2.35498 v -4.85714 l -9.11727,-2.06063 z"
         id="path2087"
         style="fill:#e5c0ae;stroke-width:1.53436" />
      <path
         class="st46"
         d="m 144.06854,225.16435 v -5.74032 l 9.27721,2.20783 v 5.59312 0.29429 z m 9.11726,1.91343 v -0.29428 z m -8.63741,-2.50216 8.47746,2.06057 v -4.56279 l -8.47746,-1.91338 z"
         id="path2089"
         style="fill:#e5c0ae;stroke-width:1.53436" />
      <path
         class="st46"
         d="m 135.59107,222.95652 v -5.44586 l 8.63742,2.06057 v 5.44592 0.29429 z m 8.47747,1.91343 v -0.29428 z m -7.99759,-2.35497 7.83763,1.91344 v -4.4156 l -7.83763,-1.91343 z"
         id="path2091"
         style="fill:#e5c0ae;stroke-width:1.53436" />
      <path
         class="st46"
         d="m 155.10522,238.70555 v -5.88751 l 10.23695,2.79655 v 5.88746 0.29427 z m 9.91704,2.64935 v -0.29428 z m -9.43718,-3.09094 9.27723,2.64935 v -4.85713 l -9.27723,-2.50222 z"
         id="path2093"
         style="fill:#e5c0ae;stroke-width:1.53436" />
      <path
         class="st46"
         d="m 158.30427,245.47611 v -6.03464 l 10.55684,3.09089 v 5.8875 0.29428 z m 10.23693,2.94375 v -0.29428 z m -9.75707,-3.53247 9.43717,2.94368 v -4.85713 l -9.43717,-2.79655 z"
         id="path2095"
         style="fill:#e5c0ae;stroke-width:1.53436" />
      <path
         class="st46"
         d="m 148.8671,242.38517 v -5.74025 l 9.75708,2.94375 v 5.74024 0.29428 z m 9.43717,2.64935 v -0.29428 z m -9.11727,-3.09089 8.79735,2.79656 v -4.71 l -8.79735,-2.64935 z"
         id="path2097"
         style="fill:#e5c0ae;stroke-width:1.53436" />
      <path
         class="st46"
         d="m 139.90979,239.58867 v -5.59312 l 8.95731,2.64937 v 5.4459 0.29428 z m 8.79736,2.50215 v -0.29428 z m -8.31751,-2.94375 8.15756,2.64936 v -4.56279 l -8.15756,-2.50217 z"
         id="path2099"
         style="fill:#e5c0ae;stroke-width:1.53436" />
      <path
         class="st46"
         d="m 162.30307,252.54107 v -6.03464 l 8.47745,2.64935 v 5.88745 0.29429 z m 8.3175,2.50216 v -0.29428 z m -7.83765,-2.94375 7.51775,2.50222 v -5.00438 l -7.51775,-2.35497 z"
         id="path2101"
         style="fill:#e5c0ae;stroke-width:1.53436" />
      <path
         class="st46"
         d="m 152.54599,249.15578 v -5.8875 l 10.07698,3.23815 v 5.74025 0.29428 z m 9.75708,3.0909 v -0.29428 z m -9.27722,-3.53248 9.11727,3.09095 v -4.8572 l -9.11727,-2.94369 z"
         id="path2103"
         style="fill:#e5c0ae;stroke-width:1.53436" />
      <path
         class="st46"
         d="m 143.42872,246.06484 v -5.59306 l 9.27722,2.9437 v 5.5931 0.29428 z m 9.11727,2.79655 v -0.29427 z m -8.63741,-3.23808 8.47746,2.79655 v -4.56279 l -8.47746,-2.64936 z"
         id="path2105"
         style="fill:#e5c0ae;stroke-width:1.53436" />
      <path
         class="st46"
         d="m 157.34454,256.22074 v -6.03464 l 10.39691,3.53248 v 5.88746 0.29428 z m 10.23694,3.2381 v -0.29429 z m -9.75706,-3.82687 9.43716,3.38534 v -4.8572 l -9.43716,-3.23808 z"
         id="path2107"
         style="fill:#e5c0ae;stroke-width:1.53436" />
      <path
         class="st46"
         d="m 147.90739,252.68827 v -5.74032 l 9.5971,3.23815 v 5.59307 0.29427 z m 9.43715,3.0909 v -0.29429 z m -8.9573,-3.53249 8.79737,3.09094 v -4.70998 l -8.79737,-2.94376 z"
         id="path2109"
         style="fill:#e5c0ae;stroke-width:1.53436" />
      <path
         class="st46"
         d="m 139.11002,249.59732 v -5.59306 l 8.95732,3.09089 v 5.44592 0.29429 z m 8.79737,2.79655 v -0.29428 z m -8.31751,-3.23809 8.15756,2.9437 v -4.56274 l -8.15756,-2.79655 z"
         id="path2111"
         style="fill:#e5c0ae;stroke-width:1.53436" />
      <path
         class="st46"
         d="m 168.5412,248.7142 v -6.18184 l 11.35659,3.38528 v 6.18184 0.29429 z m 11.19664,3.23814 v -0.29427 z m -10.55683,-3.67968 10.23693,3.23809 v -5.15152 l -10.23693,-3.09095 z"
         id="path2113"
         style="fill:#e5c0ae;stroke-width:1.53436" />
      <path
         class="st46"
         d="m 136.71075,233.25963 v -5.44593 l 8.79735,2.35498 v 5.44591 0.29428 z m 8.6374,2.35496 v -0.29427 z m -8.15754,-2.79655 7.99759,2.35502 v -4.41561 l -7.99759,-2.20783 z"
         id="path2115"
         style="fill:#e5c0ae;stroke-width:1.53436" />
      <path
         class="st46"
         d="m 149.02705,231.64059 v -5.74032 l 9.75708,2.50216 v 5.74032 0.29428 z m 9.43717,2.35496 v -0.29429 z m -8.95732,-2.79655 8.79737,2.35496 v -4.70994 l -8.79737,-2.20783 z"
         id="path2117"
         style="fill:#e5c0ae;stroke-width:1.53436" />
      <path
         class="st46"
         d="m 174.77932,221.19028 v -6.32898 l 11.83646,2.20777 v 6.32904 0.29429 z m 11.51656,2.06063 v -0.29428 z m -11.03671,-2.64936 10.71681,2.20782 v -5.29871 l -10.71681,-2.06064 z"
         id="path2119"
         style="fill:#e5c0ae;stroke-width:1.53436" />
      <path
         class="st46"
         d="m 164.06253,218.83531 v -6.18184 l 11.03671,2.06063 v 6.03464 0.29428 z m 10.71679,1.91343 v -0.29428 z m -10.23691,-2.50216 9.91701,2.06057 v -5.00433 l -9.91701,-1.91343 z"
         id="path2121"
         style="fill:#e5c0ae;stroke-width:1.53436" />
      <path
         class="st46"
         d="m 168.70116,225.75307 v -6.18184 l 11.35659,2.35502 v 6.18184 0.29429 z m 11.03668,2.20783 v -0.29428 z m -10.55683,-2.79655 10.23693,2.35496 v -5.15152 l -10.23693,-2.20777 z"
         id="path2123"
         style="fill:#e5c0ae;stroke-width:1.53436" />
      <path
         class="st46"
         d="m 173.81961,232.67084 v -6.32898 l 11.83647,2.79651 v 6.32903 0.29427 z m 11.51654,2.64937 v -0.29428 z m -11.03669,-3.23809 10.71679,2.64935 v -5.15153 l -10.71679,-2.50216 z"
         id="path2125"
         style="fill:#e5c0ae;stroke-width:1.53436" />
      <path
         class="st46"
         d="m 163.10282,230.02149 v -6.18185 l 10.87674,2.50222 v 6.03465 0.29428 z m 10.71679,2.35502 v -0.29429 z m -10.07698,-2.94375 9.91703,2.50216 v -5.00434 l -9.91703,-2.35496 z"
         id="path2127"
         style="fill:#e5c0ae;stroke-width:1.53436" />
      <path
         class="st46"
         d="m 168.86111,237.08644 v -6.18184 l 11.35659,2.94375 v 6.18184 0.29428 z m 11.19664,2.79656 v -0.44171 z m -10.71679,-3.23808 10.23693,2.79655 v -5.15153 l -10.23693,-2.64935 z"
         id="path2129"
         style="fill:#e5c0ae;stroke-width:1.53436" />
      <path
         class="st46"
         d="M 189.49492,79.00793 V 78.713648 Z"
         id="path2131"
         style="fill:#e5c0ae;stroke-width:1.53436" />
      <path
         class="st46"
         d="M 177.33856,82.540416 V 82.246135 Z"
         id="path2133"
         style="fill:#e5c0ae;stroke-width:1.53436" />
      <path
         class="st46"
         d="M 166.14192,85.778559 V 85.484278 Z"
         id="path2135"
         style="fill:#e5c0ae;stroke-width:1.53436" />
      <path
         class="st46"
         d="m 178.13832,88.722259 v -6.476174 l 12.15636,-3.532486 v 6.329038 0.294283 z m 11.83645,-3.38529 v -0.44169 z m -11.3566,2.649367 11.0367,-2.943699 v -5.298723 l -11.0367,3.090896 z"
         id="path2137"
         style="fill:#e5c0ae;stroke-width:1.53436" />
      <path
         class="st46"
         d="m 167.10163,91.666008 v -6.181843 l 11.19665,-3.23808 v 6.181829 0.294282 z m 11.03669,-3.238094 v -0.294268 z m -10.55684,2.502172 10.07698,-2.649356 v -5.004329 l -10.07698,2.943686 z"
         id="path2139"
         style="fill:#e5c0ae;stroke-width:1.53436" />
      <path
         d="m 173.49971,244.1514 c 0,0.44171 -0.31992,0.73599 -0.79976,0.73599 h -24.79256 c -0.47983,0 -0.79976,-0.29428 -0.79976,-0.73599 v -3.97401 c 0,-0.44171 0.31992,-0.73592 0.79976,-0.73592 h 24.79256 c 0.47983,0 0.79976,0.29428 0.79976,0.73592 z"
         id="path2145"
         style="stroke-width:1.53436" />
      <path
         d="m 171.26038,260.48916 c 0,0.44169 -0.31992,0.73592 -0.79976,0.73592 h -5.75828 l -0.47982,-0.73592 h -7.83765 l -0.47982,0.73592 h -5.75826 c -0.47985,0 -0.79978,-0.29429 -0.79978,-0.73592 l -1.59952,-16.4849 c 0,-0.4417 0.31993,-0.73598 0.79976,-0.73598 h 23.51296 c 0.47988,0 0.79976,0.29428 0.79976,0.73598 z"
         id="path2147"
         style="stroke-width:1.53436" />
      <path
         class="st42"
         d="m 164.54241,248.12547 h -8.31753 c -0.47982,0 -0.79975,0.29428 -0.79975,0.73592 l -0.95971,12.36369 h 1.91941 l 0.79978,-11.03898 c 0,-0.29428 0.15995,-0.44169 0.47983,-0.44169 h 5.43835 c 0.31994,0 0.47983,0.14741 0.47983,0.44169 l 0.79976,11.03898 h 1.91943 l -0.95971,-12.36369 c 0,-0.44169 -0.31993,-0.73592 -0.79977,-0.73592 z"
         id="path2149"
         style="fill:#212121;stroke-width:1.53436" />
      <path
         class="st42"
         d="m 175.09924,245.32891 c 0,0.44171 -0.31993,0.73593 -0.79978,0.73593 h -27.9916 c -0.47983,0 -0.79976,-0.29428 -0.79976,-0.73593 v -2.50216 c 0,-0.4417 0.31992,-0.73593 0.79976,-0.73593 h 27.9916 c 0.47984,0 0.79978,0.29428 0.79978,0.73593 z"
         id="path2155"
         style="fill:#212121;stroke-width:1.53436" />
      <path
         d="m 145.5081,243.70987 v -0.73593 c 0,-0.44169 0.31992,-0.88312 0.79976,-0.88312 h 28.15156 c 0.47984,0 0.79975,0.44171 0.79975,0.88312 v 0.73593 z"
         id="path2157"
         style="stroke-width:1.53436" />
      <path
         class="st42"
         d="m 160.22369,242.82675 c 1.43957,0 2.39928,-1.03032 2.39928,-2.20783 0,-0.4417 -0.15996,-0.88312 -0.31993,-1.17745 h -4.15874 c -0.15996,0.29428 -0.31992,0.73592 -0.31992,1.17745 0,1.17751 1.11966,2.20783 2.39928,2.20783 z"
         id="path2161"
         style="fill:#212121;stroke-width:1.53436" />
      <path
         d="m 161.82321,240.91331 c 0,0.44171 -0.31993,0.73592 -0.6398,0.73592 h -1.91943 c -0.31992,0 -0.6398,-0.29427 -0.6398,-0.73592 v -9.27272 c 0,-0.44171 0.31991,-0.73599 0.6398,-0.73599 h 1.91943 c 0.31992,0 0.6398,0.29428 0.6398,0.73599 z"
         id="path2165"
         style="stroke-width:1.53436" />
      <path
         class="st30"
         d="m 164.38246,253.12979 c -0.15998,-0.14741 -0.47983,-0.73592 -1.27964,-1.47184 -0.79975,-0.58872 -0.79975,-1.47185 -0.15996,-2.35497 0.47982,-0.73598 1.43958,-1.47191 1.59953,-1.32471 0.31992,0.14743 -0.31994,1.03031 -0.31994,1.47185 0.15998,0.58878 1.27963,0.73598 1.27963,0.73598 h 2.55923 c 0,0 0.15996,1.03026 -0.31993,1.61905 -0.31992,0.29429 -0.31992,1.47184 -0.15996,1.76623 0.31994,0.14743 -3.19904,-0.44169 -3.19904,-0.44169 z"
         id="path2169"
         style="fill:#8494af;stroke-width:1.53436" />
      <path
         class="st30"
         d="m 167.74145,250.48044 c 0.15995,-0.4417 -1.27962,-2.06058 -1.59953,-2.06058 -0.15997,1.03026 -0.31993,3.09089 -0.31993,3.09089 z"
         id="path2171"
         style="fill:#8494af;stroke-width:1.53436" />
      <path
         class="st29"
         d="m 167.90139,250.33324 c 0,-0.44169 -1.27961,-1.76624 -1.43956,-1.91338 0,0.44171 -0.15998,1.32466 -0.15998,1.91338 0,0 -1.43956,0 -1.59951,-0.44169 -0.15996,-0.44171 0.31992,-1.47185 0.15995,-1.61904 -0.15995,-0.14743 -0.95971,0.44169 -1.43956,1.17745 -0.47982,0.73598 -0.31994,1.6191 0.31992,2.06063 1.11967,1.03032 1.43958,1.61905 1.59953,2.20783 0,0 2.71918,0 2.55923,-0.14742 -0.15996,-0.14742 0,-1.32471 0.31992,-1.61905 0.47983,-0.58878 0.31993,-1.4719 0.31993,-1.4719 z"
         id="path2175"
         style="fill:#b4c1d1;stroke-width:1.53436" />
      <path
         class="st30"
         d="m 165.82202,253.71858 c -0.15997,-0.44169 -0.31992,-1.17751 -0.31992,-1.17751 0,0 0.15995,-0.88312 0.31992,-0.88312 0.15996,0 0.79976,0 1.59951,0 0.15997,0 -0.31992,0.88312 -0.31992,0.88312 0,0.14743 0.31992,1.17751 0.31992,1.17751 z"
         id="path2177"
         style="fill:#8494af;stroke-width:1.53436" />
      <path
         class="st39"
         d="m 164.38246,252.9826 4.47865,13.98279 c 0.31991,0.88312 1.91941,1.17745 2.71918,0.88312 0.95971,-0.29428 1.43956,-1.17751 1.27961,-2.06063 l -4.79856,-12.65809 z m 7.03787,12.65808 c 0.15996,0.29428 0,0.58872 -0.31991,0.73592 -0.31994,0.14742 -0.63983,0 -0.79976,-0.29428 -0.15997,-0.29429 0,-0.58878 0.31991,-0.73597 0.31992,-0.14687 0.63981,0 0.79976,0.29427 z"
         id="path2181"
         style="fill:#77000c;stroke-width:1.53436" />
      <path
         class="st34"
         d="m 165.02226,252.9826 4.3187,13.6884 c 0.15996,0.4417 1.43956,0.58872 1.91942,0.4417 0.47984,-0.14686 1.27962,-0.88312 0.95972,-1.32467 l -4.63862,-12.65806 z m 6.39807,12.65808 c 0.15996,0.29428 0,0.58872 -0.31991,0.73592 -0.31994,0.14742 -0.63983,0 -0.79976,-0.29428 -0.15997,-0.29429 0,-0.58878 0.31991,-0.73597 0.31992,-0.14687 0.63981,0 0.79976,0.29427 z"
         id="path2183"
         style="fill:#b20000;stroke-width:1.53436" />
      <path
         class="st29"
         d="m 135.27117,261.961 v 0 c 0,0 0,0 0,0 0.15997,0 0.31993,0.14741 0.47983,0.14741 0.15996,0 0.15996,0 0.15996,0 0,0 0.15996,0.14743 0.31992,0.14743 0.15997,0 0.15997,-0.14743 0.31993,-0.14743 v 0 c 0,0 0.15996,0.14743 0.31991,0.14743 0.15998,0 0.15998,-0.14743 0.31994,0 v 0 h 4.6386 c 0.31994,0 0.63981,-0.29429 0.63981,-0.73592 v 0 c 0,-0.44171 -0.31992,-0.73592 -0.79976,-0.73592 h -4.6386 v 0 c -0.15996,0 -0.15996,0 -0.31994,0 -0.15995,0 -0.31991,0.14741 -0.31991,0.14741 0,0 -0.15996,-0.14741 -0.31991,-0.14741 -0.15998,0 -0.31994,0.14741 -0.31994,0.14741 0,0 0,0 -0.15996,0 -0.15995,-0.14741 -0.31993,0.14741 -0.47983,0.14741 0,0 -0.15996,-0.14741 -0.31992,-0.14741 -0.15996,0 -0.15996,0.14741 -0.31993,0.14741 0,0 -0.31992,-0.14741 -0.47982,0 0,0 -0.15996,0 -0.15996,0.14743 -0.31993,0 -0.15996,0.29427 -0.15996,0.73592 v 0 c 0,0.4417 -0.15997,0.73593 0.15996,0.73593 0,0 0,0 0.15996,0 0.15996,0 0.31993,0 0.47982,0 0,0 0.15997,0.1474 0.31993,0.1474 0.31992,-0.88311 0.47982,-0.88311 0.47982,-0.88311 z"
         id="path2189"
         style="fill:#b4c1d1;stroke-width:1.53436" />
      <path
         class="st30"
         d="m 134.63136,261.51947 c 0,0 -0.15996,-0.88312 0,-0.88312 h 3.99881 c 0.15996,0 0.31992,0.14742 0.31992,0.4417 v 0 c 0,0.29429 -0.15996,0.44169 -0.31992,0.44169 z"
         id="path2191"
         style="fill:#8494af;stroke-width:1.53436" />
      <path
         class="st42"
         d="m 145.1882,266.08227 c 0.15997,-0.14743 0.47983,-4.12127 -0.15997,-4.5628 -0.6398,-0.4417 -3.35899,-0.14743 -3.35899,-0.14743 l 0.15997,0.88312 h 2.23933 c 0,0 0.31992,0 0.47983,0.29428 v 0 l 0.15995,0.44171 c 0,0 0,0 0,0 h -0.15995 l 0.15995,0.4417 c 0,0 0,0 0,0 h -0.15995 l 0.15995,0.44171 c 0,0 0,0 0,0 h -0.15995 l 0.15995,0.44168 c 0,0 0,0 0,0 h -0.15995 l 0.15995,0.44171 c 0,0 0,0 0,0 h -0.15995 l 0.15995,0.4417 c 0,0 0,0 0,0 h -0.15995 l 0.15995,0.29428 c 0,0 0,0 0,0 0,0 0.47982,0.73592 0.47982,0.58878 z"
         id="path2195"
         style="fill:#212121;stroke-width:1.53436" />
      <path
         class="st30"
         d="m 145.34815,264.16884 v 1.61904 c 0.6398,-0.14743 0.95971,-0.58873 1.27963,-1.47186 l 0.47982,-1.61909 c 0.63981,-1.76625 -0.47982,-2.50217 -1.43957,-2.35497 h -4.47866 c -0.95972,0 -1.59953,0.58872 -1.59953,1.47185 h 4.63863 c 0.9597,0 1.43956,0.29427 1.11966,2.35503 z"
         id="path2197"
         style="fill:#8494af;stroke-width:1.53436" />
      <path
         class="st34"
         d="m 142.30906,265.34629 c 0.31994,0 0.63981,0.14741 0.79976,0.58878 l 0.15996,-0.58878 v 0 c 0.47983,0 0.95971,-0.58873 0.95971,-1.17745 0,-0.58879 -0.47982,-1.17752 -0.95971,-1.17752 h -11.83646 c -2.71917,-0.29427 -6.07816,-0.4417 -8.6374,-0.4417 -2.55924,0 -3.9988,0.14743 -4.79855,0.4417 -0.31994,0 -0.47983,0.14741 -0.63981,0.29427 -0.15996,0.29428 -0.31994,0.58874 -0.31994,0.88313 0,0.29428 0,0.58873 0.31994,0.88312 0.15995,0.14743 0.31991,0.29428 0.63981,0.29428 0.79975,0.29429 2.23931,0.44169 4.79855,0.44169 2.55924,0 5.91823,-0.1474 8.6374,-0.44169 z"
         id="path2199"
         style="fill:#b20000;stroke-width:1.53436" />
      <path
         class="st39"
         d="m 138.79012,264.75756 c 0.31991,0 1.59952,-1.03031 1.11967,-1.03031 h -8.31751 c -1.75947,-0.14743 -7.3578,-0.14743 -8.95731,-0.14743 -1.75948,0 -3.35899,0.14743 -3.99881,0.14743 -0.15995,0 -0.31992,0 -0.47983,0.14741 -0.15996,0.14742 -0.15996,0.29427 -0.15996,0.4417 0,0.14686 0,0.29428 0.15996,0.29428 0.15997,0.14742 0.31993,0.14742 0.47983,0.14742 0.47982,0.14742 2.23933,0.14742 3.99881,0.14742 1.75946,0 7.19784,-0.14742 8.95731,-0.14742 z"
         id="path2201"
         style="fill:#77000c;stroke-width:1.53436" />
      <path
         class="st39"
         d="m 144.38844,265.64068 v -3.09089 c 0,-0.29429 -0.15996,-0.44171 -0.31993,-0.44171 h -1.75946 c -0.15997,0 -0.31993,0.14742 -0.31993,0.29428 v 2.20778 c 0,0.14742 0.15996,0.29428 0.31993,0.29428 h 0.6398 v 0.73593 c 0,0.29428 0.15997,0.44169 0.31993,0.44169 h 0.79976 c 0.15995,0 0.31992,-0.14741 0.31992,-0.44169 z"
         id="path2203"
         style="fill:#77000c;stroke-width:1.53436" />
      <path
         class="st39"
         d="m 139.26997,266.2294 0.47982,-1.17744 h 1.43958 c 0.47983,0 0.95971,-0.44171 0.95971,-0.88312 v -3.97408 c 0,-0.58872 -0.47983,-0.88312 -0.95971,-0.88312 h -3.35899 c -0.47982,0 -0.95972,0.4417 -0.95972,0.88312 v 6.03464 c 0,0.29428 0.15996,0.44171 0.47983,0.44171 h 1.27961 c 0.47984,-0.14743 0.63981,-0.29429 0.63981,-0.44171 z"
         id="path2205"
         style="fill:#77000c;stroke-width:1.53436" />
      <path
         class="st34"
         d="m 143.90858,265.78788 c -0.31992,0 -0.47982,0 -0.47982,-0.29428 v -2.94371 c 0,-0.29428 0.15995,-0.29428 0.47982,-0.29428 v 0 c 0.31993,0 0.47984,0 0.47984,0.29428 v 2.94371 c 0,0.29428 -0.15998,0.29428 -0.47984,0.29428 z"
         id="path2207"
         style="fill:#b20000;stroke-width:1.53436" />
      <path
         class="st29"
         d="m 145.1882,266.08227 c 0.6398,0 1.11966,-0.58879 1.11966,-1.17751 v -2.50217 c 0,-0.58878 -0.47983,-1.47191 -1.27962,-1.17751 -0.6398,0.29428 -0.79975,0.44169 -0.79975,0.58873 0,0 0,0.14741 0.47983,0.14741 0.47982,-0.14741 0.63981,0.29428 0.63981,0.88312 h -0.15998 l 0.15998,0.4417 v 0 h -0.15998 l 0.15998,0.44171 v 0 h -0.15998 l 0.15998,0.44169 v 0 h -0.15998 l 0.15998,0.4417 v 0 h -0.15998 l 0.15998,0.4417 v 0 h -0.15998 l 0.15998,0.4417 h -0.15998 l 0.15998,0.29429 c -0.15998,0.14741 -0.15998,0.29427 -0.15998,0.29427 z"
         id="path2209"
         style="fill:#b4c1d1;stroke-width:1.53436" />
      <path
         class="st34"
         d="m 139.26997,265.93507 0.47982,-1.17751 h 1.43958 c 0.47983,0 0.95971,-0.4417 0.95971,-0.88312 v -3.97401 c 0,-0.58879 -0.47983,-0.88312 -0.95971,-0.88312 h -3.35899 c -0.47982,0 -0.95972,0.44169 -0.95972,0.88312 v 6.03464 c 0,0.29428 0.15996,0.44171 0.47983,0.44171 h 1.27961 c 0.47984,0 0.47984,-0.14743 0.63981,-0.44171 z"
         id="path2211"
         style="fill:#b20000;stroke-width:1.53436" />
      <path
         class="st39"
         d="m 141.34935,263.4329 c 0.31992,0 0.47982,0.14686 0.47982,0.4417 0,0.29429 -0.15996,0.4417 -0.47982,0.4417 -0.15996,0 -0.47982,-0.14741 -0.47982,-0.4417 0,-0.14742 0.15996,-0.4417 0.47982,-0.4417 z"
         id="path2213"
         style="fill:#77000c;stroke-width:1.53436" />
      <path
         class="st39"
         d="m 138.95007,262.84413 c -0.31992,0 -0.6398,-0.29428 -0.6398,-0.58874 v -1.76623 c 0,-0.29429 0.31991,-0.73593 0.6398,-0.73593 h 0.95972 c 0.31991,0 0.63981,0.29428 0.63981,0.58873 v 1.76624 c 0,0.29427 -0.31994,0.73593 -0.63981,0.73593 z"
         id="path2215"
         style="fill:#77000c;stroke-width:1.53436" />
      <polygon
         class="st29"
         points="398.9,348.2 398.9,349.3 398.5,349.3 398.5,348.2 "
         id="polygon2217"
         transform="matrix(1.5995203,0,0,1.4718669,-499.09861,-252.1621)"
         style="fill:#b4c1d1" />
      <polygon
         class="st30"
         points="398.9,348.4 398.9,349 398.5,349 398.5,348.4 "
         id="polygon2219"
         transform="matrix(1.5995203,0,0,1.4718669,-499.09861,-252.1621)"
         style="fill:#8494af" />
      <path
         class="st29"
         d="m 139.42992,262.40259 c -0.31992,0 -0.6398,-0.29429 -0.6398,-0.73592 v -1.03032 c 0,-0.29429 0.31991,-0.73592 0.6398,-0.73592 h 0.15997 c 0.31993,0 0.79976,0.29428 0.79976,0.73592 v 1.03032 c 0,0.29428 -0.31992,0.73592 -0.63981,0.73592 z"
         id="path2223"
         style="fill:#b4c1d1;stroke-width:1.53436" />
      <path
         class="st70"
         d="m 190.13473,127.13801 c -4.63861,0.29428 -7.67771,0.58874 -9.43718,1.17751 -1.75946,0.58874 -6.07818,1.61905 -7.35779,1.32466 -1.27962,-0.29428 -4.95851,-0.14743 -10.71679,0.88312 -5.75828,1.03031 -8.95732,1.91343 -8.95732,1.91343 l -8.95731,0.14742 c 0,0 -4.95851,3.0909 -6.07817,2.06059 -1.59952,-1.32467 -7.03789,-0.44171 -7.03789,-0.44171 l -2.39929,0.58873 0.15997,15.74895 c 0,0 4.79855,-0.58872 11.19664,-0.88312 0.9597,0 3.99879,0.44171 4.9585,0.44171 3.359,-0.14742 4.79857,-1.03032 5.75828,-1.17751 1.11967,-0.29428 4.79855,0 7.19784,-0.14742 1.11967,-0.14743 2.39929,-0.14743 3.51895,-0.29429 2.07938,-0.1474 3.359,0.73594 4.31871,0.73594 2.39928,0.14741 8.47746,-1.3247 8.47746,-1.3247 l 8.31749,-0.73595 3.359,0.14743 3.6789,-0.14743 z"
         id="path2231"
         style="fill:#cc9a89;stroke-width:1.53436" />
      <path
         class="st70"
         d="m 180.5376,128.31552 c -1.75947,0.58874 -6.07818,1.61905 -7.3578,1.32466 -1.27962,-0.29428 -4.9585,-0.14743 -10.71678,0.88312 -5.75828,1.03031 -8.95732,1.91343 -8.95732,1.91343 l -8.95731,0.14742 c 0,0 -4.95851,3.0909 -6.07817,2.06059 -1.59954,-1.32467 -7.0379,-0.44171 -7.0379,-0.44171 l -2.23933,0.44171 c 0,0.73596 0,2.5022 0,2.64935 0.15997,0.14742 4.15876,-0.88312 4.31871,-0.88312 1.43956,0 44.30672,-4.70994 56.46307,-6.32899 v -2.94375 c -4.47865,0.29428 -7.67769,0.73592 -9.43717,1.17751 z"
         id="path2233"
         style="fill:#cc9a89;stroke-width:1.53436" />
      <path
         class="st72"
         d="m 145.1882,149.5104 c 3.359,-0.14741 4.79856,-0.88312 5.75828,-1.17752 1.11966,-0.29427 4.79855,0 7.19784,-0.1474 1.11966,-0.14742 2.39928,-0.14742 3.51894,-0.29428 2.07937,-0.14686 3.359,0.73597 4.31871,0.73597 2.39928,0.14742 8.47745,-1.3247 8.47745,-1.3247 l 8.31751,-0.73593 3.359,0.14742 3.9988,-0.14742 v -18.83991 c -4.63861,0.29428 -7.67771,0.58878 -9.43718,1.03032 -1.75946,0.44169 -6.07818,1.47184 -7.35779,1.17751 -1.27962,-0.29428 -4.95851,-0.14742 -10.71679,0.88312 -5.75828,1.03031 -8.95732,1.76623 -8.95732,1.76623 l -8.95731,0.14743 c 0,0 -4.95851,2.9437 -6.07817,1.91338 -1.59952,-1.32465 -7.03789,-0.4417 -7.03789,-0.4417 l -2.39929,0.58872 v 8.97839 l 9.75708,5.15154 c 1.11967,0 0.15996,0 1.43957,0 0.79976,0.14741 3.9988,0.58879 4.79856,0.58879 z"
         id="path2248"
         style="fill:url(#SVGID_23_);stroke-width:1.53436" />
      <path
         class="st30"
         d="m 176.85871,136.41074 c 0,1.32471 -0.47983,2.50223 -1.11966,2.50223 -0.63981,0 -1.27963,-1.03032 -1.43959,-2.50223 0,-1.91338 0.79978,-2.50216 1.43959,-2.50216 0.6398,0 1.11966,1.03032 1.11966,2.50216 z"
         id="path2250"
         style="fill:#8494af;stroke-width:1.53436" />
      <path
         class="st30"
         d="m 163.10282,137.88265 c 0,1.32465 -0.47982,2.35496 -0.9597,2.35496 -0.63981,0 -1.27963,-1.03031 -1.27963,-2.35496 0,-1.91343 0.79977,-2.50217 1.27963,-2.50217 0.47988,0.14686 0.9597,1.17746 0.9597,2.50217 z"
         id="path2252"
         style="fill:#8494af;stroke-width:1.53436" />
      <polygon
         class="st73"
         points="430.8,264.5 392.8,268.7 392.7,266.3 430.8,261.3 "
         id="polygon2254"
         transform="matrix(1.5995203,0,0,1.4718669,-499.09861,-252.1621)"
         style="fill:#cfd8e2" />
      <polygon
         class="st29"
         points="392.8,267.6 430.8,262.3 430.8,264.5 392.8,268.9 "
         id="polygon2256"
         transform="matrix(1.5995203,0,0,1.4718669,-499.09861,-252.1621)"
         style="fill:#b4c1d1" />
      <path
         class="st40"
         d="m 174.77932,136.41074 c -0.15995,-1.91338 0.47983,-2.50216 0.95973,-2.50216 -0.15997,0 -2.39929,0.29427 -2.39929,0.29427 v 0 0 c -0.63981,0.14743 -1.27962,1.17752 -1.27962,2.35498 0,1.32471 0.47989,2.20782 1.27962,2.35502 v 0 c 0,0 1.91941,-0.14742 2.55924,-0.14742 -0.47983,-0.14742 -0.95971,-0.58878 -1.11968,-2.35502 z"
         id="path2258"
         style="fill:#ffffff;stroke-width:1.53436" />
      <path
         class="st40"
         d="m 161.18341,137.88265 c -0.15996,-1.91343 0.47982,-2.35502 0.95971,-2.35502 -0.15997,0 -2.39928,0.29427 -2.39928,0.29427 v 0 0 c -0.63981,0.14743 -1.11966,1.17752 -1.11966,2.35497 0,1.17751 0.47982,2.20782 1.11966,2.35502 v 0 c 0,0 1.91942,-0.14742 2.39928,-0.14742 -0.47982,-0.29426 -0.79977,-0.73592 -0.95971,-2.50215 z"
         id="path2260"
         style="fill:#ffffff;stroke-width:1.53436" />
      <path
         class="st30"
         d="m 186.13593,140.97354 c 0,1.4719 -0.47983,2.64936 -1.11968,2.64936 -0.63981,0 -1.27961,-1.17746 -1.43956,-2.64936 -0.15997,-2.06057 0.79975,-2.64936 1.43956,-2.64936 0.63983,0 1.11968,1.17751 1.11968,2.64936 z"
         id="path2264"
         style="fill:#8494af;stroke-width:1.53436" />
      <path
         class="st30"
         d="m 167.74145,142.73978 c 0,1.32471 -0.47985,2.50216 -1.11967,2.50216 -0.63981,0 -1.27961,-1.17745 -1.43957,-2.50216 -0.15997,-1.91343 0.79976,-2.50217 1.43957,-2.50217 0.6398,0 1.11967,1.03032 1.11967,2.50217 z"
         id="path2266"
         style="fill:#8494af;stroke-width:1.53436" />
      <polygon
         class="st34"
         points="430.8,268.4 392.8,271.9 392.8,269.5 430.8,265.2 "
         id="polygon2268"
         transform="matrix(1.5995203,0,0,1.4718669,-499.09861,-252.1621)"
         style="fill:#b20000" />
      <polygon
         class="st39"
         points="392.8,270.9 430.8,266.8 430.8,268.5 392.8,271.9 "
         id="polygon2270"
         transform="matrix(1.5995203,0,0,1.4718669,-499.09861,-252.1621)"
         style="fill:#77000c" />
      <path
         class="st73"
         d="m 184.05654,140.97354 c -0.15996,-2.06057 0.47989,-2.50217 0.95971,-2.64936 -0.15995,0 -2.39927,0.29428 -2.39927,0.29428 v 0 0 c -0.63982,0.14742 -1.27962,1.17751 -1.27962,2.50218 0,1.32468 0.47982,2.35496 1.27962,2.50215 v 0 c 0,0 1.91942,-0.14742 2.55922,-0.14742 -0.6398,-0.14742 -0.95971,-0.44171 -1.11966,-2.50216 z"
         id="path2272"
         style="fill:#cfd8e2;stroke-width:1.53436" />
      <path
         class="st73"
         d="m 165.82202,142.73978 c -0.15997,-2.06058 0.47988,-2.50217 0.95971,-2.50217 -0.15995,0 -2.39927,0.29428 -2.39927,0.29428 v 0 0 c -0.63983,0.14743 -1.27964,1.17747 -1.27964,2.50218 0,1.32465 0.47983,2.35496 1.27964,2.50216 v 0 c 0,0 1.91941,-0.14743 2.55922,-0.14743 -0.63981,-0.44168 -1.11966,-0.73592 -1.11966,-2.64935 z"
         id="path2274"
         style="fill:#cfd8e2;stroke-width:1.53436" />
      <path
         class="st70"
         d="m 129.35296,134.49736 c -5.59833,-0.29428 -9.59713,-0.29428 -11.67651,0 -2.23932,0.29428 -9.11728,1.61905 -10.87675,1.03027 -1.75946,-0.44171 -5.75825,-1.47186 -14.075769,-1.03027 -8.637404,0.44171 -13.915829,0.88312 -13.915829,0.88312 L 60.093719,135.0862 c 0,0 -4.638612,1.91345 -6.717985,0.58874 -2.879137,-1.76625 -17.754677,-0.58874 -17.754677,-0.58874 l -0.159962,17.8096 c 0,0 9.757079,-0.4417 21.273625,-0.29428 1.599519,0 7.037886,0.73592 8.477454,0.73592 5.438374,0 7.997604,-0.73592 9.597122,-1.03031 1.919424,-0.29428 7.517752,0.29428 11.356598,0.14742 1.759481,0 3.678897,-0.14742 5.278411,-0.14742 3.039091,0 4.958522,0.88311 6.238132,1.03031 3.518943,0.29428 11.836443,-0.88312 11.836443,-0.88312 l 10.87676,-0.29428 4.15874,0.29428 h 4.47866 z"
         id="path2282"
         style="fill:#cc9a89;stroke-width:1.53436" />
      <path
         class="st70"
         d="m 117.35655,134.64451 c -2.23934,0.29428 -9.11726,1.61909 -10.87675,1.03031 -1.75947,-0.4417 -5.75827,-1.47185 -14.075772,-1.03031 -8.637404,0.44169 -13.915829,0.88312 -13.915829,0.88312 H 62.013145 c 0,0 -15.835254,2.35502 -17.914633,1.03031 -2.879136,-1.76624 -8.637411,-1.17746 -8.637411,-1.17746 v 1.32466 c 2.23933,1.47184 5.438373,0.4417 8.637411,0.73592 2.719186,0.14743 69.739088,0.14743 85.094478,-0.14742 v -2.64935 c -5.75827,-0.29429 -9.59711,-0.29429 -11.83644,0 z"
         id="path2284"
         style="fill:#cc9a89;stroke-width:1.53436" />
      <path
         class="st74"
         d="m 64.892281,153.04289 c 5.438367,0 7.997598,-0.73598 9.597121,-0.88312 1.91943,-0.14742 7.517743,0.29428 11.35659,0.14686 1.75948,0 3.678896,-0.14686 5.278425,-0.14686 3.039076,0 4.958507,0.88312 6.238118,1.03026 3.518945,0.29427 11.836465,-0.88312 11.836465,-0.88312 l 10.87673,-0.29429 4.15875,0.29429 h 4.95851 V 134.9389 c -5.59832,-0.29428 -9.59711,-0.29428 -11.83644,0 -2.23934,0.29427 -9.11726,1.47184 -10.87675,1.03032 -1.75947,-0.44171 -5.75827,-1.47186 -14.075772,-1.03032 -8.637404,0.4417 -13.915829,0.73592 -13.915829,0.73592 H 62.013145 c 0,0 -7.037893,1.61904 -9.117268,0.29428 -2.879137,-1.61905 -17.594726,-0.88312 -17.594726,-0.88312 v 1.61904 1.03032 l 18.234532,14.42432 c 2.079375,0 0.319925,0 2.719187,0 1.759468,0.29428 7.197842,0.88312 8.637411,0.88312 z"
         id="path2299"
         style="fill:url(#SVGID_24_);stroke-width:1.53436" />
      <rect
         x="35.461113"
         y="146.27234"
         class="st34"
         width="93.731895"
         height="3.9740407"
         id="rect2301"
         style="fill:#b20000;stroke-width:1.53436" />
      <rect
         x="35.461113"
         y="148.3329"
         class="st39"
         width="93.731895"
         height="1.913427"
         id="rect2303"
         style="fill:#77000c;stroke-width:1.53436" />
      <path
         class="st29"
         d="m 58.014338,149.95195 c 0,0.44168 -0.319924,0.73592 -0.639806,0.73592 h -2.23933 c -0.319923,0 -0.639805,-0.29429 -0.639805,-0.73592 v -3.6797 c 0,-0.44168 0.319923,-0.73592 0.639805,-0.73592 h 2.23933 c 0.319926,0 0.639806,0.29429 0.639806,0.73592 z"
         id="path2307"
         style="fill:#b4c1d1;stroke-width:1.53436" />
      <rect
         x="35.461113"
         y="139.79607"
         class="st29"
         width="94.051796"
         height="3.9740407"
         id="rect2311"
         style="fill:#b4c1d1;stroke-width:1.53436" />
      <rect
         x="35.461113"
         y="141.8567"
         class="st30"
         width="93.731895"
         height="1.913427"
         id="rect2313"
         style="fill:#8494af;stroke-width:1.53436" />
      <path
         class="st73"
         d="m 47.457504,143.4757 c 0,0.44171 -0.319923,0.73599 -0.639806,0.73599 h -2.239331 c -0.319925,0 -0.639805,-0.29428 -0.639805,-0.73599 v -3.67962 c 0,-0.4417 0.319923,-0.73598 0.639805,-0.73598 h 2.239331 c 0.319924,0 0.639806,0.29428 0.639806,0.73598 z"
         id="path2317"
         style="fill:#cfd8e2;stroke-width:1.53436" />
      <path
         class="st73"
         d="m 67.611461,143.4757 c 0,0.44171 -0.319925,0.73599 -0.639807,0.73599 h -2.23933 c -0.319924,0 -0.639806,-0.29428 -0.639806,-0.73599 v -3.67962 c 0,-0.4417 0.319924,-0.73598 0.639806,-0.73598 h 2.23933 c 0.319925,0 0.639807,0.29428 0.639807,0.73598 z"
         id="path2319"
         style="fill:#cfd8e2;stroke-width:1.53436" />
      <path
         d="m 98.162307,252.83546 c 0,2.79651 0.639805,5.00434 2.399273,4.85714 3.67889,-0.14742 3.9988,-1.47186 8.15756,-0.58874 3.03908,0.73594 8.15755,0.58874 9.11726,-0.14741 0.63981,-0.58873 3.19904,-3.97407 -1.11966,-4.85719 -3.9988,-0.73592 -7.83765,-2.06057 -9.75708,-5.29872 -1.11966,-2.06057 -4.15875,0.29428 -4.15875,0.29428 l -3.998798,1.47185 z"
         id="path2327"
         style="stroke-width:1.53436" />
      <path
         class="st23"
         d="m 109.67885,232.37651 c 0.15996,-2.64938 -0.15997,-4.71001 0.47982,-6.18185 0.79976,-2.20783 -0.15996,-22.66678 0.95971,-32.82264 0,0 -12.956104,17.66241 -13.595923,22.96113 -0.159967,1.32465 0,3.23808 0.319932,5.44591 -0.479825,0.29428 -2.399285,5.59305 -2.559236,5.88744 -1.75948,1.61906 0.639805,28.70144 0.639805,28.70144 0,0 10.876732,-2.20783 16.794972,-5.29871 -1.59952,-2.06065 -1.91944,-10.74464 -3.0391,-18.69272 z"
         id="path2329"
         style="fill:#203689;stroke-width:1.53436" />
      <path
         class="st41"
         d="m 78.968054,258.57572 c -0.159952,2.94375 -0.319917,5.59312 1.75948,5.7403 3.998798,0.14688 3.998798,-1.47189 8.3175,-0.14741 3.358994,1.03031 10.556835,-0.14742 11.516546,-1.17751 0.95972,-0.88312 2.87914,-4.5628 -1.279614,-5.00433 -4.478653,-0.58879 -9.277223,-1.47191 -10.876737,-5.15153 -1.119675,-2.35502 -4.478654,0 -4.478654,0 l -4.638619,1.32465 z"
         id="path2331"
         style="fill:#282626;stroke-width:1.53436" />
      <path
         class="st0"
         d="m 113.03784,182.03866 c 0,15.60176 -8.63742,42.53696 -11.35659,45.18632 -2.719186,2.79651 -6.717986,25.75762 -6.238132,29.7317 -3.518944,4.1212 -15.99521,1.76624 -17.274821,1.47185 -0.639806,-6.91778 3.518945,-22.66674 6.877938,-30.90922 3.358994,-8.09528 3.678897,-6.03465 3.838848,-7.50649 0.479825,-7.80088 4.318702,-19.13432 1.759465,-22.96112 -2.559222,-3.82688 -2.399271,-12.36368 -1.11966,-17.36807 0.319932,-0.88312 23.512952,2.35503 23.512952,2.35503 z"
         id="path2333"
         style="fill:#12195b;stroke-width:1.53436" />
      <path
         class="st75"
         d="m 98.482209,143.7701 c -2.079382,-4.12121 0.799757,-9.56713 0.799757,-9.56713 l -11.19664,-3.97407 c 0,0 0.479883,6.0347 -1.279626,14.12992 -0.319917,1.32471 11.676509,-0.58872 11.676509,-0.58872 z"
         id="path2335"
         style="fill:#f7d8cb;stroke-width:1.53436" />
      <path
         class="st75"
         d="m 100.24167,116.54057 c -3.838843,-3.67968 -16.954914,-2.20783 -15.995192,5.44591 1.599514,11.77491 12.796154,13.09961 12.796154,13.09961 2.559237,0.58873 4.158748,0.4417 5.758278,-0.73592 0.95971,-0.58878 1.43956,-3.53248 1.59951,-5.59311 0.95973,-0.4417 1.91943,-1.03031 1.59953,-1.61905 -0.79977,-0.73592 -2.39928,-4.12122 -2.87914,-4.56279 -0.47982,-3.2381 -1.11966,-4.26841 -2.87914,-6.03465 z"
         id="path2337"
         style="fill:#f7d8cb;stroke-width:1.53436" />
      <path
         class="st0"
         d="m 92.084125,138.02985 c 1.439563,1.32464 10.076985,0.58872 12.316295,4.26839 4.47867,7.21216 4.63863,20.9005 5.43838,24.28578 1.43956,6.03464 1.91942,18.2512 2.55923,20.75336 0.63981,2.64936 -23.83285,7.94807 -24.792558,3.23809 -1.439578,-6.62337 -1.599529,-17.22082 -3.199043,-22.66674 -1.599527,-5.44591 -3.518944,-8.24247 -4.318716,-17.80959 -0.479825,-5.59312 4.478668,-12.21649 6.558036,-15.01305 z"
         id="path2339"
         style="fill:#12195b;stroke-width:1.53436" />
      <path
         class="st23"
         d="m 100.40163,140.82635 c 6.07817,6.47622 9.11727,5.4459 11.6765,20.01742 1.11966,6.03464 0.95971,15.16023 1.27961,22.078 0.15998,2.64937 -1.27961,5.88746 -1.43957,5.29872 -1.43956,-15.74896 -4.95851,-29.29015 -5.59832,-31.35078 -1.43956,-5.15153 -9.437169,-19.87018 -5.91822,-16.04336 z"
         id="path2341"
         style="fill:#203689;stroke-width:1.53436" />
      <path
         d="m 100.08172,118.89553 c -1.439559,-0.14742 -2.399267,1.47191 -2.399267,2.94375 -0.159967,1.47186 -0.47984,2.64938 -0.47984,2.64938 l -1.439563,-0.14743 c 0,0 -1.919416,1.47184 0,3.53248 0.959709,1.03032 -0.479825,4.1212 -0.479825,4.1212 l -10.076979,3.67969 c 0,0 -5.278411,-10.15586 -3.199043,-14.71866 0.319932,-0.88312 1.599529,-1.17751 1.759481,-1.91343 1.119659,-4.2684 4.318701,-3.82687 6.55802,-4.2684 13.755876,-2.94376 11.516556,3.09089 11.516556,3.09089 z"
         id="path2343"
         style="stroke-width:1.53436" />
      <path
         class="st0"
         d="m 84.086527,135.67482 c 3.039091,-3.23809 16.635003,0.73592 17.274803,2.06063 0.63982,1.32465 0.31994,3.67967 0.31994,3.67967 0,0 -12.796172,-4.26839 -18.234534,-1.4719 -0.959723,0.58879 0.639806,-4.2684 0.639806,-4.2684 z"
         id="path2345"
         style="fill:#12195b;stroke-width:1.53436" />
      <polygon
         class="st29"
         points="403.7,263.7 404.3,266 406.2,265.5 405.6,263.2 "
         id="polygon2349"
         transform="matrix(1.5995203,0,0,1.4718669,-499.09861,-252.1621)"
         style="fill:#b4c1d1" />
      <path
         class="st29"
         d="m 151.58628,134.9389 c 0,0.29427 -1.43957,0.73592 -3.19904,1.17751 -1.91943,0.29427 -3.359,0.4417 -3.51895,0.14741 0,-0.29428 1.43957,-0.73596 3.19905,-1.17751 1.91942,-0.29428 3.35899,-0.29428 3.51894,-0.14741 z"
         id="path2353"
         style="fill:#b4c1d1;stroke-width:1.53436" />
      <path
         class="st29"
         d="m 151.10643,135.08609 c 0,0.14741 -1.11967,0.58873 -2.71919,0.88313 -1.59953,0.29428 -2.87914,0.44169 -2.87914,0.1474 0,-0.1474 1.11968,-0.58876 2.71919,-0.88312 1.43957,-0.29428 2.71919,-0.29428 2.87914,-0.14741 z"
         id="path2355"
         style="fill:#b4c1d1;stroke-width:1.53436" />
      <path
         class="st29"
         d="m 149.02705,135.38048 c 0,0 -0.31992,0.14686 -0.79976,0.29428 -0.47983,0.14743 -0.79978,0.14743 -0.79978,0 0,0 0.31994,-0.14742 0.79978,-0.29428 0.47982,0 0.79976,0 0.79976,0 z"
         id="path2357"
         style="fill:#b4c1d1;stroke-width:1.53436" />
      <path
         class="st5"
         d="m 130.63257,142.73978 c 1.91941,-0.29428 3.99879,-1.61905 5.75826,-2.79656 1.91944,-1.17745 3.99881,-3.67962 4.95852,-4.1212 1.11966,-0.44171 3.35899,-1.03032 3.9988,-1.47185 0.6398,-0.29428 3.51895,0 3.51895,0 0,0 0.6398,0.58873 -0.47983,0.88311 -1.11966,0.29428 -3.51894,1.03032 -3.51894,1.03032 0,0 2.71918,-0.14741 3.67889,0.73593 0.95971,0.88312 -2.71919,0.58873 -3.19904,0.58873 -0.47982,0 3.19904,0 3.19904,0.58872 -0.15996,0.73599 -3.51894,0.88312 -3.51894,0.88312 0,0 3.99879,-0.44168 3.19904,0.14743 -0.79976,0.58878 -2.87914,1.17751 -3.19904,1.61904 -0.95971,1.3247 -4.3187,2.94376 -5.59831,3.53248 -1.43959,0.58879 -6.87795,2.79655 -6.87795,2.79655 z"
         id="path2363"
         style="fill:#4d87db;stroke-width:1.53436" />
      <path
         class="st23"
         d="m 101.20138,153.63162 c 2.71919,2.35497 14.07578,1.32465 19.67411,0.73592 5.43836,-0.58873 19.19425,-4.2684 19.19425,-4.2684 0,0 -1.11967,-9.41994 -2.71918,-10.74465 -3.19905,0.29428 -12.63623,2.20783 -17.91463,3.09095 0,0 -18.23455,-1.61909 -20.313915,-0.29428 -6.238133,4.26841 2.079365,11.48056 2.079365,11.48056 z"
         id="path2365"
         style="fill:#203689;stroke-width:1.53436" />
    </g>
  </g>
</svg>
