<?xml version="1.0" encoding="UTF-8" standalone="no"?>
<!-- Created with Inkscape (http://www.inkscape.org/) -->

<svg
   width="300"
   height="150"
   viewBox="0 0 79.374998 39.687501"
   version="1.1"
   id="svg6261"
   inkscape:version="1.1 (c68e22c387, 2021-05-23)"
   sodipodi:docname="instal_baign.svg"
   xmlns:inkscape="http://www.inkscape.org/namespaces/inkscape"
   xmlns:sodipodi="http://sodipodi.sourceforge.net/DTD/sodipodi-0.dtd"
   xmlns="http://www.w3.org/2000/svg"
   xmlns:svg="http://www.w3.org/2000/svg">
  <sodipodi:namedview
     id="namedview6263"
     pagecolor="#505050"
     bordercolor="#eeeeee"
     borderopacity="1"
     inkscape:pageshadow="0"
     inkscape:pageopacity="0"
     inkscape:pagecheckerboard="0"
     inkscape:document-units="mm"
     showgrid="false"
     inkscape:zoom="2.8926302"
     inkscape:cx="139.49242"
     inkscape:cy="84.870855"
     inkscape:window-width="1920"
     inkscape:window-height="1001"
     inkscape:window-x="-9"
     inkscape:window-y="-9"
     inkscape:window-maximized="1"
     inkscape:current-layer="layer1"
     units="px" />
  <defs
     id="defs6258">
    <inkscape:path-effect
       effect="spiro"
       id="path-effect7498"
       is_visible="true"
       lpeversion="1" />
    <linearGradient
       id="SVGID_22_"
       gradientUnits="userSpaceOnUse"
       x1="76.913101"
       y1="311.92609"
       x2="70.467911"
       y2="283.9686"
       gradientTransform="matrix(0.58970789,0,0,0.65124868,-0.02529297,-179.90009)">
      <stop
         offset="0"
         style="stop-color:#FFFFFF"
         id="stop1610" />
      <stop
         offset="0.1293"
         style="stop-color:#E6E6E6"
         id="stop1612" />
      <stop
         offset="0.5229"
         style="stop-color:#A1A1A1"
         id="stop1614" />
      <stop
         offset="0.8069"
         style="stop-color:#757575"
         id="stop1616" />
      <stop
         offset="0.9505"
         style="stop-color:#646464"
         id="stop1618" />
    </linearGradient>
  </defs>
  <g
     inkscape:label="Calque 1"
     inkscape:groupmode="layer"
     id="layer1">
    <path
       style="fill:#ffd5e5;stroke:none;stroke-width:0.264583px;stroke-linecap:butt;stroke-linejoin:miter;stroke-opacity:1;fill-opacity:1"
       d="M 0.09146808,0.09146808 0,39.514211 79.485762,39.605677 79.394292,0 Z"
       id="path7806" />
    <path
       class="st30"
       d="m 46.08986,12.674129 c 0,0.521011 -0.825587,1.042023 -1.297355,1.042023 v 0 c -0.471762,0 -1.297358,-0.455885 -1.297358,-0.97689 l 0.412792,-4.5587326 c 0,-0.5210043 0.412804,-0.9768902 0.884566,-0.9768902 v 0 c 0.471768,0 0.884564,0.4558859 0.884564,0.9768902 z"
       id="path1544"
       style="fill:#8494af;stroke-width:0.619714" />
    <path
       class="st29"
       d="M 46.08986,12.674129 45.677069,8.1805294 c 0,-0.5210043 -0.412796,-0.9768902 -0.884564,-0.9768902 0,0 0,0 -0.05897,0 -0.05897,0.781504 -0.05897,0.9768902 -0.05897,1.8886475 0,1.6280963 0,3.7772283 0.235884,4.6889923 0.471764,-0.06523 1.179413,-0.651272 1.179413,-1.10715 z"
       id="path1546"
       style="fill:#b4c1d1;stroke-width:0.619714" />
    <path
       class="st30"
       d="M 49.922964,12.34851 C 49.392224,11.501887 49.097375,10.655279 49.333259,9.7435296 H 48.448693 C 48.625594,10.655279 47.976926,12.088019 47.623102,12.34851 Z"
       id="path1552"
       style="fill:#8494af;stroke-width:0.619714" />
    <path
       class="st29"
       d="m 50.099872,10.069148 c 0,0.06523 -0.589704,0.06523 -1.238383,-0.1302098 -0.64868,-0.1302104 -1.179416,-0.325618 -1.179416,-0.4558499 0,-0.065229 0.589708,-0.065229 1.238385,0.1302027 0.70765,0.1302104 1.238386,0.3256258 1.179414,0.455878 z"
       id="path1554"
       style="fill:#b4c1d1;stroke-width:0.619714" />
    <path
       class="st29"
       d="m 49.922964,10.004014 c 0,-0.1302029 0.11795,-0.1954294 0.23588,-0.1954294 0.117953,0 0.176901,0.1302027 0.176901,0.2604844 0,0.13021 -0.117944,0.195437 -0.23588,0.195437 -0.117946,0 -0.176901,-0.130203 -0.176901,-0.260514 z"
       id="path1556"
       style="fill:#b4c1d1;stroke-width:0.619714" />
    <path
       class="st29"
       d="m 47.56413,9.4830309 c 0,-0.1302095 0.117955,-0.1954301 0.235888,-0.1954301 0.117946,0 0.176897,0.1302104 0.176897,0.2604851 0,0.1302094 -0.117946,0.1954437 -0.235883,0.1954437 -0.117943,0 -0.176902,-0.1302094 -0.176902,-0.2604987 z"
       id="path1558"
       style="fill:#b4c1d1;stroke-width:0.619714" />
    <path
       class="st29"
       d="m 49.805023,9.3527776 c 0,0.065229 -0.412799,0.3256181 -0.943534,0.58611 -0.530737,0.2605134 -1.002506,0.3907524 -1.002506,0.3256474 0,-0.06523 0.412798,-0.3256474 0.943534,-0.5861393 0.471766,-0.260491 0.943534,-0.3907442 1.002506,-0.3256181 z"
       id="path1562"
       style="fill:#b4c1d1;stroke-width:0.619714" />
    <path
       class="st29"
       d="m 49.628108,9.4179047 c -0.05896,-0.1302104 0,-0.1954368 0.117946,-0.2605133 0.117954,-0.065229 0.176929,0 0.235888,0.1302094 0.05897,0.1302104 0,0.1954301 -0.117954,0.2604851 -0.117943,0.065229 -0.235883,0 -0.235883,-0.1302026 z"
       id="path1564"
       style="fill:#b4c1d1;stroke-width:0.619714" />
    <path
       class="st29"
       d="m 47.741042,10.32964 c -0.05896,-0.130211 0,-0.260492 0.117954,-0.325626 0.117947,-0.065229 0.235883,0 0.294852,0.13021 0.05897,0.13021 0,0.260492 -0.117946,0.325625 -0.117955,0.06523 -0.235884,0 -0.29486,-0.130209 z"
       id="path1566"
       style="fill:#b4c1d1;stroke-width:0.619714" />
    <path
       class="st30"
       d="M 42.197793,12.34851 C 41.667051,11.501887 41.372199,10.655279 41.608083,9.7435296 H 40.664551 C 40.841449,10.655279 40.192784,12.088019 39.838956,12.34851 Z"
       id="path1574"
       style="fill:#8494af;stroke-width:0.619714" />
    <path
       class="st29"
       d="m 42.374701,10.069148 c 0,0.06523 -0.589711,0.06523 -1.238386,-0.1302098 -0.648679,-0.1302104 -1.179414,-0.325618 -1.179414,-0.4558499 0,-0.065229 0.589702,-0.065229 1.238385,0.1302027 0.707651,0.1302104 1.179415,0.3256258 1.179415,0.455878 z"
       id="path1576"
       style="fill:#b4c1d1;stroke-width:0.619714" />
    <path
       class="st29"
       d="m 42.197793,10.004014 c 0,-0.1302029 0.117942,-0.1954294 0.235883,-0.1954294 0.117943,0 0.176901,0.1302027 0.176901,0.2604844 0,0.13021 -0.117953,0.195437 -0.235882,0.195437 -0.117955,0 -0.235887,-0.130203 -0.176902,-0.260514 z"
       id="path1578"
       style="fill:#b4c1d1;stroke-width:0.619714" />
    <path
       class="st29"
       d="m 39.838956,9.4830309 c 0,-0.1302095 0.117952,-0.1954301 0.235885,-0.1954301 0.117946,0 0.176901,0.1302104 0.176901,0.2604851 0,0.1302094 -0.11795,0.1954437 -0.235883,0.1954437 -0.117947,0 -0.176903,-0.1302094 -0.176903,-0.2604987 z"
       id="path1580"
       style="fill:#b4c1d1;stroke-width:0.619714" />
    <path
       class="st29"
       d="m 42.020878,9.3527776 c 0,0.065229 -0.412795,0.3256181 -0.943535,0.58611 -0.53074,0.2605134 -1.002502,0.3907524 -1.002502,0.3256474 0,-0.06523 0.412795,-0.3256474 0.943533,-0.5861393 0.530737,-0.260491 1.002504,-0.3907442 1.002504,-0.3256181 z"
       id="path1584"
       style="fill:#b4c1d1;stroke-width:0.619714" />
    <path
       class="st29"
       d="m 41.843966,9.4179047 c -0.05898,-0.1302104 0,-0.1954368 0.117951,-0.2605133 0.117942,-0.065229 0.1769,0 0.23588,0.1302094 0.05896,0.1302104 0,0.1954301 -0.117947,0.2604851 -0.05897,0.065229 -0.176902,0 -0.235884,-0.1302026 z"
       id="path1586"
       style="fill:#b4c1d1;stroke-width:0.619714" />
    <path
       class="st29"
       d="m 39.956901,10.32964 c -0.05897,-0.130211 0,-0.260492 0.117949,-0.325626 0.117947,-0.065229 0.235888,0 0.294857,0.13021 0.05896,0.13021 0,0.260492 -0.117952,0.325625 -0.05897,0.06523 -0.235883,0 -0.294851,-0.130209 z"
       id="path1588"
       style="fill:#b4c1d1;stroke-width:0.619714" />
    <path
       class="st30"
       d="m 55.761071,26.806233 c 0.884563,-0.195437 3.007512,0.651266 2.358833,3.060867 -0.707648,2.60501 -2.712657,3.45164 -1.356329,3.712124 0.943537,0.195443 -1.297359,0.455878 -1.297359,0.455878 0,0 -0.294852,-0.19543 -0.117951,-1.04201 0.235887,-1.302486 0.943535,-2.27937 0.589712,-2.930606 -0.589712,-1.107121 -1.710151,-0.84663 -1.710151,-1.497866 0.05896,-0.71637 1.533242,-1.758387 1.533242,-1.758387 z"
       id="path1596"
       style="fill:#8494af;stroke-width:0.619714" />
    <path
       class="st30"
       d="m 55.761071,34.165334 c 0,-0.651236 0.471763,-1.107115 1.002504,-1.107115 0.589706,0 1.002504,0.521005 1.002504,1.107115 0,0.651272 -0.471766,1.10715 -1.002504,1.10715 -0.530741,0 -1.002504,-0.455878 -1.002504,-1.10715 z"
       id="path1598"
       style="fill:#8494af;stroke-width:0.619714" />
    <path
       class="st30"
       d="m 34.295704,26.806233 c -0.88456,-0.195437 -3.007508,0.651266 -2.358835,3.060867 0.707652,2.60501 2.712663,3.45164 1.356336,3.712124 -0.943536,0.195443 1.297354,0.455878 1.297354,0.455878 0,0 0.294852,-0.19543 0.117947,-1.04201 -0.23588,-1.302486 -0.943532,-2.27937 -0.58971,-2.930606 0.58971,-1.107121 1.710153,-0.84663 1.710153,-1.497866 0,-0.71637 -1.533235,-1.758387 -1.533235,-1.758387 z"
       id="path1602"
       style="fill:#8494af;stroke-width:0.619714" />
    <path
       class="st30"
       d="m 34.295704,34.165334 c 0,-0.651236 -0.471765,-1.107115 -1.002499,-1.107115 -0.58971,0 -1.002507,0.521005 -1.002507,1.107115 0,0.651272 0.471764,1.10715 1.002507,1.10715 0.530734,0 1.002499,-0.455878 1.002499,-1.10715 z"
       id="path1604"
       style="fill:#8494af;stroke-width:0.619714" />
    <path
       class="st29"
       d="m 28.516564,15.539636 v 0 c 0,5.796108 5.071492,14.718216 9.730182,14.718216 h 12.914603 c 4.658694,0 9.730177,-8.922108 9.730177,-14.718216 v 0 z"
       id="path1608"
       style="fill:#b4c1d1;stroke-width:0.619714" />
    <path
       class="st69"
       d="M 62.011973,15.604763 34.590559,28.694852 c 0,0 -6.250904,-6.251993 -6.073995,-13.155216 2.122949,-0.260498 -0.117946,-1.432739 2.299862,-1.628126 11.440336,-0.911735 29.308484,-0.390752 29.308484,-0.390752 z"
       id="path1621"
       style="fill:url(#SVGID_22_);stroke-width:0.619714" />
    <path
       class="st12"
       d="m 38.48263,38.07283 c -2.594713,-0.911728 -4.599722,-1.172248 -6.250904,-1.172248 v 0 c -3.125454,0 -4.776634,1.107143 -6.07399,1.823513 v 0 l -0.412798,-0.911757 c 1.238389,-0.716363 3.125453,-1.953744 6.486788,-1.953744 v 0 c 1.769126,0 3.892075,0.325618 6.486788,1.237381 v 0 c 2.535741,0.846624 5.012517,1.237376 7.194435,1.237376 v 0 c 2.063977,0 3.892074,-0.390752 5.071489,-0.976891 v 0 c 1.238386,-0.58611 1.828093,-1.367606 1.769125,-2.14911 v 0 c 0,0 0,-0.06523 0,-0.06523 v 0 c 0,-0.651244 -0.707652,-1.302509 -2.063981,-1.758388 v 0 C 49.333259,32.927877 47.505158,32.73249 45.736037,32.73249 v 0 c -0.353828,0 -0.707647,0 -1.002504,0 v 0 c -0.05897,0.13021 -0.05897,0.260492 -0.117946,0.325618 v 0 c -0.589708,1.823514 -2.181921,2.474757 -3.479279,2.474757 v 0 c -0.53074,0 -1.061475,-0.130209 -1.474267,-0.325625 v 0 c -0.412795,-0.195427 -0.766622,-0.651262 -0.766622,-1.237372 v 0 c 0,-0.586132 0.353827,-0.911757 0.766622,-1.172241 v 0 c 0.412792,-0.260492 0.943527,-0.455886 1.533242,-0.65125 v 0 c 0.766612,-0.195431 1.710147,-0.32564 2.712654,-0.455872 v 0 c 0.294852,-1.823513 0.412795,-5.144871 0.412795,-8.140603 v 0 c 0,-3.191127 -0.05897,-6.121755 -0.05897,-7.033489 v 0 h 0.943535 c 0,0.911734 0.05896,3.842362 0.05896,7.033489 v 0 c 0,2.930605 -0.05896,6.056599 -0.353823,8.075477 v 0 c 0.294851,0 0.530735,0 0.825587,0 v 0 c 1.828097,0 3.715163,0.195437 5.189433,0.716362 v 0 c 1.47427,0.521012 2.653684,1.302509 2.771625,2.735249 v 0 c 0,0 0,0.06523 0,0.06523 v 0 c 0,1.367606 -1.002506,2.409624 -2.358832,3.060867 v 0 c -1.415299,0.651236 -3.302365,1.041988 -5.484282,1.041988 v 0 c -2.181918,0.13021 -4.717662,-0.260492 -7.37135,-1.172248 z m 3.479279,-4.949478 c -1.061475,0.195431 -1.887068,0.586132 -2.005008,0.846624 v 0 c -0.05897,0.06523 -0.05897,0.06523 -0.05897,0.06523 v 0 c 0,0.06523 0,0.130211 0.294855,0.325626 v 0 c 0.235884,0.130203 0.589708,0.260484 1.002506,0.260484 v 0 c 1.0025,0 2.063978,-0.455878 2.535741,-1.693224 v 0 c -0.589703,0 -1.179414,0.06523 -1.769118,0.195437 z"
       id="path1625"
       style="fill:#a6ddff;stroke-width:0.619714" />
    <path
       class="st40"
       d="m 46.738542,17.428255 c 0,0.130202 -0.117949,0.195436 -0.176905,0.195436 h -3.302363 c -0.117947,0 -0.176901,-0.130209 -0.176901,-0.195436 V 16.38626 c 0,-0.130203 0.11795,-0.195437 0.176901,-0.195437 h 3.302363 c 0.117951,0 0.176905,0.130209 0.176905,0.195437 z"
       id="path1627"
       style="fill:#ffffff;stroke-width:0.619714" />
    <path
       class="st34"
       d="m 40.546603,37.030842 c -2.712652,0 -6.486787,-0.71637 -11.794154,-2.409623 v 0 l 0.235884,-0.781496 c 5.2484,1.693253 8.963559,2.344489 11.55827,2.344489 v 0 c 3.420308,0 4.894582,-1.107115 5.720172,-2.539854 v 0 c 0.825592,-1.432769 0.884561,-3.32138 1.179415,-5.014611 v 0 c 0.471771,-2.865509 0.825591,-8.922129 1.120443,-12.569105 v 0 l 0.766626,0.06523 c -0.294855,3.646976 -0.648685,9.703605 -1.12045,12.63421 v 0 c -0.294848,1.562993 -0.353826,3.581872 -1.238383,5.275124 v 0 c -1.061477,1.758358 -2.889571,2.99574 -6.427823,2.99574 v 0 c 0,0 0,0 0,0 z"
       id="path1629"
       style="fill:#b20000;stroke-width:0.619714" />
    <path
       d="m 49.392224,18.340012 c 0,0.06523 -0.05896,0.195429 -0.176902,0.195429 h -1.002499 c -0.05897,0 -0.176898,-0.06523 -0.176898,-0.195429 v -1.888618 c 0,-0.06523 0.05896,-0.195437 0.176898,-0.195437 h 1.002499 c 0.05897,0 0.176902,0.06523 0.176902,0.195437 z"
       id="path1631"
       style="stroke-width:0.619714" />
    <path
       class="st40"
       d="m 49.628108,18.014386 c 0,0.13021 -0.117947,0.195437 -0.176903,0.195437 h -1.356326 c -0.117946,0 -0.1769,-0.13021 -0.1769,-0.195437 v -2.60501 c 0,-0.130209 0.117954,-0.195437 0.1769,-0.195437 h 1.356326 c 0.117952,0 0.176903,0.130211 0.176903,0.195437 z"
       id="path1633"
       style="fill:#ffffff;stroke-width:0.619714" />
    <path
       class="st4"
       d="m 28.339655,34.100236 c 2.063977,-1.497896 4.894574,-1.237382 7.253404,-1.367642 v 0 c 2.417804,-0.19543 4.245897,-0.651236 4.776633,-3.321351 v 0 c 0.235887,-1.042017 0.294859,-2.735242 0.294859,-4.623888 v 0 c 0,-1.823484 -0.05898,-3.842356 -0.05898,-5.665847 v 0 c 0,-1.107122 0,-2.149132 0.05898,-2.99574 v 0 0 l 0.707648,0.06501 c -0.05897,0.84663 -0.05897,1.823512 -0.05897,2.930634 v 0 c 0,1.758359 0.05897,3.777229 0.05897,5.665847 v 0 c 0,1.888648 -0.05897,3.647005 -0.294856,4.819246 v 0 c -0.648679,3.191127 -3.007509,3.842363 -5.484284,3.972623 v 0 c -2.476772,0.130211 -5.189427,-0.06523 -6.899581,1.237376 v 0 z"
       id="path1639"
       style="fill:#3357bc;stroke-width:0.619714" />
    <path
       d="m 41.667051,18.340012 c 0,0.06523 -0.05896,0.195429 -0.176899,0.195429 H 40.48765 c -0.05897,0 -0.176901,-0.06523 -0.176901,-0.195429 v -1.888618 c 0,-0.06523 0.05897,-0.195437 0.176901,-0.195437 h 1.002502 c 0.05896,0 0.176899,0.06523 0.176899,0.195437 z"
       id="path1641"
       style="stroke-width:0.619714" />
    <path
       class="st40"
       d="m 41.902937,18.014386 c 0,0.13021 -0.11795,0.195437 -0.176901,0.195437 h -1.356329 c -0.117952,0 -0.176903,-0.13021 -0.176903,-0.195437 v -2.60501 c 0,-0.130209 0.11795,-0.195437 0.176903,-0.195437 h 1.356329 c 0.117947,0 0.176901,0.130211 0.176901,0.195437 z"
       id="path1643"
       style="fill:#ffffff;stroke-width:0.619714" />
    <path
       class="st29"
       d="m 62.89654,14.758133 c 0,1.367635 -0.943536,1.367635 -2.122951,1.367635 H 28.575535 c -1.179414,0 -2.122948,0.06501 -2.122948,-1.367635 v 0 c 0,-1.367606 0.943534,-2.539854 2.122948,-2.539854 h 32.257023 c 1.120446,0.06501 2.063982,1.172248 2.063982,2.539854 z"
       id="path1649"
       style="fill:#b4c1d1;stroke-width:0.619714" />
    <path
       class="st22"
       d="m 38.61034,13.255943 c 0.352168,-0.03539 0.716517,0.05882 1.050389,-0.171086 0.949015,-0.618822 1.570262,-0.942961 1.622858,-1.013686 0.266799,-0.942866 -1.291269,0.129752 -1.194455,-0.730598 0.198193,-0.412503 0.371991,-1.08428 0.418495,-1.219827 0.210387,-0.2828546 1.143389,-0.4420473 1.119,-0.7013167 -0.06097,-0.6482089 -1.44524,-0.2473628 -2.042096,0.3360231 -0.977227,0.9488116 -1.96055,1.8328106 -1.96055,1.8328106 z"
       id="path1653"
       style="fill:#a05a2c;stroke-width:0.619714" />
    <path
       class="st0"
       d="m 27.455092,9.4179047 c 1.238386,0.7163703 3.597219,3.5167443 5.543254,4.0377273 0.58971,0.13021 5.071488,-2.865479 5.071488,-2.865479 l 0.76662,3.58187 c 0,0 -4.54075,3.516745 -5.543249,3.712103 -1.651187,0.260499 -8.373856,-2.800368 -8.373856,-2.800368 z"
       id="path1655"
       style="fill:#ff6600;fill-opacity:1;stroke-width:0.619714" />
    <path
       class="st2"
       d="m 29.106272,6.2267851 c -0.353823,0.6512438 -0.825589,1.2373743 -1.65118,2.1491023 -1.651181,1.8235136 -1.710154,2.2142656 -1.710154,2.2142656 l 2.653684,2.995739 c 0,0 2.240891,-2.735249 3.184425,-2.930613 0.943535,-0.260514 -2.476775,-4.4284939 -2.476775,-4.4284939 z"
       id="path1657"
       style="fill:#784421;stroke-width:0.619714" />
    <path
       class="st2"
       d="m 35.003355,9.1573914 c -0.05897,-0.4558567 0.235883,-1.5630002 0.235883,-1.8234921 0,0 0,0 0,0 0.530737,-0.5210043 1.179415,-1.5629925 1.120443,-2.8655009 0,-0.065228 -0.353823,-0.1954369 -0.412792,-0.3256181 -0.412799,-2.1491098 -4.776635,-4.29824107 -6.250906,-1.4978663 -2.771627,5.2099973 1.356328,7.880111 2.417799,8.531348 0.176901,0.13021 0.64868,0.195436 1.238384,-0.781497 0.35383,-0.325617 0.648686,-0.5861092 0.884567,-0.9117341 0.353826,0.065229 0.648678,0 0.766622,-0.1954301 -0.05897,-0.065229 0,-0.065229 0,-0.1302094 z"
       id="path1659"
       style="fill:#a05a2c;stroke-width:0.619714" />
    <path
       class="st3"
       d="m 31.347163,1.2121741 c 0.64868,-0.1954368 1.710153,-0.78150356 2.417805,-0.45587829 1.356327,0.65124339 2.712654,1.75835799 2.771626,3.19111929 0.05897,1.3676134 1.002501,1.563 1.002501,1.563 0,0 -0.353822,0.846623 -1.238385,0.71637 -0.353821,-0.065227 -1.828094,-0.9117566 -2.535742,-0.521012 -0.589711,0.3256182 -1.356328,0.3256182 -1.356328,0.3256182 0,0 -1.120444,-0.3907447 -1.356329,0 -0.05897,0.1302099 -0.884563,1.042017 -1.297356,1.2373818 -0.884564,0.390752 -2.181921,0.065229 -2.181921,0.065229 0,0 0.766621,-0.5210043 1.120444,-2.8655007 0.47177,-2.7352482 1.710154,-2.9306062 2.653685,-3.2562243 z"
       id="path1661"
       style="fill:#454837;stroke-width:0.619714;fill-opacity:1" />
    <path
       class="st2"
       d="m 32.231726,5.8360333 c 0.648678,-1.1722482 -0.70765,-1.1071218 -0.884563,-0.7814964 -0.1769,0.3907446 -0.943531,1.2373746 -0.530737,1.8886182 0.412795,0.6512361 1.4153,-1.1071218 1.4153,-1.1071218 z"
       id="path1663"
       style="fill:#a05a2c;stroke-width:0.619714" />
    <path
       class="st37"
       d="m 29.087533,5.1766135 c 0.530737,0 3.951042,-0.7815035 3.951042,-0.7815035 0,0 1.651183,1.8234844 2.535745,1.888618 0.884562,0.1302025 2.240888,-1.1071145 3.302368,-0.2605202 -1.238387,-1.237346 -1.710158,-1.4327399 -1.710158,-1.4327399 0,0 0.05898,-1.693253 -1.474267,-3.1911194 -0.648679,-0.65124323 -2.005006,-1.17224814 -2.594717,-1.04198796 -0.648676,0.1302028 -2.122948,0.1302028 -2.948536,1.56299996 -0.825592,1.4327327 -1.061477,3.256253 -1.061477,3.256253 z"
       id="path1669"
       style="fill:#ff7f2a;stroke-width:0.619714" />
    <path
       d="m 29.460098,1.9553898 c -0.825591,1.4327471 -1.179415,3.321358 -1.179415,3.321358 0.471766,0 3.479276,-0.6512362 4.245899,-0.7814964 -0.235884,-1.3024796 -0.176902,-3.1911265 0.412793,-4.10284716 -0.05897,0 -0.117949,0 -0.176903,0 -0.589706,0.0652265 -2.47677,0.0652265 -3.302361,1.56298556 z"
       id="path1673"
       style="fill:#ff6600;stroke-width:0.619714" />
    <path
       class="st0"
       d="m 25.626998,27.066747 c 0.76662,2.149109 3.951043,6.317091 3.715159,8.661587 -0.117947,1.042016 -1.061474,1.888646 -1.474271,1.823513 -0.412794,-0.06523 -3.302362,-8.401117 -3.302362,-8.401117 z"
       id="path1681"
       style="fill:#00665c;fill-opacity:1;stroke-width:0.619714" />
    <path
       d="m 15.248139,29.736861 c -0.648679,-0.325618 -2.240891,-1.888611 -3.184423,-0.911756 -0.943532,1.041995 -1.061474,2.409629 -0.884561,2.800374 0.235881,0.390752 3.125452,-0.586131 3.125452,-0.586131 z"
       id="path1683"
       style="fill:#333333;stroke-width:0.619714" />
    <path
       class="st23"
       d="m 12.653423,31.430092 c 0.05897,-0.71637 0.648679,-2.800345 2.24089,-2.539854 1.592213,0.260492 6.604728,2.539854 6.604728,2.539854 0,0 0.117949,3.125994 -0.353824,3.125994 -0.530737,-0.06523 -8.491794,-3.125994 -8.491794,-3.125994 z"
       id="path1685"
       style="fill:#00665c;fill-opacity:1;stroke-width:0.619714" />
    <path
       class="st37"
       d="m 13.420044,31.690606 c -1.061473,-1.04201 -1.59221,-1.823506 -2.771626,-1.693253 -1.1794164,0.130209 -1.4152991,0.84663 -1.4152991,1.888617 0,1.042018 -0.3538255,2.670116 -0.2948546,3.842364 0.058972,0.846629 0.7666222,2.735247 3.4792767,2.344496 1.710153,-0.260492 -0.235883,-1.758358 -0.471768,-2.800346 -0.294851,-0.97689 1.474271,-3.581878 1.474271,-3.581878 z"
       id="path1687"
       style="fill:#333333;stroke-width:0.619714" />
    <path
       class="st0"
       d="m 24.860377,24.396611 0.471767,-1.693232 c 1.769125,-3.060867 4.658691,-5.991501 4.717663,-8.9221 0.05897,-2.149138 -3.06648,-5.7961358 -3.06648,-5.7961358 -1.061476,0.2605133 -4.363839,1.1071435 -7.135466,6.0566198 -3.65619,6.121733 -5.130459,10.875852 -3.892072,13.871592 1.002503,2.409623 4.540751,4.754119 5.130459,5.209997 -0.235883,-0.130209 -1.887067,-1.172248 -2.535744,-1.302508 -0.825592,-0.195437 -2.948541,-0.911735 -6.073993,-1.758358 -1.061475,-0.325625 -1.533239,5.209998 -0.412795,5.861241 2.712656,1.693253 9.435325,3.125986 10.732684,3.06086 2.181919,0 4.422811,1.107114 4.245899,-3.647005 -0.05897,-4.819218 -2.181922,-10.940971 -2.181922,-10.940971 z"
       id="path1689"
       style="fill:#178066;fill-opacity:1;stroke-width:0.619714" />
    <path
       class="st23"
       d="m 12.240628,37.421586 c 5.425314,1.237375 10.319888,2.018879 12.501809,2.018879 2.181919,0 4.835604,-0.325618 4.068983,-4.167981 -1.179415,-5.535623 -3.361334,-9.052367 -3.361334,-9.052367 l 3.066478,-8.531349 c 0,0 -0.825592,-0.521004 -2.594713,-1.628126 -0.471765,1.041988 -4.42281,6.577611 -4.717662,7.880112 -0.117949,0.651243 2.299861,4.298241 3.12545,6.382224 1.120447,2.865502 2.77163,5.600749 0.64868,5.991494 -3.243392,0.58611 -11.263421,-1.758386 -13.38637,-2.930634 -0.471765,0.455885 0.176901,3.972622 0.648679,4.037748 z"
       id="path1691"
       style="fill:#00665c;fill-opacity:1;stroke-width:0.619714" />
    <path
       d="m 38.954393,19.577386 c 0.05897,-0.06523 0.235884,-0.26052 0.176902,-0.521012 -0.05897,-0.195437 0.176905,-0.455878 0.707648,-0.651236 0.353831,-0.13021 0.825594,-0.325618 1.061478,-0.325618 0.05898,0 0.11795,0.06523 0.11795,0.06523 0.05896,0.06523 -0.530739,0.260514 -0.648683,0.390745 -0.176901,0.195437 0.294856,0.260521 0.294856,0.260521 l 1.120443,0.130202 -0.05897,0.195437 c 0,0 -0.176901,0.195437 -0.707647,0.325626 -0.294852,0.06523 -0.825591,0.455878 -0.825591,0.521004 0,0.130211 -1.238388,-0.390752 -1.238388,-0.390752 z"
       id="path1695"
       style="stroke-width:0.619714" />
    <path
       d="m 41.43117,18.991248 c 0.294859,-0.130203 0.235881,-0.716363 0.117945,-0.781497 -0.530734,0.325619 -1.474271,0.911757 -1.474271,0.911757 z"
       id="path1697"
       style="stroke-width:0.619714" />
    <path
       class="st37"
       d="m 41.490139,18.926121 c 0.23589,-0.13021 0.176905,-0.651236 0.05896,-0.71637 -0.235884,0.130203 -0.589704,0.390745 -0.884556,0.586131 0,0 -0.70765,-0.06523 -0.530742,-0.260512 0.117953,-0.130211 0.766623,-0.390745 0.707651,-0.45585 0,-0.06523 -0.589706,0.06523 -1.061471,0.260492 -0.471771,0.195429 -0.707651,0.390744 -0.707651,0.586109 0.05897,0.390745 -0.05897,0.586139 -0.176898,0.716391 0,0 1.120439,0.260492 1.120439,0.195437 0,-0.06523 0.589708,-0.455878 0.884562,-0.521004 0.471768,-0.130211 0.825595,-0.455857 0.825595,-0.455857 z"
       id="path1701"
       style="fill:#232121;stroke-width:0.619714" />
    <path
       d="m 39.190277,19.837878 c 0.117953,-0.13021 0.294859,-0.390752 0.294859,-0.390752 0,0 0.471765,-0.260492 0.530736,-0.260492 0.05896,0 0.35382,0.06523 0.707651,0.130211 0.05897,0 -0.530739,0.195436 -0.58971,0.26052 -0.05897,0.06523 -0.353824,0.390744 -0.353824,0.390744 z"
       id="path1703"
       style="stroke-width:0.619714" />
    <path
       class="st39"
       d="m 40.251753,19.772751 -1.238388,-0.325625 -4.068982,4.363367 c -0.23588,0.325626 0.117946,0.781504 0.530735,0.976862 0.412799,0.195437 1.120446,0.06523 1.356326,-0.260492 l 3.47928,-4.493599 z"
       id="path1707"
       style="fill:#77000c;stroke-width:0.619714" />
    <path
       class="st34"
       d="m 39.131305,19.51226 -3.951039,4.167981 c -0.176902,0.195437 0.176902,0.521004 0.412793,0.651264 0.294858,0.130203 0.825594,0.06523 1.002505,-0.130209 l 3.656189,-4.428501 z"
       id="path1709"
       style="fill:#b20000;stroke-width:0.619714" />
    <path
       class="st22"
       d="m 36.005858,20.358882 c 0.471764,-0.130202 2.4178,-1.172248 2.653684,-1.042016 0.235883,0.130209 0,0.455885 -0.353824,0.716398 -0.294855,0.325618 -0.117949,0.260484 -0.117949,0.260484 0,0 0.70765,0.130218 1.769125,0.716378 0.530735,0.260484 0.707647,0.911757 -0.176903,0.586132 0.412793,0.325625 0.589705,0.846601 -0.11795,0.716369 0.294856,0.325626 0.294856,0.71637 -0.294855,0.586118 0.176902,0.130202 0.176902,0.455878 -0.176898,0.521004 -0.235887,0.06523 -1.002507,0.260492 -2.063978,-0.260492 -1.061477,-0.521004 -1.887069,-0.84663 -1.887069,-0.84663 z"
       id="path1715"
       style="fill:#a05a2c;stroke-width:0.619714" />
    <path
       class="st1"
       d="m 37.126304,23.289489 c 1.061474,0.521004 1.828089,0.325618 2.063973,0.260513 0.353828,-0.130203 0.353828,-0.390745 0.176903,-0.521005 0.471763,0.06523 0.58971,-0.13021 0.471763,-0.390744 -1.356326,0 -3.007505,-0.651244 -4.127951,-1.302509 l -0.412795,1.172249 c -0.05897,-0.06523 0.707647,0.260513 1.828097,0.781496 z"
       id="path1717"
       style="fill:#a05a2c;stroke-width:0.619714" />
    <path
       class="st23"
       d="m 23.445077,11.241395 c -0.412794,0.976884 0.58971,3.256253 0.58971,3.256253 0.82559,1.823485 2.889569,4.428473 4.540748,6.121726 1.651184,1.693253 6.663703,3.451611 6.663703,3.451611 l 1.297356,-3.842363 c 0,0 -4.717663,-2.930606 -5.307373,-3.58187 -0.766617,-0.846624 -2.712657,-5.079738 -3.479273,-6.056599 -2.00501,-2.2142656 -3.833104,-0.586139 -4.304871,0.651242 z"
       id="path1723"
       style="fill:#ff7f2a;fill-opacity:1;stroke-width:0.619714" />
    <path
       style="opacity:0.990228;fill:#3357bc;fill-opacity:1;stroke:none;stroke-width:0.2;stroke-linecap:round;stroke-linejoin:round;stroke-opacity:0.0203252;paint-order:stroke fill markers"
       id="path8180"
       sodipodi:type="arc"
       sodipodi:cx="41.157501"
       sodipodi:cy="10.855377"
       sodipodi:rx="0.35749999"
       sodipodi:ry="0.35749999"
       sodipodi:start="0.82185286"
       sodipodi:end="0.80884841"
       sodipodi:open="true"
       sodipodi:arc-type="arc"
       d="m 41.400911,11.117213 a 0.35749999,0.35749999 0 0 1 -0.504453,-0.01758 0.35749999,0.35749999 0 0 1 0.01594,-0.504508 0.35749999,0.35749999 0 0 1 0.504556,0.0143 0.35749999,0.35749999 0 0 1 -0.01266,0.5046" />
    <path
       style="opacity:0.990228;fill:#b20000;fill-opacity:1;stroke:none;stroke-width:0.2;stroke-linecap:round;stroke-linejoin:round;stroke-opacity:0.0203252;paint-order:stroke fill markers"
       id="path8180-4"
       sodipodi:type="arc"
       sodipodi:cx="48.8815"
       sodipodi:cy="10.721408"
       sodipodi:rx="0.35749999"
       sodipodi:ry="0.35749999"
       sodipodi:start="0.82185286"
       sodipodi:end="0.80884841"
       sodipodi:open="true"
       sodipodi:arc-type="arc"
       d="m 49.12491,10.983244 a 0.35749999,0.35749999 0 0 1 -0.504453,-0.01758 0.35749999,0.35749999 0 0 1 0.01594,-0.504507 0.35749999,0.35749999 0 0 1 0.504556,0.0143 0.35749999,0.35749999 0 0 1 -0.01266,0.504601" />
    <polygon
       class="st7"
       points="281.4,183.4 278.9,188.6 278.9,195.3 301.6,195.3 301.6,188.6 299.1,183.4 "
       id="polygon1001"
       transform="matrix(0.67911676,0,0,0.61576052,-127.09977,-83.803131)"
       style="fill:#00665c;fill-opacity:1" />
    <rect
       x="62.98502"
       y="32.206139"
       class="st3"
       width="14.329361"
       height="0.36945629"
       id="rect1015"
       style="fill:#233865;stroke-width:0.646661" />
    <path
       class="st3"
       d="m 70.659023,35.904111 h -1.01865 c -0.475389,0 -0.81495,-0.307892 -0.81495,-0.738922 v -2.770926 c 0,-0.431031 0.339561,-0.738926 0.81495,-0.738926 h 1.01865 c 0.475387,0 0.814949,0.307895 0.814949,0.738926 v 2.770926 c 0,0.369451 -0.407476,0.738922 -0.814949,0.738922 z m -1.01865,-3.694566 c -0.06798,0 -0.135741,0.0615 -0.135741,0.123202 v 2.770944 c 0,0.06168 0.06798,0.123201 0.135741,0.123201 h 1.01865 c 0.06798,0 0.135756,-0.06168 0.135756,-0.123201 v -2.770944 c 0,-0.06168 -0.06798,-0.123202 -0.135756,-0.123202 z"
       id="path1021"
       style="fill:#233865;stroke-width:0.646661" />
    <path
       style="fill:#233865;fill-opacity:1;stroke:none;stroke-width:0.36293px;stroke-linecap:butt;stroke-linejoin:miter;stroke-opacity:1"
       d="m 64.311495,29.307962 -1.295792,2.881204 h 14.264133 l -1.562693,-2.92048 z"
       id="path10599"
       sodipodi:nodetypes="ccccc" />
  </g>
</svg>
