<?xml version="1.0" encoding="UTF-8" standalone="no"?>
<!-- Created with Inkscape (http://www.inkscape.org/) -->

<svg
   width="300"
   height="150"
   viewBox="0 0 79.374998 39.687501"
   version="1.1"
   id="svg5534"
   inkscape:version="1.1 (c68e22c387, 2021-05-23)"
   sodipodi:docname="installation-marchie-lavage.svg"
   xmlns:inkscape="http://www.inkscape.org/namespaces/inkscape"
   xmlns:sodipodi="http://sodipodi.sourceforge.net/DTD/sodipodi-0.dtd"
   xmlns="http://www.w3.org/2000/svg"
   xmlns:svg="http://www.w3.org/2000/svg">
  <sodipodi:namedview
     id="namedview5536"
     pagecolor="#505050"
     bordercolor="#eeeeee"
     borderopacity="1"
     inkscape:pageshadow="0"
     inkscape:pageopacity="0"
     inkscape:pagecheckerboard="0"
     inkscape:document-units="mm"
     showgrid="false"
     inkscape:zoom="2.0453984"
     inkscape:cx="73.579796"
     inkscape:cy="27.134078"
     inkscape:window-width="1920"
     inkscape:window-height="1001"
     inkscape:window-x="-9"
     inkscape:window-y="-9"
     inkscape:window-maximized="1"
     inkscape:current-layer="layer1"
     units="px"
     borderlayer="true" />
  <defs
     id="defs5531">
    <linearGradient
       id="SVGID_25_"
       gradientUnits="userSpaceOnUse"
       x1="260.7197"
       y1="329.89731"
       x2="284.32031"
       y2="311.31549"
       gradientTransform="matrix(0.51677507,0,0,0.40134859,-96.409496,-98.150369)">
      <stop
         offset="0"
         style="stop-color:#FFFFFF"
         id="stop2427" />
      <stop
         offset="0.1159"
         style="stop-color:#F7F7F7"
         id="stop2429" />
      <stop
         offset="0.2993"
         style="stop-color:#E0E0E0"
         id="stop2431" />
      <stop
         offset="0.5274"
         style="stop-color:#BBBBBB"
         id="stop2433" />
      <stop
         offset="0.7887"
         style="stop-color:#878787"
         id="stop2435" />
      <stop
         offset="0.9505"
         style="stop-color:#646464"
         id="stop2437" />
    </linearGradient>
  </defs>
  <g
     inkscape:label="Calque 1"
     inkscape:groupmode="layer"
     id="layer1">
    <path
       style="fill:#916f6f;fill-opacity:1;stroke:none;stroke-width:0.260247px;stroke-linecap:butt;stroke-linejoin:miter;stroke-opacity:1"
       d="M -0.25552281,28.812445 V 39.880082 L 79.655002,39.514211 79.831993,28.812445 Z"
       id="path25044" />
    <path
       style="fill:#ffddae;fill-opacity:1;stroke:none;stroke-width:0.271103px;stroke-linecap:butt;stroke-linejoin:miter;stroke-opacity:1"
       d="M -0.59131093,-0.26771988 -0.31312669,40.938416 11.185156,29.192298 79.896671,29.47648 79.803941,-0.45717337 Z"
       id="path25042" />
    <path
       class="st1"
       d="m 39.088923,12.902778 c 0.568452,0.321086 0.775163,0.240815 1.240261,0.280947 0.413419,0.04019 0.62013,0 0.981872,0.160535 0.361739,0.120441 1.653681,0.682288 1.498647,0.8027 -0.155043,0.120447 -0.413418,0.120447 -0.671809,0.04019 -0.310065,-0.08024 -0.620131,-0.240807 -0.620131,-0.240807 0,0 1.08523,0.441482 1.033553,0.561878 -0.05168,0.120441 -1.808713,0.882978 -2.170456,0.882978 -0.361741,0 -0.930195,-0.240807 -1.291937,-0.401357 -0.361744,-0.160535 -0.826841,-0.36121 -1.03355,-0.441481 -0.20671,-0.04019 1.03355,-1.645531 1.03355,-1.645531 z"
       id="path2373"
       style="fill:#a05a2c;stroke-width:0.45542" />
    <path
       class="st23"
       d="m 35.574852,11.257255 c 0,0 -1.03355,-1.4047162 -2.067099,-3.010122 -0.516776,-1.2441882 -1.188584,-1.9264768 -1.653681,-2.0468729 0,0 -1.240261,2.2475551 -1.085228,3.0903787 0.206709,1.5251352 2.738909,4.2542962 3.204007,4.3747072 0.103361,0.04019 3.979166,1.765919 3.979166,1.765919 0,0 1.757036,-2.087005 1.808713,-2.287672 -0.465097,-0.160543 -4.185878,-1.886338 -4.185878,-1.886338 z"
       id="path2375"
       style="fill:#ff7f2a;stroke-width:0.45542;fill-opacity:1" />
    <path
       d="m 23.689026,36.502078 c -0.20671,0.682288 -0.258387,1.725802 0.155022,1.765919 1.498649,0.240814 1.136906,-0.280932 2.222134,0.16055 0.82684,0.321071 2.997294,0.36121 3.30736,0.160536 0.258388,-0.160536 0.516774,-1.003374 -0.723486,-1.12377 -1.18858,-0.120441 -1.86039,-0.963235 -2.273809,-1.444856 -0.41342,-0.52176 -1.188582,-0.682289 -1.188582,-0.682289 l -1.291938,0.160529 z"
       id="path2377"
       style="stroke-width:0.45542;fill:#333333" />
    <path
       class="st0"
       d="m 24.980965,37.144227 c 0.723483,-1.966594 2.273808,-10.836412 3.462392,-18.100822 l -2.945618,1.926469 c -0.361742,3.130541 -1.550325,6.863069 -2.0671,9.552105 -0.568453,3.130526 -0.516775,5.056996 -0.465098,6.622248 0.05169,-0.04019 1.136905,0.321086 2.015424,0 z"
       id="path2379"
       style="fill:#00665c;stroke-width:0.45542;fill-opacity:1" />
    <path
       d="m 18.004502,35.859907 3.100649,-0.08024 c 0,0 0.05169,1.725795 2.0671,2.28768 0.671807,0.200668 0.775163,0.92311 -0.10336,1.204042 -0.878517,0.280946 -2.790584,0.16055 -3.617426,-0.4816 -0.775162,-0.64217 -0.826839,-0.120447 -1.44697,-0.401364 -0.620129,-0.280946 -0.206709,-1.364576 -0.155023,-2.006726 z"
       id="path2383"
       style="stroke-width:0.45542;fill:#333333" />
    <path
       class="st23"
       d="m 24.185152,26.032434 c 1.912068,-5.538609 4.826658,-7.229836 5.240077,-10.039276 0.155022,-1.003374 0,-3.85294 -0.103363,-4.615506 0,-0.160536 -1.395292,1.404716 -2.015421,1.324459 l -3.916107,9.981428 c -1.44697,5.177406 -3.163712,11.81179 -3.008679,15.183116 0.516776,0.04019 1.291935,0.12044 1.912066,0.04019 0,-0.04019 -0.05993,-6.544803 0.766903,-7.869249 z"
       id="path2385"
       style="fill:#178066;fill-opacity:1;stroke-width:0.45542"
       sodipodi:nodetypes="ccccccccc" />
    <path
       class="st0"
       d="M 29.735293,5.7186391 29.425229,4.9560792 c 0,0 -3.669101,0.882956 -4.702652,3.2107898 -0.878519,2.006733 -2.325489,5.418198 -2.790587,7.224279 -0.568452,0.842824 -1.343613,2.167276 -1.291935,3.772667 0,1.926477 -1.085229,7.22428 -1.808714,8.990214 -2.377164,5.939951 -1.085227,9.431694 -1.085227,9.431694 0,0 0.361743,0.401342 2.687231,0.120441 0,0 2.003535,-10.253909 2.210244,-11.337561 0.05168,-0.361204 3.370925,-7.846893 4.559507,-9.733245 0.568454,-0.923095 1.44697,-3.170643 1.343616,-3.933203 0,-0.08025 0.516774,-5.6188874 0.671807,-5.6590268 0.671807,-0.2006675 0.516774,-1.3244377 0.516774,-1.3244377 z"
       id="path2389"
       style="fill:#00665c;fill-opacity:1;stroke-width:0.45542"
       sodipodi:nodetypes="cccccccccccccc" />
    <path
       class="st23"
       d="m 31.905749,7.5648445 c 0,0 -0.568452,-0.5618997 -1.395293,-1.2441883 C 29.683617,5.6383677 29.993682,5.678507 29.993682,5.678507 l -1.912067,0.9230955 c 0,0 2.0671,5.4182125 0.465097,5.1774055 0,0 -0.41342,3.692396 -1.136905,6.461712 -0.05169,0.12044 -0.930197,8.548717 -1.240261,10.154115 -0.981872,4.976724 -1.550325,8.950066 -1.550325,8.950066 0,0 0.930195,0 2.945618,-0.280946 -0.361743,-0.722428 -0.05169,-5.378058 0.310065,-7.62562 0.103361,-0.802686 0.516776,-1.96661 0.568453,-2.167284 0.206709,-1.88633 1.291936,-8.348042 1.65368,-9.11061 3.92749,-8.026978 2.015424,-9.993572 1.808712,-10.5955965 z"
       id="path2391"
       style="fill:#178066;stroke-width:0.45542;fill-opacity:1" />
    <path
       class="st6"
       d="m 46.995584,36.823163 0.155021,-0.240814 c 0.516775,-0.842838 3.875814,0.882964 4.961039,-0.200667 v 0 c 0.361744,-0.401365 0.568452,-0.762583 0.568452,-1.204064 v 0 c 0,-0.963235 -0.413418,-2.207415 -3.979169,-3.170657 v 0 c -0.413418,-0.160536 -1.653679,-0.321064 -2.48052,-0.441482 v 0 c -0.82684,1.966616 -2.273809,3.531875 -4.75433,3.812814 v 0 c -1.136904,0.12044 -2.170455,0.160542 -3.100649,0.160542 v 0 c -2.532197,0 -4.340912,-0.321085 -5.839559,-0.321085 v 0 c -1.291937,0 -2.428841,0.200682 -3.875813,1.123777 v 0 c -0.206709,0.120441 -0.465097,0.08024 -0.568451,-0.04019 v 0 c -0.155023,-0.16055 -0.103361,-0.361224 0.05168,-0.441496 v 0 c 1.550325,-0.963234 2.945618,-1.244166 4.392588,-1.244166 v 0 c 1.65368,0 3.359038,0.321064 5.839559,0.321064 v 0 c 0.878518,0 1.86039,-0.04019 2.997295,-0.160528 v 0 c 1.963746,-0.200676 3.255684,-1.484996 4.030843,-3.291062 v 0 c -0.671805,-0.08024 -1.446969,-0.160539 -2.273808,-0.280943 v 0 c -2.273812,-0.321078 -4.909363,-0.76256 -7.49324,-1.806073 v 0 c -3.359035,-1.364577 -5.012716,-3.572 -5.012716,-5.939952 v 0 c 0,-1.28432 0.465097,-2.568626 1.395292,-3.772674 v 0 c 2.428843,-3.21079 5.58117,-4.776042 8.836852,-5.53861 v 0 c 0.310065,-0.08024 0.620131,-0.120439 0.930197,-0.120439 v 0 c 1.395295,0 2.480519,0.802698 3.255682,1.966608 v 0 c 0.82684,1.16391 1.395296,2.769315 1.912067,4.575374 v 0 c 0.155021,0.521753 0.413418,2.327812 0.413418,4.535235 v 0 c 0,1.846213 -0.206707,4.013496 -0.826836,5.859694 v 0 c 0.775163,0.120441 2.067099,0.280948 2.583874,0.481614 v 0 c 3.617427,1.123778 4.444264,2.36796 4.444264,3.732544 v 0 c 0,0.561892 -0.258388,1.123784 -0.723483,1.605398 v 0 c -1.033551,1.043499 -4.289234,-0.882978 -4.806009,-0.08024 0,0 -1.033547,0.160535 -1.033547,0.12044 z M 41.776153,14.708844 c -0.206711,0 -0.413422,0.04019 -0.671806,0.08024 v 0 c -3.100652,0.76256 -6.046269,2.207416 -8.32008,5.257664 v 0 c -0.82684,1.123784 -1.291937,2.327833 -1.291937,3.451604 v 0 c 0,2.087004 1.44697,4.093752 4.599297,5.337934 v 0 c 2.428844,1.003374 5.01272,1.444855 7.234849,1.725802 v 0 c 0.878523,0.120447 1.653683,0.200674 2.377166,0.280946 v 0 c 0.620132,-1.765934 0.826843,-3.893078 0.826843,-5.739298 v 0 c 0,-2.167277 -0.258391,-3.973344 -0.413425,-4.414818 v 0 c -0.465092,-1.76594 -1.085224,-3.291068 -1.80871,-4.374706 v 0 C 43.533186,15.230566 42.706346,14.70882 41.776153,14.70882 v 0 c 0,0 0,0 0,-7e-6 z"
       id="path2393"
       style="fill:#24272b;stroke-width:0.45542" />
    <path
       class="st22"
       d="m 30.097037,14.14696 c 0.981873,0.602016 3.410716,2.488354 3.772457,2.568626 0.361743,0.04019 1.240261,0.842838 1.395293,1.003381 0.155023,0.160528 0.465097,0.60201 0.310065,0.842817 -0.155023,0.240829 -0.206709,0.602031 -0.516774,0.561892 -0.206712,-0.04019 -0.103361,-0.60201 -0.103361,-0.60201 0,0 0.05168,0.401343 -0.413421,0.481614 -0.155023,0.04005 -0.62013,0.200675 -0.62013,0.200675 0,0 0,0.240807 -0.620131,0.04019 -0.310064,-0.120441 -1.033547,-0.963235 -1.291936,-1.284321 -0.20671,-0.280946 -2.273811,-1.444856 -3.152327,-1.966609 -0.826842,-0.52176 1.24026,-1.846205 1.24026,-1.846205 z"
       id="path2395"
       style="fill:#a05a2c;stroke-width:0.45542;fill-opacity:1" />
    <path
       class="st0"
       d="m 28.805098,6.7621379 c 0.465099,0.361225 0.723487,0.9632347 0.723487,2.167284 0,1.2040411 0.361741,2.8094471 0.516773,3.2910681 0.258388,0.602017 3.979169,4.535235 3.979169,4.535235 l -2.738908,1.765941 c 0,0 -3.565748,-2.648904 -4.495943,-5.257677 0,0 -2.118776,-5.2978022 -0.05169,-6.5018511 1.24026,-0.7625453 2.0671,0 2.0671,0 z"
       id="path2397"
       style="fill:#ff7f2a;stroke-width:0.45542" />
    <path
       class="st22"
       d="m 40.174151,15.391148 c 0.258386,0.04004 0.723485,0.08024 0.775163,-0.08025 0.05168,-0.120441 -0.103364,-0.441475 -0.413423,-0.682289 -0.310064,-0.200675 -0.516772,-0.361217 -0.671805,-0.200675 -0.155043,0.160536 0.310065,0.521746 0.361741,0.561878 0.05168,0.120447 -0.05169,0.401364 -0.05169,0.401364 z"
       id="path2401"
       style="fill:#a05a2c;stroke-width:0.45542" />
    <path
       class="st22"
       d="m 40.845957,15.391148 c 0.310066,0.12044 0.568452,0 0.620131,-0.08025 0.05168,-0.08024 0.103361,-0.441475 -0.10336,-0.602024 -0.206712,-0.160536 -0.568452,-0.361212 -0.67181,-0.361212 -0.15504,0 -0.258387,0.08024 -0.15504,0.200676 0.103361,0.120439 0.310065,0.561892 0.310065,0.561892 z"
       id="path2403"
       style="fill:#a05a2c;stroke-width:0.45542" />
    <path
       class="st22"
       d="m 41.466088,15.230598 c -0.25839,0.08024 0.413419,0.08024 0.516772,-0.08024 0.10336,-0.160557 0,-0.441503 -0.05168,-0.52176 -0.05169,-0.08024 -0.465099,-0.361218 -0.568456,-0.401357 -0.155023,-0.08025 -0.361741,0.04019 -0.310066,0.120441 0.103365,0.120447 0.361744,0.52176 0.361744,0.52176 0,0 0.05169,0.361203 0.05169,0.361203 z"
       id="path2405"
       style="fill:#a05a2c;stroke-width:0.45542" />
    <path
       class="st22"
       d="m 41.879507,14.989784 c 0.155024,0.04019 0.258387,0.120447 0.361744,0.04019 0.155021,-0.08024 0.206708,-0.361203 0.05168,-0.481613 -0.206711,-0.120441 -0.516775,-0.321086 -0.671806,-0.280947 -0.155044,0 -0.155044,0.12044 -0.103362,0.240807 0.103362,0.08024 0.361744,0.481621 0.361744,0.481621 z"
       id="path2407"
       style="fill:#a05a2c;stroke-width:0.45542" />
    <path
       class="st0"
       d="m 32.060781,6.400935 c 0.310065,0.4414816 0.723486,1.5251272 0.723486,1.5251272 l -0.516774,-0.080242 0.103361,0.3210783 -0.516775,0.9632343 c 0,0 0.361743,-1.444848 -0.05168,-2.0870192 -0.206712,-0.361203 0.258386,-0.6421492 0.258386,-0.6421492 z"
       id="path2411"
       style="fill:#ff6600;stroke-width:0.45542" />
    <path
       class="st2"
       d="m 31.854072,3.2704092 c -0.20671,0.481621 -0.413421,0.8829707 -2.015423,1.7258093 -0.826839,0.4414744 -0.258387,0.882956 -0.258387,0.882956 l 2.0671,1.6455307 c 0,0 0.775163,-0.8829634 1.963744,-0.9231027 0.723486,-0.040191 -1.757034,-3.3311933 -1.757034,-3.3311933 z"
       id="path2413"
       style="fill:#784421;stroke-width:0.45542" />
    <path
       class="st2"
       d="m 32.732589,3.109881 c 0.930197,-1.2040489 2.635554,-1.8863374 3.927491,-0.9632347 1.395293,1.0033521 1.395293,1.4849732 0.413421,2.6488974 -0.206712,0.2408069 -0.775163,0.481621 -1.033551,0.7224279 -0.20671,0.4414817 -0.361742,0.9230954 -0.465098,0.9632347 -0.103361,0 -0.258388,-0.040191 -0.465097,-0.1204401 -0.723486,0.5618924 -1.343616,0.7224279 -1.757035,0.481621 -0.516776,-0.2408141 -1.653681,-1.1237775 -1.653681,-2.0067556 -0.05168,-0.4816137 0.568454,-1.1237701 1.03355,-1.7257873 z"
       id="path2415"
       style="fill:#a05a2c;stroke-width:0.45542;fill-opacity:1" />
    <path
       class="st3"
       d="M 38.262082,3.6316195 C 38.107059,4.3139226 37.745308,4.4744581 37.331887,4.4744581 36.298338,4.4342671 36.298338,3.7921696 35.884917,3.8323016 35.523176,3.8724926 35.058078,3.6316195 34.79969,3.6316195 c -0.258388,0 -0.826839,0.1605501 -0.826839,0.1605501 L 33.404398,3.7519788 33.042655,3.4710325 32.474202,4.0730643 30.355424,4.5546854 c 0,0 0.723486,-0.842846 0.930195,-1.6054059 0.155023,-0.5618852 0.41342,-0.7224279 0.62013,-1.0033741 0.310065,-0.3210709 0.361744,-0.2408142 0.671808,-0.5217457 0.310065,-0.3210857 1.24026,-0.401357 1.602002,-0.3210857 0.310066,0.080249 0.568454,0.1204475 0.671807,0.2408142 0.103363,0.1204402 0.310065,-0.1204401 0.775163,0 0.465098,0.1204402 0.516776,0.080242 1.085228,0.361203 0.62013,0.2809461 0.930195,0.9231174 1.24026,1.3244597 0.258388,0.2006675 0.310065,0.6020171 0.310065,0.6020171 z"
       id="path2417"
       style="fill:#454837;stroke-width:0.45542;fill-opacity:1" />
    <path
       class="st2"
       d="M 33.611106,3.430952 C 33.662784,3.109881 33.249365,2.8690669 32.9393,3.0296023 32.629234,3.1901377 32.112461,3.9928444 32.525879,4.3540473 32.990977,4.715265 33.611106,3.430952 33.611106,3.430952 Z"
       id="path2419"
       style="fill:#a05a2c;stroke-width:0.45542;fill-opacity:1" />
    <path
       class="st0"
       d="m 31.233941,8.4478152 0.620131,0.6822886 c 0,0 -0.361742,-1.4849879 -0.878519,-2.5285013 -0.155022,-0.361203 -0.568451,-2.2876799 -0.568451,-2.2876799 l -1.395292,0.6020172 0.258387,1.725802 1.085227,0.2408068 -0.258387,0.4414817 c 0,0.040191 0.671807,0.6020319 1.136904,1.1237849 z"
       id="path2423"
       style="fill:#ff6600;stroke-width:0.45542" />
    <path
       class="st29"
       d="m 55.677401,38.468687 c 0,0.08024 -0.103361,0.160535 -0.258388,0.160535 H 37.435242 c -0.103361,0 -0.258388,-0.08024 -0.258388,-0.160535 V 18.361116 c 0,-0.08025 0.103362,-0.160535 0.258388,-0.160535 h 17.983771 c 0.103364,0 0.258388,0.08024 0.258388,0.160535 z"
       id="path2425"
       style="fill:#b4c1d1;stroke-width:0.45542" />
    <path
       class="st76"
       d="m 37.590275,38.629222 h 4.650976 l 9.09524,-6.060369 -6.511366,-0.521754 -2.635554,-6.863054 -4.754329,3.411466 v 9.833036 c -0.103361,0.120441 0,0.200675 0.155023,0.200675 z"
       id="path2440"
       style="fill:url(#SVGID_25_);stroke-width:0.45542" />
    <path
       class="st77"
       d="m 39.657375,29.117263 c 0,-2.929844 3.048971,-5.257677 6.769753,-5.257677 3.772458,0 6.769753,2.367973 6.769753,5.257677 0,2.889698 -3.048971,5.25767 -6.769753,5.25767 -3.720782,0.04019 -6.769753,-2.327819 -6.769753,-5.25767 z"
       id="path2444"
       style="fill:#576472;stroke-width:0.45542" />
    <path
       class="st78"
       d="m 40.122472,29.117263 c 0,-2.729168 2.842265,-4.936592 6.356333,-4.936592 3.514071,0 6.356335,2.207424 6.356335,4.936592 0,2.729162 -2.842264,4.936585 -6.356335,4.936585 -3.514068,0 -6.356333,-2.207423 -6.356333,-4.936585 z"
       id="path2446"
       style="fill:#d6dfe8;stroke-width:0.45542" />
    <path
       class="st78"
       d="m 41.517763,29.117263 c 0,-2.127159 2.222138,-3.852946 4.961042,-3.852946 2.738908,0 4.961039,1.725787 4.961039,3.852946 0,2.127152 -2.222131,3.852954 -4.961039,3.852954 -2.738904,0 -4.961042,-1.725802 -4.961042,-3.852954 z"
       id="path2448"
       style="fill:#d6dfe8;stroke-width:0.45542" />
    <path
       class="st79"
       d="m 42.189571,29.117263 c 0,-1.846212 1.912068,-3.3312 4.289234,-3.3312 2.377167,0 4.289234,1.484988 4.289234,3.3312 0,1.846206 -1.912067,3.331194 -4.289234,3.331194 -2.377166,0 -4.289234,-1.484988 -4.289234,-3.331194 z"
       id="path2450"
       style="opacity:0.7;fill:#24272b;stroke-width:0.45542" />
    <path
       class="st79"
       d="m 43.119768,28.756045 c 0,-1.404716 1.498647,-2.568626 3.30736,-2.568626 1.808714,0 3.30736,1.16391 3.30736,2.568626 0,1.404717 -1.498646,2.568626 -3.30736,2.568626 -1.808713,0 -3.30736,-1.12377 -3.30736,-2.568626 z"
       id="path2452"
       style="opacity:0.7;fill:#24272b;stroke-width:0.45542" />
    <path
       class="st80"
       d="m 45.031836,20.367865 c 0,-0.642157 0.671806,-1.16391 1.498649,-1.16391 0.826837,0 1.498643,0.521753 1.498643,1.16391 0,0.642149 -0.671806,1.163909 -1.498643,1.163909 -0.826843,-0.04019 -1.498649,-0.52176 -1.498649,-1.163909 z"
       id="path2458"
       style="opacity:0.5;fill:#24272b;stroke-width:0.45542" />
    <path
       class="st29"
       d="m 45.393577,20.367865 c 0,-0.481622 0.516775,-0.882964 1.136908,-0.882964 0.62013,0 1.136905,0.401342 1.136905,0.882964 0,0.481613 -0.516775,0.882955 -1.136905,0.882955 -0.620133,-0.04019 -1.136908,-0.401342 -1.136908,-0.882955 z"
       id="path2460"
       style="fill:#b4c1d1;stroke-width:0.45542" />
    <path
       class="st78"
       d="m 45.703642,20.367865 c 0,-0.361211 0.361744,-0.642157 0.826843,-0.642157 0.465099,0 0.826837,0.280939 0.826837,0.642157 0,0.361202 -0.361738,0.642149 -0.826837,0.642149 -0.465099,0 -0.826843,-0.280932 -0.826843,-0.642149 z"
       id="path2462"
       style="fill:#d6dfe8;stroke-width:0.45542" />
    <path
       class="st78"
       d="m 46.943903,20.006647 c -0.05168,0.04019 -0.103363,0.04019 -0.155024,0.04019 v 0 c -0.05168,-0.04019 -0.103363,-0.08025 -0.05168,-0.120448 l 0.206708,-0.280946 c 0.05169,-0.04019 0.103361,-0.08024 0.155024,-0.04019 v 0 c 0.05168,0.04019 0.103363,0.08024 0.05168,0.12044 z"
       id="path2466"
       style="fill:#d6dfe8;stroke-width:0.45542" />
    <path
       class="st79"
       d="m 51.543202,19.685569 c 0,0.04019 -0.05168,0.08025 -0.155021,0.08025 h -2.118778 c -0.103368,0 -0.155044,-0.04005 -0.155044,-0.08025 v -0.361218 c 0,-0.04004 0.05168,-0.08024 0.155044,-0.08024 h 2.118778 c 0.10336,0 0.155021,0.04019 0.155021,0.08024 z"
       id="path2472"
       style="opacity:0.7;fill:#24272b;stroke-width:0.45542" />
    <path
       class="st30"
       d="m 49.062679,21.571906 c 0,-0.240807 0.25839,-0.401343 0.516779,-0.401343 0.310064,0 0.516775,0.200676 0.516775,0.401343 0,0.240814 -0.258391,0.401342 -0.516775,0.401342 -0.258389,0 -0.516779,-0.200667 -0.516779,-0.401342 z"
       id="path2474"
       style="fill:#8494af;stroke-width:0.45542" />
    <path
       class="st29"
       d="m 49.114359,21.571906 c 0,-0.200667 0.20671,-0.361203 0.465099,-0.361203 0.258384,0 0.465098,0.160536 0.465098,0.361203 0,0.200675 -0.206714,0.36121 -0.465098,0.36121 -0.258389,0 -0.465099,-0.160535 -0.465099,-0.36121 z"
       id="path2476"
       style="fill:#b4c1d1;stroke-width:0.45542" />
    <path
       class="st78"
       d="m 49.26939,21.571906 c 0,-0.160528 0.155023,-0.280946 0.361744,-0.280946 0.206708,0 0.361742,0.120447 0.361742,0.280946 0,0.160535 -0.155021,0.280946 -0.361742,0.280946 -0.20671,-0.04019 -0.361744,-0.160527 -0.361744,-0.280946 z"
       id="path2478"
       style="fill:#d6dfe8;stroke-width:0.45542" />
    <path
       class="st30"
       d="m 50.406298,21.571906 c 0,-0.240807 0.258384,-0.401343 0.516775,-0.401343 0.310065,0 0.516771,0.200676 0.516771,0.401343 0,0.240814 -0.258387,0.401342 -0.516771,0.401342 -0.258391,0 -0.516775,-0.200667 -0.516775,-0.401342 z"
       id="path2484"
       style="fill:#8494af;stroke-width:0.45542" />
    <path
       class="st29"
       d="m 50.509648,21.571906 c 0,-0.200667 0.206714,-0.361203 0.465098,-0.361203 0.258392,0 0.465098,0.160536 0.465098,0.361203 0,0.200675 -0.206706,0.36121 -0.465098,0.36121 -0.258384,0 -0.465098,-0.160535 -0.465098,-0.36121 z"
       id="path2486"
       style="fill:#b4c1d1;stroke-width:0.45542" />
    <path
       class="st78"
       d="m 50.613005,21.571906 c 0,-0.160528 0.155023,-0.280946 0.361741,-0.280946 0.206711,0 0.361745,0.120447 0.361745,0.280946 0,0.160535 -0.155021,0.280946 -0.361745,0.280946 -0.206707,-0.04019 -0.361741,-0.160527 -0.361741,-0.280946 z"
       id="path2488"
       style="fill:#d6dfe8;stroke-width:0.45542" />
    <path
       class="st30"
       d="m 51.80159,21.571906 c 0,-0.240807 0.258387,-0.401343 0.516771,-0.401343 0.258391,0 0.516779,0.200676 0.516779,0.401343 0,0.240814 -0.258388,0.401342 -0.516779,0.401342 -0.258384,0 -0.516771,-0.200667 -0.516771,-0.401342 z"
       id="path2494"
       style="fill:#8494af;stroke-width:0.45542" />
    <path
       class="st29"
       d="m 51.904943,21.571906 c 0,-0.200667 0.206711,-0.361203 0.465099,-0.361203 0.258387,0 0.465098,0.160536 0.465098,0.361203 0,0.200675 -0.206711,0.36121 -0.465098,0.36121 -0.258388,0 -0.465099,-0.160535 -0.465099,-0.36121 z"
       id="path2496"
       style="fill:#b4c1d1;stroke-width:0.45542" />
    <path
       class="st78"
       d="m 52.008296,21.571906 c 0,-0.160528 0.155027,-0.280946 0.361746,-0.280946 0.20671,0 0.361744,0.120447 0.361744,0.280946 0,0.160535 -0.155024,0.280946 -0.361744,0.280946 -0.206712,-0.04019 -0.361746,-0.160527 -0.361746,-0.280946 z"
       id="path2498"
       style="fill:#d6dfe8;stroke-width:0.45542" />
    <path
       class="st30"
       d="m 53.196881,21.571906 c 0,-0.240807 0.258388,-0.401343 0.516775,-0.401343 0.310065,0 0.516773,0.200676 0.516773,0.401343 0,0.240814 -0.258384,0.401342 -0.516773,0.401342 -0.310064,0 -0.516775,-0.200667 -0.516775,-0.401342 z"
       id="path2504"
       style="fill:#8494af;stroke-width:0.45542" />
    <path
       class="st29"
       d="m 53.248558,21.571906 c 0,-0.200667 0.206711,-0.361203 0.465098,-0.361203 0.258389,0 0.465099,0.160536 0.465099,0.361203 0,0.200675 -0.20671,0.36121 -0.465099,0.36121 -0.258387,0 -0.465098,-0.160535 -0.465098,-0.36121 z"
       id="path2506"
       style="fill:#b4c1d1;stroke-width:0.45542" />
    <path
       class="st78"
       d="m 53.351915,21.571906 c 0,-0.160528 0.155041,-0.280946 0.361741,-0.280946 0.206708,0 0.361742,0.120447 0.361742,0.280946 0,0.160535 -0.155041,0.280946 -0.361742,0.280946 -0.206707,-0.04019 -0.361741,-0.160527 -0.361741,-0.280946 z"
       id="path2508"
       style="fill:#d6dfe8;stroke-width:0.45542" />
    <path
       class="st79"
       d="m 53.920364,19.324351 c 0,0.04019 -0.05168,0.08024 -0.10336,0.08024 h -0.258388 c -0.05168,0 -0.103361,-0.04019 -0.103361,-0.08024 v 0 c 0,-0.04019 0.05168,-0.08024 0.103361,-0.08024 h 0.258388 c 0.10336,0.04019 0.10336,0.04019 0.10336,0.08024 z"
       id="path2514"
       style="opacity:0.7;fill:#24272b;stroke-width:0.45542" />
    <path
       class="st79"
       d="m 53.920364,19.645437 c 0,0.04019 -0.05168,0.08024 -0.10336,0.08024 h -0.258388 c -0.05168,0 -0.103361,-0.04019 -0.103361,-0.08024 v 0 c 0,-0.04019 0.05168,-0.08024 0.103361,-0.08024 h 0.258388 c 0.10336,0 0.10336,0.04019 0.10336,0.08024 z"
       id="path2516"
       style="opacity:0.7;fill:#24272b;stroke-width:0.45542" />
    <path
       class="st79"
       d="m 53.920364,19.966515 c 0,0.04019 -0.05168,0.08025 -0.10336,0.08025 h -0.258388 c -0.05168,0 -0.103361,-0.04019 -0.103361,-0.08025 v 0 c 0,-0.04019 0.05168,-0.08024 0.103361,-0.08024 h 0.258388 c 0.10336,0 0.10336,0.04019 0.10336,0.08024 z"
       id="path2518"
       style="opacity:0.7;fill:#24272b;stroke-width:0.45542" />
    <path
       class="st79"
       d="m 53.920364,20.287586 c 0,0.04019 -0.05168,0.08025 -0.10336,0.08025 h -0.258388 c -0.05168,0 -0.103361,-0.04019 -0.103361,-0.08025 v 0 c 0,-0.04019 0.05168,-0.08024 0.103361,-0.08024 h 0.258388 c 0.10336,0 0.10336,0.04019 0.10336,0.08024 z"
       id="path2520"
       style="opacity:0.7;fill:#24272b;stroke-width:0.45542" />
    <path
       class="st79"
       d="m 53.920364,20.608671 c 0,0.04019 -0.05168,0.08025 -0.10336,0.08025 h -0.258388 c -0.05168,0 -0.103361,-0.04019 -0.103361,-0.08025 v 0 c 0,-0.04019 0.05168,-0.08024 0.103361,-0.08024 h 0.258388 c 0.10336,0 0.10336,0.04019 0.10336,0.08024 z"
       id="path2522"
       style="opacity:0.7;fill:#24272b;stroke-width:0.45542" />
    <path
       class="st81"
       d="m 50.974746,20.207329 c 0,0 -0.05168,0.04019 -0.05168,0.04019 h -1.653683 c -0.05168,0 -0.05168,0 -0.05168,-0.04019 v 0 c 0,0 0.05168,-0.04019 0.05168,-0.04019 h 1.653683 c 0,0 0.05168,0 0.05168,0.04019 z"
       id="path2526"
       style="opacity:0.4;fill:#24272b;stroke-width:0.45542" />
    <path
       class="st81"
       d="m 50.974746,20.408003 c 0,0 -0.05168,0.04019 -0.05168,0.04019 h -1.653683 c -0.05168,0 -0.05168,0 -0.05168,-0.04019 v 0 c 0,0 0.05168,-0.04019 0.05168,-0.04019 h 1.653683 c 0,0 0.05168,0.04019 0.05168,0.04019 z"
       id="path2528"
       style="opacity:0.4;fill:#24272b;stroke-width:0.45542" />
    <path
       class="st81"
       d="m 50.974746,20.648811 c 0,0 -0.05168,0.04019 -0.05168,0.04019 h -1.653683 c -0.05168,0 -0.05168,0 -0.05168,-0.04019 v 0 c 0,0 0.05168,-0.04019 0.05168,-0.04019 h 1.653683 c 0,0 0.05168,0 0.05168,0.04019 z"
       id="path2530"
       style="opacity:0.4;fill:#24272b;stroke-width:0.45542" />
    <path
       class="st82"
       d="m 43.171445,21.451495 c 0,0.08024 -0.10336,0.12044 -0.155023,0.12044 H 38.9339 c -0.103361,0 -0.155041,-0.08024 -0.155041,-0.12044 v -0.722428 c 0.103361,0 4.444263,0 4.444263,0 v 0.722428 z"
       id="path2536"
       style="opacity:0.7;fill:#b4c1d1;stroke-width:0.45542" />
    <path
       class="st83"
       d="m 38.055373,22.053527 c -0.155023,0 -0.258388,-0.08025 -0.258388,-0.200675 v 0 -2.769308 c 0,-0.12044 0.103361,-0.200675 0.258388,-0.200675 v 0 h 5.891235 c 0.155021,0 0.258391,0.08024 0.258391,0.200675 v 0 2.769308 c 0,0.120448 -0.103367,0.200675 -0.258391,0.200675 v 0 z M 37.90035,19.083544 v 2.769308 c 0,0.04019 0.05169,0.08025 0.103361,0.08025 v 0 h 5.891234 c 0.05169,0 0.103364,-0.04019 0.103364,-0.08025 v 0 -2.769308 c 0,-0.04019 -0.05168,-0.08025 -0.103364,-0.08025 v 0 h -5.891234 c -0.05168,0 -0.103361,0.04019 -0.103361,0.08025 z"
       id="path2538"
       style="opacity:0.5;fill:#b4c1d1;stroke-width:0.45542" />
    <path
       class="st7"
       d="m 65.599484,31.846425 h -7.648273 l 1.08523,6.421572 c 0,0 0,0 0,0 0,0.20069 1.240255,0.361225 2.790584,0.361225 1.550323,0 2.790584,-0.160535 2.790584,-0.361225 0,0 0,0 0,0 z"
       id="path2544"
       style="fill:#00665c;stroke-width:0.45542" />
    <path
       class="st8"
       d="m 64.565929,38.267997 c 0,0 0,0 0,0 l 1.033555,-6.421572 h -4.134203 v 6.782797 c 0.103363,0 0.20671,0 0.310065,0 1.550326,0.04019 2.790583,-0.160535 2.790583,-0.361225 z"
       id="path2546"
       style="fill:#01897f;stroke-width:0.45542" />
    <path
       class="st30"
       d="m 65.65116,31.886564 c 0,0.12044 -1.705356,0.240807 -3.824135,0.240807 -2.118775,0 -3.824135,-0.12044 -3.824135,-0.240807 0,-0.12044 1.70536,-0.240807 3.824135,-0.240807 2.118779,0 3.824135,0.120441 3.824135,0.240807 z"
       id="path2552"
       style="fill:#8494af;stroke-width:0.45542" />
    <path
       class="st30"
       d="m 57.279404,32.729403 c 0,0 0,0 0,0 v 0 -0.16055 h 1.033551 v 0 0.280946 h -0.620133 c 0.05169,0.561892 0.413422,2.44823 4.185881,2.568633 v 0 0.280939 c -4.392591,-0.12044 -4.599299,-2.648898 -4.599299,-2.969968 z"
       id="path2556"
       style="fill:#8494af;stroke-width:0.45542" />
    <path
       class="st29"
       d="m 61.620312,35.418432 c 3.77246,-0.120447 4.134205,-2.046873 4.185879,-2.568633 v 0 h -0.568453 v 0 -0.280946 h 0.930195 v 0.16055 c 0,0 0,0 0,0.04019 v 0 c 0,0.32107 -0.206708,2.849572 -4.547621,2.969968 v 0 z"
       id="path2558"
       style="fill:#b4c1d1;stroke-width:0.45542" />
    <path
       class="st3"
       d="m 77.100529,35.353455 h -8.278743 v -3.298134 h 8.278743 z M 69.219813,34.99103 h 7.482681 v -2.573281 h -7.482681 z"
       id="path995"
       style="fill:#233865;stroke-width:0.379806" />
    <polygon
       class="st7"
       points="281.4,183.4 278.9,188.6 278.9,195.3 301.6,195.3 301.6,188.6 299.1,183.4 "
       id="polygon1001"
       transform="matrix(0.39801581,0,0,0.36243182,-42.503234,-32.856224)"
       style="fill:#ff6600;fill-opacity:1" />
    <rect
       x="70.533257"
       y="31.801609"
       class="st7"
       width="5.1344032"
       height="0.86983633"
       id="rect1007"
       style="fill:#ff6600;fill-opacity:1;stroke-width:0.379806" />
    <rect
       x="68.901398"
       y="35.425919"
       class="st3"
       width="8.3981323"
       height="0.21745908"
       id="rect1015"
       style="fill:#233865;stroke-width:0.379806" />
    <path
       class="st3"
       d="m 73.398967,37.165622 h -0.597009 c -0.278616,0 -0.477625,-0.181222 -0.477625,-0.434923 v -1.630946 c 0,-0.253702 0.199009,-0.434926 0.477625,-0.434926 h 0.597009 c 0.278614,0 0.477624,0.181224 0.477624,0.434926 v 1.630946 c 0,0.217455 -0.238812,0.434923 -0.477624,0.434923 z M 72.801958,34.99103 c -0.03984,0 -0.07955,0.03619 -0.07955,0.07252 v 1.630956 c 0,0.0363 0.03984,0.07252 0.07955,0.07252 h 0.597009 c 0.03984,0 0.07956,-0.0363 0.07956,-0.07252 V 35.06355 c 0,-0.0363 -0.03984,-0.07252 -0.07956,-0.07252 z"
       id="path1021"
       style="fill:#233865;stroke-width:0.379806" />
  </g>
</svg>
