<?xml version="1.0" encoding="UTF-8" standalone="no"?>
<!-- Created with Inkscape (http://www.inkscape.org/) -->

<svg
   width="250"
   height="200"
   viewBox="0 0 66.14583 52.916668"
   version="1.1"
   id="svg5"
   inkscape:version="1.1 (c68e22c387, 2021-05-23)"
   sodipodi:docname="TOBI.svg"
   inkscape:export-filename="C:\Users\Elvis Caleb\Downloads\TOBI4.png"
   inkscape:export-xdpi="96.019302"
   inkscape:export-ydpi="96.019302"
   xmlns:inkscape="http://www.inkscape.org/namespaces/inkscape"
   xmlns:sodipodi="http://sodipodi.sourceforge.net/DTD/sodipodi-0.dtd"
   xmlns="http://www.w3.org/2000/svg"
   xmlns:svg="http://www.w3.org/2000/svg">
  <sodipodi:namedview
     id="namedview7"
     pagecolor="#505050"
     bordercolor="#eeeeee"
     borderopacity="1"
     inkscape:pageshadow="0"
     inkscape:pageopacity="0"
     inkscape:pagecheckerboard="0"
     inkscape:document-units="mm"
     showgrid="false"
     units="px"
     inkscape:zoom="1.3434063"
     inkscape:cx="186.09411"
     inkscape:cy="141.05934"
     inkscape:window-width="1920"
     inkscape:window-height="1001"
     inkscape:window-x="-9"
     inkscape:window-y="-9"
     inkscape:window-maximized="1"
     inkscape:current-layer="g28148"
     width="250px" />
  <defs
     id="defs2">
    <inkscape:path-effect
       effect="bspline"
       id="path-effect6393"
       is_visible="true"
       lpeversion="1"
       weight="33.333333"
       steps="2"
       helper_size="0"
       apply_no_weight="true"
       apply_with_weight="true"
       only_selected="false" />
    <inkscape:path-effect
       effect="bspline"
       id="path-effect5333"
       is_visible="true"
       lpeversion="1"
       weight="33.333333"
       steps="2"
       helper_size="0"
       apply_no_weight="true"
       apply_with_weight="true"
       only_selected="false" />
    <inkscape:path-effect
       effect="bspline"
       id="path-effect1220"
       is_visible="true"
       lpeversion="1"
       weight="33.333333"
       steps="2"
       helper_size="0"
       apply_no_weight="true"
       apply_with_weight="true"
       only_selected="false" />
    <inkscape:path-effect
       effect="bspline"
       id="path-effect1216"
       is_visible="true"
       lpeversion="1"
       weight="33.333333"
       steps="2"
       helper_size="0"
       apply_no_weight="true"
       apply_with_weight="true"
       only_selected="false" />
    <inkscape:path-effect
       effect="bspline"
       id="path-effect1212"
       is_visible="true"
       lpeversion="1"
       weight="33.333333"
       steps="2"
       helper_size="0"
       apply_no_weight="true"
       apply_with_weight="true"
       only_selected="false" />
    <inkscape:path-effect
       effect="bspline"
       id="path-effect1208"
       is_visible="true"
       lpeversion="1"
       weight="33.333333"
       steps="2"
       helper_size="0"
       apply_no_weight="true"
       apply_with_weight="true"
       only_selected="false" />
    <inkscape:path-effect
       effect="bspline"
       id="path-effect1072"
       is_visible="true"
       lpeversion="1"
       weight="33.333333"
       steps="2"
       helper_size="0"
       apply_no_weight="true"
       apply_with_weight="true"
       only_selected="false" />
    <inkscape:path-effect
       effect="bspline"
       id="path-effect1068"
       is_visible="true"
       lpeversion="1"
       weight="33.333333"
       steps="2"
       helper_size="0"
       apply_no_weight="true"
       apply_with_weight="true"
       only_selected="false" />
    <inkscape:path-effect
       effect="bspline"
       id="path-effect871"
       is_visible="true"
       lpeversion="1"
       weight="33.333333"
       steps="2"
       helper_size="0"
       apply_no_weight="true"
       apply_with_weight="true"
       only_selected="false" />
  </defs>
  <g
     inkscape:label="Calque 1"
     inkscape:groupmode="layer"
     id="layer1">
    <g
       id="g28148"
       transform="matrix(0.40706615,0,0,0.40015301,-1.0413424,-1.0886176)">
      <path
         style="opacity:0.990228;fill:none;stroke:#0068e0;stroke-width:3.585;stroke-linecap:round;stroke-linejoin:round;stroke-miterlimit:4;stroke-dasharray:none;stroke-opacity:1;paint-order:stroke fill markers"
         id="path1677"
         sodipodi:type="arc"
         sodipodi:cx="72.489288"
         sodipodi:cy="67.956276"
         sodipodi:rx="59.813999"
         sodipodi:ry="60.928173"
         sodipodi:start="0.82185318"
         sodipodi:end="0.19712241"
         sodipodi:open="true"
         sodipodi:arc-type="arc"
         d="M 113.21455,112.58061 A 59.813999,60.928173 0 0 1 35.548963,115.87646 59.813999,60.928173 0 0 1 20.272,38.239768 59.813999,60.928173 0 0 1 93.184971,10.791376 59.813999,60.928173 0 0 1 131.14494,79.888954" />
      <path
         style="fill:#fb5607;fill-opacity:1;stroke:none;stroke-width:0.255194px;stroke-linecap:butt;stroke-linejoin:miter;stroke-opacity:1"
         d="m 41.904073,30.830026 c 0.339424,-0.501826 0.299489,-1.154415 0.459204,-1.681637 0.159715,-0.527223 0.519124,-0.928809 -0.09985,-0.602535 -0.618978,0.326273 -2.216352,1.380435 -4.253099,3.087253 -2.036746,1.706818 -4.512681,4.066135 -6.249896,6.224778 -1.737215,2.158642 -2.735577,4.116375 -3.494349,5.823187 -0.758772,1.706811 -1.277919,3.162559 -1.577407,4.894501 -0.299488,1.731942 -0.379356,3.739868 0.07997,6.274986 0.459324,2.535118 1.457684,5.597208 3.095115,8.483668 1.637432,2.886461 3.913694,5.597165 6.389731,7.856106 2.476036,2.258941 5.151643,4.066078 7.727492,5.446525 2.575849,1.380448 5.051783,2.334214 6.44946,2.785936 1.397677,0.451721 1.717153,0.401524 1.976616,0.02514 0.259462,-0.376385 0.459135,-1.079161 0.938361,-2.409476 0.479226,-1.330316 1.23798,-3.288046 1.817095,-4.392529 0.579116,-1.104482 0.978459,-1.355473 1.59248,-1.694323 0.61402,-0.338851 1.442659,-0.765536 1.961828,-0.489259 0.519169,0.276277 0.72882,1.255123 1.153124,1.543604 0.424305,0.288482 1.063253,-0.113103 1.662419,-0.182044 0.599165,-0.06894 1.158236,0.194596 1.557518,0.596288 0.399283,0.401692 0.638891,0.941327 0.738634,1.311501 0.09974,0.370174 0.05981,0.570967 0.139737,0.621033 0.07993,0.05007 0.279602,-0.05033 0.584178,-0.119349 0.304576,-0.06902 0.713898,-0.106664 0.918469,-0.12548 0.204571,-0.01882 0.893453,0.847121 1.048294,1.12338 0.15484,0.276259 0.464326,0.828429 0.623984,1.405719 0.159658,0.57729 0.169641,1.179669 0.294456,1.405408 0.124814,0.225739 0.364421,0.07515 0.763911,0.125423 0.39949,0.05028 0.958572,0.30127 1.397783,0.803365 0.439211,0.502095 0.758687,1.25507 0.758579,1.938948 -1.09e-4,0.683878 -0.31957,1.298782 -0.334373,1.719258 -0.0148,0.420477 0.274711,0.646362 0.83381,1.091888 0.5591,0.445526 1.387721,1.110639 2.00168,1.392887 0.61396,0.282249 1.013297,0.181853 1.412551,-0.131842 0.399254,-0.313696 0.798592,-0.84077 0.728848,-1.417976 -0.06974,-0.577205 -0.608841,-1.204663 -1.267772,-1.894927 -0.658932,-0.690265 -1.437657,-1.44324 -1.767279,-2.045655 -0.329623,-0.602415 -0.20982,-1.054198 0.109838,-1.154631 0.319658,-0.100432 0.838806,0.150559 1.707394,0.89107 0.868587,0.74051 2.086558,1.970338 2.845355,2.7045 0.758797,0.734163 1.058298,0.9726 1.587294,0.665035 0.528995,-0.307564 1.287749,-1.160933 1.088234,-2.020511 -0.199514,-0.859578 -1.357614,-1.725499 -2.236215,-2.434561 -0.878601,-0.709062 -1.477618,-1.261244 -1.797215,-1.71301 -0.319597,-0.451765 -0.359531,-0.80315 -0.239748,-1.104495 0.119783,-0.301346 0.399323,-0.552337 0.918626,-0.301213 0.519303,0.251124 1.278041,1.004082 2.096738,1.744522 0.818698,0.740441 1.69724,1.468303 2.376161,1.94516 0.678921,0.476857 1.158128,0.702746 1.587276,0.62739 0.429148,-0.07536 0.808518,-0.451837 1.098035,-0.903566 0.289518,-0.451729 0.489185,-0.978801 -0.01983,-1.744327 -0.509013,-0.765526 -1.727015,-1.769492 -2.575655,-2.522467 -0.848639,-0.752975 -1.327853,-1.254958 -1.547638,-1.656562 -0.219786,-0.401604 -0.179852,-0.702791 -0.159867,-0.853514 0.01998,-0.150723 0.01998,-0.150723 0.699042,0.301176 0.679058,0.451899 2.036803,1.35545 3.110065,2.20261 1.073263,0.84716 1.861951,1.637765 2.540701,1.380439 0.678751,-0.257327 1.247804,-1.562454 1.053295,-2.535065 -0.19451,-0.972611 -1.152935,-1.612638 -2.530725,-2.685644 -1.377791,-1.073006 -3.174841,-2.578953 -4.49271,-3.683343 -1.31787,-1.104389 -2.156494,-1.807165 -3.274817,-1.706882 -1.118322,0.100282 -2.516027,1.003852 -3.77399,1.781943 -1.257964,0.778092 -2.376126,1.430668 -3.514168,1.556226 -1.138042,0.125557 -2.296141,-0.276029 -3.094931,-1.028916 -0.79879,-0.752888 -1.238068,-1.85725 -0.689032,-3.32573 0.549037,-1.468479 2.086646,-3.300874 3.059012,-4.353454 0.972367,-1.052579 1.379687,-1.325572 1.529504,-1.614074 0.149816,-0.288502 0.04204,-0.59271 -0.171605,-0.98339 -0.213644,-0.39068 -0.533058,-0.867471 -1.471635,-0.641735 -0.938577,0.225737 -2.49602,1.154403 -3.614242,1.919967 -1.118222,0.765564 -1.797106,1.367943 -2.715555,1.844813 -0.918449,0.47687 -2.076548,0.828258 -3.554131,1.079266 -1.477583,0.251009 -3.274633,0.401603 -5.151586,0.40162 -1.876952,1.6e-5 -3.833737,-0.150578 -5.810529,-0.853298 -1.976791,-0.702719 -3.973515,-1.957676 -5.65082,-3.212638 -1.677305,-1.254961 -3.035076,-2.509918 -4.153301,-3.789983 -1.118226,-1.280064 -1.996784,-2.585217 -2.695701,-3.990799 -0.698918,-1.405582 -1.218065,-2.911528 -1.357908,-4.618357 -0.139843,-1.70683 0.09976,-3.614363 0.798633,-5.296147 0.698868,-1.681784 1.856967,-3.137532 2.975173,-4.417639 1.118207,-1.280107 2.196437,-2.384469 3.095037,-3.112394 0.8986,-0.727926 1.617419,-1.079314 1.956842,-1.581141 z"
         id="path1066"
         inkscape:path-effect="#path-effect1068"
         inkscape:original-d="m 42.283413,30.980493 c -0.03971,-0.652306 -0.07965,-1.304894 -0.119804,-1.957771 0.35965,-0.401317 0.71906,-0.802902 1.07825,-1.204783 -1.597214,1.054491 -3.194588,2.108653 -4.792225,3.162554 -2.475805,2.359696 -4.95174,4.719012 -7.427952,7.07809 -0.998174,1.958095 -1.996533,3.915829 -2.995141,5.87331 -0.51894,1.456095 -1.038088,2.911842 -1.557474,4.367335 -0.07965,2.008296 -0.159512,4.016223 -0.23961,6.023906 0.998629,3.062503 1.996988,6.124594 2.995141,9.18646 2.276581,2.7111 4.552843,5.421805 6.828924,8.132278 2.675939,1.807493 5.351546,3.61463 8.026977,5.421516 2.476261,0.954091 4.952195,1.907858 7.427951,2.861355 0.319715,-0.04991 0.63919,-0.100114 0.958444,-0.150596 0.199909,-0.702518 0.399582,-1.405293 0.599029,-2.108367 0.759013,-1.957525 1.517767,-3.915255 2.276308,-5.873312 0.399588,-0.250715 0.798931,-0.501706 1.198057,-0.752987 0.828886,-0.426409 1.657525,-0.853093 2.485967,-1.28008 0.209892,0.979188 0.419543,1.958034 0.628979,2.936656 0.639206,-0.401318 1.278155,-0.802902 1.916891,-1.204783 0.559332,0.263838 1.118403,0.527375 1.677278,0.790639 0.239843,0.539936 0.479452,1.07957 0.718834,1.618925 -0.03971,0.201085 -0.07964,0.401879 -0.119804,0.602389 0.199907,-0.100114 0.39958,-0.20051 0.599028,-0.301196 0.409571,-0.03736 0.818892,-0.07502 1.228007,-0.112948 l 0.688882,0.865937 c 0.309732,0.552489 0.619219,1.104659 0.928495,1.656575 0.01021,0.602689 0.02019,1.205068 0.02995,1.807171 0.239844,-0.150313 0.479451,-0.300907 0.718836,-0.451792 0.559331,0.251289 1.118413,0.50228 1.677279,0.752988 0.319714,0.75329 0.63919,1.506265 0.958446,2.258964 -0.319263,0.615249 -0.63873,1.23015 -0.958446,1.84483 0.289763,0.22619 0.579282,0.45207 0.86859,0.67769 0.828899,0.66542 1.657515,1.330539 2.485967,1.995419 0.399592,-0.10013 0.798933,-0.20051 1.198056,-0.3012 0.399591,-0.52681 0.798923,-1.053889 1.198057,-1.581279 -0.538909,-0.62723 -1.078015,-1.25468 -1.617376,-1.882475 -0.778521,-0.752711 -1.557246,-1.505686 -2.33621,-2.258959 0.120037,-0.451516 0.23984,-0.9033 0.359417,-1.355379 0.519385,0.251282 1.038533,0.502273 1.557474,0.752988 1.218276,1.23019 2.436248,2.460016 3.654073,3.689645 0.299748,0.23873 0.599247,0.47717 0.89854,0.71534 0.759018,-0.85312 1.517768,-1.706492 2.27631,-2.560161 -1.157893,-0.865651 -2.315993,-1.731572 -3.474366,-2.597812 -0.598812,-0.551916 -1.197829,-1.104099 -1.797083,-1.656575 -0.03971,-0.351118 -0.07964,-0.702503 -0.119807,-1.054185 0.279782,-0.250714 0.559321,-0.501706 0.838641,-0.752989 0.759012,0.753289 1.51775,1.506247 2.276306,2.258965 0.878821,0.72819 1.757363,1.456052 2.635726,2.183669 0.479458,0.226186 0.958665,0.452075 1.437667,0.677689 0.379619,-0.376214 0.758989,-0.752695 1.138154,-1.129483 0.199907,-0.526817 0.399576,-1.053888 0.599027,-1.581276 -1.217818,-1.003718 -2.435821,-2.007684 -3.654073,-3.011954 -0.479001,-0.501717 -0.958218,-1.003697 -1.437667,-1.505977 0.04017,-0.300917 0.0801,-0.602104 0.119806,-0.903585 2.28e-4,2.85e-4 2.28e-4,2.85e-4 0,0 1.358054,0.903891 2.715799,1.807442 4.073394,2.710759 0.788962,0.790939 1.57765,1.581545 2.366161,2.371913 0.569315,-1.304922 1.138369,-2.610049 1.707229,-3.91554 -0.958236,-0.639768 -1.916661,-1.279795 -2.875336,-1.920122 -1.796892,-1.505721 -3.593942,-3.011668 -5.391254,-4.517932 -0.838428,-0.702514 -1.677051,-1.405291 -2.515919,-2.108367 -1.397532,0.903892 -2.795237,1.807461 -4.193196,2.71076 -1.117984,0.652889 -2.236146,1.305466 -3.35456,1.95777 -1.157916,-0.401316 -2.316015,-0.802901 -3.474364,-1.204782 -0.439068,-1.104119 -0.878348,-2.208481 -1.317861,-3.313148 1.537764,-1.832023 3.075372,-3.664418 4.612517,-5.496818 0.407517,-0.272686 0.814837,-0.545679 1.221972,-0.818987 -0.107592,-0.304039 -0.21537,-0.608247 -0.323429,-0.912887 -0.319316,-0.476697 -0.63873,-0.953488 -0.958447,-1.430676 -1.557277,0.928989 -3.114719,1.857656 -4.672421,2.786054 -0.678685,0.602691 -1.35757,1.205069 -2.036695,1.807175 -1.157916,0.351687 -2.316015,0.703076 -3.474363,1.054183 -1.796892,0.150887 -3.593942,0.301481 -5.391256,0.451793 -1.956637,-0.150315 -3.913422,-0.300909 -5.870475,-0.451793 -1.996575,-1.254718 -3.993297,-2.509677 -5.990286,-3.764943 -1.357596,-1.254717 -2.715366,-2.509675 -4.07339,-3.764943 -0.878364,-1.304919 -1.756922,-2.610072 -2.635726,-3.915538 -0.51894,-1.505721 -1.038087,-3.011667 -1.557474,-4.517932 0.239844,-1.907321 0.479452,-3.814854 0.718836,-5.722713 1.158371,-1.455521 2.31647,-2.911269 3.474364,-4.367332 1.0785,-1.104119 2.15673,-2.208481 3.234752,-3.313148 0.719075,-0.351118 1.437895,-0.702504 2.156501,-1.054185 z"
         sodipodi:nodetypes="ccccccccccccccccccccccccccccccccccccccccccccccccccccccccccccccccccccccccccccccccccc" />
      <path
         style="fill:#0068e0;fill-opacity:1;stroke:none;stroke-width:0.255194px;stroke-linecap:butt;stroke-linejoin:miter;stroke-opacity:1"
         d="m 100.69293,31.281951 c 0.71888,0.752937 1.71725,1.505926 2.61579,2.284048 0.89854,0.778123 1.69723,1.581295 2.49592,2.560212 0.79868,0.978916 1.59737,2.133471 2.19635,3.413577 0.59897,1.280107 0.99831,2.685657 1.13802,3.965716 0.13972,1.28006 0.0199,2.43462 -0.31956,3.764871 -0.33947,1.330251 -0.89856,2.836203 -1.91691,4.367225 -1.01834,1.531022 -2.49591,3.087163 -4.21311,4.517829 -1.7172,1.430665 -3.673989,2.735817 -5.071721,3.639404 -1.397733,0.903587 -2.236351,1.405568 -3.833684,1.606384 -1.597332,0.200815 -3.953471,0.100418 -5.510967,0.07531 -1.557495,-0.02511 -2.316249,0.02509 -3.414437,-0.250946 -1.098189,-0.276033 -2.535828,-0.878413 -3.833737,-1.556078 -1.297909,-0.677665 -2.456006,-1.430637 -3.374524,-2.03303 -0.918518,-0.602393 -1.597403,-1.054177 -2.296317,-1.255077 -0.698915,-0.2009 -1.417735,-0.150702 -2.356334,0.376412 -0.938598,0.527113 -2.096696,1.531078 -3.214906,2.610388 -1.11821,1.079311 -2.196439,2.23387 -2.91529,3.087292 -0.71885,0.853421 -1.07826,1.4056 -1.178022,1.983011 -0.09976,0.57741 0.05998,1.179792 0.443021,1.628609 0.383044,0.448817 0.98917,0.744235 1.856994,0.48348 0.867824,-0.260755 1.997399,-1.077394 3.062871,-1.698154 1.065472,-0.620759 2.066514,-1.04547 2.567018,-1.257818 0.500504,-0.212348 0.500504,-0.212348 1.230979,-0.101316 0.730474,0.111031 2.19111,0.333047 4.456783,1.759969 2.265672,1.426923 5.336241,4.058454 6.871417,5.474671 1.535176,1.416217 1.535176,1.617009 1.355433,2.294665 -0.179743,0.677657 -0.539152,1.832216 -1.178118,3.187554 -0.638966,1.355338 -1.557454,2.911477 -1.477442,3.664422 0.08001,0.752945 1.158206,0.702748 2.336326,0.627444 1.17812,-0.07531 2.455987,-0.175699 3.733885,-0.476912 1.277898,-0.301213 2.555797,-0.803195 3.953527,-1.45579 1.397729,-0.652595 2.91524,-1.455768 4.772217,-2.710748 1.856978,-1.254981 4.053368,-2.961721 5.930308,-4.768882 1.87694,-1.807161 3.43439,-3.714697 4.69235,-5.546952 1.25796,-1.832255 2.21638,-3.589194 2.95519,-5.12026 0.73881,-1.531066 1.25796,-2.836218 1.61739,-4.015881 0.35943,-1.179663 0.5591,-2.233822 0.5791,-3.689585 0.02,-1.455764 -0.13974,-3.313099 -0.57899,-5.295979 -0.43925,-1.98288 -1.15807,-4.091204 -2.21631,-6.049011 -1.05824,-1.957808 -2.45595,-3.764945 -3.93355,-5.396456 -1.4776,-1.631511 -3.03503,-3.087255 -4.45274,-4.292066 -1.4177,-1.204811 -2.6956,-2.158578 -3.55421,-2.786074 -0.858599,-0.627497 -1.297877,-0.928688 -1.497686,-0.853332 -0.199809,0.07536 -0.159876,0.527137 0.07982,1.129541 0.239694,0.602404 0.678974,1.355378 1.397859,2.108315 z"
         id="path1070"
         inkscape:path-effect="#path-effect1072"
         inkscape:original-d="m 100.41315,31.281688 c 0.9986,0.753276 1.99698,1.506262 2.99513,2.258965 0.79896,0.803491 1.59765,1.606662 2.39611,2.409563 0.79896,1.154893 1.59764,2.309453 2.39612,3.463747 0.39958,1.405895 0.79893,2.811443 1.19805,4.216737 -0.11958,1.15489 -0.23938,2.30945 -0.35941,3.463746 -0.55887,1.506292 -1.11797,3.012239 -1.67729,4.517932 -1.4774,1.556492 -2.95496,3.112637 -4.43279,4.668527 -1.95664,1.305492 -3.913426,2.610645 -5.870486,3.91554 -0.83842,0.502289 -1.677037,1.004272 -2.515911,1.505977 -2.355992,-0.100114 -4.712131,-0.200509 -7.068535,-0.301195 -0.758555,0.05049 -1.517309,0.100685 -2.276305,0.150599 -1.437469,-0.602118 -2.875109,-1.204496 -4.313003,-1.807175 -1.157919,-0.752716 -2.316016,-1.505688 -3.474365,-2.258964 -0.678685,-0.451515 -1.35757,-0.903299 -2.036696,-1.355378 -0.71862,0.05049 -1.43744,0.100686 -2.156502,0.150596 -1.157917,1.00429 -2.316014,2.008256 -3.474364,3.011953 -1.078045,1.154894 -2.156273,2.309454 -3.234753,3.46375 -0.359196,0.552489 -0.718607,1.104667 -1.078252,1.656575 0.159973,0.602686 0.319711,1.205068 0.479224,1.807171 0.606381,0.295678 1.212507,0.591096 1.818415,0.886273 1.130009,-0.816497 2.259584,-1.633136 3.38904,-2.450145 1.001408,-0.424489 2.00245,-0.8492 3.003322,-1.274216 2.64e-4,2.65e-4 2.64e-4,2.65e-4 0,0 1.460916,0.222283 2.921552,0.444298 4.381968,0.666056 3.070943,2.63189 6.141512,5.263421 9.211883,7.894745 2.32e-4,0.201088 2.32e-4,0.40188 0,0.60239 -0.359199,1.154892 -0.718605,2.309452 -1.078251,3.463748 -0.918283,1.556463 -1.83677,3.112603 -2.755529,4.66853 1.078504,-0.04991 2.156697,-0.100114 3.234752,-0.150599 1.278195,-0.100115 2.556062,-0.20051 3.833785,-0.301197 1.278177,-0.501716 2.556076,-1.003698 3.833777,-1.505977 1.5178,-0.802915 3.03531,-1.60609 4.55262,-2.409564 2.196696,-1.706521 4.393086,-3.41326 6.589296,-5.120319 1.55773,-1.907324 3.11518,-3.814856 4.67242,-5.722714 0.95869,-1.756721 1.91712,-3.513659 2.87534,-5.27092 0.51938,-1.304921 1.03853,-2.610073 1.55748,-3.91554 0.1999,-1.053919 0.39956,-2.10808 0.59902,-3.162552 -0.15952,-1.857121 -0.31925,-3.714457 -0.47923,-5.572115 -0.71862,-2.108123 -1.43743,-4.216448 -2.15649,-6.325102 -1.39754,-1.806922 -2.79525,-3.614059 -4.19321,-5.421517 -1.55728,-1.455521 -3.11471,-2.911269 -4.67241,-4.367333 -1.27773,-0.953519 -2.55563,-1.907287 -3.83378,-2.861357 -0.439056,-0.300916 -0.878336,-0.602104 -1.317856,-0.903587 0.0402,0.452087 0.0801,0.903872 0.1198,1.35538 0.43953,0.753289 0.87881,1.506263 1.317866,2.258966 z"
         sodipodi:nodetypes="cccccccccccccccccccccccccccccccccccccccccccccc" />
      <g
         id="g2778-7-0-8"
         transform="matrix(1.140369,0,0,1.2311172,-117.37738,29.176807)">
        <path
           d="m 151.68381,2.5932058 -1.71998,-1.013912 v -0.560537 c 0,-0.19128205 -0.062,-0.37473305 -0.17301,-0.51000505 -0.11061,-0.135276 -0.2607,-0.211274 -0.41718,-0.211274 h -2.38436 c -0.15648,0 -0.30655,0.07601 -0.41718,0.211274 -0.11095,0.135277 -0.173,0.318723 -0.173,0.51000505 0,0.55312 0.17975,1.08357 0.4998,1.474706 0.32006,0.391098 0.75409,0.610822 1.20669,0.610822 h 1.27143 c 0.13826,-0.0014 0.27148,-0.06191 0.37705,-0.171128 0.10521,-0.109214 0.17603,-0.260155 0.19964,-0.426504 l 1.42993,0.824319 z"
           fill="#ea474f"
           id="path13-8-2-6"
           style="fill:#005ce0;stroke-width:0.372827" />
        <path
           d="m 178.711,2.5932058 1.71998,-1.013912 v -0.560537 c 0,-0.19128205 0.062,-0.37473305 0.17301,-0.51000505 0.1106,-0.135276 0.26069,-0.211274 0.41717,-0.211274 h 2.38435 c 0.15649,0 0.30656,0.07601 0.41718,0.211274 0.11096,0.135277 0.17301,0.318723 0.17301,0.51000505 0,0.55312 -0.17976,1.08357 -0.4998,1.474706 -0.32005,0.391098 -0.75408,0.610822 -1.20668,0.610822 h -1.27143 c -0.14098,0.0036 -0.27856,-0.05481 -0.38751,-0.164452 -0.10858,-0.109634 -0.18177,-0.263287 -0.20606,-0.43318 l -1.42993,0.824319 z"
           fill="#ea474f"
           id="path15-6-4-8"
           style="fill:#0064e0;stroke-width:0.372827" />
        <path
           d="m 152.76975,17.468041 h -4.24597 c -0.53455,0 -0.96791,0.529624 -0.96791,1.182898 v 5.189086 c 0,0.653274 0.43336,1.182898 0.96791,1.182898 h 4.24597 c 0.53454,0 0.9679,-0.529624 0.9679,-1.182898 v -5.189086 c 0,-0.653274 -0.43336,-1.182898 -0.9679,-1.182898 z"
           fill="#434343"
           id="path17-8-3-8"
           style="fill:#0068e0;fill-opacity:1;stroke-width:0.372827" />
        <path
           d="m 182.19478,17.468041 h -4.24597 c -0.53454,0 -0.9679,0.529624 -0.9679,1.182898 v 5.189086 c 0,0.653274 0.43336,1.182898 0.9679,1.182898 h 4.24597 c 0.53455,0 0.96791,-0.529624 0.96791,-1.182898 v -5.189086 c 0,-0.653274 -0.43336,-1.182898 -0.96791,-1.182898 z"
           fill="#434343"
           id="path19-3-8-2"
           style="fill:#0068e0;fill-opacity:1;stroke-width:0.372827" />
        <path
           d="m 177.80716,18.0327 h -25.2735 c -1.6741,-8.25e-4 -3.29222,-0.73653 -4.55926,-2.073162 -1.2674,-1.337047 -2.09904,-3.185869 -2.34423,-5.209696 -0.0502,0.315095 -0.0763,0.63522 -0.0775,0.956211 v 5.267397 c -3.4e-4,0.546935 0.0873,1.088512 0.25833,1.593819 0.17098,0.505308 0.4219,0.964454 0.73824,1.35106 0.31634,0.386606 0.69204,0.693252 1.10549,0.902218 0.41348,0.208963 0.85663,0.316125 1.30415,0.315712 h 32.42655 c 0.90248,0 1.76786,-0.438125 2.40627,-1.21793 0.63808,-0.780218 0.99658,-1.837818 0.99658,-2.940758 v -5.267397 c -9.3e-4,-0.32099 -0.0273,-0.641114 -0.0775,-0.956211 -0.24586,2.023086 -1.07819,3.871002 -2.34525,5.20681 -1.26703,1.336221 -2.88482,2.071514 -4.55826,2.071927 z"
           fill="#ea474f"
           id="path21-0-2-9"
           style="fill:#003cd8;stroke-width:0.372827" />
        <path
           d="m 178.93022,1.2454448 c -0.54466,-2.361096 -1.50044,-4.5502806 -2.80255,-6.4173227 -0.25059,-0.3548679 -0.56153,-0.6389288 -0.91091,-0.8324789 -0.3494,-0.1935916 -0.72914,-0.2920572 -1.11259,-0.288594 h -17.87424 c -0.40031,-0.00436 -0.79658,0.09813 -1.16149,0.3003411 -0.36457,0.2021644 -0.68866,0.4991255 -0.94969,0.8701905 -1.28492,1.8563265 -2.22888,4.027747 -2.76883,6.367864 l -0.26642,1.133439 h 28.09965 z"
           fill="#ff6a6c"
           id="path23-2-9-5"
           style="fill:#0068e0;stroke-width:0.372827" />
        <path
           d="M 184.58926,10.14809 C 183.71848,6.7975228 181.79785,4.0043588 179.24723,2.3788838 H 151.0835 c -2.55062,1.625475 -4.47127,4.418639 -5.34203,7.7692062 -0.0506,0.200144 -0.091,0.403834 -0.12141,0.609994 0.24652,2.023002 1.07953,3.87059 2.34725,5.205575 1.26806,1.335396 2.88584,2.069451 4.55961,2.069041 h 25.27013 c 1.6758,0.0025 3.29628,-0.732409 4.56568,-2.069453 1.26908,-1.337044 2.10276,-3.187477 2.34795,-5.213405 -0.0306,-0.203359 -0.0711,-0.404329 -0.12142,-0.601752 z"
           fill="#ff6a6c"
           id="path25-1-3-5"
           style="fill:#0068e0;stroke-width:0.372827" />
        <path
           d="m 152.48309,9.0393808 c -0.12648,-0.08321 -0.25699,-0.156209 -0.39121,-0.218445 -0.18211,-0.06184 -2.43831,-0.234931 -3.89186,-0.337971 -0.0496,1.053603 -0.007,2.1106282 0.12815,3.1530202 l 0.12478,0.07006 c 1.63736,0.915405 3.41669,1.389142 5.21726,1.388978 h 0.11129 c 0.11905,0 0.23304,-0.05774 0.31701,-0.160537 0.0843,-0.102836 0.13153,-0.242268 0.13153,-0.387636 9.3e-4,-0.724493 -0.1612,-1.435346 -0.46945,-2.054204 -0.30825,-0.6188552 -0.75039,-1.1217332 -1.2775,-1.4532712 z"
           fill="#ffffff"
           id="path27-4-3-8"
           style="stroke-width:0.372827" />
        <path
           d="m 148.20002,8.4829648 -0.88022,-0.06184 c -0.0982,-0.0069 -0.19527,0.02634 -0.27656,0.09418 -0.0812,0.06784 -0.14164,0.166636 -0.17199,0.280885 -0.13288,0.484782 -0.11399,1.012677 0.0539,1.4810972 0.16762,0.46846 0.47181,0.844019 0.85325,1.053684 l 0.54971,0.309119 c -0.1349,-1.043743 -0.17807,-2.1021682 -0.12815,-3.1571322 z"
           fill="#ffb942"
           id="path29-2-4-3"
           style="fill:#fb5607;fill-opacity:1;stroke-width:0.372827" />
        <path
           d="m 176.9337,9.0393808 c 0.12646,-0.08321 0.25698,-0.156209 0.39121,-0.218445 0.18211,-0.06184 2.4383,-0.234931 3.89185,-0.337971 0.0496,1.053603 0.007,2.1106282 -0.12815,3.1530202 l -0.12479,0.07006 c -1.63734,0.915405 -3.41667,1.389142 -5.21725,1.388978 h -0.12815 c -0.11906,0 -0.23305,-0.05774 -0.31702,-0.160537 -0.0843,-0.102836 -0.13153,-0.242268 -0.13153,-0.387636 3.3e-4,-0.726637 0.16559,-1.438933 0.47687,-2.058036 0.31128,-0.6190632 0.75679,-1.1207442 1.28695,-1.4494392 z"
           fill="#ffffff"
           id="path31-6-1-7"
           style="stroke-width:0.372827" />
        <path
           d="m 181.22013,8.4829648 0.88023,-0.06184 c 0.0981,-0.0069 0.19527,0.02634 0.27654,0.09418 0.0812,0.06784 0.14165,0.166636 0.172,0.280885 0.13288,0.484782 0.114,1.012677 -0.0539,1.4810972 -0.1676,0.46846 -0.47181,0.844019 -0.85323,1.053684 l -0.54972,0.309119 c 0.13489,-1.043751 0.17806,-2.1021772 0.12815,-3.1571402 z"
           fill="#ffb942"
           id="path33-7-4-8"
           style="fill:#fb5607;fill-opacity:1;stroke-width:0.372827" />
        <path
           d="m 157.18772,16.153253 h 14.46801 c 0.19864,0 0.38885,0.09644 0.52948,0.267903 0.1403,0.17187 0.21922,0.404328 0.21922,0.64709 0,0.373415 -0.06,0.743125 -0.17706,1.088102 -0.11703,0.34539 -0.28835,0.658629 -0.50453,0.922824 -0.21617,0.264194 -0.47248,0.473571 -0.75476,0.616591 -0.28261,0.143018 -0.58512,0.216383 -0.89068,0.216383 h -11.31134 c -0.30556,0 -0.60807,-0.07337 -0.89069,-0.216383 -0.28228,-0.143018 -0.53858,-0.352397 -0.75477,-0.616591 -0.21617,-0.264195 -0.3875,-0.577434 -0.50452,-0.922824 -0.11702,-0.344977 -0.17706,-0.714687 -0.17706,-1.088102 0,-0.242762 0.0789,-0.47522 0.21922,-0.64709 0.14063,-0.17146 0.33084,-0.267903 0.52948,-0.267903 z"
           fill="#434343"
           id="path35-3-7-5"
           style="fill:#e6e6e6;fill-opacity:1;stroke-width:0.372827" />
        <path
           d="m 177.74646,16.153253 h 2.10107 c 0.36761,0 0.72003,0.178463 0.98005,0.496239 0.26002,0.317775 0.40605,0.748483 0.40605,1.197734 0,0.449254 -0.14603,0.879962 -0.40605,1.197737 -0.26002,0.317775 -0.61244,0.49624 -0.98005,0.49624 h -2.10107 c -0.19425,0 -0.38007,-0.09439 -0.51734,-0.262134 -0.13726,-0.16775 -0.21449,-0.394848 -0.21449,-0.632253 v -1.599177 c 0,-0.237405 0.0772,-0.464504 0.21449,-0.632253 0.13727,-0.167751 0.32309,-0.262133 0.51734,-0.262133 z"
           fill="#434343"
           id="path37-7-5-7"
           style="fill:#f9f9f9;fill-opacity:1;stroke-width:0.372827" />
        <path
           d="m 151.81196,19.537081 h -2.10108 c -0.36759,0 -0.72002,-0.178466 -0.98003,-0.496239 -0.26003,-0.317776 -0.40606,-0.748483 -0.40606,-1.197736 0,-0.449254 0.14603,-0.879962 0.40606,-1.197736 0.26001,-0.317773 0.61244,-0.496239 0.98003,-0.496239 h 2.10108 c 0.19426,0 0.38008,0.09439 0.51734,0.262132 0.13726,0.167749 0.2145,0.394849 0.2145,0.632253 v 1.599178 c 0,0.237404 -0.0772,0.464506 -0.2145,0.632253 -0.13726,0.167749 -0.32308,0.262134 -0.51734,0.262134 z"
           fill="#434343"
           id="path39-9-4-9"
           style="fill:#f9f9f9;fill-opacity:1;stroke-width:0.372827" />
        <path
           d="m 179.13931,19.046611 c 0.51598,0 0.93418,-0.511076 0.93418,-1.141682 0,-0.630602 -0.4182,-1.141681 -0.93418,-1.141681 -0.516,0 -0.93418,0.511079 -0.93418,1.141681 0,0.630606 0.41818,1.141682 0.93418,1.141682 z"
           fill="#656666"
           id="path41-6-8-9"
           style="fill:#e6e6e6;fill-opacity:1;stroke-width:0.372827" />
        <path
           d="m 150.43598,19.174381 c 0.51599,0 0.93418,-0.511079 0.93418,-1.141681 0,-0.630605 -0.41819,-1.141682 -0.93418,-1.141682 -0.516,0 -0.93418,0.511077 -0.93418,1.141682 0,0.630602 0.41818,1.141681 0.93418,1.141681 z"
           fill="#656666"
           id="path43-2-6-4"
           style="fill:#e6e6e6;fill-opacity:1;stroke-width:0.372827" />
        <path
           d="m 155.44751,-5.0235007 c -1.36283,1.7394782 -2.38165,3.8374945 -2.97792,6.1329325 v 0.572903 c 2.56546,0.571582 5.15521,0.969233 7.75675,1.191141 l 5.56124,-7.888732 z"
           fill="#558a89"
           id="path45-3-2-8"
           style="fill:#f9f9f9;stroke-width:0.372827" />
        <path
           d="m 177.81054,1.1094318 c -0.49677,-1.89568405 -1.2829,-3.6592322 -2.31691,-5.1973283 l -4.54612,6.8624533 c 2.29768,-0.23081 4.58558,-0.597632 6.86303,-1.100465 z"
           fill="#558a89"
           id="path47-7-9-4"
           style="fill:#f2f2f2;stroke-width:0.372827" />
        <path
           d="m 174.83262,-5.0235007 h -9.03154 l -5.56125,7.8846105 c 3.56574,0.30199 7.14531,0.273056 10.70768,-0.08655 l 4.54612,-6.8624531 c -0.21246,-0.3338488 -0.4283,-0.6429684 -0.66101,-0.9356021 z"
           fill="#6ea09d"
           id="path49-0-0-5"
           style="fill:#e6e6e6;stroke-width:0.372827" />
      </g>
      <path
         style="fill:#0068e0;fill-opacity:1;stroke:none;stroke-width:0.259541px;stroke-linecap:butt;stroke-linejoin:miter;stroke-opacity:1"
         d="m 58.996468,71.823842 c -0.07517,-0.132449 -0.225678,-0.397659 -0.526652,-0.566563 -0.300974,-0.168904 -0.752497,-0.241232 -1.236443,0.02398 -0.483946,0.265212 -0.999972,0.86795 -1.494527,1.772146 -0.494554,0.904197 -0.967578,2.10967 -1.365359,3.146412 -0.397782,1.036742 -0.720298,1.904684 -0.946065,2.507436 -0.225767,0.602752 -0.354773,0.940284 -0.343895,1.229681 0.01088,0.289397 0.161386,0.530492 0.871006,0.904109 0.709619,0.373617 1.978184,0.879916 3.332794,1.410341 1.354611,0.530425 2.795181,1.084946 4.343308,1.675647 1.548127,0.5907 3.203714,1.217545 4.235789,1.6033 1.032075,0.385755 1.440597,0.530412 1.762999,0.53034 0.322403,-7.3e-5 0.558915,-0.144731 0.870631,-0.735335 0.311716,-0.590605 0.69874,-1.627322 0.924524,-2.45908 0.225784,-0.831758 0.290286,-1.458601 0.268844,-1.952823 -0.02144,-0.494221 -0.128949,-0.855864 -0.386872,-1.181408 -0.257924,-0.325545 -0.666444,-0.614858 -0.999773,-0.735529 -0.33333,-0.12067 -0.591344,-0.07245 -0.881736,0.578649 -0.290393,0.651099 -0.61291,1.904793 -0.903079,2.567696 -0.290169,0.662903 -0.548183,0.735233 -0.559033,0.241097 -0.01085,-0.494136 0.225662,-1.554959 0.376181,-2.326471 0.150519,-0.771512 0.215022,-1.253699 0.258035,-1.747946 0.04301,-0.494248 0.06451,-1.000547 -0.139635,-1.518906 -0.204149,-0.518359 -0.634171,-1.048768 -0.999665,-1.362294 -0.365494,-0.313526 -0.666507,-0.409963 -0.999966,-0.12063 -0.333459,0.289334 -0.698978,0.964399 -1.042999,2.025304 -0.344021,1.060904 -0.666538,2.507475 -0.91366,3.230669 -0.247123,0.723194 -0.419132,0.723194 -0.548183,0.638966 -0.129052,-0.08423 -0.215057,-0.252994 -0.0754,-1.121024 0.139658,-0.86803 0.505176,-2.435149 0.763192,-3.459842 0.258015,-1.024692 0.408524,-1.506882 0.451577,-1.964915 0.04305,-0.458032 -0.02145,-0.892003 -0.3331,-1.277828 -0.31165,-0.385824 -0.870678,-0.723357 -1.343823,-0.795797 -0.473145,-0.07244 -0.860165,0.120434 -1.311773,1.072911 -0.451609,0.952476 -0.967634,2.66425 -1.354502,3.508021 -0.386868,0.84377 -0.644883,0.81966 -0.795503,0.675137 -0.150619,-0.144523 -0.193622,-0.409726 -0.05391,-1.024606 0.13971,-0.614881 0.462226,-1.579262 0.688004,-2.447201 0.225777,-0.86794 0.354784,-1.639446 0.419308,-2.02532 0.06452,-0.385874 0.06453,-0.385875 -0.01064,-0.518323 z"
         id="path6391"
         inkscape:path-effect="#path-effect6393"
         inkscape:original-d="m 59.071635,71.95629 c -0.150266,-0.264935 -0.300777,-0.530145 -0.451533,-0.795629 -0.451296,-0.07206 -0.90282,-0.144384 -1.354597,-0.216989 -0.515801,0.603035 -1.031826,1.205774 -1.548109,1.808249 -0.472798,1.2058 -0.945823,2.411273 -1.419101,3.616498 -0.322284,0.868253 -0.644801,1.736194 -0.967569,2.603881 -0.128767,0.33782 -0.257774,0.675352 -0.387026,1.012618 0.150758,0.241379 0.301266,0.482474 0.451532,0.7233 1.268859,0.506594 2.537425,1.01289 3.80577,1.518928 1.440875,0.55482 2.881449,1.10933 4.321805,1.6636 1.655896,0.627139 3.311481,1.253989 4.966852,1.880569 0.408783,0.14493 0.817304,0.28959 1.225588,0.43398 0.236767,-0.14439 0.473278,-0.28905 0.709549,-0.43398 0.387282,-1.03647 0.774302,-2.073189 1.161085,-3.110189 0.06476,-0.6266 0.129254,-1.253444 0.193513,-1.880577 -0.107265,-0.361383 -0.214771,-0.723025 -0.322524,-1.084952 -0.408293,-0.289048 -0.816812,-0.578363 -1.225586,-0.867959 -0.257778,0.0485 -0.515792,0.09672 -0.774055,0.144662 -0.322284,1.254019 -0.644802,2.507713 -0.96757,3.761156 -0.257778,0.0726 -0.515789,0.14494 -0.774052,0.21699 0.236765,-1.06058 0.473276,-2.121403 0.709547,-3.182518 0.06476,-0.481936 0.129257,-0.964124 0.193515,-1.4466 0.02174,-0.506045 0.04325,-1.012344 0.0645,-1.518929 -0.429794,-0.530155 -0.859815,-1.060565 -1.290093,-1.591259 -0.300781,-0.09617 -0.601795,-0.192604 -0.903062,-0.289321 -0.365289,0.67537 -0.730807,1.350436 -1.096579,2.025239 -0.322284,1.446905 -0.644801,2.893476 -0.967568,4.339799 -0.17177,2.74e-4 -0.343779,2.74e-4 -0.516036,0 -0.08576,-0.168499 -0.171768,-0.337264 -0.258018,-0.506308 0.365776,-1.566906 0.731296,-3.134025 1.096576,-4.70145 0.150761,-0.481933 0.301267,-0.964124 0.451533,-1.446598 -0.06426,-0.433715 -0.128764,-0.867686 -0.193514,-1.301941 -0.558806,-0.337271 -1.117835,-0.674803 -1.67712,-1.012618 -0.386789,0.193158 -0.773809,0.386034 -1.161082,0.578638 -0.515802,1.712121 -1.031828,3.423895 -1.548109,5.13543 -0.257779,-0.02383 -0.515793,-0.04795 -0.774054,-0.07233 -0.04277,-0.264941 -0.08577,-0.530144 -0.129011,-0.795628 0.322775,-0.964146 0.645292,-1.928526 0.967569,-2.893201 0.129257,-0.771259 0.258263,-1.542765 0.387029,-2.31456 z" />
      <text
         xml:space="preserve"
         style="font-style:normal;font-variant:normal;font-weight:normal;font-stretch:normal;font-size:24.0622px;line-height:0.65;font-family:Algerian;-inkscape-font-specification:Algerian;fill:#0068e0;fill-opacity:1;stroke-width:0.859364"
         x="34.914364"
         y="104.35018"
         id="text12764"
         transform="scale(0.96712276,1.0339949)"><tspan
           sodipodi:role="line"
           id="tspan12762"
           style="font-style:normal;font-variant:normal;font-weight:normal;font-stretch:normal;font-family:Algerian;-inkscape-font-specification:Algerian;fill:#0068e0;fill-opacity:1;stroke-width:0.859364"
           x="34.914364"
           y="104.35018">MITOBI</tspan></text>
      <path
         style="opacity:0.990228;fill:none;fill-opacity:1;stroke:#0068e0;stroke-width:4.13534;stroke-linecap:round;stroke-linejoin:round;stroke-miterlimit:4;stroke-dasharray:none;stroke-opacity:1;paint-order:stroke fill markers"
         id="path28493"
         sodipodi:type="arc"
         sodipodi:cx="134.56454"
         sodipodi:cy="101.16808"
         sodipodi:rx="22.499859"
         sodipodi:ry="21.761057"
         sodipodi:start="4.5015411"
         sodipodi:end="2.6179726"
         sodipodi:arc-type="arc"
         d="m 129.85557,79.888951 a 22.499859,21.761057 0 0 1 26.10103,14.53502 22.499859,21.761057 0 0 1 -12.2306,26.619539 22.499859,21.761057 0 0 1 -28.64667,-8.9945"
         sodipodi:open="true" />
      <text
         xml:space="preserve"
         style="font-style:normal;font-variant:normal;font-weight:bold;font-stretch:normal;font-size:13.5125px;line-height:0.65;font-family:'Bell MT';-inkscape-font-specification:'Bell MT Bold';fill:#fb5607;fill-opacity:1;stroke-width:0.482593"
         x="138.12303"
         y="90.693504"
         id="text29113"
         transform="scale(0.85560113,1.1687689)"><tspan
           sodipodi:role="line"
           id="tspan29111"
           style="font-style:normal;font-variant:normal;font-weight:bold;font-stretch:normal;font-family:'Bell MT';-inkscape-font-specification:'Bell MT Bold';fill:#fb5607;fill-opacity:1;stroke-width:0.482593"
           x="138.12303"
           y="90.693504">24<tspan
   style="font-size:10.4891px"
   id="tspan37292">H  </tspan>7</tspan></text>
      <path
         style="fill:none;stroke:#fb5607;stroke-width:0.570257px;stroke-linecap:butt;stroke-linejoin:miter;stroke-opacity:1"
         d="m 137.47245,108.90008 4.98518,-13.023934"
         id="path41320" />
    </g>
  </g>
</svg>
