<?xml version="1.0" encoding="UTF-8" standalone="no"?>
<!-- Created with Inkscape (http://www.inkscape.org/) -->

<svg
   width="210mm"
   height="297mm"
   viewBox="0 0 210 297"
   version="1.1"
   id="svg18653"
   inkscape:version="1.1 (c68e22c387, 2021-05-23)"
   sodipodi:docname="changer_ampoule.svg"
   xmlns:inkscape="http://www.inkscape.org/namespaces/inkscape"
   xmlns:sodipodi="http://sodipodi.sourceforge.net/DTD/sodipodi-0.dtd"
   xmlns="http://www.w3.org/2000/svg"
   xmlns:svg="http://www.w3.org/2000/svg">
  <sodipodi:namedview
     id="namedview18655"
     pagecolor="#505050"
     bordercolor="#eeeeee"
     borderopacity="1"
     inkscape:pageshadow="0"
     inkscape:pageopacity="0"
     inkscape:pagecheckerboard="0"
     inkscape:document-units="mm"
     showgrid="false"
     inkscape:zoom="0.51134961"
     inkscape:cx="396.01086"
     inkscape:cy="562.23765"
     inkscape:window-width="1920"
     inkscape:window-height="1001"
     inkscape:window-x="-9"
     inkscape:window-y="-9"
     inkscape:window-maximized="1"
     inkscape:current-layer="layer1" />
  <defs
     id="defs18650" />
  <g
     inkscape:label="Calque 1"
     inkscape:groupmode="layer"
     id="layer1">
    <path
       class="st1"
       d="m 172.57043,186.07407 c -1.81967,-7.81642 -1.0704,-15.73843 -2.46192,-23.66048 -1.0704,-6.33762 -4.38864,-11.72459 -9.31247,-15.73844 -7.81394,-6.44325 -16.59121,-6.97138 -25.90369,-8.55576 -10.38289,-1.79566 -15.94897,-8.97831 -23.65585,-15.42158 -14.664489,-12.25275 -38.427375,-12.04148 -49.024338,5.80951 -5.24496,8.97831 -5.673122,19.9635 -6.529441,30.10369 -0.428162,5.91514 -0.96336,11.83027 -1.391522,17.74535 -0.3211,4.43634 -0.107052,10.24583 -3.96048,13.20342 -3.425283,2.64064 -8.349122,2.32378 -12.095525,4.54193 -3.63936,2.00693 -6.422402,5.28137 -8.5632,8.87267 -5.030883,8.87268 -4.816801,19.43542 -2.676003,29.25871 l 154.779889,-0.10584 c 2.676,-16.16093 -5.67313,-31.05437 -9.20545,-46.0534 z"
       id="path2945"
       style="fill:#ebe2dd;stroke-width:1.06331" />
    <path
       class="st2"
       d="m 25.818553,228.74742 c 0.214094,8.55577 2.461918,20.28039 9.633603,26.40675 5.459042,4.64761 15.199683,6.86576 22.906565,7.18266 7.706883,0.31698 15.520803,-0.42253 23.227686,0.10585 11.881445,0.84498 20.230573,1.79565 31.576813,4.75318 11.45328,2.85196 23.76288,4.85885 35.10913,1.69004 7.17168,-2.00689 13.48704,-5.9151 17.76864,-11.09084 2.46192,-2.95753 4.28161,-6.33762 6.85056,-9.18957 2.56896,-2.85191 5.99424,-5.28132 8.13505,-8.45013 2.14079,-3.16883 2.89008,-7.39393 0.21409,-10.24584 z"
       id="path2951"
       style="fill:#b3dee5;stroke-width:1.06331" />
    <path
       class="st16"
       d="m 132.21634,158.39979 c -0.10706,0 -0.21409,0 -0.21409,0 -1.0704,-0.2112 -1.71264,-1.26753 -1.71264,-2.21819 0,-0.63377 0.21409,-1.26753 0.42816,-1.90129 0.10707,-0.21119 0.10707,-0.31698 0.2141,-0.52813 0.21409,-0.73939 0.32109,-1.37316 0,-1.79566 l -0.3211,-0.52812 0.53519,-0.21119 c 2.24785,-1.16189 4.70976,-1.90128 7.27872,-2.11256 l 1.92673,-0.21118 -3.63936,2.85191 c -0.2141,0.10584 -0.32115,0.31698 -0.42817,0.42253 -0.10706,0.31699 -0.10706,0.73936 0.10707,1.1619 0.10706,0.21118 0.10706,0.52812 0.10706,0.7394 0.10706,0.95062 -0.21409,2.00688 -0.96336,2.8519 -0.64225,0.63377 -1.49856,1.1619 -2.56896,1.37316 -0.21409,0 -0.5352,0.10584 -0.74928,0.10584 z m -0.10706,-6.44327 c 0.21409,0.63377 0.10706,1.26753 -0.2141,2.11256 -0.10706,0.21119 -0.10706,0.31699 -0.2141,0.52813 -0.21409,0.52813 -0.3211,1.05626 -0.42815,1.47876 0,0.52817 0.3211,1.16192 0.74927,1.16192 0.21411,0 0.42816,0 0.5352,-0.10584 0.53521,-0.10584 1.39153,-0.42254 2.03377,-1.1619 0.5352,-0.52817 0.74927,-1.26752 0.74927,-2.00691 0,-0.2112 -0.10706,-0.42254 -0.10706,-0.63377 -0.10706,-0.63376 -0.3211,-1.26753 0,-1.90129 0.21409,-0.31698 0.5352,-0.52812 0.74927,-0.7394 l 0.5352,-0.42249 c -1.49855,0.52812 -2.99712,1.05626 -4.38863,1.69002 z"
       id="path2965"
       style="fill:#272525;stroke-width:1.06331" />
    <rect
       x="138.63872"
       y="165.68806"
       class="st11"
       width="1.6056005"
       height="64.643768"
       id="rect2971"
       style="fill:#0093b7;stroke-width:1.06331" />
    <rect
       x="132.32338"
       y="107.69872"
       class="st11"
       width="1.6056005"
       height="32.321884"
       id="rect2977"
       style="fill:#0093b7;stroke-width:1.06331" />
    <rect
       x="135.21346"
       y="107.69872"
       class="st11"
       width="1.6056005"
       height="32.321884"
       id="rect2983"
       style="fill:#0093b7;stroke-width:1.06331" />
    <rect
       x="139.38802"
       y="107.69872"
       class="st11"
       width="1.6056005"
       height="32.321884"
       id="rect2989"
       style="fill:#0093b7;stroke-width:1.06331" />
    <rect
       x="141.95699"
       y="107.69872"
       class="st11"
       width="1.6056005"
       height="32.321884"
       id="rect2995"
       style="fill:#0093b7;stroke-width:1.06331" />
    <rect
       x="144.52592"
       y="107.69872"
       class="st11"
       width="1.6056005"
       height="32.321884"
       id="rect3001"
       style="fill:#0093b7;stroke-width:1.06331" />
    <polygon
       class="st3"
       points="168.2,317.6 168.2,344.6 170.8,348.5 170.8,313.6 "
       id="polygon3009"
       transform="matrix(1.0704003,0,0,1.0562708,-29.842262,-196.82409)"
       style="fill:#233865" />
    <path
       class="st7"
       d="m 154.48067,171.18067 h -1.49857 v -36.65263 h 1.49857 c 1.0704,0 1.81968,0.84503 1.81968,1.79569 v 32.95565 c 0.10707,1.05626 -0.74928,1.90129 -1.81968,1.90129 z"
       id="path3015"
       style="fill:#f96a57;stroke-width:1.06331" />
    <path
       class="st7"
       d="M 148.59347,167.16682 H 130.5037 c -0.85632,0 -1.6056,-0.73939 -1.6056,-1.58442 v -25.3505 c 0,-0.84503 0.74928,-1.58439 1.6056,-1.58439 h 18.08977 c 0.85631,0 1.60559,0.73936 1.60559,1.58439 v 25.3505 c 0,0.84503 -0.74928,1.58442 -1.60559,1.58442 z"
       id="path3023"
       style="fill:#f96a57;stroke-width:1.06331" />
    <path
       class="st3"
       d="m 148.16531,165.68803 h -17.23344 c -0.53521,0 -0.96337,-0.42249 -0.96337,-0.95066 V 140.9713 c 0,-0.52814 0.42816,-0.95063 0.96337,-0.95063 h 17.23344 c 0.5352,0 0.96335,0.42249 0.96335,0.95063 v 23.76607 c 0,0.52817 -0.42815,0.95066 -0.96335,0.95066 z"
       id="path3029"
       style="fill:#233865;stroke-width:1.06331" />
    <rect
       x="131.78818"
       y="146.25264"
       class="st2"
       width="2.9971206"
       height="9.6120644"
       id="rect3037"
       style="fill:#b3dee5;stroke-width:1.06331" />
    <rect
       x="136.06978"
       y="146.25264"
       class="st2"
       width="2.9971206"
       height="9.6120644"
       id="rect3043"
       style="fill:#b3dee5;stroke-width:1.06331" />
    <rect
       x="140.24435"
       y="146.25264"
       class="st2"
       width="2.9971206"
       height="9.6120644"
       id="rect3049"
       style="fill:#b3dee5;stroke-width:1.06331" />
    <rect
       x="144.41891"
       y="146.25264"
       class="st2"
       width="2.9971206"
       height="9.6120644"
       id="rect3055"
       style="fill:#b3dee5;stroke-width:1.06331" />
    <path
       class="st7"
       d="m 134.57123,142.55568 c 0,0.52817 -0.42816,0.95066 -0.96337,0.95066 -0.5352,0 -0.96336,-0.42249 -0.96336,-0.95066 0,-0.52813 0.42816,-0.95062 0.96336,-0.95062 0.53521,0 0.96337,0.42249 0.96337,0.95062 z"
       id="path3063"
       style="fill:#f96a57;stroke-width:1.06331" />
    <path
       class="st7"
       d="m 138.85282,142.55568 c 0,0.52817 -0.42815,0.95066 -0.96335,0.95066 -0.5352,0 -0.96337,-0.42249 -0.96337,-0.95066 0,-0.52813 0.42817,-0.95062 0.96337,-0.95062 0.5352,0 0.96335,0.42249 0.96335,0.95062 z"
       id="path3069"
       style="fill:#f96a57;stroke-width:1.06331" />
    <path
       class="st7"
       d="m 143.13442,142.55568 c 0,0.52817 -0.42816,0.95066 -0.96335,0.95066 -0.5352,0 -0.96336,-0.42249 -0.96336,-0.95066 0,-0.52813 0.42816,-0.95062 0.96336,-0.95062 0.53519,0 0.96335,0.42249 0.96335,0.95062 z"
       id="path3075"
       style="fill:#f96a57;stroke-width:1.06331" />
    <path
       class="st7"
       d="m 147.41603,142.55568 c 0,0.52817 -0.42817,0.95066 -0.96337,0.95066 -0.5352,0 -0.96335,-0.42249 -0.96335,-0.95066 0,-0.52813 0.42815,-0.95062 0.96335,-0.95062 0.5352,0 0.96337,0.42249 0.96337,0.95062 z"
       id="path3081"
       style="fill:#f96a57;stroke-width:1.06331" />
    <rect
       x="126.65024"
       y="220.82533"
       class="st3"
       width="32.326092"
       height="20.280399"
       id="rect3095"
       style="fill:#233865;stroke-width:1.06331" />
    <rect
       x="127.93473"
       y="227.79678"
       class="st11"
       width="28.472649"
       height="0.63376248"
       id="rect3101"
       style="fill:#0093b7;stroke-width:1.06331" />
    <rect
       x="140.77951"
       y="226.52924"
       class="st11"
       width="3.104161"
       height="4.0138288"
       id="rect3107"
       style="fill:#0093b7;stroke-width:1.06331" />
    <path
       class="st3"
       d="m 161.11715,216.81157 c -0.10707,-1.0563 -0.2141,-2.11256 -0.3211,-3.27445 -0.96335,0.10584 -1.92672,-0.31698 -2.56896,-1.16189 -0.64224,-0.7394 -0.96336,-1.7957 -1.0704,-2.85195 -0.10707,-1.16189 0.10706,-2.42942 0.64224,-3.48567 0.5352,-1.0563 1.49856,-1.7957 2.56896,-2.11256 0,-0.21119 0,-0.31699 0,-0.52813 l -0.42817,-1.05629 c -0.42815,0.10584 -0.85631,0.31697 -1.28447,0.42252 -0.42816,0.10585 -0.85632,0.31699 -1.17744,0.63377 -0.3211,0.21119 -0.5352,0.52813 -0.64224,0.84499 -0.96337,1.37316 -1.92672,2.74632 -2.89008,4.11948 -0.21409,0.31698 -0.42816,0.63375 -0.42816,0.95063 l -0.10707,6.54888 c 0,0.31699 -0.10706,0.52813 -0.10706,0.84504 h 7.81392 z"
       id="path3115"
       style="fill:#233865;stroke-width:1.06331" />
    <path
       class="st3"
       d="m 169.35923,216.81157 c 0,-0.31699 0,-0.52817 -0.10706,-0.84504 l -0.10706,-6.54888 c 0,-0.31699 -0.3211,-0.63377 -0.42816,-0.95063 -0.96337,-1.37316 -1.92673,-2.74632 -2.89009,-4.11948 -0.2141,-0.31697 -0.42815,-0.63376 -0.64224,-0.84499 -0.32109,-0.31698 -0.74928,-0.42253 -1.17744,-0.63375 -0.42816,-0.10585 -0.85632,-0.31699 -1.28447,-0.42254 l -0.42818,1.05629 c 0,0.21119 0,0.31699 0,0.52813 1.07041,0.31699 2.03377,1.05626 2.56897,2.11252 0.53521,1.05629 0.74929,2.21819 0.64225,3.48571 -0.10707,1.05627 -0.42817,2.11256 -1.07041,2.85192 -0.64224,0.73939 -1.6056,1.26751 -2.56896,1.16193 -0.10706,1.05625 -0.21409,2.11251 -0.32109,3.27441 h 7.81391 z"
       id="path3121"
       style="fill:#233865;stroke-width:1.06331" />
    <path
       class="st7"
       d="M 169.46627,244.48584 H 152.9821 c -0.64223,0 -1.28447,-0.52812 -1.28447,-1.26751 v -26.8293 c 0,-0.63376 0.5352,-1.26753 1.28447,-1.26753 h 16.48417 c 0.64224,0 1.28449,0.52814 1.28449,1.26753 v 26.8293 c -0.10707,0.73939 -0.64225,1.26751 -1.28449,1.26751 z"
       id="path3129"
       style="fill:#f96a57;stroke-width:1.06331" />
    <rect
       x="154.58771"
       y="217.8678"
       class="st3"
       width="13.380003"
       height="6.7601333"
       id="rect3135"
       style="fill:#233865;stroke-width:1.06331" />
    <rect
       x="155.44403"
       y="218.60719"
       class="st11"
       width="11.453283"
       height="5.1757269"
       id="rect3141"
       style="fill:#0093b7;stroke-width:1.06331" />
    <path
       class="st0"
       d="m 168.60995,230.43744 c 0,2.00692 -1.60559,3.59131 -3.63936,3.59131 -2.03376,0 -3.63936,-1.58439 -3.63936,-3.59131 0,-2.00692 1.6056,-3.5913 3.63936,-3.5913 2.03377,0 3.63936,1.58438 3.63936,3.5913 z"
       id="path3147"
       style="fill:#f7f4f2;stroke-width:1.06331" />
    <ellipse
       class="st3"
       cx="162.18755"
       cy="238.25383"
       id="circle3153"
       style="fill:#233865;stroke-width:1.06331"
       rx="1.7126405"
       ry="1.6900333" />
    <ellipse
       class="st3"
       cx="166.79025"
       cy="238.25383"
       id="circle3159"
       style="fill:#233865;stroke-width:1.06331"
       rx="1.7126405"
       ry="1.6900333" />
    <path
       class="st0"
       d="m 157.04962,228.64179 c 0.21411,0.21119 0.10707,0.63376 -0.10706,0.84502 l -1.49856,1.05626 c -0.2141,0.21119 -0.64225,0.10584 -0.85633,-0.10584 v 0 c -0.21409,-0.2112 -0.10706,-0.63377 0.10707,-0.84504 l 1.49855,-1.05626 c 0.3211,-0.21119 0.74928,-0.10584 0.85632,0.10585 z"
       id="path3167"
       style="fill:#f7f4f2;stroke-width:1.06331" />
    <path
       class="st0"
       d="m 157.04962,231.70497 c 0.21411,0.21118 0.10707,0.63376 -0.10706,0.84502 l -1.49856,1.05626 c -0.2141,0.21119 -0.64225,0.10584 -0.85633,-0.10584 v 0 c -0.21409,-0.21118 -0.10706,-0.63376 0.10707,-0.84498 l 1.49855,-1.0563 c 0.3211,-0.2112 0.74928,-0.10585 0.85632,0.10584 z"
       id="path3173"
       style="fill:#f7f4f2;stroke-width:1.06331" />
    <path
       class="st0"
       d="m 157.04962,234.87378 c 0.21411,0.21119 0.10707,0.63376 -0.10706,0.84503 l -1.49856,1.05625 c -0.2141,0.21119 -0.64225,0.10584 -0.85633,-0.10584 v 0 c -0.21409,-0.21119 -0.10706,-0.63377 0.10707,-0.84499 l 1.49855,-1.05631 c 0.3211,-0.21118 0.74928,-0.21118 0.85632,0.10585 z"
       id="path3179"
       style="fill:#f7f4f2;stroke-width:1.06331" />
    <path
       class="st0"
       d="m 157.04962,237.93696 c 0.21411,0.21118 0.10707,0.63376 -0.10706,0.84503 l -1.49856,1.05625 c -0.2141,0.21119 -0.64225,0.10584 -0.85633,-0.10584 v 0 c -0.21409,-0.21118 -0.10706,-0.63376 0.10707,-0.84498 l 1.49855,-1.0563 c 0.3211,-0.2112 0.74928,-0.2112 0.85632,0.10584 z"
       id="path3185"
       style="fill:#f7f4f2;stroke-width:1.06331" />
    <path
       class="st3"
       d="m 70.240164,207.93889 c -0.3211,-0.84503 0.107052,-2.11256 0.214094,-2.95758 0.107052,-0.95063 0.214093,-1.58439 0.107052,-2.42942 1.177442,0 3.211201,0 4.495681,0 -0.214093,0.7394 0.321141,1.58442 0.963361,2.00693 0.749278,0.42249 1.498561,0.52812 2.354878,0.73939 0.749283,0.21118 1.605601,0.52812 2.140802,1.16189 0.214094,0.21119 0.3211,0.52813 0.3211,0.73939 0,0.10585 0,0.63377 -0.10704,0.7394 z"
       id="path3195"
       style="fill:#233865;stroke-width:1.06331" />
    <path
       class="st10"
       d="m 69.919044,151.4284 c 1.391519,3.27444 3.532322,6.02072 5.459042,9.0839 1.926721,2.95758 5.244961,10.77396 5.459041,14.25968 0.214095,3.16881 -0.749278,6.23199 -1.605599,9.29517 -1.498562,5.59822 -3.211201,13.30901 -3.425283,19.11851 -1.712639,0.21118 -3.532321,0.42249 -5.244961,0.63376 -0.5352,-7.28826 -0.107051,-16.68909 1.819683,-23.76608 0.10704,-0.52817 0.3211,-1.0563 0.214093,-1.47879 -0.107051,-0.42249 -0.3211,-0.73939 -0.535197,-1.05625 -3.853441,-5.49265 -9.419526,-15.42157 -13.272967,-20.80858 3.639363,-2.11251 7.171685,-4.43633 10.489924,-6.97139 z"
       id="path3201"
       style="fill:#077f93;stroke-width:1.06331" />
    <path
       class="st12"
       d="m 59.42912,128.71858 c -0.963361,0 -2.033759,0.10537 -2.783038,0.84499 -0.64224,0.63376 -0.856321,1.79566 -0.64224,2.64069 0.3211,1.47879 1.391519,2.85195 2.890081,3.38007 1.177437,0.42251 2.461917,0.52814 3.639359,0.52814 1.177442,0 2.35488,0 3.63936,-0.10585 0.428164,-2.11255 0.642241,-4.33069 0.749283,-6.65448 -2.461922,-0.31698 -4.923844,-0.63376 -7.492805,-0.63376 z"
       id="path3209"
       style="fill:#c9433d;stroke-width:1.06331" />
    <path
       class="st3"
       d="m 81.051209,117.94463 c -0.3211,0 -0.535201,-0.2112 -0.749282,-0.42254 -0.428159,-0.52813 -0.535199,-1.1619 -0.428159,-1.79566 0.214093,-0.95063 0.856321,-1.69002 1.712639,-2.21814 0.107051,-0.10585 0.321099,-0.2112 0.535201,-0.2112 1.0704,-0.42249 2.247841,-0.52812 3.425283,-0.52812 0.107052,0.31698 -0.107052,0.52812 -0.3211,0.7394 -0.107051,0.10537 -0.214094,0.10537 -0.214094,0.10537 0.3211,0 0.64224,0 1.070399,0 0.107052,0 0.107052,0 0.214094,0.10584 0.107052,0.10585 0,0.2112 0,0.31699 0,0.10584 -0.107051,0.10584 -0.214094,0.21118 0,0 0,0 0,0 0.107052,0.31699 -0.214093,0.63377 -0.535197,0.7394 -0.3211,0.10584 -0.64224,0.10584 -0.96336,0.21119 -0.642241,0.10584 -1.284481,0.31698 -1.819683,0.63377 -0.3211,0.21118 -0.428158,0.63375 -0.3211,0.95062 0,0 0,0 0,0 0,0.10584 0.107052,0.21118 0.107052,0.42252 0,0.2112 -0.214093,0.31699 -0.3211,0.42251 -0.535197,0.10584 -0.856317,0.31697 -1.177437,0.31697 z"
       id="path3215"
       style="fill:#233865;stroke-width:1.06331" />
    <path
       class="st9"
       d="m 84.155367,115.19831 c -0.535197,0 -1.177437,0.21118 -1.498557,0.63376 -0.214094,0.21118 -0.3211,0.52812 -0.428163,0.7394 -0.107052,0.21118 -0.3211,0.42249 -0.64224,0.52812 -0.214093,0.10584 -0.535198,0 -0.74928,-0.21118 0,-0.21119 0,-0.52814 0,-0.7394 0,-0.52813 0.107052,-0.95062 0.214095,-1.37312 0.107051,-0.31698 0.214093,-0.84503 0.535197,-0.95066 0.3211,-0.10584 0.535202,-0.21119 0.856322,-0.4225 0.3211,-0.21118 0.749279,-0.10585 1.070399,-0.31698 0.3211,-0.21119 0.5352,-0.63376 0.428162,-0.95062 -1.070403,0.10584 -1.177441,0.10584 -2.140801,0.42249 -0.3211,0.10584 -1.498563,0.52813 -1.71264,0.73939 -0.428163,0.4225 -0.64224,1.05627 -1.070403,1.47879 -0.214093,0.31699 -0.428159,0.52814 -0.64224,0.845 -0.107051,0.31698 -0.214094,0.63376 -0.214094,1.16189 -0.107051,1.05629 -0.107051,2.11256 -0.428162,3.27445 0,0 0,0 0,0 -0.3211,0.63376 -0.535198,1.37316 -0.856318,2.00692 0,0 0,0 0,0 0,0 0,0 0,0 -0.963361,2.32379 -1.926721,4.6476 -3.746402,6.54889 -0.428159,0.4225 -0.856322,0.84499 -1.284481,1.05626 -0.64224,0.21118 -1.28448,0.21118 -1.92672,0.10573 -1.070399,-0.10573 -2.140803,-0.21118 -3.211202,-0.42249 0,2.42941 -0.214093,4.64757 -0.749278,6.65448 2.247841,-0.10584 4.60272,-0.21118 6.743522,-0.21118 0.963361,0 2.033759,0 2.89008,-0.52814 0.749279,-0.52812 1.177439,-1.37316 1.498559,-2.1125 0.749282,-1.69007 1.391522,-3.27446 1.92672,-4.96451 0.64224,-2.21816 0.749283,-2.64065 1.391523,-5.4926 0,-0.21119 0.428159,-1.26753 0.428159,-1.47879 0,0 0,0 0,-0.10537 0.214093,-0.52817 0.535201,-1.05631 0.749278,-1.26753 0.3211,-0.31698 0.749284,-0.63376 0.963361,-1.05629 0.214093,-0.4225 0.214093,-0.95063 0.428163,-1.47876 0.214094,-0.52817 0.749279,-0.95066 1.177437,-1.37316 0.107051,-0.10584 0.214094,-0.21118 0.214094,-0.42253 0.3211,-0.21119 0,-0.31698 -0.214094,-0.31698 z"
       id="path3221"
       style="fill:#d39d81;stroke-width:1.06331" />
    <path
       class="st9"
       d="m 50.758878,123.12032 c 0.107041,0 0.107041,0 0,0 z"
       id="path3225"
       style="fill:#d39d81;stroke-width:1.06331" />
    <polygon
       class="st3"
       points="85.8,417.2 95.4,345.9 81.5,345.9 71.9,417.4 70.4,417.2 80.2,344.4 97.1,344.4 87.2,417.4 "
       id="polygon3231"
       transform="matrix(1.0704003,0,0,1.0562708,-29.842262,-196.82409)"
       style="fill:#233865" />
    <rect
       x="50.437771"
       y="212.90331"
       class="st3"
       width="16.698244"
       height="1.5844061"
       id="rect3237"
       style="fill:#233865;stroke-width:1.06331" />
    <rect
       x="53.113762"
       y="192.93977"
       class="st3"
       width="16.698244"
       height="1.5844061"
       id="rect3243"
       style="fill:#233865;stroke-width:1.06331" />
    <rect
       x="55.575676"
       y="174.2438"
       class="st3"
       width="16.698244"
       height="1.5844061"
       id="rect3249"
       style="fill:#233865;stroke-width:1.06331" />
    <rect
       x="47.868782"
       y="231.49371"
       class="st3"
       width="16.698244"
       height="1.5844061"
       id="rect3255"
       style="fill:#233865;stroke-width:1.06331" />
    <polygon
       class="st3"
       points="98.1,345.9 84.2,345.9 93.8,414.1 92.4,414.3 82.5,344.4 99.4,344.4 109.2,414.1 107.7,414.3 "
       id="polygon3263"
       transform="matrix(1.0704003,0,0,1.0562708,-29.842262,-196.82409)"
       style="fill:#233865" />
    <rect
       x="64.352951"
       y="207.83325"
       class="st3"
       width="16.698244"
       height="1.5844061"
       id="rect3269"
       style="fill:#233865;stroke-width:1.06331" />
    <rect
       x="62.533276"
       y="188.92603"
       class="st3"
       width="16.698244"
       height="1.5844061"
       id="rect3275"
       style="fill:#233865;stroke-width:1.06331" />
    <rect
       x="60.285431"
       y="173.92694"
       class="st3"
       width="16.698244"
       height="1.5844061"
       id="rect3281"
       style="fill:#233865;stroke-width:1.06331" />
    <rect
       x="67.992325"
       y="228.74738"
       class="st3"
       width="16.698244"
       height="1.5844061"
       id="rect3287"
       style="fill:#233865;stroke-width:1.06331" />
    <path
       class="st3"
       d="m 56.646082,206.8826 c 0.107052,1.26752 0.749279,2.42942 1.819677,3.16881 0.642241,0.42254 1.391524,0.7394 2.033764,1.16189 0.535197,0.52817 0.963361,1.37316 0.535197,2.00692 h -6.957599 c -0.214094,-0.73939 -0.642239,-1.37316 -1.070403,-1.90129 -0.535197,-0.52812 -1.28448,-1.05626 -1.498557,-1.79565 -0.214094,-0.52814 0,-1.16189 0.214093,-1.79565 0.214094,-0.63377 0.428163,-1.1619 0.642241,-1.79565 0.10704,-0.2112 0.214093,-0.42254 0.3211,-0.52814 0.214093,-0.10584 0.32114,0 0.5352,0 1.177442,0.63377 2.247841,0.95063 3.425283,1.47876 z"
       id="path3295"
       style="fill:#233865;stroke-width:1.06331" />
    <path
       class="st11"
       d="m 66.386724,156.921 c 2.461921,6.23199 4.067522,12.88651 4.602719,19.64663 0.214095,2.64069 0.3211,5.28136 -0.535197,7.81642 -0.856322,2.74628 -2.783042,5.17573 -4.388642,7.60514 -3.425283,4.96447 -6.315364,10.35144 -8.349123,15.9497 -1.819682,-0.21118 -4.281599,-1.58442 -6.101282,-1.79569 1.819683,-7.07698 3.746402,-11.72458 6.743522,-16.47783 1.819682,-2.8519 3.31824,-3.90817 3.425283,-7.18261 0,-2.00693 -0.749284,-4.01384 -1.605601,-5.91513 -2.354883,-5.59823 -4.709762,-11.19646 -7.064643,-16.68909 3.853442,-0.73936 8.777282,-3.48568 11.988483,-5.59823 z"
       id="path3301"
       style="fill:#0093b7;stroke-width:1.06331" />
    <path
       class="st3"
       d="m 55.682721,169.91315 c 0.214094,-0.63377 0.856319,-1.05631 1.391519,-1.4788 2.140803,-1.26753 4.602721,-2.11255 7.064643,-2.11255 1.498562,3.16881 2.461923,6.54889 2.783042,10.03456 -2.354883,1.69006 -5.137921,3.06322 -7.920964,3.90821 -1.28448,-2.53505 -2.354879,-5.28133 -3.2112,-7.92201 -0.214095,-0.84503 -0.42816,-1.69005 -0.107052,-2.42941 z"
       id="path3309"
       style="fill:#233865;stroke-width:1.06331" />
    <path
       class="st3"
       d="m 63.282561,167.3781 c 0.535202,0.10584 1.070404,0.31697 1.605601,0.63375 1.391522,-3.38007 1.926721,-7.18265 1.6056,-10.87959 -0.3211,0 -0.535198,0 -0.856317,0 -0.107052,3.59131 -0.856322,7.07703 -2.354884,10.24584 z"
       id="path3315"
       style="fill:#233865;stroke-width:1.06331" />
    <path
       class="st7"
       d="m 62.640321,169.70187 c 0,0.4225 -0.3211,0.73941 -0.749279,0.73941 -0.428158,0 -0.749279,-0.31699 -0.749279,-0.73941 0,-0.42249 0.321101,-0.7394 0.749279,-0.7394 0.428159,0.10585 0.749279,0.42251 0.749279,0.7394 z"
       id="path3321"
       style="fill:#f96a57;stroke-width:1.06331" />
    <path
       class="st7"
       d="m 58.251682,171.07503 c 0,0.4225 -0.3211,0.7394 -0.749282,0.7394 -0.42816,0 -0.74928,-0.31698 -0.74928,-0.7394 0,-0.42252 0.3211,-0.73939 0.74928,-0.73939 0.428162,0 0.749282,0.4225 0.749282,0.73939 z"
       id="path3327"
       style="fill:#f96a57;stroke-width:1.06331" />
    <path
       class="st7"
       d="m 68.955684,157.34349 c 0.74928,-0.845 2.247841,-2.53505 2.354879,-3.59131 0.107052,-0.63376 -0.107051,-1.16189 -0.321099,-1.69002 -1.28448,-3.38008 -2.354879,-4.75324 -3.63936,-8.02768 -1.070398,-2.95755 -2.354879,-7.92201 -3.96048,-10.66833 -0.856321,-1.58439 -2.033763,-3.16882 -3.746403,-4.01381 -1.391518,-0.63376 -2.997119,-0.63376 -4.388642,-0.31697 -1.498557,0.31697 -2.783038,1.05625 -4.067518,1.90128 -3.425283,2.21819 -6.422403,5.0701 -8.456165,8.45018 5.566084,7.39389 9.419525,18.06222 12.523683,26.72366 3.746402,1.37312 9.740646,-4.43634 13.701126,-8.76709 z"
       id="path3335"
       style="fill:#f96a57;stroke-width:1.06331" />
    <path
       class="st12"
       d="m 49.046238,140.02067 c 1.284481,1.58439 1.819683,3.69695 1.819683,5.70386 0,2.00693 -0.535202,4.0138 -0.963361,6.02073 -0.96336,-1.79565 -1.92672,-3.69695 -2.783042,-5.4926 1.28448,-1.79565 2.033759,-4.01383 1.92672,-6.23199 z"
       id="path3341"
       style="fill:#c9433d;stroke-width:1.06331" />
    <path
       class="st12"
       d="m 57.18128,129.66921 c -0.535198,-0.52813 -1.391519,-0.63376 -2.140799,-0.63376 -1.498561,0 -2.997123,0.52812 -4.388642,1.37316 -1.498562,0.84503 -2.783043,2.00691 -3.746403,3.48567 -0.214093,0.42254 -0.535197,0.84503 -0.535197,1.37316 -0.107051,0.52812 0,1.05629 0.3211,1.37316 0.3211,0.42249 0.856317,0.63375 1.391519,0.7394 2.140802,0.52812 4.495682,0.42249 6.422401,-0.52814 1.926721,-1.0563 3.31824,-3.16881 3.211202,-5.28137 0.107052,-0.73939 -0.107051,-1.37316 -0.535202,-1.90128 z"
       id="path3347"
       style="fill:#c9433d;stroke-width:1.06331" />
    <path
       class="st9"
       d="m 47.119518,135.68998 c 0.214093,0.52812 0.856322,0.84498 1.391519,0.95062 1.6056,0.31698 3.425282,0.10584 4.923845,-0.63376 1.498557,-0.7394 2.675998,-2.11256 3.104158,-3.69695 0.10704,-0.52813 0.214093,-1.16189 0,-1.69002 -0.214094,-0.52817 -0.642241,-1.0563 -1.177439,-1.16193 -0.428162,-0.10538 -0.96336,0.10584 -1.391522,0.21119 -2.35488,0.95066 -4.709759,2.32378 -6.31536,4.3307 -0.32114,0.52813 -0.749283,1.0563 -0.535201,1.69006 z"
       id="path3355"
       style="fill:#d39d81;stroke-width:1.06331" />
    <path
       class="st9"
       d="m 45.727999,127.02852 c -0.107051,0.2112 0,0.42249 0,0.52814 0.749278,2.21818 1.6056,4.43633 2.354879,6.65451 2.676,-0.10572 5.137922,-1.69005 6.422402,-4.11947 -1.819682,-1.37312 -3.425282,-3.2744 -4.60272,-5.28133 -1.28448,0.63377 -2.676004,1.26753 -3.960483,1.79566 0,0.21118 -0.107052,0.31698 -0.214095,0.42249 z"
       id="path3361"
       style="fill:#d39d81;stroke-width:1.06331" />
    <path
       class="st3"
       d="m 52.685598,128.40168 c -0.96336,-1.0563 -1.819677,-2.21818 -2.568961,-3.48571 -1.28448,0.63376 -2.675999,1.26753 -3.96048,1.79565 -0.10704,0 -0.214093,0.10584 -0.214093,0.21119 1.28448,2.00693 4.067523,2.74632 6.743522,1.47879 z"
       id="path3367"
       style="fill:#233865;stroke-width:1.06331" />
    <path
       class="st9"
       d="m 51.508161,121.64156 c 0.428158,1.26753 0.856317,2.53506 1.28448,3.80258 0.107051,0.31698 0.214094,0.52813 0.107051,0.84499 -0.107051,0.21119 -0.214093,0.42253 -0.428159,0.52817 -0.96336,0.95062 -2.354882,1.58438 -3.853441,1.58438 -1.498561,0.10585 -2.890081,-0.4225 -3.960484,-1.26753 -0.96336,-0.73939 -1.498557,-1.79565 -1.92672,-2.8519 -0.428159,-0.95067 -0.749279,-2.00693 -0.535197,-2.95758 0.214093,-1.1619 1.070398,-2.21816 2.140797,-2.85192 1.070403,-0.63377 2.354883,-0.95066 3.746402,-1.0563 0.74928,0.63376 1.712639,1.26753 1.819683,2.2182 0,0.21118 0,0.52812 0.107052,0.63375 0.214094,0.31699 0.749279,0.31699 1.070399,0.52813 0.214094,0.31698 0.3211,0.63377 0.428162,0.84503 z"
       id="path3377"
       style="fill:#d39d81;stroke-width:1.06331" />
    <path
       class="st3"
       d="m 49.795517,116.25456 c -0.107051,0.21119 -0.3211,0.31698 -0.535197,0.31698 0.214094,-0.52812 0.214094,-1.05629 0.107051,-1.58443 -0.749279,0.63377 -1.712639,0.95067 -2.676,1.05631 -0.96336,0.21118 -1.926719,0.31697 -2.89008,0.73934 -0.856322,0.42254 -1.712644,1.16194 -1.712644,2.2182 -0.214093,-0.10584 -0.428158,0 -0.64224,0.10585 -0.214093,0.10584 -0.214093,0.31698 -0.3211,0.52813 -0.535197,1.47879 -0.428158,3.27444 0.3211,4.6476 0.749284,1.47876 2.033764,2.53505 3.639365,3.06318 -0.107052,-0.63376 -0.214095,-1.37316 -0.428164,-2.00692 -0.428158,-0.10585 -0.749278,-0.21118 -1.177437,-0.42249 -0.3211,-0.2112 -0.64224,-0.52817 -0.856322,-0.84503 -0.214093,-0.31699 -0.107052,-0.84503 0.107051,-1.1619 0.214093,-0.31697 0.749283,-0.42252 1.070403,-0.21118 0.107051,0.21118 0.3211,0.42249 0.428159,0.63377 0.214094,0.10584 0.535202,0.21118 0.749279,0.10584 -0.64224,-0.7394 -1.070399,-1.58443 -1.284481,-2.53505 -0.10704,-0.31697 -0.10704,-0.63376 0.107052,-0.84503 0.107051,-0.21119 0.428159,-0.21119 0.64224,-0.31698 1.070399,-0.21118 2.247841,-0.52813 3.211202,-1.05629 0.963359,-0.52814 1.819677,-1.37313 2.140797,-2.42942 z"
       id="path3383"
       style="fill:#233865;stroke-width:1.06331" />
    <path
       class="st9"
       d="m 54.291199,173.50445 c 0.107051,0.10584 0.214093,0.21119 0.3211,0.31698 0.214093,0.21118 0.32114,0.52817 0.64224,0.7394 0.214094,0.21118 0.64224,0.31698 0.963359,0.10584 -0.214093,-0.4225 -0.428158,-0.84504 -0.535197,-1.26753 z"
       id="path3393"
       style="fill:#d39d81;stroke-width:1.06331" />
    <path
       class="st7"
       d="m 57.930562,174.77198 c -0.107051,-0.52814 -0.32114,-1.05626 -0.428162,-1.58443 1.92672,-0.10537 3.960484,-0.21119 5.780161,-0.63376 0,0.21119 0.107052,0.21119 0.107052,0.42253 -1.712644,0.4225 -3.425283,1.05626 -5.459046,1.79566 z"
       id="path3399"
       style="fill:#f96a57;stroke-width:1.06331" />
    <ellipse
       class="st3"
       cx="58.358727"
       cy="173.71568"
       id="circle3405"
       style="fill:#233865;stroke-width:1.06331"
       rx="0.32112008"
       ry="0.31688124" />
    <path
       class="st11"
       d="m 57.5024,174.24384 c -1.605601,-0.21118 -3.211201,0 -4.816802,0.52814 -0.3211,0.10584 -0.749279,0.31698 -1.070399,0.21119 -0.428158,0 -0.749278,-0.42254 -0.64224,-0.7394 1.070399,-0.42253 2.247841,-0.73939 3.425282,-0.73939 1.177438,0 2.568961,0.21118 3.211201,-0.84504 0.32114,0.42253 0,0.84504 0.107052,1.0563 0.107051,0.21119 0.107051,0.52813 -0.107052,0.63376 0.107052,-0.10584 0,-0.10584 -0.107051,-0.10584 z"
       id="path3411"
       style="fill:#0093b7;stroke-width:1.06331" />
    <path
       class="st11"
       d="m 57.395361,173.92695 c -1.391519,0.73939 -3.104162,1.05629 -4.60272,1.16188 -0.428163,0 -0.749283,0 -1.177442,0.2112 -0.3211,0.21118 -0.64224,0.52812 -0.428158,0.84502 1.177437,0 2.354879,-0.10584 3.53232,-0.52813 1.177438,-0.31698 2.354879,-0.95066 3.31824,-0.31698 0.107052,-0.42249 -0.214094,-0.73939 -0.214094,-0.95062 0,-0.21119 0,-0.52817 -0.214093,-0.42254 -0.107051,-0.10584 -0.107051,0 -0.214094,0 z"
       id="path3417"
       style="fill:#0093b7;stroke-width:1.06331" />
    <path
       class="st7"
       d="m 47.547676,149.84398 c 0,-0.10584 0,-0.10584 0,-0.2112 0.3211,-1.47879 1.177442,-3.27444 1.712644,-4.6476 0.535197,-1.37316 0.428159,-3.90821 0,-5.28137 -0.428163,-1.47875 -1.819682,-2.64069 -3.318243,-2.53504 -1.0704,0.10584 -2.033761,0.73939 -2.676001,1.69005 -0.642239,0.84499 -0.963359,1.9013 -1.177441,2.95755 -0.64224,2.21814 -1.070399,4.54197 -1.28448,6.97139 2.140802,0.95062 4.49568,1.26751 6.743521,1.05625 z"
       id="path3425"
       style="fill:#f96a57;stroke-width:1.06331" />
    <path
       class="st9"
       d="m 55.468641,172.97632 c 0,-0.10584 0,-0.10584 -0.107052,-0.21119 0,0 -0.107052,-0.10584 -0.107052,-0.10584 -0.535197,-0.31698 -1.070399,-0.84498 -1.498557,-1.37315 -0.107051,-0.10537 -0.107051,-0.21119 -0.214094,-0.21119 -0.107051,-0.10584 -0.32114,-0.10584 -0.428158,-0.10584 -0.535202,-0.10584 -1.177442,-0.2112 -1.712643,-0.42249 -0.3211,-0.10584 -0.535198,-0.2112 -0.74928,-0.42254 -0.321099,-0.21119 -0.5352,-0.52813 -0.749278,-0.7394 -0.107051,-0.10584 -0.107051,-0.21119 -0.214094,-0.31698 -0.749279,-2.42942 -1.177441,-4.43633 -1.819681,-6.97139 -0.963361,-4.22507 -1.284481,-7.28828 -0.214095,-12.14711 -2.247839,0.10584 -4.602723,-0.10584 -6.850564,-1.1619 -0.321141,3.06318 -0.321141,6.23199 0.3211,9.29517 0.96336,5.17574 3.425283,9.92897 6.315364,14.25968 0.64224,1.37316 1.177441,2.74627 2.033759,4.0138 0.107051,0.10585 0.214093,0.21118 0.321099,0.31698 0.214093,0.10584 0.428163,0.10584 0.535202,0.21119 0.3211,0.10584 0.535201,0.31698 0.749278,0.31698 0.3211,0.10584 0.642241,0.10584 0.749284,-0.10584 0,0 0.10704,-0.10585 0.10704,-0.10585 0,0 0.107052,0 0.214094,0 0.214093,0 0.3211,0.10585 0.535198,0.10585 0.214094,0 0.428162,-0.10585 0.428162,-0.21118 0,-0.10585 0,-0.10585 0,-0.2112 0.107052,-0.21119 0.42816,-0.10584 0.642241,-0.10584 0.428158,0 0.535198,-0.63376 0.96336,-0.84503 0.107052,-0.10584 0.3211,-0.10584 0.428159,-0.21119 0.107052,-0.10584 0.321141,-0.21118 0.321141,-0.31697 0,-0.2112 -0.214095,-0.31698 -0.42816,-0.42249 -0.3211,-0.2112 -0.749282,-0.31699 -1.070402,-0.63377 -0.3211,-0.21119 -0.535197,-0.63376 -0.642241,-0.95067 0.3211,0.10584 0.535202,0.21119 0.856322,0.42254 h 1.284481 c 0,-0.31698 0,-0.52812 0,-0.63377 z"
       id="path3431"
       style="fill:#d39d81;stroke-width:1.06331" />
    <path
       class="st3"
       d="m 125.04466,236.35257 c -3.42528,0 -6.74352,-0.10584 -10.1688,-0.42254 -0.10707,-1.47874 -0.10707,-3.06318 0.21409,-4.54192 1.17744,-0.21119 2.35488,-0.52817 3.42528,-1.0563 -0.10706,0.84502 0.42816,1.58442 1.0704,2.11255 0.64224,0.52812 1.49856,0.63377 2.24784,0.84503 0.74928,0.21119 1.6056,0.42249 2.24784,0.95062 0.74928,0.52814 1.17744,1.37316 0.96336,2.11256 z"
       id="path3443"
       style="fill:#233865;stroke-width:1.06331" />
    <path
       class="st10"
       d="m 109.52385,176.99013 c 0.74928,0 2.89009,0 3.42529,0.31697 0.85632,0.52814 0.64223,3.90821 0.74927,4.96448 3.31825,17.00595 6.42241,31.47685 5.45905,49.22219 -1.49857,0.7394 -3.85344,0.7394 -5.45905,0.7394 -1.17743,-12.88647 -5.03087,-25.13923 -9.41952,-37.28635 -2.03375,-5.70386 -4.281599,-8.97831 -2.78303,-17.63972 2.67599,-0.10584 5.35199,-0.21118 8.02799,-0.31697 z"
       id="path3449"
       style="fill:#077f93;stroke-width:1.06331" />
    <path
       class="st3"
       d="m 100.21137,236.24694 c 0.64224,0.21118 1.28449,0.52812 1.81969,0.95062 0.5352,0.42254 0.85632,1.26752 0.5352,1.90128 -3.853442,-0.10584 -7.706883,-0.31697 -11.560325,-0.84499 -0.321099,-0.95066 -0.214092,-2.00691 0.107062,-2.95758 0.214092,-0.95063 0.749283,-1.90128 1.177444,-2.85191 1.391525,0.21118 2.890079,0.31698 4.388644,0.21118 0,0.845 0.535202,1.69003 1.284473,2.32379 0.535202,0.52813 1.391525,0.95062 2.247852,1.26753 z"
       id="path3457"
       style="fill:#233865;stroke-width:1.06331" />
    <path
       class="st11"
       d="m 96.036809,176.46199 -0.642242,5.07011 c -2.354877,6.33762 -0.963352,11.72462 -1.070392,18.48474 -0.107063,11.51336 -0.642242,21.97042 -2.997119,33.16692 1.498554,1.26753 3.853442,1.37316 6.208318,0.10584 2.997116,-9.61208 5.244956,-19.32978 7.385766,-29.15308 1.92671,-8.87268 3.31824,-17.74534 3.7464,-26.82929 -3.7464,-0.10584 -8.777289,-0.73939 -12.630731,-0.84502 z"
       id="path3463"
       style="fill:#0093b7;stroke-width:1.06331" />
    <path
       class="st12"
       d="m 116.26738,149.10458 c -1.28448,1.26752 -1.81968,1.79569 -2.35489,3.48571 -0.5352,1.58438 -0.21409,3.38008 0.10707,5.0701 0.32114,1.58439 0.85632,3.16881 1.6056,4.6476 1.92672,-0.73939 3.63936,-2.00692 5.352,-3.59134 -1.17745,-3.06318 -2.03376,-6.23199 -4.70977,-9.61207 z"
       id="path3471"
       style="fill:#c9433d;stroke-width:1.06331" />
    <path
       class="st3"
       d="m 134.57123,154.06908 c -0.21411,-0.10573 -0.42816,-0.31698 -0.5352,-0.52817 -0.21411,-0.52812 -0.10707,-1.16189 0.10706,-1.69002 0.42816,-0.7394 1.17744,-1.16189 1.92672,-1.47879 0.10707,0 0.3211,-0.10584 0.53519,-0.10584 0.96337,-0.10585 2.03377,0.10584 2.99713,0.4225 0,0.21118 -0.21409,0.42249 -0.42816,0.52812 -0.10706,0 -0.2141,0 -0.2141,0.10584 0.32111,0.10584 0.5352,0.21119 0.85632,0.31699 0,0 0.10707,0 0.10707,0.10584 0.10706,0.10584 0,0.21118 -0.10707,0.31698 -0.10706,0 -0.10706,0.10584 -0.21409,0.10584 0,0 0,0 0,0 0,0.31698 -0.3211,0.52812 -0.64224,0.52812 -0.3211,0 -0.64224,-0.10584 -0.85632,-0.10584 -0.53521,-0.10584 -1.17745,-0.10584 -1.71264,0 -0.3211,0.10584 -0.5352,0.42249 -0.5352,0.7394 0,0 0,0 0,0 0,0.10584 0,0.21118 0,0.31697 -0.10706,0.10584 -0.21409,0.21119 -0.3211,0.21119 -0.3211,0.21118 -0.64224,0.31698 -0.96336,0.21118 z"
       id="path3477"
       style="fill:#233865;stroke-width:1.06331" />
    <path
       class="st9"
       d="m 135.53458,151.85089 c 0.21409,-0.31698 0.42816,-0.7394 0.74928,-0.7394 0.3211,0 0.5352,-0.10584 0.96336,-0.10584 0.3211,-0.10584 0.74929,0.10584 1.07041,0 0.3211,-0.10584 0.64224,-0.42249 0.64224,-0.73935 -0.96336,-0.21119 -1.0704,-0.21119 -1.92673,-0.10584 -0.32109,0 -1.39152,0.10584 -1.71264,0.21119 -0.53519,0.21118 -0.85631,0.7394 -1.28447,1.05629 -0.21411,0.2112 -0.53521,0.31699 -0.74929,0.52814 -0.21409,0.21118 -0.3211,0.52812 -0.42816,1.05625 -0.3211,0.95066 -0.74928,1.90128 -1.28447,2.74632 -2.03377,2.00692 -4.70977,3.48567 -7.17169,5.0701 -0.64225,0.4225 -1.28448,0.73939 -1.81968,1.26752 0,0 0,0 0,0 -0.5352,-1.05625 -1.0704,-2.21818 -1.49856,-3.27444 -1.71264,1.58443 -3.42529,2.85195 -5.352,3.5913 1.17743,2.42947 2.78304,4.75325 5.03087,6.33763 0.21411,0.10584 0.42818,0.31698 0.74929,0.31698 0,0 0.10706,0 0.10706,0 0.10706,0.10585 0.21409,0.21118 0.42816,0.21118 0.42816,0.10585 0.85632,-0.10584 1.17744,-0.42252 4.17456,-2.64069 7.27872,-6.65449 10.27585,-10.66833 0.53519,-0.63377 1.17743,-1.37316 1.60559,-1.58439 0.42816,-0.21119 0.85632,-0.31698 1.17744,-0.63376 0.3211,-0.31698 0.42817,-0.84503 0.74929,-1.16194 0.3211,-0.42249 0.96336,-0.63376 1.39151,-0.84499 0.10706,-0.10584 0.21409,-0.21118 0.3211,-0.31698 0,-0.21119 -0.21409,-0.31697 -0.3211,-0.42249 -0.5352,-0.21119 -1.07039,-0.10584 -1.49855,0.21118 -0.21411,0.10585 -0.32111,0.31699 -0.53521,0.52814 -0.21409,0.21118 -0.42816,0.31697 -0.74928,0.31697 -0.21409,0 -0.42816,-0.21118 -0.64224,-0.42249 0.10706,-0.21119 0.10706,-0.4225 0.21409,-0.63376 -0.10706,-0.63377 0.10706,-1.05626 0.3211,-1.37316 z"
       id="path3483"
       style="fill:#d39d81;stroke-width:1.06331" />
    <path
       class="st7"
       d="m 104.8141,147.30892 c -1.28449,0 -2.78304,0 -3.85345,0.84504 -0.963359,0.73939 -1.28448,1.90128 -1.712641,2.95753 -2.997119,9.40081 -4.709754,18.90725 -4.495673,28.73059 6.743524,-0.63376 12.951834,-0.7394 19.695364,-0.7394 -0.53521,-5.49259 -1.17744,-9.92893 0.2141,-15.31593 0.53519,-2.21815 1.49855,-4.11943 2.14079,-6.23199 0.64225,-2.11256 1.07041,-5.17574 -0.64224,-8.45018 -4.17456,-1.26753 -7.06464,-1.69002 -11.34624,-1.79566 z"
       id="path3489"
       style="fill:#f96a57;stroke-width:1.06331" />
    <path
       class="st12"
       d="m 113.59137,152.80156 c 0.5352,-0.42254 0.96337,-1.0563 1.17745,-1.69007 0.21409,-0.63376 0.10706,-1.47874 -0.42817,-2.00691 -0.32114,-0.4225 -0.96336,-0.63376 -1.49855,-0.84499 -1.28448,-0.42254 -2.56897,-0.7394 -3.96048,-0.84503 -0.96336,-0.10584 -2.03377,-0.21119 -2.89009,0.21118 -0.21409,0.10584 -0.53519,0.31699 -0.64223,0.52814 -0.10706,0.21118 0,0.42249 0,0.63376 0.3211,1.47879 0.96335,2.85191 2.03375,3.90821 0.85633,0.73939 1.92673,1.16188 2.99712,1.16188 1.28449,0 2.35489,-0.42249 3.2112,-1.05625 z"
       id="path3495"
       style="fill:#c9433d;stroke-width:1.06331" />
    <path
       class="st12"
       d="m 103.10145,151.53403 c 1.92673,2.11252 2.35489,5.07011 2.14081,7.92201 -0.21409,2.85195 -1.07041,5.4926 -1.49857,8.34455 -0.5352,3.59131 -0.3211,7.39388 0.5352,10.87959 -1.17744,0 -2.24783,0 -3.42528,0.10584 h -5.459043 c -0.53519,-6.76015 0.749283,-13.62591 2.568969,-20.17479 0.856323,-2.85192 2.890074,-5.38697 5.137914,-7.07699 z"
       id="path3501"
       style="fill:#c9433d;stroke-width:1.06331" />
    <path
       class="st9"
       d="m 113.05617,148.78771 c -0.10706,-1.37315 0.42817,-4.85883 0.32111,-6.23199 l -5.13793,1.90129 c -0.42816,1.05626 -0.74928,2.21814 -1.0704,3.27445 -0.5352,0 -0.5352,0.21119 -1.07039,0.31698 0.10706,1.69002 0.96336,3.38008 2.35488,4.22507 1.39152,0.95066 3.42528,0.95066 4.8168,-0.10584 0.64224,-0.52817 1.17744,-1.37316 0.96335,-2.21819 -0.21409,-0.52813 -0.64223,-0.84503 -1.17743,-1.16189 z"
       id="path3509"
       style="fill:#d39d81;stroke-width:1.06331" />
    <path
       class="st3"
       d="m 112.62802,142.87259 -4.49568,1.58442 c -0.3211,0.845 -0.53521,1.69002 -0.85633,2.42942 3.2112,0.21118 4.92385,-1.58442 5.35201,-4.01384 z"
       id="path3515"
       style="fill:#233865;stroke-width:1.06331" />
    <path
       class="st9"
       d="m 109.73794,135.05621 c -0.74928,0 -1.71264,0 -2.14081,0.63377 -0.32109,0.52812 -0.10706,1.16188 -0.21409,1.79565 -0.10706,0.42249 -0.42816,0.73939 -0.74928,1.16188 -0.64224,0.84503 -0.74928,2.00693 -0.74928,2.95755 0.10706,1.0563 0.3211,2.00693 0.64224,3.06318 0.10706,0.42254 0.21409,0.84503 0.5352,1.05629 0.42816,0.31699 0.96336,0.4225 1.39152,0.31699 1.39152,-0.10584 3.10417,-0.52813 4.17456,-1.47876 0.96336,-0.84503 1.28448,-2.11255 2.03376,-3.16881 0.64224,-1.05629 1.28448,-2.21819 0.96336,-3.38007 -0.2141,-1.1619 -1.28448,-2.00693 -2.35488,-2.42942 -1.07039,-0.31699 -2.35488,-0.42254 -3.53232,-0.52813 z"
       id="path3523"
       style="fill:#d39d81;stroke-width:1.06331" />
    <path
       class="st3"
       d="m 108.0253,133.78868 c 0.21409,0.10538 0.42816,0.21119 0.64224,0.31698 -0.5352,0 -0.96337,0.31699 -1.28449,0.73941 -0.32109,0.42249 -0.32109,0.95062 -0.21409,1.47879 0.10706,-0.21119 0.42816,-0.42254 0.64224,-0.52817 0.42817,0.95066 1.39152,1.69005 2.56896,1.79569 -0.10706,-0.21119 0,-0.31698 0.10706,-0.42254 0.10707,0.21119 0.3211,0.42254 0.64225,0.52813 0.21409,0.10584 0.5352,0.10584 0.74928,0.21119 0.42815,0.21118 0.64224,0.63376 0.74927,1.05626 0.10706,0.42254 -0.10706,1.47879 -0.10706,1.90128 0.64224,-0.10537 0.74927,-0.95062 1.07039,-0.84499 0.3211,0.10584 0.3211,0.21119 0.42816,0.52813 0.10706,0.31699 0,0.63377 0,0.95063 0,0.31698 -0.10706,0.73939 -0.21409,1.0563 -0.21409,0.31697 -0.5352,0.52812 -0.85632,0.42249 -0.2141,0.52813 -0.2141,1.26753 0.10706,1.79565 1.0704,-0.52812 2.03376,-1.16189 2.89008,-1.90128 -0.10706,0 -0.21409,-0.10585 -0.3211,-0.10585 1.49855,-1.37311 2.03375,-3.5913 1.39152,-5.49259 0.10707,-0.84503 -0.5352,-1.69002 -1.28448,-2.21815 -0.74928,-0.52817 -1.60561,-0.84503 -2.35489,-1.37315 0,0.21118 -0.10706,0.31697 -0.10706,0.52812 -1.81969,-0.63377 -3.63936,-0.7394 -5.24497,-0.42249 z"
       id="path3529"
       style="fill:#233865;stroke-width:1.06331" />
    <path
       class="st3"
       d="m 103.10145,223.99418 c -2.78304,0 -5.566076,-1.16189 -7.171681,-3.38003 -0.321099,-0.42254 -0.642242,-0.95067 -0.856323,-1.37316 -2.033756,-1.79566 -3.532321,-4.22512 -4.495673,-7.2883 -1.926724,-6.12636 -0.963364,-13.09774 2.461917,-18.59034 0.963364,-1.58442 2.033756,-2.64068 3.10416,-3.38007 0.214103,-0.4225 0.535201,-0.7394 0.856323,-1.1619 0.428161,-0.52812 0.856322,-0.95066 1.391524,-1.26752 0.535191,-1.16189 1.391514,-2.32383 2.676003,-2.74632 l 0.32109,1.05626 c 0.32115,-0.10585 0.64225,-0.21118 1.07041,-0.21118 1.0704,-0.63377 2.14079,-0.84504 3.10416,-0.2112 0.5352,0.31698 0.96336,0.7394 1.39151,1.26753 l 0.64224,-0.31698 c 0.42816,0.73936 0.64224,1.47875 0.85633,2.21815 0.5352,0.52813 1.0704,1.05625 1.6056,1.69002 2.56896,3.16881 4.28159,6.86579 4.92383,10.87959 0,0.21119 0.10707,0.31699 0.10707,0.52813 1.28447,4.11947 1.39151,7.71079 0.42815,10.77397 -0.53519,1.69005 -1.49856,3.16881 -2.676,4.43634 -1.17743,2.64067 -3.2112,4.85886 -5.56608,6.02076 -1.28448,0.7394 -2.78303,1.05625 -4.17456,1.05625 z m -3.318239,-2.21815 c 2.033769,0.95063 4.709769,0.95063 6.850559,-0.10584 1.0704,-0.52812 2.14081,-1.37316 2.99713,-2.32378 -0.10706,0 -0.21409,0.10537 -0.3211,0.10537 -2.78305,2.11256 -6.31537,2.95758 -9.526567,2.32382 z m -3.31824,-3.38007 c 0.963363,0.73939 2.033767,1.37315 3.104159,1.69002 1.81969,0.52817 3.85344,0.42252 5.78017,-0.21119 -0.42816,-0.10585 -0.85632,-0.10585 -1.28449,-0.31698 -0.5352,0.21118 -1.0704,0.42252 -1.6056,0.42252 -1.71264,0.10538 -3.532322,-0.52816 -4.923836,-1.90128 -0.749282,-0.73939 -1.284484,-1.47879 -1.712645,-2.32382 0.107062,0.95066 0.321109,1.79565 0.642242,2.64068 z m -0.535202,-6.5489 c 0.107063,0.42254 0.321099,0.95066 0.535202,1.37316 0.428161,1.16189 1.177444,2.64068 2.247847,3.69695 0.856312,0.84502 1.819672,1.26751 2.783042,1.47879 -1.498569,-0.95063 -2.783042,-2.21815 -3.746405,-3.80258 -0.749282,-1.1619 -1.284484,-2.42941 -1.605605,-3.9082 -0.107063,0.31697 -0.214092,0.73939 -0.214092,1.16188 z m 9.954731,6.44326 c 0.42815,0 0.96335,0 1.39151,0 0.42816,0 0.85633,-0.10585 1.28449,-0.31698 0.21409,-0.21119 0.42816,-0.42254 0.64224,-0.63377 1.39151,-1.37316 2.56896,-3.16881 3.31824,-5.28136 0.3211,-2.95755 -0.21409,-6.12636 -1.60561,-9.92894 -0.32109,-1.05629 -0.74928,-2.42941 -1.17743,-3.9082 -0.42816,-1.37317 -0.85632,-2.95754 -1.28448,-4.43634 0,0.31698 0,0.63376 -0.10707,0.95063 -0.21409,2.21819 -0.32109,4.2251 0.10707,6.02076 0.96336,3.48567 1.60559,8.76704 -0.42816,13.83713 -0.42817,1.69002 -1.28449,2.85196 -2.1408,3.69695 z m -8.991368,-14.15401 c 0,4.11944 0.749283,7.18262 2.140807,9.61203 1.070391,1.69007 2.783041,3.38009 4.816791,4.11949 1.60561,-0.95066 2.56897,-2.95755 2.78304,-3.59132 1.92673,-4.6476 1.28449,-9.61206 0.42816,-12.8865 -0.5352,-2.00693 -0.3211,-4.33071 -0.21409,-6.5489 0.10706,-1.58439 0.21409,-3.06318 0.10706,-4.43634 -0.3211,-0.31698 -0.64224,-0.7394 -0.96336,-1.05626 -0.3211,-0.42249 -0.64224,-0.73939 -1.0704,-0.95065 -0.85631,-0.42251 -1.71264,-0.63377 -2.676,-0.63377 -0.42816,0.31698 -0.85632,0.7394 -1.28447,1.05629 -0.42817,0.31699 -0.85633,0.7394 -1.284488,1.05627 -1.284485,4.33069 -2.140796,9.4008 -2.783039,14.25966 z m -2.783038,-9.2952 c -2.89009,5.0701 -3.639361,11.1965 -1.926726,16.79472 0.535201,1.58439 1.177444,3.06318 2.033766,4.3307 -0.107062,-1.26752 -0.107062,-2.53505 0,-3.90821 -1.712645,-5.59822 -1.819686,-11.72458 -0.107062,-17.21721 z m 2.783038,-2.85192 c -0.321099,0.52813 -0.535202,1.1619 -0.749282,1.79566 -1.605595,4.3307 -2.033756,9.08395 -1.284473,13.7315 0.107062,-1.16188 0.321098,-2.32377 0.42815,-3.48567 0,-0.10584 0,-0.21119 0,-0.31697 0,-3.90821 0.535202,-7.92201 1.605605,-11.72459 z m 13.915198,3.59131 c 0.2141,0.84503 0.42817,1.58443 0.64225,2.32379 0.42816,1.47879 0.74928,2.74632 1.0704,3.80257 0.53519,1.4788 0.96336,2.85196 1.17743,4.11947 0,-1.37316 -0.10706,-2.85195 -0.3211,-4.22506 -0.64224,-2.00693 -1.49855,-4.01384 -2.56895,-6.02077 z"
       id="path3539"
       style="fill:#233865;stroke-width:1.06331" />
    <path
       class="st7"
       d="m 102.35218,160.40671 c 0.21409,-0.95067 0.5352,-2.00692 0.96335,-2.95759 0.64224,-1.69002 1.28449,-3.27445 1.60561,-4.96446 0.3211,-1.69002 -0.2141,-3.80258 -1.39153,-5.17574 l -1.60559,0.21119 c -1.49857,0.21118 -2.783051,1.26753 -3.639363,2.42942 -0.856323,1.26753 -1.284484,2.64067 -1.712646,4.11948 -0.428161,1.69002 -0.749282,3.27439 -0.963363,4.96446 2.140807,1.05625 4.495682,1.58439 6.743532,1.37316 z"
       id="path3545"
       style="fill:#f96a57;stroke-width:1.06331" />
    <path
       class="st9"
       d="m 107.49009,187.97535 c 0.2141,0.31699 0.3211,0.63377 0.53521,0.84503 0.21409,0.21119 0.64224,0.4225 0.85632,0.31699 -0.2141,-0.52814 -0.42816,-1.1619 -0.42816,-1.79565 0,-0.10584 0,-0.10584 0,-0.2112 0,-0.10537 -0.10707,-0.10537 -0.10707,-0.10537 -0.5352,-0.42254 -0.96335,-0.95066 -1.28447,-1.58442 0,-0.10584 -0.10706,-0.21119 -0.21409,-0.21119 -0.10706,-0.10585 -0.32111,-0.21118 -0.42816,-0.21118 -0.5352,-0.2112 -1.07041,-0.42254 -1.60561,-0.63377 -0.21409,-0.10584 -0.42816,-0.21119 -0.64224,-0.42254 -3.2112,-7.28824 -3.85344,-15.73842 -1.81967,-23.4492 -2.354892,0.21118 -4.602728,-0.31699 -6.743524,-1.26753 -1.070404,8.45018 -0.107063,16.47782 3.746401,24.1886 0.107063,0.21119 0.535191,0.95067 0.856313,1.4788 0.42816,1.69002 0.85632,3.38008 1.6056,4.85883 0.10707,0.10585 0.10707,0.31698 0.2141,0.31698 0.10706,0.10584 0.32109,0.21119 0.5352,0.31699 0.21409,0.10584 0.42816,0.31697 0.74928,0.52812 0.21409,0.10584 0.64223,0.21119 0.85631,0 0,0 0.10706,-0.10584 0.10706,-0.10584 0.10707,0 0.10707,0 0.2141,0 0.21409,0.10584 0.3211,0.10584 0.5352,0.21119 0.21409,0 0.42816,0 0.42816,-0.21119 0,-0.10584 0,-0.10584 0.10706,-0.21118 0.10707,-0.2112 0.21411,-0.10585 0.32111,-0.10585 0.10707,0.10585 0.64223,0.2112 1.07039,0.10585 0.10707,-0.10585 -0.64224,-1.4788 -0.85631,-1.79567 -0.32114,-0.31697 -1.6056,-0.84502 0.3211,-1.69005 0.42816,0.21119 0.85631,0.52817 1.07039,0.84503 z"
       id="path3551"
       style="fill:#d39d81;stroke-width:1.06331" />
    <ellipse
       class="st7"
       cx="87.152473"
       cy="116.57145"
       id="circle3563"
       style="fill:#f96a57;stroke-width:1.06331"
       rx="4.174561"
       ry="4.1194563" />
    <rect
       x="85.439842"
       y="110.76196"
       class="st7"
       width="3.3182409"
       height="3.5913208"
       id="rect3569"
       style="fill:#f96a57;stroke-width:1.06331" />
    <rect
       x="84.904633"
       y="107.69872"
       class="st3"
       width="4.3886414"
       height="3.5913208"
       id="rect3575"
       style="fill:#233865;stroke-width:1.06331" />
    <rect
       x="47.654713"
       y="107.17063"
       class="st11"
       width="109.18082"
       height="1.0562707"
       id="rect3583"
       style="fill:#0093b7;stroke-width:1.06331" />
  </g>
</svg>
